<!-- Generated by IcoMoon.io -->
<svg version="1.1" xmlns="http://www.w3.org/2000/svg" width="32" height="32" viewBox="0 0 32 32">
<path d="M6.668 5.332c-0.001 0-0.002 0-0.003 0-0.736 0-1.333 0.597-1.333 1.332 0 0.001 0 0.002 0 0.003v-0 18.665c0 0.001 0 0.002 0 0.003 0 0.736 0.597 1.332 1.332 1.332 0.001 0 0.002 0 0.003 0h18.665c0.001 0 0.002 0 0.003 0 0.736 0 1.332-0.597 1.332-1.332 0-0.001 0-0.002 0-0.003v0-18.665c0-0.001 0-0.002 0-0.003 0-0.736-0.597-1.333-1.332-1.333-0.001 0-0.002 0-0.003 0h-18.665zM3.838 3.84c0.724-0.723 1.723-1.17 2.827-1.17 0.001 0 0.002 0 0.003 0h18.665c2.209 0 4 1.791 4 4v0 18.665c0 2.209-1.791 4-4 4v0h-18.665c-2.209 0-4-1.791-4-4v0-18.668c0-1.061 0.421-2.080 1.17-2.83zM16.267 10.492c0.736 0 1.332 0.597 1.332 1.332v3.111h3.111c0.737 0 1.334 0.597 1.334 1.334s-0.597 1.334-1.334 1.334v0h-3.111v3.111c0 0.737-0.597 1.334-1.334 1.334s-1.334-0.597-1.334-1.334v0-3.113h-3.108c-0.737 0-1.334-0.597-1.334-1.334s0.597-1.334 1.334-1.334v0h3.108v-3.108c0-0.738 0.599-1.335 1.335-1.335z"></path>
</svg>
