<!-- Generated by IcoMoon.io -->
<svg version="1.1" xmlns="http://www.w3.org/2000/svg" width="32" height="32" viewBox="0 0 32 32">
<path d="M16 2.286c-7.574 0-13.714 6.14-13.714 13.714s6.14 13.714 13.714 13.714v0c7.574 0 13.714-6.14 13.714-13.714s-6.14-13.714-13.714-13.714v0zM17.372 11.063v3.566h3.566c0.758 0 1.372 0.614 1.372 1.372s-0.614 1.372-1.372 1.372h-3.566v3.566c0 0.758-0.614 1.372-1.372 1.372s-1.372-0.614-1.372-1.372v0-3.566h-3.566c-0.758 0-1.372-0.614-1.372-1.372s0.614-1.372 1.372-1.372h3.566v-3.566c0-0.758 0.614-1.372 1.372-1.372s1.372 0.614 1.372 1.372v0z"></path>
</svg>
