<!-- Generated by IcoMoon.io -->
<svg version="1.1" xmlns="http://www.w3.org/2000/svg" width="32" height="32" viewBox="0 0 32 32">
<path d="M6.668 2.667c-2.209 0-4 1.791-4 4v0 18.665c0 2.209 1.791 4 4 4v0h18.665c2.209 0 4-1.791 4-4v0-18.665c0-2.209-1.791-4-4-4v0h-18.665zM17.6 11.822v3.111h3.111c0.737 0 1.334 0.597 1.334 1.334s-0.597 1.334-1.334 1.334v0h-3.111v3.111c0 0.737-0.597 1.334-1.334 1.334s-1.334-0.597-1.334-1.334v0-3.111h-3.108c-0.737 0-1.334-0.597-1.334-1.334s0.597-1.334 1.334-1.334v0h3.108v-3.108c0-0.737 0.597-1.334 1.334-1.334s1.334 0.597 1.334 1.334v0z"></path>
</svg>
