<!-- Generated by IcoMoon.io -->
<svg version="1.1" xmlns="http://www.w3.org/2000/svg" width="32" height="32" viewBox="0 0 32 32">
<path d="M1.337 16c0-8.098 6.565-14.663 14.663-14.663s14.663 6.565 14.663 14.663v0c0 8.098-6.565 14.663-14.663 14.663s-14.663-6.565-14.663-14.663v0zM16 4.27c-6.478 0-11.73 5.252-11.73 11.73s5.252 11.73 11.73 11.73v0c6.478 0 11.73-5.252 11.73-11.73s-5.252-11.73-11.73-11.73v0zM16 9.255c0.809 0 1.465 0.656 1.465 1.467v3.813h3.815c0.773 0.047 1.382 0.685 1.382 1.465s-0.609 1.418-1.378 1.465l-0.004 0h-3.813v3.815c0 0.81-0.657 1.468-1.468 1.468s-1.467-0.657-1.467-1.468v0-3.813h-3.808c-0.81 0-1.467-0.657-1.467-1.468s0.657-1.467 1.467-1.467h3.813v-3.808c0-0.812 0.656-1.467 1.465-1.467z"></path>
</svg>
