<!-- Generated by IcoMoon.io -->
<svg version="1.1" xmlns="http://www.w3.org/2000/svg" width="32" height="32" viewBox="0 0 32 32">
<path d="M22.032 3.278c0-0.006 0-0.013 0-0.021 0-0.53-0.425-0.961-0.952-0.971h-0.001c-0.529 0.010-0.953 0.441-0.953 0.971 0 0.007 0 0.015 0 0.022l-0-0.001v1.979h-8.251v-1.982c0-0.005 0-0.012 0-0.018 0-0.531-0.426-0.963-0.955-0.971h-0.001c-0.529 0.010-0.953 0.441-0.953 0.971 0 0.007 0 0.015 0 0.022l-0-0.001v1.979h-0.318c-2.802 0.002-5.077 2.37-5.077 5.289v13.881c0 2.919 2.274 5.287 5.079 5.287h12.699c2.805 0 5.079-2.368 5.079-5.287v-13.881c0-2.919-2.274-5.287-5.079-5.287h-0.32v-1.982zM10.921 11.538h5.079c0.526 0 0.953 0.443 0.953 0.992s-0.427 0.992-0.953 0.992h-5.079c-0.529-0.010-0.953-0.441-0.953-0.971 0-0.007 0-0.014 0-0.022l-0 0.001c0-0.548 0.428-0.992 0.953-0.992zM9.966 17.817c0-0.548 0.428-0.992 0.953-0.992h10.158c0.526 0 0.953 0.446 0.953 0.992 0 0.548-0.427 0.992-0.953 0.992h-10.155c-0.529-0.010-0.953-0.441-0.953-0.971 0-0.007 0-0.014 0-0.022l-0 0.001zM10.919 22.114h10.158c0.526 0 0.953 0.443 0.953 0.99 0 0.548-0.427 0.992-0.953 0.992h-10.155c-0.529-0.010-0.953-0.441-0.953-0.971 0-0.007 0-0.014 0-0.022l-0 0.001c0-0.548 0.428-0.99 0.953-0.99z"></path>
</svg>
