<!-- Generated by IcoMoon.io -->
<svg version="1.1" xmlns="http://www.w3.org/2000/svg" width="32" height="32" viewBox="0 0 32 32">
<path d="M11.428 2.286c0 0 0 0 0 0 0.631 0 1.143 0.512 1.143 1.143v0 0.743h6.857v-0.743c0-0.631 0.512-1.143 1.143-1.143s1.143 0.512 1.143 1.143v0 0.743h1.143c1.417 0 2.617 0.489 3.442 1.458 0.8 0.942 1.129 2.194 1.129 3.513v16c0 1.319-0.332 2.519-1.191 3.381-0.862 0.859-2.062 1.191-3.381 1.191h-13.714c-1.319 0-2.519-0.332-3.381-1.191-0.859-0.862-1.191-2.062-1.191-3.381v-16c0-1.319 0.329-2.572 1.129-3.513 0.825-0.969 2.025-1.458 3.442-1.458h1.143v-0.743c0-0.631 0.512-1.143 1.143-1.143v0zM10.286 6.457h-1.143c-0.868 0-1.383 0.281-1.701 0.656-0.343 0.4-0.585 1.063-0.585 2.030v16c0 0.967 0.24 1.481 0.523 1.762 0.281 0.283 0.795 0.523 1.762 0.523h13.714c0.967 0 1.481-0.24 1.762-0.523 0.283-0.281 0.523-0.795 0.523-1.762v-16c0-0.967-0.242-1.63-0.585-2.030-0.318-0.375-0.832-0.656-1.701-0.656h-1.143v0.743c0 0.631-0.512 1.143-1.143 1.143s-1.143-0.512-1.143-1.143v0-0.743h-6.857v0.743c0 0.631-0.512 1.143-1.143 1.143s-1.143-0.512-1.143-1.143v0-0.743zM10.286 12.228c0-0.631 0.512-1.143 1.143-1.143v0h4.572c0.631 0 1.143 0.512 1.143 1.143s-0.512 1.143-1.143 1.143h-4.572c-0.631 0-1.143-0.512-1.143-1.143 0-0 0-0 0-0v0zM10.286 17.257c0-0.631 0.512-1.143 1.143-1.143v0h9.143c0.631 0 1.143 0.512 1.143 1.143s-0.512 1.143-1.143 1.143h-9.143c-0.631 0-1.143-0.512-1.143-1.143v0zM10.286 22.286c0-0.631 0.512-1.143 1.143-1.143v0h9.143c0.631 0 1.143 0.512 1.143 1.143s-0.512 1.143-1.143 1.143v0h-9.143c-0.631 0-1.143-0.512-1.143-1.143v0z"></path>
</svg>
