<!-- Generated by IcoMoon.io -->
<svg version="1.1" xmlns="http://www.w3.org/2000/svg" width="32" height="32" viewBox="0 0 32 32">
<path d="M6.492 12.263c0.056 0.226 0.258 0.391 0.497 0.391 0.002 0 0.004 0 0.006-0h-0c0.002 0 0.004 0 0.005 0 0.24 0 0.441-0.165 0.497-0.387l0.001-0.004 0.366-1.454c0.374-1.452 1.496-2.573 2.921-2.94l0.028-0.006 1.451-0.366c0.226-0.056 0.391-0.258 0.391-0.497 0-0.002 0-0.004-0-0.006v0c0-0.002 0-0.004 0-0.005 0-0.24-0.165-0.441-0.387-0.497l-0.004-0.001-1.451-0.366c-1.453-0.374-2.575-1.496-2.943-2.92l-0.006-0.028-0.366-1.452c-0.056-0.227-0.257-0.393-0.498-0.393-0.002 0-0.003 0-0.005 0h0c-0.001 0-0.003-0-0.005-0-0.241 0-0.442 0.166-0.497 0.39l-0.001 0.004-0.366 1.452c-0.374 1.453-1.495 2.575-2.92 2.942l-0.028 0.006-1.452 0.366c-0.227 0.056-0.393 0.257-0.393 0.498 0 0.002 0 0.003 0 0.005v-0c0 0.24 0.16 0.443 0.393 0.503l1.452 0.366c1.452 0.366 2.581 1.495 2.948 2.949l0.366 1.451zM16.828 29.991c0.096 0.39 0.443 0.674 0.856 0.674 0.004 0 0.008-0 0.011-0h-0.001c0.003 0 0.006 0 0.009 0 0.413 0 0.76-0.284 0.856-0.668l0.001-0.006 0.859-3.41c0.909-3.528 3.633-6.252 7.093-7.146l0.069-0.015 3.41-0.862c0.391-0.096 0.677-0.444 0.677-0.858 0-0.002 0-0.004-0-0.006v0c0-0.002 0-0.005 0-0.008 0-0.414-0.286-0.762-0.671-0.857l-0.006-0.001-3.41-0.862c-3.528-0.909-6.252-3.633-7.146-7.092l-0.015-0.068-0.859-3.41c-0.096-0.39-0.443-0.674-0.856-0.674-0.005 0-0.009 0-0.013 0h0.001c-0.003-0-0.005-0-0.008-0-0.413 0-0.76 0.285-0.854 0.668l-0.001 0.006-0.859 3.41c-0.91 3.529-3.634 6.252-7.095 7.146l-0.068 0.015-3.41 0.862c-0.39 0.096-0.674 0.443-0.674 0.856 0 0.004 0 0.007 0 0.011v-0.001c0 0.416 0.272 0.763 0.674 0.864l3.41 0.862c3.529 0.908 6.254 3.632 7.148 7.093l0.015 0.068 0.859 3.41z"></path>
</svg>
