<!-- Generated by IcoMoon.io -->
<svg version="1.1" xmlns="http://www.w3.org/2000/svg" width="32" height="32" viewBox="0 0 32 32">
<path d="M15.968 26.581c-0.909-3.529-3.634-6.253-7.095-7.146l-0.068-0.015-3.41-0.862c-0.39-0.096-0.674-0.443-0.674-0.856 0-0.003 0-0.006 0-0.009v0c0-0.416 0.27-0.763 0.674-0.866l3.41-0.859c3.53-0.909 6.255-3.634 7.148-7.095l0.015-0.069 0.859-3.41c0.096-0.39 0.443-0.674 0.856-0.674 0.004 0 0.007 0 0.011 0h-0.001c0.416 0 0.763 0.272 0.866 0.674l0.859 3.41c0.908 3.529 3.632 6.254 7.093 7.148l0.068 0.015 3.41 0.859c0.391 0.096 0.677 0.444 0.677 0.858 0 0.003 0 0.006-0 0.009v-0c0 0.002 0 0.004 0 0.006 0 0.414-0.286 0.762-0.671 0.857l-0.006 0.001-3.41 0.862c-3.528 0.909-6.252 3.633-7.146 7.093l-0.015 0.069-0.859 3.41c-0.097 0.39-0.444 0.674-0.857 0.674-0.004 0-0.008-0-0.012-0h0.001c-0.003 0-0.006 0-0.009 0-0.413 0-0.759-0.284-0.854-0.668l-0.001-0.006-0.859-3.41zM23.557 17.694c-2.575-1.257-4.608-3.289-5.832-5.789l-0.033-0.074c-1.257 2.573-3.288 4.604-5.787 5.828l-0.074 0.033c2.574 1.257 4.606 3.289 5.83 5.789l0.033 0.074c1.257-2.574 3.289-4.606 5.789-5.83l0.074-0.033zM6.492 12.263c0.056 0.226 0.258 0.391 0.497 0.391 0.002 0 0.004 0 0.006-0h-0c0.002 0 0.004 0 0.005 0 0.24 0 0.441-0.165 0.497-0.387l0.001-0.004 0.366-1.451c0.097-0.372 0.23-0.697 0.399-0.999l-0.011 0.021c0.464-0.827 1.185-1.463 2.053-1.808l0.027-0.010c0.128-0.052 0.288-0.104 0.452-0.147l0.028-0.006 1.451-0.366c0.226-0.056 0.391-0.258 0.391-0.497 0-0.002 0-0.004-0-0.006v0c0-0.002 0-0.004 0-0.005 0-0.24-0.165-0.441-0.387-0.497l-0.004-0.001-1.451-0.366c-0.193-0.050-0.352-0.102-0.507-0.163l0.029 0.010c-1.067-0.422-1.895-1.251-2.308-2.29l-0.010-0.027c-0.052-0.128-0.104-0.288-0.147-0.452l-0.006-0.028-0.366-1.447c-0.056-0.227-0.257-0.393-0.498-0.393-0.002 0-0.003 0-0.005 0h0c-0.001 0-0.003-0-0.005-0-0.241 0-0.442 0.166-0.497 0.39l-0.001 0.004-0.366 1.451c-0.049 0.192-0.101 0.351-0.163 0.505l0.010-0.027c-0.422 1.067-1.251 1.895-2.29 2.308l-0.027 0.010c-0.127 0.051-0.286 0.103-0.45 0.144l-0.028 0.006-1.452 0.366c-0.227 0.056-0.393 0.257-0.393 0.498 0 0.002 0 0.003 0 0.005v-0c0 0.242 0.16 0.446 0.393 0.503l1.452 0.368c0.192 0.050 0.352 0.102 0.506 0.163l-0.029-0.010c1.221 0.483 2.137 1.506 2.462 2.767l0.006 0.028 0.366 1.451z"></path>
</svg>
