<!-- Generated by IcoMoon.io -->
<svg version="1.1" xmlns="http://www.w3.org/2000/svg" width="32" height="32" viewBox="0 0 32 32">
<path d="M10.256 4.119c0.32-0.159 0.537-0.485 0.537-0.86 0-0.529-0.429-0.958-0.958-0.958-0.125 0-0.244 0.024-0.353 0.067l0.006-0.002c-2.913 1.299-5.303 3.327-7.003 5.857l-0.037 0.059c-0.078 0.135-0.123 0.297-0.123 0.47 0 0.529 0.429 0.958 0.958 0.958 0.306 0 0.579-0.144 0.755-0.368l0.002-0.002c1.534-2.285 3.645-4.075 6.126-5.184l0.091-0.037zM22.512 2.366c-0.103-0.041-0.222-0.065-0.347-0.065-0.529 0-0.958 0.429-0.958 0.958 0 0.376 0.216 0.701 0.531 0.858l0.006 0.003c2.573 1.146 4.683 2.936 6.184 5.169l0.033 0.052c0.177 0.234 0.454 0.383 0.766 0.383 0.529 0 0.958-0.429 0.958-0.958 0-0.178-0.049-0.345-0.133-0.488l0.002 0.004c-1.738-2.589-4.128-4.617-6.939-5.874l-0.104-0.041zM25.504 24.8c1.63-2.046 2.616-4.668 2.616-7.521 0-6.693-5.426-12.119-12.119-12.119s-12.119 5.426-12.119 12.119c0 2.853 0.986 5.475 2.635 7.545l-0.019-0.025-2.723 3.355c-0.114 0.155-0.182 0.35-0.182 0.561 0 0.529 0.429 0.958 0.958 0.958 0.281 0 0.534-0.121 0.709-0.313l0.001-0.001 2.551-3.148c2.142 1.973 5.014 3.182 8.168 3.182 0.007 0 0.014 0 0.020-0h-0.001c3.154 0 6.030-1.205 8.188-3.182l2.551 3.148c0.176 0.242 0.458 0.397 0.776 0.397 0.529 0 0.958-0.429 0.958-0.958 0-0.248-0.094-0.474-0.249-0.644l0.001 0.001-2.72-3.357zM16 9.938c0.528 0 0.958 0.428 0.958 0.957v5.865l3.401 2.267c0.269 0.173 0.445 0.47 0.445 0.809 0 0.529-0.429 0.958-0.958 0.958-0.206 0-0.397-0.065-0.553-0.176l0.003 0.002-3.826-2.551c-0.259-0.174-0.427-0.465-0.428-0.796v-6.377c0-0.53 0.43-0.96 0.958-0.96z"></path>
</svg>
