<!-- Generated by IcoMoon.io -->
<svg version="1.1" xmlns="http://www.w3.org/2000/svg" width="32" height="32" viewBox="0 0 32 32">
<path d="M11.328 3.108c0.072 0.162 0.115 0.35 0.115 0.549 0 0.559-0.335 1.040-0.815 1.254l-0.009 0.003c-2.408 1.073-4.383 2.75-5.789 4.841l-0.031 0.048c-0.249 0.372-0.668 0.613-1.143 0.613-0.758 0-1.372-0.614-1.372-1.372 0-0.283 0.086-0.546 0.232-0.764l-0.003 0.005c1.729-2.576 4.108-4.594 6.905-5.844l0.103-0.041c0.162-0.072 0.35-0.115 0.549-0.115 0.559 0 1.040 0.334 1.254 0.814l0.003 0.009zM20.672 3.108c0.217-0.489 0.698-0.823 1.257-0.823 0.199 0 0.387 0.042 0.558 0.118l-0.009-0.003c2.9 1.291 5.279 3.309 6.971 5.827l0.037 0.058c0.143 0.213 0.229 0.476 0.229 0.759 0 0.758-0.614 1.372-1.372 1.372-0.475 0-0.893-0.241-1.14-0.608l-0.003-0.005c-1.436-2.14-3.411-3.818-5.734-4.857l-0.086-0.034c-0.489-0.217-0.823-0.698-0.823-1.257 0-0.198 0.042-0.387 0.118-0.557l-0.003 0.009zM16 7.497c-5.378 0-9.737 4.359-9.737 9.737s4.359 9.737 9.737 9.737v0c5.378 0 9.737-4.36 9.737-9.737s-4.36-9.737-9.737-9.737v0zM3.52 17.234c0.001-6.892 5.588-12.478 12.48-12.478s12.48 5.588 12.48 12.48c0 2.785-0.912 5.356-2.453 7.432l0.024-0.033 2.158 2.887c0.156 0.22 0.25 0.494 0.25 0.789 0 0.758-0.614 1.372-1.372 1.372-0.434 0-0.821-0.202-1.073-0.517l-0.002-0.003-1.856-2.482c-2.167 1.884-5.018 3.033-8.137 3.033-0.006 0-0.013 0-0.019 0h0.001c-0.005 0-0.011 0-0.017 0-3.119 0-5.97-1.149-8.153-3.046l0.015 0.013-1.854 2.482c-0.253 0.336-0.651 0.551-1.1 0.551-0.758 0-1.372-0.614-1.372-1.372 0-0.309 0.102-0.595 0.275-0.824l-0.003 0.003 2.158-2.887c-1.518-2.036-2.43-4.602-2.43-7.38 0-0.007 0-0.015 0-0.022v0.001zM16 9.692c0.757 0 1.371 0.614 1.372 1.371v5.438l3.093 2.062c0.382 0.248 0.632 0.672 0.632 1.155 0 0.758-0.614 1.372-1.372 1.372-0.293 0-0.564-0.092-0.787-0.248l0.004 0.003-3.703-2.468c-0.37-0.249-0.61-0.667-0.61-1.141v0-6.172c0-0.757 0.614-1.371 1.372-1.371v0z"></path>
</svg>
