<!-- Generated by IcoMoon.io -->
<svg version="1.1" xmlns="http://www.w3.org/2000/svg" width="32" height="32" viewBox="0 0 32 32">
<path d="M20.258 16.871c0.194-0.235 0.312-0.539 0.312-0.871s-0.118-0.636-0.314-0.873l0.002 0.002-6.4-7.771c-0.252-0.283-0.618-0.461-1.026-0.461-0.758 0-1.372 0.614-1.372 1.372 0 0.314 0.105 0.603 0.283 0.834l-0.002-0.003 5.682 6.901-5.683 6.901c-0.215 0.241-0.346 0.56-0.346 0.91 0 0.758 0.614 1.372 1.372 1.372 0.444 0 0.838-0.211 1.089-0.537l0.002-0.003 6.4-7.771z"></path>
</svg>
