<!-- Generated by IcoMoon.io -->
<svg version="1.1" xmlns="http://www.w3.org/2000/svg" width="32" height="32" viewBox="0 0 32 32">
<path d="M24.628 7.157c0.315 0.253 0.515 0.639 0.515 1.071 0 0.326-0.114 0.626-0.304 0.861l0.002-0.003-5.532 6.914 5.532 6.914c0.187 0.233 0.301 0.532 0.301 0.857 0 0.758-0.614 1.372-1.372 1.372-0.432 0-0.817-0.2-1.069-0.512l-0.002-0.003-6.217-7.771c-0.187-0.233-0.301-0.532-0.301-0.857s0.113-0.625 0.303-0.86l-0.002 0.003 6.217-7.771c0.253-0.316 0.639-0.516 1.072-0.516 0.326 0 0.625 0.113 0.86 0.303l-0.003-0.002zM15.303 7.157c0.316 0.253 0.516 0.639 0.516 1.072 0 0.326-0.113 0.625-0.303 0.86l0.002-0.003-5.532 6.914 5.532 6.914c0.187 0.233 0.3 0.532 0.3 0.857 0 0.758-0.614 1.372-1.373 1.372-0.433 0-0.818-0.2-1.070-0.513l-0.002-0.003-6.217-7.771c-0.187-0.233-0.301-0.532-0.301-0.857s0.113-0.625 0.303-0.86l-0.002 0.003 6.217-7.771c0.253-0.316 0.639-0.516 1.072-0.516 0.326 0 0.625 0.113 0.86 0.303l-0.003-0.002z"></path>
</svg>
