<!-- Generated by IcoMoon.io -->
<svg version="1.1" xmlns="http://www.w3.org/2000/svg" width="32" height="32" viewBox="0 0 32 32">
<path d="M7.17 20.071c0.253 0.306 0.633 0.499 1.058 0.499 0.332 0 0.636-0.118 0.873-0.314l-0.002 0.002 6.901-5.683 6.901 5.683c0.241 0.215 0.56 0.346 0.91 0.346 0.758 0 1.372-0.614 1.372-1.372 0-0.444-0.211-0.838-0.537-1.089l-0.003-0.002-7.771-6.4c-0.235-0.194-0.539-0.312-0.871-0.312s-0.636 0.118-0.873 0.314l0.002-0.002-7.771 6.4c-0.306 0.253-0.499 0.633-0.499 1.059 0 0.332 0.118 0.636 0.314 0.873l-0.002-0.002z"></path>
</svg>
