<!-- Generated by IcoMoon.io -->
<svg version="1.1" xmlns="http://www.w3.org/2000/svg" width="32" height="32" viewBox="0 0 32 32">
<path d="M7.157 7.372c0.253-0.316 0.639-0.516 1.072-0.516 0.326 0 0.625 0.113 0.86 0.303l-0.003-0.002 6.914 5.532 6.914-5.532c0.233-0.187 0.532-0.3 0.857-0.3 0.758 0 1.372 0.614 1.372 1.373 0 0.433-0.2 0.818-0.513 1.070l-0.003 0.002-7.771 6.217c-0.233 0.187-0.532 0.301-0.857 0.301s-0.625-0.113-0.86-0.303l0.003 0.002-7.771-6.217c-0.316-0.253-0.516-0.639-0.516-1.072 0-0.326 0.113-0.625 0.303-0.86l-0.002 0.003zM7.157 16.697c0.253-0.315 0.639-0.514 1.071-0.514 0.326 0 0.626 0.114 0.861 0.304l-0.003-0.002 6.914 5.529 6.914-5.532c0.233-0.187 0.532-0.301 0.857-0.301 0.758 0 1.372 0.614 1.372 1.372 0 0.432-0.2 0.817-0.512 1.069l-0.003 0.002-7.771 6.217c-0.233 0.187-0.532 0.301-0.857 0.301s-0.625-0.113-0.86-0.303l0.003 0.002-7.771-6.217c-0.316-0.253-0.516-0.639-0.516-1.072 0-0.326 0.113-0.625 0.303-0.86l-0.002 0.003z"></path>
</svg>
