<!-- Generated by IcoMoon.io -->
<svg version="1.1" xmlns="http://www.w3.org/2000/svg" width="32" height="32" viewBox="0 0 32 32">
<path d="M2.286 7.086c0-2.652 2.148-4.8 4.8-4.8h3.429c2.652 0 4.8 2.148 4.8 4.8v3.429c0 2.651-2.149 4.8-4.8 4.8v0h-3.429c-2.651 0-4.8-2.149-4.8-4.8v0-3.429zM7.086 5.028c-1.136 0-2.057 0.921-2.057 2.057v0 3.429c0 1.136 0.921 2.057 2.057 2.057v0h3.429c1.136 0 2.057-0.921 2.057-2.057v0-3.429c0-1.136-0.921-2.057-2.057-2.057h-3.429zM16.686 7.086c0-2.652 2.148-4.8 4.8-4.8h3.429c2.652 0 4.8 2.148 4.8 4.8v3.429c0 2.651-2.149 4.8-4.8 4.8h-3.429c-2.651 0-4.8-2.149-4.8-4.8v0-3.429zM21.486 5.028c-1.136 0-2.057 0.921-2.057 2.057v0 3.429c0 1.136 0.921 2.057 2.057 2.057h3.429c1.136 0 2.057-0.921 2.057-2.057v0-3.429c0-1.136-0.921-2.057-2.057-2.057h-3.429zM2.286 21.486c0-2.652 2.148-4.8 4.8-4.8h3.429c2.652 0 4.8 2.148 4.8 4.8v3.429c0 2.651-2.149 4.8-4.8 4.8v0h-3.429c-2.651 0-4.8-2.149-4.8-4.8v0-3.429zM7.086 19.428c-1.136 0-2.057 0.921-2.057 2.057v0 3.429c0 1.136 0.921 2.057 2.057 2.057v0h3.429c1.136 0 2.057-0.921 2.057-2.057v0-3.429c0-1.136-0.921-2.057-2.057-2.057h-3.429zM16.686 21.486c0-2.652 2.148-4.8 4.8-4.8h3.429c2.652 0 4.8 2.148 4.8 4.8v3.429c0 2.651-2.149 4.8-4.8 4.8v0h-3.429c-2.651 0-4.8-2.149-4.8-4.8v0-3.429zM21.486 19.428c-1.136 0-2.057 0.921-2.057 2.057v0 3.429c0 1.136 0.921 2.057 2.057 2.057h3.429c1.136 0 2.057-0.921 2.057-2.057v0-3.429c0-1.136-0.921-2.057-2.057-2.057h-3.429z"></path>
</svg>
