<!-- Generated by IcoMoon.io -->
<svg version="1.1" xmlns="http://www.w3.org/2000/svg" width="32" height="32" viewBox="0 0 32 32">
<path d="M18.286 22.096c0-2.103 1.705-3.81 3.81-3.81h3.808c2.103 0 3.81 1.705 3.81 3.81v3.808c0 2.103-1.705 3.81-3.81 3.81h-3.808c-2.103 0-3.81-1.705-3.81-3.81v-3.808zM18.286 6.096c0-2.103 1.705-3.81 3.81-3.81h3.808c2.103 0 3.81 1.705 3.81 3.81v3.808c0 2.103-1.705 3.81-3.81 3.81h-3.808c-2.103 0-3.81-1.705-3.81-3.81v-3.808zM2.286 22.096c0-2.103 1.705-3.81 3.81-3.81h3.808c2.103 0 3.81 1.705 3.81 3.81v3.808c0 2.103-1.705 3.81-3.81 3.81h-3.808c-2.103 0-3.81-1.705-3.81-3.81v-3.808zM2.286 6.096c0-2.103 1.705-3.81 3.81-3.81h3.808c2.103 0 3.81 1.705 3.81 3.81v3.808c0 2.103-1.705 3.81-3.81 3.81h-3.808c-2.103 0-3.81-1.705-3.81-3.81v-3.808z"></path>
</svg>
