<!-- Generated by IcoMoon.io -->
<svg version="1.1" xmlns="http://www.w3.org/2000/svg" width="32" height="32" viewBox="0 0 32 32">
<path d="M18.843 7.337c0.253-0.295 0.626-0.48 1.042-0.48 0.341 0 0.653 0.125 0.893 0.331l-0.002-0.002 3.886 3.332c0.293 0.253 0.477 0.625 0.477 1.040s-0.184 0.787-0.476 1.039l-0.002 0.001-3.886 3.333c-0.243 0.224-0.57 0.362-0.928 0.362-0.758 0-1.372-0.614-1.372-1.372 0-0.433 0.201-0.819 0.515-1.071l0.003-0.002 1.070-0.919h-11.836c-0.749-0.012-1.351-0.621-1.351-1.371s0.602-1.36 1.35-1.371h11.837l-1.070-0.917c-0.295-0.253-0.48-0.626-0.48-1.042 0-0.341 0.125-0.653 0.331-0.893l-0.002 0.002zM13.157 16.217c0.205 0.238 0.329 0.55 0.329 0.891 0 0.416-0.185 0.789-0.478 1.041l-0.002 0.002-1.070 0.919h11.836c0.006-0 0.013-0 0.021-0 0.758 0 1.372 0.614 1.372 1.372s-0.614 1.372-1.372 1.372c-0.007 0-0.015-0-0.022-0h-11.835l1.070 0.917c0.29 0.253 0.473 0.623 0.473 1.036 0 0.758-0.614 1.372-1.372 1.372-0.338 0-0.647-0.122-0.886-0.324l0.002 0.002-3.886-3.332c-0.293-0.253-0.477-0.625-0.477-1.040s0.184-0.787 0.476-1.039l0.002-0.001 3.886-3.333c0.238-0.205 0.551-0.33 0.892-0.33 0.416 0 0.788 0.185 1.040 0.477l0.002 0.002z"></path>
</svg>
