<!-- Generated by IcoMoon.io -->
<svg version="1.1" xmlns="http://www.w3.org/2000/svg" width="32" height="32" viewBox="0 0 32 32">
<path d="M16 29.714c-7.574 0-13.714-6.14-13.714-13.714s6.14-13.714 13.714-13.714v0c7.574 0 13.714 6.14 13.714 13.714s-6.14 13.714-13.714 13.714v0zM17.372 20.937v-6.562l1.362 1.36c0.251 0.27 0.609 0.439 1.006 0.439 0.758 0 1.372-0.614 1.372-1.372 0-0.397-0.169-0.755-0.439-1.005l-0.001-0.001-3.703-3.703c-0.248-0.248-0.591-0.401-0.969-0.401s-0.721 0.153-0.969 0.401l-3.703 3.703c-0.271 0.251-0.439 0.609-0.439 1.006 0 0.758 0.614 1.372 1.372 1.372 0.397 0 0.755-0.169 1.005-0.438l0.001-0.001 1.362-1.358v6.56c0 0.758 0.614 1.372 1.372 1.372s1.372-0.614 1.372-1.372v0z"></path>
</svg>
