<!-- Generated by IcoMoon.io -->
<svg version="1.1" xmlns="http://www.w3.org/2000/svg" width="32" height="32" viewBox="0 0 32 32">
<path d="M14.628 3.657c-0.017-0-0.038-0-0.059-0-6.059 0-10.972 4.912-10.972 10.972s4.912 10.972 10.972 10.972c0.021 0 0.041-0 0.062-0h-0.003c6.034-0.033 10.913-4.933 10.913-10.971s-4.879-10.938-10.91-10.971h-0.003zM0.914 14.628c-0-0.019-0-0.042-0-0.065 0-7.574 6.14-13.714 13.714-13.714s13.714 6.14 13.714 13.714c0 0.023-0 0.046-0 0.069v-0.004c-0.037 7.546-6.163 13.649-13.714 13.649s-13.677-6.103-13.714-13.645v-0.004zM14.363 9.957c0.248 0.248 0.401 0.591 0.401 0.969s-0.153 0.721-0.401 0.969v0l-1.362 1.362h6.564c0.749 0.012 1.351 0.621 1.351 1.371s-0.602 1.36-1.35 1.371h-6.565l1.362 1.362c0.228 0.244 0.368 0.573 0.368 0.934 0 0.758-0.614 1.372-1.372 1.372-0.361 0-0.69-0.14-0.935-0.368l0.001 0.001-3.703-3.703c-0.248-0.248-0.401-0.591-0.401-0.969s0.153-0.721 0.401-0.969v0l3.703-3.703c0.248-0.248 0.591-0.401 0.969-0.401s0.721 0.153 0.969 0.401v0z"></path>
</svg>
