<!-- Generated by IcoMoon.io -->
<svg version="1.1" xmlns="http://www.w3.org/2000/svg" width="32" height="32" viewBox="0 0 32 32">
<path d="M22.743 2.688c0.248-0.249 0.592-0.403 0.971-0.403s0.723 0.154 0.971 0.403l4.624 4.626c0.248 0.248 0.401 0.591 0.401 0.969 0 0.757-0.613 1.371-1.37 1.372h-22.398c-0.505 0-0.914 0.409-0.914 0.914v6.972c-0.012 0.749-0.621 1.351-1.371 1.351s-1.36-0.602-1.371-1.35v-6.973c0-2.020 1.637-3.657 3.657-3.657h19.088l-2.286-2.286c-0.249-0.248-0.403-0.592-0.403-0.971s0.154-0.723 0.403-0.971l0-0zM28.343 13.086c0.758 0 1.372 0.614 1.372 1.372v0 6.971c0 2.020-1.637 3.657-3.657 3.657v0h-19.088l2.286 2.286c0.249 0.248 0.403 0.592 0.403 0.971 0 0.758-0.614 1.372-1.372 1.372-0.378 0-0.721-0.153-0.969-0.401l-4.628-4.631c-0.248-0.248-0.401-0.591-0.401-0.969 0-0.757 0.613-1.371 1.37-1.372h22.4c0.505 0 0.914-0.409 0.914-0.914v0-6.971c0-0.757 0.614-1.371 1.371-1.372h0z"></path>
</svg>
