<!-- Generated by IcoMoon.io -->
<svg version="1.1" xmlns="http://www.w3.org/2000/svg" width="32" height="32" viewBox="0 0 32 32">
<path d="M24.768 16.942c0.232-0.245 0.374-0.577 0.374-0.942s-0.142-0.697-0.375-0.942l0.001 0.001-5.18-5.486c-0.251-0.265-0.605-0.43-0.998-0.43-0.758 0-1.372 0.614-1.372 1.372 0 0.365 0.142 0.697 0.375 0.942l-0.001-0.001 2.997 3.172h-12.361c-0.758 0-1.372 0.614-1.372 1.372s0.614 1.372 1.372 1.372h12.361l-2.994 3.172c-0.247 0.248-0.399 0.59-0.399 0.967 0 0.758 0.614 1.372 1.372 1.372 0.405 0 0.768-0.175 1.019-0.454l0.001-0.001 5.18-5.486z"></path>
</svg>
