<!-- Generated by IcoMoon.io -->
<svg version="1.1" xmlns="http://www.w3.org/2000/svg" width="32" height="32" viewBox="0 0 32 32">
<path d="M9.602 2.633c0.241-0.215 0.561-0.346 0.911-0.346 0.407 0 0.773 0.177 1.024 0.459l0.001 0.001 10.971 12.343c0.215 0.241 0.346 0.561 0.346 0.911s-0.131 0.67-0.347 0.912l0.001-0.001-10.971 12.343c-0.252 0.282-0.618 0.459-1.024 0.459-0.758 0-1.372-0.614-1.372-1.372 0-0.351 0.132-0.672 0.349-0.915l-0.001 0.001 10.16-11.428-10.16-11.431c-0.215-0.241-0.346-0.561-0.346-0.911 0-0.407 0.177-0.773 0.459-1.024l0.001-0.001z"></path>
</svg>
