<!-- Generated by IcoMoon.io -->
<svg version="1.1" xmlns="http://www.w3.org/2000/svg" width="32" height="32" viewBox="0 0 32 32">
<path d="M15.031 2.688c0.248-0.248 0.591-0.401 0.969-0.401s0.721 0.153 0.969 0.401l4.114 4.114c0.228 0.244 0.368 0.573 0.368 0.934 0 0.757-0.614 1.372-1.372 1.372-0.361 0-0.69-0.14-0.935-0.368l0.001 0.001-1.773-1.769v7.657h7.659l-1.772-1.773c-0.228-0.244-0.368-0.573-0.368-0.934 0-0.758 0.614-1.372 1.372-1.372 0.361 0 0.69 0.14 0.935 0.368l-0.001-0.001 4.114 4.114c0.248 0.248 0.401 0.591 0.401 0.969s-0.153 0.721-0.401 0.969l-4.114 4.114c-0.244 0.228-0.573 0.368-0.934 0.368-0.758 0-1.372-0.614-1.372-1.372 0-0.361 0.14-0.69 0.368-0.935l-0.001 0.001 1.772-1.773h-7.659v7.659l1.773-1.772c0.244-0.228 0.573-0.368 0.934-0.368 0.758 0 1.372 0.614 1.372 1.372 0 0.361-0.14 0.69-0.368 0.935l0.001-0.001-4.114 4.114c-0.248 0.248-0.591 0.401-0.969 0.401s-0.721-0.153-0.969-0.401l-4.114-4.114c-0.228-0.244-0.368-0.573-0.368-0.934 0-0.758 0.614-1.372 1.372-1.372 0.361 0 0.69 0.14 0.935 0.368l-0.001-0.001 1.773 1.772v-7.659h-7.659l1.772 1.773c0.269 0.251 0.437 0.608 0.437 1.004 0 0.758-0.614 1.372-1.372 1.372-0.396 0-0.753-0.168-1.003-0.436l-0.001-0.001-4.114-4.114c-0.248-0.248-0.401-0.591-0.401-0.969s0.153-0.721 0.401-0.969l4.114-4.114c0.251-0.269 0.608-0.437 1.004-0.437 0.758 0 1.372 0.614 1.372 1.372 0 0.396-0.168 0.753-0.436 1.003l-0.001 0.001-1.769 1.773h7.657v-7.659l-1.773 1.772c-0.251 0.269-0.608 0.437-1.004 0.437-0.758 0-1.372-0.614-1.372-1.372 0-0.396 0.168-0.753 0.436-1.003l0.001-0.001 4.114-4.114z"></path>
</svg>
