<!-- Generated by IcoMoon.io -->
<svg version="1.1" xmlns="http://www.w3.org/2000/svg" width="32" height="32" viewBox="0 0 32 32">
<path d="M12.793 7.415c-0.253-0.34-0.653-0.558-1.104-0.558-0.306 0-0.589 0.1-0.817 0.27l0.004-0.003-5.746 4.24c-0.339 0.253-0.556 0.652-0.556 1.103s0.217 0.85 0.552 1.1l0.004 0.003 5.746 4.24c0.226 0.169 0.51 0.271 0.819 0.271 0.758 0 1.372-0.614 1.372-1.372 0-0.453-0.22-0.855-0.559-1.105l-0.004-0.003-2.391-1.762h13.66c0.503 0 0.914 0.409 0.914 0.914v6.731c0 0.505-0.409 0.914-0.914 0.914h-17.829c-0.749 0.012-1.351 0.621-1.351 1.371s0.602 1.36 1.35 1.371h17.83c2.020-0 3.657-1.637 3.657-3.657v-6.731c0-2.020-1.637-3.657-3.657-3.657h-13.66l2.391-1.765c0.341-0.253 0.559-0.653 0.559-1.105 0-0.307-0.101-0.59-0.271-0.819l0.003 0.004z"></path>
</svg>
