<!-- Generated by IcoMoon.io -->
<svg version="1.1" xmlns="http://www.w3.org/2000/svg" width="32" height="32" viewBox="0 0 32 32">
<path d="M22.398 2.631c0.284 0.252 0.461 0.618 0.461 1.026 0 0.351-0.132 0.671-0.348 0.913l0.001-0.001-10.164 11.431 10.162 11.428c0.205 0.238 0.33 0.551 0.33 0.893 0 0.758-0.614 1.372-1.372 1.372-0.397 0-0.755-0.169-1.006-0.439l-0.001-0.001-10.971-12.343c-0.215-0.241-0.347-0.561-0.347-0.912s0.132-0.671 0.348-0.913l-0.001 0.001 10.971-12.343c0.252-0.283 0.618-0.461 1.025-0.461 0.35 0 0.67 0.131 0.912 0.347l-0.001-0.001z"></path>
</svg>
