<!-- Generated by IcoMoon.io -->
<svg version="1.1" xmlns="http://www.w3.org/2000/svg" width="32" height="32" viewBox="0 0 32 32">
<path d="M16 5.028c-6.059 0-10.972 4.912-10.972 10.972s4.912 10.972 10.972 10.972v0c6.059 0 10.972-4.912 10.972-10.972s-4.912-10.972-10.972-10.972v0zM2.286 16c0-7.574 6.14-13.714 13.714-13.714s13.714 6.14 13.714 13.714v0c0 7.574-6.14 13.714-13.714 13.714s-13.714-6.14-13.714-13.714v0zM16 9.692c0.757 0 1.371 0.614 1.372 1.371v6.562l1.362-1.36c0.251-0.271 0.609-0.439 1.006-0.439 0.758 0 1.372 0.614 1.372 1.372 0 0.397-0.169 0.755-0.439 1.005l-0.001 0.001-3.703 3.703c-0.248 0.248-0.591 0.401-0.969 0.401s-0.721-0.153-0.969-0.401l-3.703-3.703c-0.271-0.251-0.439-0.609-0.439-1.006 0-0.758 0.614-1.372 1.372-1.372 0.397 0 0.755 0.169 1.005 0.438l0.001 0.001 1.362 1.36v-6.562c0-0.757 0.614-1.371 1.372-1.371v0z"></path>
</svg>
