<!-- Generated by IcoMoon.io -->
<svg version="1.1" xmlns="http://www.w3.org/2000/svg" width="32" height="32" viewBox="0 0 32 32">
<path d="M27.428 13.714c0-0.019 0-0.042 0-0.065 0-7.574-6.14-13.714-13.714-13.714s-13.714 6.14-13.714 13.714c0 0.023 0 0.046 0 0.069v-0.004c0.037 7.546 6.163 13.649 13.714 13.649s13.677-6.103 13.714-13.645v-0.004zM18.652 15.086h-6.563l1.36 1.363c0.272 0.251 0.441 0.61 0.441 1.008 0 0.758-0.614 1.372-1.372 1.372-0.398 0-0.757-0.17-1.007-0.44l-0.001-0.001-3.703-3.703c-0.248-0.248-0.401-0.591-0.401-0.969s0.153-0.721 0.401-0.969v0l3.703-3.703c0.251-0.271 0.609-0.439 1.006-0.439 0.758 0 1.372 0.614 1.372 1.372 0 0.397-0.169 0.755-0.438 1.005l-0.001 0.001-1.357 1.362h6.56c0.749 0.012 1.351 0.621 1.351 1.371s-0.602 1.36-1.35 1.371h-0.001z"></path>
</svg>
