<!-- Generated by IcoMoon.io -->
<svg version="1.1" xmlns="http://www.w3.org/2000/svg" width="32" height="32" viewBox="0 0 32 32">
<path d="M2.286 16c0 7.574 6.14 13.714 13.714 13.714s13.714-6.14 13.714-13.714v0c0-7.574-6.14-13.714-13.714-13.714s-13.714 6.14-13.714 13.714v0zM11.063 14.628h6.562l-1.36-1.362c-0.271-0.251-0.439-0.609-0.439-1.006 0-0.758 0.614-1.372 1.372-1.372 0.397 0 0.755 0.169 1.005 0.438l0.001 0.001 3.703 3.703c0.248 0.248 0.401 0.591 0.401 0.969s-0.153 0.721-0.401 0.969l-3.703 3.703c-0.251 0.271-0.609 0.439-1.006 0.439-0.758 0-1.372-0.614-1.372-1.372 0-0.397 0.169-0.755 0.438-1.005l0.001-0.001 1.358-1.362h-6.56c-0.758 0-1.372-0.614-1.372-1.372s0.614-1.372 1.372-1.372v0z"></path>
</svg>
