<!-- Generated by IcoMoon.io -->
<svg version="1.1" xmlns="http://www.w3.org/2000/svg" width="32" height="32" viewBox="0 0 32 32">
<path d="M15.058 24.768c0.245 0.232 0.577 0.374 0.942 0.374s0.697-0.142 0.942-0.375l-0.001 0.001 5.486-5.18c0.265-0.251 0.43-0.605 0.43-0.998 0-0.758-0.614-1.372-1.372-1.372-0.365 0-0.697 0.142-0.942 0.375l0.001-0.001-3.172 2.997v-12.361c0-0.758-0.614-1.372-1.372-1.372s-1.372 0.614-1.372 1.372v0 12.361l-3.172-2.994c-0.242-0.218-0.564-0.351-0.916-0.351-0.758 0-1.372 0.614-1.372 1.372 0 0.38 0.155 0.724 0.404 0.973l0 0 5.486 5.18z"></path>
</svg>
