<!-- Generated by IcoMoon.io -->
<svg version="1.1" xmlns="http://www.w3.org/2000/svg" width="32" height="32" viewBox="0 0 32 32">
<path d="M14.628 0.914c-0.019-0-0.042-0-0.065-0-7.574 0-13.714 6.14-13.714 13.714s6.14 13.714 13.714 13.714c0.023 0 0.046-0 0.069-0h-0.004c7.546-0.037 13.649-6.163 13.649-13.714s-6.103-13.677-13.645-13.714h-0.004zM13.532 9.692v9.874c0 0.758-0.614 1.372-1.372 1.372s-1.372-0.614-1.372-1.372v0-6.562l-0.128 0.126c-0.244 0.227-0.572 0.366-0.932 0.366-0.758 0-1.372-0.614-1.372-1.372 0-0.36 0.139-0.688 0.366-0.933l-0.001 0.001 2.469-2.469c0.248-0.248 0.591-0.401 0.969-0.401 0.757 0 1.371 0.613 1.372 1.37v0zM18.468 9.692v6.564l0.128-0.128c0.251-0.271 0.609-0.439 1.006-0.439 0.758 0 1.372 0.614 1.372 1.372 0 0.397-0.169 0.755-0.438 1.005l-0.001 0.001-2.469 2.469c-0.248 0.248-0.591 0.401-0.969 0.401-0.757 0-1.371-0.613-1.372-1.37v-9.874c0.012-0.749 0.621-1.351 1.371-1.351s1.36 0.602 1.371 1.35v0.001z"></path>
</svg>
