<!-- Generated by IcoMoon.io -->
<svg version="1.1" xmlns="http://www.w3.org/2000/svg" width="32" height="32" viewBox="0 0 32 32">
<path d="M16 2.286c-7.574 0-13.714 6.14-13.714 13.714s6.14 13.714 13.714 13.714v0c7.574 0 13.714-6.14 13.714-13.714s-6.14-13.714-13.714-13.714v0zM19.438 10.094l2.468 2.468c0.248 0.248 0.401 0.591 0.401 0.969 0 0.757-0.613 1.371-1.37 1.372h-9.874c-0.749-0.012-1.351-0.621-1.351-1.371s0.602-1.36 1.35-1.371h6.563l-0.126-0.128c-0.227-0.244-0.366-0.572-0.366-0.932 0-0.758 0.614-1.372 1.372-1.372 0.36 0 0.688 0.139 0.933 0.366l-0.001-0.001zM11.063 17.097h9.874c0.749 0.012 1.351 0.621 1.351 1.371s-0.602 1.36-1.35 1.371h-6.563l0.126 0.128c0.271 0.251 0.439 0.609 0.439 1.006 0 0.758-0.614 1.372-1.372 1.372-0.397 0-0.755-0.169-1.005-0.439l-0.001-0.001-2.468-2.468c-0.248-0.248-0.401-0.591-0.401-0.969 0-0.757 0.613-1.371 1.37-1.372h0z"></path>
</svg>
