<!-- Generated by IcoMoon.io -->
<svg version="1.1" xmlns="http://www.w3.org/2000/svg" width="32" height="32" viewBox="0 0 32 32">
<path d="M16 5.028c-6.059 0-10.972 4.912-10.972 10.972s4.912 10.972 10.972 10.972v0c6.059 0 10.972-4.912 10.972-10.972s-4.912-10.972-10.972-10.972v0zM2.286 16c0-7.574 6.14-13.714 13.714-13.714s13.714 6.14 13.714 13.714v0c0 7.574-6.14 13.714-13.714 13.714s-13.714-6.14-13.714-13.714v0zM17.499 10.094c0.248-0.248 0.591-0.401 0.969-0.401s0.721 0.153 0.969 0.401v0l2.468 2.468c0.248 0.248 0.401 0.591 0.401 0.969 0 0.757-0.613 1.371-1.37 1.372h-9.874c-0.749-0.012-1.351-0.621-1.351-1.371s0.602-1.36 1.35-1.371h6.563l-0.126-0.128c-0.248-0.248-0.401-0.591-0.401-0.969s0.153-0.721 0.401-0.969l-0 0zM9.797 17.943c0.212-0.501 0.699-0.845 1.266-0.846h9.874c0.749 0.012 1.351 0.621 1.351 1.371s-0.602 1.36-1.35 1.371h-6.563l0.126 0.128c0.271 0.251 0.439 0.609 0.439 1.006 0 0.758-0.614 1.372-1.372 1.372-0.397 0-0.755-0.169-1.005-0.439l-0.001-0.001-2.468-2.468c-0.248-0.248-0.402-0.591-0.402-0.97 0-0.189 0.038-0.37 0.108-0.534l-0.003 0.009z"></path>
</svg>
