<!-- Generated by IcoMoon.io -->
<svg version="1.1" xmlns="http://www.w3.org/2000/svg" width="32" height="32" viewBox="0 0 32 32">
<path d="M4 4c0-0.736 0.597-1.333 1.332-1.333h21.335c0.736 0 1.332 0.597 1.332 1.333s-0.597 1.332-1.332 1.332h-21.335c-0.736 0-1.333-0.597-1.333-1.333v0zM16 8c0.354 0 0.692 0.139 0.942 0.388l9.335 9.335c0.241 0.241 0.391 0.575 0.391 0.943 0 0.736-0.597 1.333-1.333 1.333-0.368 0-0.702-0.149-0.943-0.391v0l-7.058-7.056v15.447c0 0.736-0.597 1.332-1.332 1.332s-1.332-0.597-1.332-1.332v0-15.447l-7.058 7.056c-0.241 0.241-0.575 0.391-0.943 0.391-0.736 0-1.333-0.597-1.333-1.333 0-0.368 0.149-0.702 0.391-0.943l9.335-9.332c0.24-0.241 0.572-0.391 0.939-0.391 0.001 0 0.002 0 0.003 0h-0z"></path>
</svg>
