<!-- Generated by IcoMoon.io -->
<svg version="1.1" xmlns="http://www.w3.org/2000/svg" width="32" height="32" viewBox="0 0 32 32">
<path d="M2.688 2.688c0.248-0.248 0.591-0.401 0.969-0.401s0.721 0.153 0.969 0.401l24.686 24.686c0.225 0.244 0.364 0.571 0.364 0.93 0 0.758-0.614 1.372-1.372 1.372-0.359 0-0.687-0.138-0.931-0.364l0.001 0.001-5.088-5.083h-2.142c0.744 0.018 1.339 0.625 1.339 1.371 0 0.173-0.032 0.338-0.090 0.49l0.003-0.009c-0.805 2.158-2.946 3.634-5.397 3.634-2.448 0-4.592-1.479-5.399-3.634-0.055-0.143-0.087-0.308-0.087-0.48 0-0.746 0.596-1.353 1.338-1.371l0.002-0h-4.315c-3.401 0-5.052-4.041-2.93-6.537 0.477-0.562 0.798-1.27 0.887-2.049l0.002-0.018 0.473-4.176c0.112-0.992 0.359-1.938 0.72-2.821l-4.002-4c-0.249-0.248-0.403-0.592-0.403-0.971s0.154-0.723 0.403-0.971l0-0zM8.862 10.802c-0.066 0.263-0.125 0.588-0.163 0.919l-0.003 0.037-0.473 4.176c-0.156 1.362-0.705 2.573-1.53 3.543l0.008-0.009c-0.713 0.837-0.064 2.018 0.839 2.018h12.007l-10.683-10.683zM11.918 24.228c0.572 0.014 1.056 0.376 1.249 0.882l0.003 0.009c0.388 1.040 1.479 1.852 2.83 1.852 1.348 0 2.439-0.812 2.83-1.852 0.196-0.515 0.68-0.878 1.251-0.892l0.002-0h-8.164zM16 5.028c-1.6 0-3.092 0.53-4.313 1.447-0.23 0.181-0.524 0.29-0.844 0.29-0.758 0-1.372-0.614-1.372-1.372 0-0.456 0.223-0.861 0.566-1.11l0.004-0.003c1.637-1.245 3.71-1.995 5.959-1.996h0c5.157 0 9.442 3.973 10.030 9.163l0.473 4.176c0.087 0.77 0.4 1.49 0.889 2.067 0.592 0.69 0.952 1.594 0.952 2.582 0 0.553-0.113 1.080-0.317 1.558l0.010-0.026c-0.211 0.503-0.699 0.85-1.269 0.85-0.758 0-1.372-0.614-1.372-1.372 0-0.188 0.038-0.368 0.107-0.531l-0.003 0.009c0.064-0.144 0.101-0.312 0.101-0.488 0-0.309-0.113-0.591-0.301-0.807l0.001 0.002c-0.817-0.96-1.366-2.172-1.519-3.503l-0.003-0.031-0.473-4.176c-0.439-3.87-3.607-6.729-7.305-6.729z"></path>
</svg>
