<!-- Generated by IcoMoon.io -->
<svg version="1.1" xmlns="http://www.w3.org/2000/svg" width="32" height="32" viewBox="0 0 32 32">
<path d="M16.057 3.456c-0.102-0.666-0.67-1.169-1.357-1.169-0.071 0-0.141 0.005-0.21 0.016l0.008-0.001c-4.548 0.674-8.167 4.361-8.709 9.079l-0.487 4.192c-0.093 0.8-0.42 1.51-0.909 2.076l0.004-0.005c-2.192 2.537-0.443 6.565 2.962 6.565h17.275c3.406 0 5.154-4.027 2.962-6.565-0.485-0.561-0.812-1.271-0.904-2.053l-0.002-0.018-0.32-2.77c-0.094-0.674-0.667-1.187-1.359-1.187-0.758 0-1.372 0.614-1.372 1.372 0 0.046 0.002 0.092 0.007 0.137l-0-0.006 0.32 2.768c0.161 1.372 0.721 2.59 1.561 3.561l-0.007-0.008c0.702 0.812 0.101 2.027-0.887 2.027h-17.273c-0.987 0-1.588-1.216-0.887-2.027 0.833-0.962 1.394-2.18 1.551-3.521l0.003-0.031 0.485-4.19c0.4-3.49 3.072-6.19 6.386-6.681 0.667-0.101 1.172-0.67 1.172-1.357 0-0.071-0.005-0.141-0.016-0.21l0.001 0.008zM11.312 24.308c0.145-0.057 0.312-0.090 0.488-0.090 0.582 0 1.079 0.362 1.278 0.873l0.003 0.009c0.398 1.042 1.515 1.87 2.919 1.87s2.521-0.83 2.919-1.87c0.211-0.503 0.699-0.85 1.268-0.85 0.758 0 1.372 0.614 1.372 1.372 0 0.163-0.028 0.319-0.080 0.464l0.003-0.010c-0.825 2.167-3.008 3.637-5.481 3.637-2.475 0-4.656-1.47-5.481-3.637-0.057-0.145-0.090-0.312-0.090-0.488 0-0.582 0.362-1.079 0.873-1.278l0.009-0.003zM25.143 5.714c0 1.894-1.535 3.429-3.429 3.429s-3.429-1.535-3.429-3.429v0c0-1.894 1.535-3.429 3.429-3.429s3.429 1.535 3.429 3.429v0z"></path>
</svg>
