<!-- Generated by IcoMoon.io -->
<svg version="1.1" xmlns="http://www.w3.org/2000/svg" width="32" height="32" viewBox="0 0 32 32">
<path d="M16 5.028c-3.815 0-7.040 2.885-7.486 6.732l-0.482 4.176c-0.162 1.37-0.724 2.585-1.566 3.551l0.007-0.008c-0.185 0.212-0.298 0.49-0.298 0.796 0 0.661 0.53 1.199 1.188 1.211l0.001 0h17.273c0.659-0.013 1.189-0.55 1.189-1.211 0-0.306-0.114-0.586-0.301-0.799l0.001 0.001c-0.833-0.958-1.395-2.172-1.554-3.51l-0.003-0.031-0.485-4.176c-0.443-3.847-3.668-6.732-7.486-6.732zM5.79 11.447c0.603-5.214 4.983-9.161 10.21-9.161s9.609 3.947 10.21 9.161l0.485 4.174c0.087 0.766 0.405 1.483 0.903 2.057 2.201 2.539 0.437 6.551-2.96 6.551h-4.405c0.743 0.019 1.338 0.625 1.338 1.371 0 0.176-0.033 0.344-0.094 0.499l0.003-0.009c-0.828 2.162-3.010 3.625-5.481 3.625s-4.654-1.463-5.481-3.625c-0.057-0.145-0.090-0.313-0.090-0.489 0-0.747 0.597-1.354 1.339-1.371l0.002-0h-4.409c-3.397 0-5.161-4.012-2.96-6.548 0.501-0.576 0.816-1.294 0.905-2.057l0.48-4.176zM11.831 24.228c0.569 0.013 1.052 0.372 1.247 0.873l0.003 0.009c0.395 1.033 1.513 1.861 2.919 1.861 1.408 0 2.523-0.828 2.919-1.861 0.199-0.511 0.681-0.869 1.249-0.882l0.002-0h-8.338z"></path>
</svg>
