<!-- Generated by IcoMoon.io -->
<svg version="1.1" xmlns="http://www.w3.org/2000/svg" width="32" height="32" viewBox="0 0 32 32">
<path d="M9.913 1.2c0.101-0.035 0.216-0.055 0.337-0.055 0.484 0 0.892 0.321 1.023 0.762l0.002 0.008c0.036 0.107 0.057 0.23 0.057 0.357 0 0.486-0.303 0.901-0.73 1.066l-0.008 0.003-0.222 0.078c-2.252 0.786-4.018 2.638-4.77 4.992l-0.073 0.233c-0.134 0.448-0.542 0.769-1.025 0.769-0.122 0-0.238-0.020-0.347-0.058l0.008 0.002c-0.435-0.168-0.739-0.583-0.739-1.069 0-0.128 0.021-0.251 0.060-0.365l-0.002 0.008 0.075-0.233c0.965-3.028 3.237-5.41 6.133-6.418l0.222-0.078zM22.087 1.2c-0.101-0.035-0.216-0.055-0.337-0.055-0.484 0-0.892 0.321-1.023 0.762l-0.002 0.008c-0.036 0.107-0.057 0.23-0.057 0.357 0 0.486 0.303 0.901 0.73 1.066l0.008 0.003 0.222 0.078c2.252 0.786 4.018 2.638 4.77 4.994l0.073 0.233c0.19 0.59 0.8 0.91 1.364 0.713 0.435-0.168 0.739-0.583 0.739-1.069 0-0.128-0.021-0.251-0.060-0.365l0.002 0.008-0.075-0.233c-0.965-3.031-3.237-5.412-6.133-6.421l-0.222-0.080zM16 3.776c-4.64 0-8.544 3.748-9.081 8.718l-0.494 4.581c-0.126 1.177-0.582 2.229-1.272 3.083l0.009-0.011c-1.486 1.828-0.281 4.692 1.975 4.692h17.728c2.254 0 3.461-2.864 1.975-4.692-0.682-0.843-1.138-1.895-1.262-3.046l-0.002-0.026-0.494-4.581c-0.539-4.969-4.441-8.718-9.081-8.718zM16 30.857c0.004 0 0.009 0 0.014 0 1.924 0 3.571-1.189 4.245-2.872l0.011-0.031c0.026-0.066 0.041-0.142 0.041-0.222 0 0 0-0 0-0v0c0-0.003 0-0.007 0-0.011 0-0.339-0.27-0.615-0.607-0.624l-0.001-0h-7.406c-0.338 0.009-0.608 0.285-0.608 0.624 0 0.004 0 0.008 0 0.012v-0.001c0 0.001 0 0.001 0 0.002 0 0.080 0.015 0.156 0.043 0.226l-0.001-0.004c0.686 1.713 2.332 2.901 4.255 2.901 0.005 0 0.010 0 0.015-0h-0.001z"></path>
</svg>
