<!-- Generated by IcoMoon.io -->
<svg version="1.1" xmlns="http://www.w3.org/2000/svg" width="32" height="32" viewBox="0 0 32 32">
<path d="M2.594 2.594c-0.191 0.191-0.309 0.455-0.309 0.746s0.118 0.555 0.309 0.746v0l5.081 5.079c-0.281 0.732-0.473 1.508-0.564 2.322l-0.487 4.283c-0.126 1.106-0.572 2.090-1.241 2.878l0.006-0.008c-1.456 1.71-0.274 4.388 1.932 4.389h14.219l6.372 6.372c0.191 0.191 0.455 0.309 0.746 0.309 0.583 0 1.055-0.473 1.055-1.055 0-0.291-0.118-0.555-0.309-0.746l-25.319-25.317c-0.191-0.191-0.455-0.309-0.746-0.309s-0.555 0.118-0.746 0.309v0zM25.376 15.772l-0.487-4.281c-0.523-4.647-4.345-8.148-8.889-8.149-1.959 0-3.783 0.652-5.268 1.765l16.313 16.311c0.132-0.305 0.208-0.661 0.208-1.034 0-0.665-0.243-1.274-0.646-1.742l0.003 0.003c-0.683-0.807-1.115-1.806-1.234-2.871zM20.181 25.948c-0.642 1.586-2.272 2.713-4.181 2.713s-3.538-1.127-4.181-2.713c-0.024-0.062-0.038-0.135-0.038-0.21 0-0.328 0.266-0.594 0.594-0.594h7.25c0.328 0 0.594 0.266 0.594 0.594 0 0.076-0.014 0.148-0.040 0.214l0.001-0.004z"></path>
</svg>
