<!-- Generated by IcoMoon.io -->
<svg version="1.1" xmlns="http://www.w3.org/2000/svg" width="32" height="32" viewBox="0 0 32 32">
<path d="M16 2.286c-0.001 0-0.003 0-0.004 0-5.109 0-9.324 3.834-9.922 8.782l-0.005 0.048-0.542 4.64c-0.137 1.152-0.617 2.235-1.383 3.109-1.623 1.854-0.306 4.754 2.16 4.754h19.392c2.466 0 3.783-2.901 2.16-4.754-0.739-0.839-1.237-1.905-1.38-3.081l-0.003-0.027-0.542-4.64c-0.604-4.996-4.818-8.83-9.927-8.83-0.002 0-0.003 0-0.005 0h0zM20.67 26.775c-0.715 1.719-2.537 2.939-4.67 2.939s-3.952-1.221-4.67-2.939c-0.029-0.066-0.045-0.143-0.046-0.224v-0c0-0.357 0.297-0.647 0.667-0.647h8.094c0.368 0 0.665 0.29 0.665 0.647 0 0.001 0 0.002 0 0.003 0 0.080-0.016 0.156-0.045 0.225l0.001-0.004z"></path>
</svg>
