<!-- Generated by IcoMoon.io -->
<svg version="1.1" xmlns="http://www.w3.org/2000/svg" width="32" height="32" viewBox="0 0 32 32">
<path d="M25.892 10.773c-0.649 0.308-1.314 0.656-2.034 0.656-4.228 0-7.858-1.627-7.858-7.618 0-0.521 0.055-1.031 0.158-1.522l-0.158-0.002c-0.001 0-0.003 0-0.004 0-5.11 0-9.324 3.834-9.922 8.782l-0.005 0.048-0.542 4.64c-0.137 1.152-0.617 2.235-1.383 3.109-1.623 1.854-0.306 4.754 2.16 4.754h19.392c2.466 0 3.783-2.901 2.16-4.754-0.739-0.839-1.237-1.905-1.38-3.081l-0.003-0.027-0.581-4.983zM20.67 26.775c-0.715 1.719-2.537 2.939-4.67 2.939s-3.952-1.221-4.67-2.939c-0.029-0.066-0.045-0.143-0.046-0.224v-0c0-0.357 0.297-0.647 0.667-0.647h8.094c0.368 0 0.665 0.29 0.665 0.647 0 0.001 0 0.002 0 0.003 0 0.080-0.016 0.156-0.045 0.225l0.001-0.004zM25.143 5.714c0 1.894-1.535 3.429-3.429 3.429s-3.429-1.535-3.429-3.429v0c0-1.894 1.535-3.429 3.429-3.429s3.429 1.535 3.429 3.429v0z"></path>
</svg>
