<!-- Generated by IcoMoon.io -->
<svg version="1.1" xmlns="http://www.w3.org/2000/svg" width="32" height="32" viewBox="0 0 32 32">
<path d="M7.332 5.751c-1.105 0-2 0.895-2 2v0 1.166h0.334c1.656 0 2.999 1.343 2.999 2.999s-1.343 2.999-2.999 2.999c-1.655 0-2.997-1.341-2.999-2.996v-4.17c0-2.577 2.088-4.666 4.665-4.667h0c0.737 0 1.334 0.597 1.334 1.334s-0.597 1.334-1.334 1.334v0zM16 5.751c-1.105 0-2 0.895-2 2v0 1.166h0.334c1.658 0 3.001 1.344 3.001 3.001s-1.344 3.001-3.001 3.001c-1.658 0-3.001-1.344-3.001-3.001v0-4.169c0.001-2.577 2.091-4.665 4.668-4.665v0c0.737 0 1.334 0.597 1.334 1.334s-0.597 1.334-1.334 1.334v0zM20 6.665c0-0.734 0.597-1.333 1.332-1.333h6.668c0.737 0 1.334 0.597 1.334 1.334s-0.597 1.334-1.334 1.334v0h-6.668c-0.736 0-1.332-0.597-1.332-1.332v0zM20 13.332c0-0.736 0.597-1.332 1.332-1.332h6.668c0.737 0 1.334 0.597 1.334 1.334s-0.597 1.334-1.334 1.334v0h-6.668c0 0 0 0 0 0-0.736 0-1.332-0.597-1.332-1.332 0-0.001 0-0.002 0-0.003v0zM2.667 20c0-0.736 0.594-1.332 1.333-1.332h24c0.736 0 1.332 0.597 1.332 1.332s-0.597 1.332-1.332 1.332v0h-24c-0.736 0-1.333-0.597-1.333-1.332v0zM2.667 26.668c0-0.736 0.594-1.335 1.333-1.335h24c0.737 0 1.334 0.597 1.334 1.334s-0.597 1.334-1.334 1.334h-24c-0.736 0-1.333-0.597-1.333-1.332v0z"></path>
</svg>
