<!-- Generated by IcoMoon.io -->
<svg version="1.1" xmlns="http://www.w3.org/2000/svg" width="32" height="32" viewBox="0 0 32 32">
<path d="M16.658 2.514c-0.179-0.143-0.409-0.23-0.658-0.23s-0.479 0.087-0.661 0.231l0.002-0.002-7.531 6.052h-1.41c-2.272 0-4.114 1.776-4.114 3.966v13.218c0 2.188 1.842 3.963 4.114 3.963h19.2c2.272 0 4.114-1.776 4.114-3.966v-13.218c0-2.19-1.842-3.966-4.114-3.966h-1.41l-7.531-6.048zM20.978 8.565h-9.957l4.978-3.998 4.976 3.998zM8.114 13.852c0-0.548 0.459-0.99 1.028-0.99h13.714c0.567 0 1.028 0.443 1.028 0.99 0 0.548-0.459 0.992-1.028 0.992h-13.714c-0.005 0-0.012 0-0.018 0-0.552 0-1-0.442-1.010-0.991v-0.001zM9.143 18.148h13.714c0.567 0 1.028 0.443 1.028 0.99 0 0.548-0.459 0.992-1.028 0.992h-13.714c-0.005 0-0.012 0-0.018 0-0.552 0-1-0.442-1.010-0.991v-0.001c0-0.546 0.459-0.99 1.028-0.99zM8.114 24.427c0-0.548 0.459-0.992 1.028-0.992h6.857c0.569 0 1.028 0.443 1.028 0.992s-0.459 0.992-1.028 0.992h-6.857c-0.005 0-0.012 0-0.018 0-0.552 0-1-0.442-1.010-0.991v-0.001z"></path>
</svg>
