<!-- Generated by IcoMoon.io -->
<svg version="1.1" xmlns="http://www.w3.org/2000/svg" width="32" height="32" viewBox="0 0 32 32">
<path d="M15.239 2.514c0.214-0.144 0.477-0.231 0.761-0.231s0.547 0.086 0.766 0.234l-0.005-0.003 7.060 4.708h1.349c2.51 0 4.544 2.034 4.544 4.546v13.399c0 2.512-2.034 4.546-4.546 4.546h-18.334c-0.001 0-0.002 0-0.003 0-2.511 0-4.546-2.035-4.546-4.546v0-13.397c0-2.514 2.034-4.548 4.546-4.549h1.349l7.056-4.708zM8.576 9.966h-1.744c-0.996 0-1.803 0.807-1.803 1.803v0 13.399c0 0.997 0.807 1.803 1.803 1.803h18.336c0.996 0 1.803-0.807 1.803-1.803v0-13.397c0-0.996-0.807-1.803-1.803-1.803v0h-16.592zM18.875 7.223h-5.751l2.875-1.918 2.875 1.918zM8.457 13.532c0-0.757 0.614-1.371 1.371-1.372h12.343c0.006-0 0.013-0 0.021-0 0.758 0 1.372 0.614 1.372 1.372s-0.614 1.372-1.372 1.372c-0.007 0-0.015-0-0.022-0h-12.342c-0.757-0-1.371-0.614-1.371-1.371v-0zM8.457 18.468c0-0.757 0.614-1.371 1.371-1.371h12.343c0.006-0 0.013-0 0.021-0 0.758 0 1.372 0.614 1.372 1.372s-0.614 1.372-1.372 1.372c-0.007 0-0.015-0-0.022-0h-12.342c-0.757-0-1.371-0.614-1.371-1.372v0zM8.457 23.406c0-0.757 0.614-1.371 1.371-1.371h6.172c0.749 0.012 1.351 0.621 1.351 1.371s-0.602 1.36-1.35 1.371h-6.173c-0.757-0-1.371-0.614-1.371-1.372v0z"></path>
</svg>
