<!-- Generated by IcoMoon.io -->
<svg version="1.1" xmlns="http://www.w3.org/2000/svg" width="32" height="32" viewBox="0 0 32 32">
<path d="M7.6 5.028c-0.008-0-0.018-0-0.027-0-0.764 0-1.384 0.611-1.401 1.37l-0 0.002v19.195c0 1.083 1.314 1.81 2.297 1.088l5.040-3.703c0.689-0.509 1.554-0.814 2.492-0.814s1.803 0.305 2.503 0.822l-0.012-0.008 5.040 3.703c0.983 0.722 2.297-0.005 2.297-1.088v-19.195c0-0.732-0.613-1.372-1.428-1.372h-16.8zM3.428 6.4c0-2.299 1.895-4.114 4.172-4.114h16.8c2.277 0 4.172 1.815 4.172 4.114v19.195c0 3.438-3.954 5.289-6.663 3.298l-5.040-3.703c-0.24-0.176-0.542-0.282-0.868-0.282s-0.628 0.106-0.873 0.285l0.004-0.003-5.040 3.703c-2.708 1.988-6.663 0.137-6.663-3.298v-19.195z"></path>
</svg>
