<!-- Generated by IcoMoon.io -->
<svg version="1.1" xmlns="http://www.w3.org/2000/svg" width="32" height="32" viewBox="0 0 32 32">
<path d="M2.286 8.105c0-2.096 1.828-3.732 3.973-3.513 2.802 0.286 6.738 1.065 9.632 2.903 0.057 0.034 0.162 0.034 0.219 0 2.894-1.838 6.83-2.617 9.632-2.903 2.144-0.219 3.973 1.417 3.973 3.513v12.588c0 2.128-1.81 3.6-3.694 3.794-2.674 0.272-6.094 0.999-8.443 2.489-0.448 0.284-0.993 0.453-1.577 0.453s-1.13-0.169-1.589-0.46l0.012 0.007c-2.35-1.49-5.769-2.217-8.443-2.491-1.883-0.192-3.694-1.664-3.694-3.792v-12.588zM14.628 9.929c-0.084-0.044-0.152-0.084-0.217-0.126l0.011 0.007c-2.35-1.49-5.769-2.217-8.443-2.492-0.567-0.057-0.951 0.354-0.951 0.786v12.588c0 0.402 0.402 0.978 1.23 1.063 2.414 0.247 5.666 0.859 8.37 2.197v-14.023zM17.372 23.952c2.704-1.337 5.957-1.95 8.37-2.194 0.828-0.087 1.23-0.663 1.23-1.065v-12.588c0-0.432-0.384-0.843-0.951-0.786-2.674 0.274-6.094 1.001-8.443 2.492-0.068 0.043-0.137 0.082-0.206 0.119v14.023zM6.002 11.625c0.097-0.671 0.668-1.181 1.358-1.181 0.067 0 0.132 0.005 0.197 0.014l-0.007-0.001c1.623 0.228 3.461 0.608 5.2 1.218 0.514 0.206 0.871 0.7 0.871 1.277 0 0.758-0.614 1.372-1.372 1.372-0.144 0-0.283-0.022-0.414-0.063l0.010 0.003c-1.338-0.471-2.916-0.852-4.545-1.076l-0.13-0.015c-0.671-0.097-1.181-0.668-1.181-1.358 0-0.067 0.005-0.132 0.014-0.197l-0.001 0.007zM6.002 16.094c0.098-0.67 0.668-1.179 1.358-1.179 0.067 0 0.133 0.005 0.197 0.014l-0.007-0.001c0.823 0.114 1.698 0.268 2.583 0.471 0.615 0.144 1.066 0.688 1.066 1.337 0 0.758-0.614 1.372-1.372 1.372-0.108 0-0.213-0.013-0.314-0.036l0.009 0.002c-0.8-0.183-1.598-0.325-2.354-0.43-0.67-0.098-1.179-0.668-1.179-1.358 0-0.068 0.005-0.134 0.014-0.199l-0.001 0.007z"></path>
</svg>
