<!-- Generated by IcoMoon.io -->
<svg version="1.1" xmlns="http://www.w3.org/2000/svg" width="32" height="32" viewBox="0 0 32 32">
<path d="M16 0c0.741 0 1.339 0.615 1.339 1.372v1.463c0 0.757-0.599 1.372-1.339 1.371-0.742-0.009-1.339-0.612-1.339-1.355 0-0.006 0-0.011 0-0.017v0.001-1.463c0-0.757 0.599-1.372 1.339-1.372zM2.466 8c0.23-0.411 0.663-0.685 1.159-0.685 0.247 0 0.478 0.068 0.676 0.185l-0.006-0.003 1.239 0.731c0.64 0.379 0.859 1.218 0.489 1.874-0.23 0.411-0.663 0.685-1.159 0.685-0.247 0-0.478-0.068-0.676-0.185l0.006 0.003-1.239-0.731c-0.404-0.248-0.67-0.687-0.67-1.189 0-0.252 0.067-0.489 0.184-0.692l-0.004 0.007zM29.534 8c0.114 0.197 0.181 0.434 0.181 0.686 0 0.502-0.266 0.941-0.664 1.185l-0.006 0.003-1.239 0.731c-0.192 0.114-0.423 0.182-0.669 0.182-0.497 0-0.929-0.273-1.156-0.678l-0.003-0.007c-0.114-0.197-0.181-0.434-0.181-0.686 0-0.502 0.266-0.941 0.664-1.185l0.006-0.003 1.239-0.731c0.192-0.114 0.423-0.182 0.67-0.182 0.497 0 0.929 0.273 1.156 0.678l0.003 0.007zM6.023 21.897c0.114 0.197 0.181 0.433 0.181 0.686 0 0.502-0.266 0.941-0.664 1.185l-0.006 0.003-1.239 0.731c-0.192 0.114-0.423 0.182-0.67 0.182-0.497 0-0.929-0.273-1.156-0.678l-0.003-0.007c-0.114-0.197-0.181-0.433-0.181-0.686 0-0.502 0.266-0.941 0.664-1.185l0.006-0.003 1.239-0.731c0.192-0.114 0.423-0.182 0.669-0.182 0.497 0 0.929 0.273 1.156 0.678l0.003 0.007zM25.977 21.897c0.23-0.411 0.663-0.685 1.159-0.685 0.247 0 0.478 0.068 0.675 0.185l-0.006-0.003 1.239 0.731c0.64 0.379 0.859 1.218 0.489 1.874-0.23 0.411-0.663 0.685-1.159 0.685-0.247 0-0.478-0.068-0.676-0.185l0.006 0.003-1.239-0.731c-0.404-0.248-0.67-0.687-0.67-1.189 0-0.252 0.067-0.488 0.184-0.692l-0.004 0.007zM16 27.794c0.741 0 1.339 0.615 1.339 1.371v1.463c0 0.757-0.599 1.372-1.339 1.372-0.742-0.009-1.339-0.612-1.339-1.355 0-0.006 0-0.011 0-0.017v0.001-1.463c0-0.757 0.599-1.372 1.339-1.371zM5.852 16c0-5.605 4.544-10.148 10.148-10.148s10.148 4.544 10.148 10.148v0c0 5.605-4.544 10.148-10.148 10.148s-10.148-4.544-10.148-10.148v0z"></path>
</svg>
