<!-- Generated by IcoMoon.io -->
<svg version="1.1" xmlns="http://www.w3.org/2000/svg" width="32" height="32" viewBox="0 0 32 32">
<path d="M32 11.765c0-1.84-1.497-3.337-3.339-3.337h-7.916v-2.034c-0.004-2.268-1.843-4.106-4.112-4.107h-1.102c-2.269 0.002-4.107 1.841-4.11 4.109v2.030h-8.084c-1.84 0-3.337 1.497-3.337 3.337 0 1.504 1.006 2.761 2.375 3.179 0 0 0.453 0.155 0.948 0.149v11.141c0 2.395 1.723 3.483 3.202 3.483h18.907c1.479 0 3.246-1.001 3.246-3.483v-11.214c0.741 0 1.154-0.142 1.154-0.142 1.262-0.475 2.167-1.687 2.167-3.113zM13.486 6.393c0-1.125 0.919-2.043 2.046-2.043h1.102c1.129 0 2.048 0.919 2.048 2.046v2.030h-5.196v-2.030zM25.433 27.65h-1.692v-4.231c0-0.569-0.462-1.031-1.031-1.031s-1.031 0.462-1.031 1.031v0 4.231h-4.544v-4.231c0-0.569-0.462-1.031-1.031-1.031s-1.031 0.462-1.031 1.031v0 4.231h-4.544v-4.231c0-0.569-0.462-1.031-1.031-1.031s-1.031 0.462-1.031 1.031v0 4.231h-1.943c-0.574 0-1.136-0.649-1.136-1.419v-11.132h21.225v11.127c0 0.775-0.485 1.424-1.182 1.424zM28.663 13.035h-25.326c-0.703 0-1.273-0.57-1.273-1.273s0.57-1.273 1.273-1.273h25.323c0.016-0.001 0.035-0.001 0.054-0.001 0.703 0 1.273 0.57 1.273 1.273s-0.57 1.273-1.273 1.273c-0.018 0-0.036-0-0.054-0.001l0.003 0z"></path>
</svg>
