<!-- Generated by IcoMoon.io -->
<svg version="1.1" xmlns="http://www.w3.org/2000/svg" width="32" height="32" viewBox="0 0 32 32">
<path d="M2.286 8.594c0-0 0-0 0-0 0-3.484 2.824-6.308 6.308-6.308 0 0 0 0 0 0h14.811c0 0 0 0 0 0 3.484 0 6.308 2.824 6.308 6.308 0 0 0 0 0 0v-0 14.811c0 0 0 0 0 0 0 3.484-2.824 6.308-6.308 6.308-0 0-0 0-0 0h-14.811c-0 0-0 0-0 0-3.484 0-6.308-2.824-6.308-6.308 0-0 0-0 0-0v0-14.811zM8.594 5.028c-0 0-0 0-0 0-1.969 0-3.566 1.596-3.566 3.566 0 0 0 0 0 0v-0 14.811c0 1.97 1.595 3.566 3.566 3.566h14.811c0 0 0 0 0 0 1.969 0 3.566-1.596 3.566-3.566 0-0 0-0 0-0v0-14.811c0-0 0-0 0-0 0-1.969-1.596-3.566-3.566-3.566-0 0-0 0-0 0h-14.811zM10.711 8.281c0.757 0 1.371 0.614 1.371 1.371v0.48h0.48c0.749 0.012 1.351 0.621 1.351 1.371s-0.602 1.36-1.35 1.371h-0.481v0.48c0 0.006 0 0.013 0 0.021 0 0.758-0.614 1.372-1.372 1.372s-1.372-0.614-1.372-1.372c0-0.007 0-0.015 0-0.022v0.001-0.48h-0.48c-0.006 0-0.013 0-0.021 0-0.758 0-1.372-0.614-1.372-1.372s0.614-1.372 1.372-1.372c0.007 0 0.015 0 0.022 0h0.479v-0.48c0-0.757 0.614-1.371 1.372-1.371v0zM17.097 11.504c0-0.757 0.614-1.371 1.371-1.372h4.937c0.006-0 0.013-0 0.021-0 0.758 0 1.372 0.614 1.372 1.372s-0.614 1.372-1.372 1.372c-0.007 0-0.015-0-0.022-0h-4.936c-0.757-0-1.371-0.614-1.371-1.371v-0zM17.097 19.438c0-0.757 0.614-1.371 1.371-1.372h4.937c0.006-0 0.013-0 0.021-0 0.758 0 1.372 0.614 1.372 1.372s-0.614 1.372-1.372 1.372c-0.007 0-0.015-0-0.022-0h-4.936c-0.757-0-1.371-0.614-1.371-1.371v-0zM7.888 18.468c0.248-0.248 0.591-0.402 0.97-0.402s0.722 0.154 0.97 0.402l0.883 0.883 0.88-0.883c0.248-0.248 0.591-0.402 0.97-0.402 0.758 0 1.372 0.614 1.372 1.372 0 0.379-0.154 0.722-0.402 0.97v0l-0.883 0.88 0.883 0.883c0.248 0.248 0.402 0.591 0.402 0.97 0 0.758-0.614 1.372-1.372 1.372-0.379 0-0.722-0.154-0.97-0.402v0l-0.88-0.882-0.883 0.882c-0.248 0.249-0.592 0.403-0.971 0.403-0.758 0-1.373-0.615-1.373-1.373 0-0.379 0.153-0.722 0.402-0.97v0l0.883-0.883-0.883-0.88c-0.248-0.248-0.402-0.591-0.402-0.97s0.154-0.722 0.402-0.97v0zM17.097 23.141c0-0.757 0.614-1.371 1.371-1.372h4.937c0.006-0 0.013-0 0.021-0 0.758 0 1.372 0.614 1.372 1.372s-0.614 1.372-1.372 1.372c-0.007 0-0.015-0-0.022-0h-4.936c-0.757-0-1.371-0.614-1.371-1.371v-0z"></path>
</svg>
