<!-- Generated by IcoMoon.io -->
<svg version="1.1" xmlns="http://www.w3.org/2000/svg" width="32" height="32" viewBox="0 0 32 32">
<path d="M8.539 2.286c-3.454 0-6.254 2.8-6.254 6.254v0 14.921c0 3.454 2.8 6.254 6.254 6.254v0h14.921c3.454 0 6.254-2.8 6.254-6.254v0-14.921c0-3.454-2.8-6.254-6.254-6.254v0h-14.921zM11.95 9.605v0.587h0.585c0.684 0.029 1.227 0.591 1.227 1.279s-0.543 1.25-1.224 1.279l-0.003 0h-0.585v0.585c0 0.707-0.573 1.28-1.28 1.28s-1.28-0.573-1.28-1.28v0-0.585h-0.585c-0.707 0-1.28-0.573-1.28-1.28s0.573-1.28 1.28-1.28h0.587v-0.585c0.029-0.684 0.591-1.227 1.279-1.227s1.25 0.543 1.279 1.224l0 0.003zM18.487 10.192h4.974c0.016-0.001 0.034-0.001 0.053-0.001 0.707 0 1.28 0.573 1.28 1.28s-0.573 1.28-1.28 1.28c-0.019 0-0.037-0-0.056-0.001l0.003 0h-4.974c-0.707 0-1.28-0.573-1.28-1.28s0.573-1.28 1.28-1.28v0zM18.487 18.185h4.974c0.707 0 1.28 0.573 1.28 1.28s-0.573 1.28-1.28 1.28v0h-4.974c-0.707 0-1.28-0.573-1.28-1.28s0.573-1.28 1.28-1.28v0zM9.71 18.56l0.96 0.96 0.96-0.96c0.234-0.25 0.566-0.406 0.935-0.406 0.707 0 1.28 0.573 1.28 1.28 0 0.368-0.155 0.7-0.404 0.933l-0.001 0.001-0.96 0.96 0.96 0.962c0.206 0.226 0.333 0.529 0.333 0.861 0 0.707-0.573 1.28-1.28 1.28-0.332 0-0.634-0.126-0.862-0.334l0.001 0.001-0.96-0.96-0.962 0.96c-0.226 0.206-0.529 0.333-0.861 0.333-0.707 0-1.28-0.573-1.28-1.28 0-0.332 0.126-0.634 0.334-0.862l-0.001 0.001 0.96-0.96-0.96-0.96c-0.25-0.234-0.406-0.566-0.406-0.935 0-0.707 0.573-1.28 1.28-1.28 0.368 0 0.7 0.155 0.933 0.404l0.001 0.001zM23.461 21.915c0.707 0 1.28 0.573 1.28 1.28s-0.573 1.28-1.28 1.28v0h-4.974c-0.707 0-1.28-0.573-1.28-1.28s0.573-1.28 1.28-1.28v0h4.974z"></path>
</svg>
