<!-- Generated by IcoMoon.io -->
<svg version="1.1" xmlns="http://www.w3.org/2000/svg" width="32" height="32" viewBox="0 0 32 32">
<path d="M9.296 5.982h-2.21c-1.136 0-2.057 0.921-2.057 2.057v0 3.221h21.943v-3.223c0-1.136-0.921-2.057-2.057-2.057v0h-2.21v1.525c-0.012 0.749-0.621 1.351-1.371 1.351s-1.36-0.602-1.371-1.35v-1.524h-7.922v1.522c-0.012 0.749-0.621 1.351-1.371 1.351s-1.36-0.602-1.371-1.35v-1.524zM5.028 14.002v10.912c0 1.136 0.921 2.057 2.057 2.057v0h17.829c1.136 0 2.057-0.921 2.057-2.057v0-10.912h-21.943zM22.64 3.237h2.274c2.652 0 4.8 2.148 4.8 4.8v16.878c0 2.651-2.149 4.8-4.8 4.8v0h-17.829c-2.651 0-4.8-2.149-4.8-4.8v0-16.876c0-2.652 2.148-4.8 4.8-4.8h2.274c0.183-0.558 0.698-0.953 1.306-0.953s1.124 0.396 1.303 0.944l0.003 0.010h8.055c0.183-0.558 0.698-0.953 1.306-0.953s1.124 0.396 1.303 0.944l0.003 0.010z"></path>
</svg>
