<!-- Generated by IcoMoon.io -->
<svg version="1.1" xmlns="http://www.w3.org/2000/svg" width="32" height="32" viewBox="0 0 32 32">
<path d="M18.492 3.239h-5.077v4.258c0 1.515-1.228 2.743-2.743 2.743s-2.743-1.228-2.743-2.743v0-4.258h-0.843c-2.651 0-4.8 2.149-4.8 4.8v0 3.207h27.429v-3.207c0-2.651-2.149-4.8-4.8-4.8v0h-0.937v4.258c0 1.515-1.228 2.743-2.743 2.743s-2.743-1.228-2.743-2.743v0-4.258zM29.714 13.988h-27.429v10.926c0 2.652 2.148 4.8 4.8 4.8h17.829c2.651 0 4.8-2.149 4.8-4.8v0-10.926zM9.303 7.497v-4.265c0.176-0.551 0.759-0.951 1.372-0.951 0.608 0 1.193 0.4 1.371 0.951v4.265c-0.012 0.749-0.621 1.351-1.371 1.351s-1.36-0.602-1.371-1.35v-0.001zM19.863 7.497v-4.265c0.176-0.551 0.759-0.951 1.372-0.951 0.61 0 1.193 0.4 1.371 0.951v4.265c-0.012 0.749-0.621 1.351-1.371 1.351s-1.36-0.602-1.371-1.35v-0.001z"></path>
</svg>
