<!-- Generated by IcoMoon.io -->
<svg version="1.1" xmlns="http://www.w3.org/2000/svg" width="32" height="32" viewBox="0 0 32 32">
<path d="M1.447 2.912c-0.187-0.187-0.303-0.446-0.303-0.732 0-0.572 0.464-1.036 1.036-1.036 0.286 0 0.545 0.116 0.732 0.303l27.641 27.641c0.162 0.182 0.261 0.424 0.261 0.688 0 0.573-0.465 1.038-1.038 1.038-0.265 0-0.506-0.099-0.689-0.262l0.001 0.001-2.578-2.114h-20.777c-1.963-0-3.554-1.591-3.554-3.554v-13.623c0-1.963 1.593-3.554 3.554-3.554h0.668l-4.953-4.796zM13.387 14.852c-0.936 0.766-1.529 1.922-1.529 3.215 0 2.29 1.856 4.146 4.146 4.146 1.294 0 2.449-0.593 3.21-1.521l0.006-0.007-5.833-5.833zM13.332 3.561h5.335c0.923 0 1.788 0.462 2.299 1.232l1.943 2.914h3.358c1.961 0 3.552 1.591 3.552 3.554v11.753c0 0 0 0 0 0.001 0 0.261-0.212 0.473-0.473 0.473-0.13 0-0.248-0.053-0.334-0.138l0 0-18.263-18.13 0.283-0.428c0.503-0.746 1.344-1.231 2.299-1.232h0zM16 9.090c0.764 0 1.383-0.619 1.383-1.383s-0.619-1.383-1.383-1.383v0c-0.764 0-1.383 0.619-1.383 1.383s0.619 1.383 1.383 1.383v0z"></path>
</svg>
