<!-- Generated by IcoMoon.io -->
<svg version="1.1" xmlns="http://www.w3.org/2000/svg" width="32" height="32" viewBox="0 0 32 32">
<path d="M17.692 8.046c0 0.808-0.655 1.463-1.463 1.463s-1.463-0.655-1.463-1.463v0c0-0.808 0.655-1.463 1.463-1.463s1.463 0.655 1.463 1.463v0zM12.91 5.028c-0.549 0-1.023 0.323-1.242 0.789l-0.004 0.008-1.161 2.517c-0.222 0.476-0.696 0.8-1.246 0.8h-3.314c-1.136 0-2.057 0.921-2.057 2.057v13.714c0 1.136 0.921 2.057 2.057 2.057v0h20.114c1.136 0 2.057-0.921 2.057-2.057v0-13.714c0-1.136-0.921-2.057-2.057-2.057v0h-3.314c-0.549-0-1.023-0.323-1.242-0.789l-0.004-0.008-1.161-2.517c-0.223-0.475-0.696-0.798-1.246-0.798h-6.181zM9.172 4.677c0.668-1.423 2.089-2.391 3.736-2.391 0 0 0.001 0 0.001 0h6.181c0 0 0.001 0 0.001 0 1.647 0 3.068 0.968 3.725 2.366l0.011 0.025 0.793 1.723h2.437c2.652 0 4.8 2.148 4.8 4.8v13.714c0 2.651-2.149 4.8-4.8 4.8v0h-20.114c-2.651 0-4.8-2.149-4.8-4.8v0-13.714c0-2.652 2.148-4.8 4.8-4.8h2.437l0.793-1.721zM16.228 15.314c-0.009-0-0.020-0-0.031-0-1.666 0-3.017 1.351-3.017 3.017s1.351 3.017 3.017 3.017c0.011 0 0.022-0 0.032-0h-0.002c1.653-0.017 2.986-1.361 2.986-3.017s-1.333-3-2.985-3.017h-0.002zM10.468 18.332c0-3.181 2.579-5.76 5.76-5.76s5.76 2.579 5.76 5.76v0c0 3.181-2.579 5.76-5.76 5.76s-5.76-2.579-5.76-5.76v0z"></path>
</svg>
