<!-- Generated by IcoMoon.io -->
<svg version="1.1" xmlns="http://www.w3.org/2000/svg" width="32" height="32" viewBox="0 0 32 32">
<path d="M10.661 3.643l-2.089 3.214h-4c-0 0-0 0-0 0-1.893 0-3.428 1.535-3.428 3.428v0 16c0 0 0 0 0 0 0 1.893 1.535 3.428 3.428 3.428 0 0 0 0 0 0h22.857c0 0 0 0 0 0 1.893 0 3.428-1.535 3.428-3.428 0-0 0-0 0-0v0-16c0-1.893-1.535-3.428-3.428-3.428-0 0-0 0-0 0h-4l-2.089-3.214c-0.531-0.819-1.439-1.353-2.472-1.358h-5.733c-0.994 0-1.92 0.51-2.473 1.358zM20.457 18.286c0 2.526-1.995 4.572-4.457 4.572s-4.457-2.046-4.457-4.572 1.995-4.572 4.457-4.571 4.457 2.046 4.457 4.571zM16 8.382c-0.823-0.010-1.486-0.68-1.486-1.504 0-0.007 0-0.014 0-0.021v0.001c0-0.841 0.665-1.525 1.486-1.525s1.486 0.683 1.486 1.525c0 0.006 0 0.013 0 0.020 0 0.824-0.663 1.494-1.485 1.504h-0.001z"></path>
</svg>
