<!-- Generated by IcoMoon.io -->
<svg version="1.1" xmlns="http://www.w3.org/2000/svg" width="32" height="32" viewBox="0 0 32 32">
<path d="M1.545 1.545c0.248-0.248 0.591-0.401 0.969-0.401s0.721 0.153 0.969 0.401v0l26.972 26.972c0.228 0.244 0.368 0.573 0.368 0.934 0 0.758-0.614 1.372-1.372 1.372-0.361 0-0.69-0.14-0.935-0.368l0.001 0.001-8.645-8.645c-0.988 1.029-2.374 1.668-3.91 1.668-2.992 0-5.417-2.425-5.417-5.417 0-1.536 0.639-2.922 1.666-3.908l0.002-0.002-4.875-4.871h-1.394c-1.136 0-2.057 0.921-2.057 2.057v13.371c0 1.136 0.921 2.057 2.057 2.057v0h18.149c0.006-0 0.013-0 0.021-0 0.758 0 1.372 0.614 1.372 1.372s-0.614 1.372-1.372 1.372c-0.007 0-0.015-0-0.022-0h-18.148c-2.651 0-4.8-2.149-4.8-4.8v0-13.371c0-0 0-0 0-0 0-2.226 1.516-4.098 3.571-4.641l0.033-0.008-3.203-3.205c-0.248-0.248-0.401-0.591-0.401-0.969s0.153-0.721 0.401-0.969v0zM14.148 16.092c-0.518 0.489-0.84 1.18-0.84 1.946 0 1.477 1.197 2.674 2.674 2.674 0.766 0 1.458-0.322 1.945-0.839l0.001-0.001-3.778-3.78zM13.394 5.234c-0.458 0-0.861 0.232-1.099 0.585l-0.003 0.005-0.279 0.418c-0.247 0.384-0.673 0.635-1.157 0.635-0.758 0-1.372-0.614-1.372-1.372 0-0.294 0.093-0.567 0.25-0.79l-0.003 0.004 0.277-0.416c0.74-1.099 1.979-1.813 3.386-1.813 0.001 0 0.001 0 0.002 0h5.202c1.362 0 2.631 0.679 3.387 1.813l1.488 2.233h2.583c2.652 0 4.8 2.148 4.8 4.8v11.406c0 0.006 0 0.013 0 0.021 0 0.758-0.614 1.372-1.372 1.372s-1.372-0.614-1.372-1.372c0-0.007 0-0.015 0-0.022v0.001-11.406c0-1.136-0.921-2.057-2.057-2.057v0h-3.314c-0.001 0-0.001 0-0.002 0-0.474 0-0.891-0.24-1.138-0.605l-0.003-0.005-1.895-2.846c-0.241-0.358-0.645-0.59-1.103-0.59-0 0-0.001 0-0.001 0h-5.202zM17.561 8.228c0 0.736-0.597 1.333-1.333 1.333s-1.333-0.597-1.333-1.333v0c0-0.736 0.597-1.333 1.333-1.333s1.333 0.597 1.333 1.333v0z"></path>
</svg>
