<!-- Generated by IcoMoon.io -->
<svg version="1.1" xmlns="http://www.w3.org/2000/svg" width="32" height="32" viewBox="0 0 32 32">
<path d="M17.143 3.968l-7.81 0.004c-0.59-1.543-2.247-2.64-4-2.64h-2.665c-0.812 0-1.335 0.494-1.335 1.303 0 0.812 0.526 1.333 1.335 1.333h2.665c0.649 0 1.335 0.686 1.335 1.335v13.332c0 2.686 2.647 5.332 5.332 5.333h13.781c2.617 0 4.773-2.514 4.882-5.127 0.003-0.038 0.005-0.081 0.005-0.126v-2.715h-11.239c-1.262 0-2.286-1.023-2.286-2.286v0-9.746zM14.668 28.668c0 1.105-0.895 2-2 2s-2-0.895-2-2v0c0-1.105 0.895-2 2-2s2 0.895 2 2v0zM24.668 30.668c1.105 0 2-0.895 2-2s-0.895-2-2-2v0c-1.105 0-2 0.895-2 2s0.895 2 2 2v0zM24.517 1.678c0.745 0 1.348 0.612 1.348 1.371v2.743h2.501c0.745 0 1.348 0.612 1.349 1.372 0 0.754-0.603 1.372-1.349 1.372h-2.501v2.743c0 0.754-0.603 1.372-1.348 1.371-0.746-0.007-1.349-0.613-1.349-1.36 0-0.004 0-0.008 0-0.012v0.001-2.743h-2.498c-0.746-0.007-1.349-0.613-1.349-1.36 0-0.004 0-0.008 0-0.012v0.001c0-0.759 0.603-1.372 1.348-1.372h2.498v-2.743c0-0.759 0.603-1.372 1.348-1.371z"></path>
</svg>
