<!-- Generated by IcoMoon.io -->
<svg version="1.1" xmlns="http://www.w3.org/2000/svg" width="32" height="32" viewBox="0 0 32 32">
<path d="M17.143 3.968l-7.81 0.004c-0.59-1.543-2.247-2.64-4-2.64h-2.665c-0.812 0-1.335 0.494-1.335 1.303 0 0.812 0.526 1.333 1.335 1.333h2.665c0.649 0 1.335 0.686 1.335 1.335v13.332c0 2.686 2.647 5.332 5.332 5.333h13.781c2.617 0 4.773-2.514 4.882-5.127 0.003-0.038 0.005-0.081 0.005-0.126v-2.715h-11.239c-1.262 0-2.286-1.023-2.286-2.286v0-9.746zM14.668 28.668c0 1.105-0.895 2-2 2s-2-0.895-2-2v0c0-1.105 0.895-2 2-2s2 0.895 2 2v0zM24.668 30.668c1.105 0 2-0.895 2-2s-0.895-2-2-2v0c-1.105 0-2 0.895-2 2s0.895 2 2 2v0zM21.074 2.788c0.31-0.31 0.738-0.501 1.211-0.501s0.901 0.192 1.211 0.501l1.646 1.646 1.646-1.646c0.314-0.335 0.759-0.544 1.252-0.544 0.947 0 1.714 0.768 1.714 1.714 0 0.494-0.209 0.939-0.543 1.251l-0.001 0.001-1.646 1.646 1.646 1.646c0.285 0.305 0.46 0.716 0.46 1.168 0 0.947-0.768 1.714-1.714 1.714-0.452 0-0.863-0.175-1.17-0.461l0.001 0.001-1.646-1.646-1.646 1.646c-0.314 0.338-0.761 0.548-1.257 0.548-0.947 0-1.714-0.768-1.714-1.714 0-0.496 0.21-0.943 0.547-1.256l0.001-0.001 1.646-1.646-1.646-1.646c-0.31-0.31-0.501-0.739-0.501-1.212s0.192-0.901 0.501-1.212v0z"></path>
</svg>
