<!-- Generated by IcoMoon.io -->
<svg version="1.1" xmlns="http://www.w3.org/2000/svg" width="32" height="32" viewBox="0 0 32 32">
<path d="M24.252 13.339c0.245 0.231 0.576 0.373 0.94 0.373s0.696-0.142 0.941-0.374l-0.001 0.001 3.2-2.894c0.265-0.251 0.43-0.605 0.43-0.998 0-0.758-0.614-1.372-1.372-1.372-0.365 0-0.697 0.143-0.942 0.375l0.001-0.001-0.887 0.711v-5.504c-0.012-0.749-0.621-1.351-1.371-1.351s-1.36 0.602-1.371 1.35v5.505l-0.887-0.709c-0.242-0.218-0.564-0.351-0.916-0.351-0.758 0-1.372 0.614-1.372 1.372 0 0.38 0.155 0.724 0.404 0.973l0 0 3.2 2.894zM16 5.303c0-0.812-0.523-1.328-1.332-1.328h-5.335c-0.59-1.545-2.247-2.642-4-2.643h-2.665c-0.812 0-1.335 0.494-1.335 1.303 0 0.812 0.526 1.333 1.335 1.333h2.665c0.649 0 1.335 0.686 1.335 1.335v13.332c0 2.686 2.647 5.332 5.333 5.333h13.781c2.686 0 4.887-2.647 4.887-5.333v-1.332c0-0.812-0.526-1.335-1.335-1.335s-1.332 0.526-1.332 1.335v1.332c0 1.065-1.154 2.668-2.219 2.668h-13.783c-1.063 0-2.665-1.602-2.665-2.668v-12h5.335c0.809 0 1.332-0.523 1.332-1.332zM12.668 30.668c1.105 0 2-0.895 2-2s-0.895-2-2-2v0c-1.105 0-2 0.895-2 2s0.895 2 2 2v0zM24.668 30.668c1.105 0 2-0.895 2-2s-0.895-2-2-2v0c-1.105 0-2 0.895-2 2s0.895 2 2 2v0z"></path>
</svg>
