<!-- Generated by IcoMoon.io -->
<svg version="1.1" xmlns="http://www.w3.org/2000/svg" width="32" height="32" viewBox="0 0 32 32">
<path d="M16 5.303c0-0.812-0.523-1.328-1.332-1.328h-5.335c-0.59-1.545-2.247-2.642-4-2.643h-2.665c-0.812 0-1.335 0.494-1.335 1.303 0 0.812 0.526 1.333 1.335 1.333h2.665c0.649 0 1.335 0.686 1.335 1.335v13.332c0 2.686 2.647 5.332 5.333 5.333h13.781c2.686 0 4.887-2.647 4.887-5.333v-1.332c0-0.812-0.526-1.335-1.335-1.335s-1.332 0.526-1.332 1.335v1.332c0 1.065-1.154 2.668-2.219 2.668h-13.783c-1.063 0-2.665-1.602-2.665-2.668v-12h5.335c0.809 0 1.332-0.523 1.332-1.332zM12.668 30.668c1.105 0 2-0.895 2-2s-0.895-2-2-2v0c-1.105 0-2 0.895-2 2s0.895 2 2 2v0zM24.668 30.668c1.105 0 2-0.895 2-2s-0.895-2-2-2v0c-1.105 0-2 0.895-2 2s0.895 2 2 2v0zM24.517 1.678c0.745 0 1.348 0.612 1.348 1.371v2.743h2.501c0.745 0 1.348 0.612 1.349 1.372 0 0.754-0.603 1.372-1.349 1.372h-2.501v2.743c0 0.754-0.603 1.372-1.348 1.371-0.746-0.007-1.349-0.613-1.349-1.36 0-0.004 0-0.008 0-0.012v0.001-2.743h-2.498c-0.746-0.007-1.349-0.613-1.349-1.36 0-0.004 0-0.008 0-0.012v0.001c0-0.759 0.603-1.372 1.348-1.372h2.498v-2.743c0-0.759 0.603-1.372 1.348-1.371z"></path>
</svg>
