<!-- Generated by IcoMoon.io -->
<svg version="1.1" xmlns="http://www.w3.org/2000/svg" width="32" height="32" viewBox="0 0 32 32">
<path d="M12 3.968l-2.668 0.004c-0.59-1.543-2.247-2.64-4-2.64h-2.665c-0.812 0-1.335 0.494-1.335 1.303 0 0.812 0.526 1.333 1.335 1.333h2.665c0.649 0 1.335 0.686 1.335 1.335v13.332c0 2.686 2.647 5.332 5.333 5.333h13.781c2.617 0 4.773-2.514 4.882-5.127 0.003-0.038 0.005-0.081 0.005-0.126v-9.413c0-2.686-2.201-5.335-4.887-5.335h-13.783zM23.815 14.61c0.22 0.255 0.354 0.59 0.354 0.955 0 0.353-0.125 0.677-0.333 0.931l0.002-0.003c-0.718 0.839-1.692 1.445-2.643 1.842-0.958 0.4-1.988 0.626-2.894 0.626-1.767 0-3.913-0.8-5.403-2.299-0.244-0.261-0.394-0.614-0.394-1.001 0-0.332 0.11-0.638 0.296-0.884l-0.003 0.004c0.197-0.272 0.514-0.447 0.872-0.447 0.306 0 0.582 0.128 0.777 0.333l0 0c1.024 1.028 2.603 1.63 3.853 1.63 0.59 0 1.348-0.155 2.092-0.464 0.745-0.311 1.374-0.738 1.769-1.2 0.198-0.245 0.499-0.401 0.836-0.401 0.327 0 0.619 0.146 0.816 0.377l0.001 0.002zM14.668 28.668c0 1.105-0.895 2-2 2s-2-0.895-2-2v0c0-1.105 0.895-2 2-2s2 0.895 2 2v0zM26.668 28.668c0 1.105-0.895 2-2 2s-2-0.895-2-2v0c0-1.105 0.895-2 2-2s2 0.895 2 2v0z"></path>
</svg>
