<!-- Generated by IcoMoon.io -->
<svg version="1.1" xmlns="http://www.w3.org/2000/svg" width="32" height="32" viewBox="0 0 32 32">
<path d="M17.143 3.968l-7.81 0.004c-0.59-1.543-2.247-2.64-4-2.64h-2.665c-0.812 0-1.335 0.494-1.335 1.303 0 0.812 0.526 1.333 1.335 1.333h2.665c0.649 0 1.335 0.686 1.335 1.335v13.332c0 2.686 2.647 5.332 5.332 5.333h13.781c2.617 0 4.773-2.514 4.882-5.127 0.003-0.038 0.005-0.081 0.005-0.126v-2.715h-11.239c-1.262 0-2.286-1.023-2.286-2.286v0-9.746zM14.668 28.668c0 1.105-0.895 2-2 2s-2-0.895-2-2v0c0-1.105 0.895-2 2-2s2 0.895 2 2v0zM24.668 30.668c1.105 0 2-0.895 2-2s-0.895-2-2-2v0c-1.105 0-2 0.895-2 2s0.895 2 2 2v0zM24.252 13.339c0.245 0.231 0.576 0.373 0.94 0.373s0.696-0.142 0.941-0.374l-0.001 0.001 3.2-2.894c0.265-0.251 0.43-0.605 0.43-0.998 0-0.758-0.614-1.372-1.372-1.372-0.365 0-0.697 0.143-0.942 0.375l0.001-0.001-0.887 0.711v-5.504c-0.012-0.749-0.621-1.351-1.371-1.351s-1.36 0.602-1.371 1.35v5.505l-0.887-0.709c-0.248-0.247-0.59-0.399-0.967-0.399-0.758 0-1.372 0.614-1.372 1.372 0 0.405 0.175 0.768 0.454 1.019l0.001 0.001 3.2 2.894z"></path>
</svg>
