<!-- Generated by IcoMoon.io -->
<svg version="1.1" xmlns="http://www.w3.org/2000/svg" width="32" height="32" viewBox="0 0 32 32">
<path d="M23.835 16.494c0.207-0.251 0.332-0.576 0.332-0.93 0-0.365-0.133-0.699-0.354-0.956l0.002 0.002c-0.198-0.232-0.49-0.378-0.817-0.378-0.337 0-0.638 0.156-0.834 0.399l-0.002 0.002c-0.395 0.462-1.024 0.889-1.769 1.2-0.615 0.272-1.331 0.441-2.083 0.464l-0.009 0c-1.25 0-2.83-0.601-3.853-1.632-0.196-0.205-0.472-0.333-0.778-0.333-0.358 0-0.675 0.175-0.87 0.444l-0.002 0.003c-0.184 0.242-0.294 0.549-0.294 0.882 0 0.388 0.15 0.74 0.396 1.003l-0.001-0.001c1.49 1.502 3.637 2.299 5.403 2.299 0.903 0 1.936-0.228 2.894-0.626 0.951-0.398 1.925-1.003 2.64-1.842zM12 3.973v-0.004h13.781c2.686 0 4.887 2.649 4.887 5.335v9.412l-0.005 0.126c-0.11 2.613-2.265 5.127-4.882 5.127h-13.783c-2.683 0-5.33-2.647-5.33-5.333v-13.332c0-0.649-0.686-1.335-1.335-1.335h-2.665c-0.812 0-1.335-0.521-1.335-1.333 0-0.809 0.526-1.303 1.335-1.303h2.665c1.753 0 3.41 1.097 4 2.64h2.668zM28 17.289v-7.986c0-1.065-1.154-2.668-2.219-2.668h-16.448v12c0 1.065 1.602 2.668 2.668 2.668h13.781c1.065 0 2.217-1.602 2.217-2.668v-1.346zM14.668 28.668c0 1.105-0.895 2-2 2s-2-0.895-2-2v0c0-1.105 0.895-2 2-2s2 0.895 2 2v0zM24.668 30.668c1.105 0 2-0.895 2-2s-0.895-2-2-2v0c-1.105 0-2 0.895-2 2s0.895 2 2 2v0z"></path>
</svg>
