<!-- Generated by IcoMoon.io -->
<svg version="1.1" xmlns="http://www.w3.org/2000/svg" width="32" height="32" viewBox="0 0 32 32">
<path d="M17.143 3.968l-7.81 0.004c-0.59-1.543-2.247-2.64-4-2.64h-2.665c-0.812 0-1.335 0.494-1.335 1.303 0 0.812 0.526 1.333 1.335 1.333h2.665c0.649 0 1.335 0.686 1.335 1.335v13.332c0 2.686 2.647 5.332 5.332 5.333h13.781c2.617 0 4.773-2.514 4.882-5.127 0.003-0.038 0.005-0.081 0.005-0.126v-2.715h-11.239c-1.262 0-2.286-1.023-2.286-2.286v0-9.746zM14.668 28.668c0 1.105-0.895 2-2 2s-2-0.895-2-2v0c0-1.105 0.895-2 2-2s2 0.895 2 2v0zM24.668 30.668c1.105 0 2-0.895 2-2s-0.895-2-2-2v0c-1.105 0-2 0.895-2 2s0.895 2 2 2v0zM29.332 3.973c-0.273-0.229-0.627-0.368-1.015-0.368-0.523 0-0.987 0.254-1.275 0.645l-0.003 0.004-3.694 4.885-2.11-1.957c-0.282-0.267-0.663-0.43-1.083-0.43-0.491 0-0.93 0.224-1.219 0.576l-0.002 0.003c-0.255 0.305-0.41 0.702-0.41 1.135 0 0.506 0.212 0.962 0.551 1.285l0.001 0.001 2.386 2.213c1.292 1.198 3.191 0.967 4.233-0.414l3.906-5.168c0.221-0.292 0.354-0.662 0.354-1.062 0-0.538-0.24-1.020-0.619-1.345l-0.002-0.002z"></path>
</svg>
