<!-- Generated by IcoMoon.io -->
<svg version="1.1" xmlns="http://www.w3.org/2000/svg" width="32" height="32" viewBox="0 0 32 32">
<path d="M16 4c-0.002 0-0.004 0-0.006 0-6.626 0-11.998 5.372-11.998 11.998s5.372 11.998 11.998 11.998c1.666 0 3.253-0.34 4.695-0.953l-0.078 0.030c0.425-0.201 0.871-0.206 1.127-0.197 0.325 0.012 0.674 0.064 1.006 0.128 0.599 0.114 1.298 0.293 1.948 0.462l0.215 0.055c0.704 0.183 1.335 0.338 1.836 0.423-0.065-0.72-0.146-1.337-0.249-1.946l0.020 0.145-0.009-0.071c-0.1-0.565-0.196-1.306-0.262-2.055l-0.008-0.107c-0.013-0.16-0.021-0.347-0.021-0.536s0.008-0.375 0.022-0.56l-0.002 0.024c0.028-0.417 0.143-0.802 0.327-1.144l-0.007 0.015c0.91-1.65 1.446-3.617 1.446-5.71 0-6.626-5.372-11.998-11.998-11.998-0 0-0.001 0-0.001 0h0zM26.734 28.565s0-0.009 0.007-0.023l-0.007 0.023zM27.342 28v0zM1.333 15.995c0-8.098 6.565-14.663 14.663-14.663 0.002 0 0.003 0 0.005 0h-0c0.002 0 0.004 0 0.006 0 8.098 0 14.663 6.565 14.663 14.663 0 2.556-0.654 4.96-1.804 7.052l0.038-0.076c-0.006 0.029-0.011 0.066-0.014 0.103l-0 0.004c-0.014 0.151-0.014 0.366 0.005 0.649 0.039 0.572 0.142 1.259 0.256 2.011v0.014c0.108 0.715 0.228 1.504 0.261 2.162 0.018 0.329 0.018 0.692-0.034 1.031-0.062 0.488-0.286 0.916-0.617 1.234l-0.001 0.001c-0.349 0.295-0.803 0.475-1.299 0.48h-0.001c-0.343 0.018-0.708-0.018-1.040-0.069-0.893-0.158-1.627-0.329-2.348-0.532l0.169 0.041-0.206-0.052c-0.672-0.174-1.28-0.332-1.788-0.427-0.174-0.038-0.382-0.066-0.593-0.079l-0.012-0.001h-0.018c-1.662 0.709-3.595 1.122-5.625 1.122-8.098 0-14.663-6.565-14.663-14.663 0-0.002 0-0.005 0-0.007v0zM22.297 20.972c0.526 0.512 0.539 1.358 0.023 1.883-0.816 0.839-1.925 1.447-3.010 1.842-0.978 0.377-2.11 0.605-3.291 0.626l-0.009 0c-2.012 0-4.459-0.8-6.157-2.299-0.277-0.245-0.45-0.602-0.45-0.999 0-0.736 0.597-1.333 1.333-1.333 0.339 0 0.648 0.127 0.884 0.335l-0.001-0.001c1.166 1.031 2.969 1.632 4.393 1.632 0.863-0.022 1.68-0.19 2.436-0.481l-0.050 0.017c0.85-0.311 1.566-0.738 2.016-1.2 0.242-0.248 0.58-0.402 0.954-0.402 0.363 0 0.691 0.145 0.932 0.38l-0-0z"></path>
</svg>
