<!-- Generated by IcoMoon.io -->
<svg version="1.1" xmlns="http://www.w3.org/2000/svg" width="32" height="32" viewBox="0 0 32 32">
<path d="M16 1.333c-8.097 0.002-14.66 6.566-14.66 14.663 0 8.098 6.565 14.663 14.663 14.663 2.028 0 3.959-0.412 5.716-1.156l-0.096 0.036h0.018c0.13 0.007 0.327 0.030 0.606 0.082 0.505 0.098 1.115 0.254 1.788 0.427l0.206 0.052c0.718 0.188 1.508 0.388 2.178 0.489 0.334 0.052 0.697 0.092 1.040 0.073 0.498-0.007 0.953-0.189 1.306-0.487l-0.003 0.003c0.33-0.318 0.553-0.745 0.614-1.222l0.001-0.010c0.052-0.338 0.052-0.702 0.034-1.028-0.063-0.834-0.155-1.576-0.281-2.307l0.020 0.142v-0.014c-0.114-0.752-0.217-1.44-0.256-2.011-0.009-0.107-0.015-0.23-0.015-0.356 0-0.103 0.004-0.206 0.011-0.308l-0.001 0.014c0.003-0.041 0.008-0.078 0.015-0.114l-0.001 0.006c1.112-2.016 1.766-4.42 1.766-6.976 0-8.098-6.565-14.663-14.663-14.663-0.002 0-0.004 0-0.006 0h0zM22.322 22.857c-0.818 0.839-1.927 1.447-3.010 1.842-0.979 0.377-2.111 0.605-3.294 0.626l-0.009 0c-2.012 0-4.457-0.8-6.157-2.299-0.277-0.245-0.45-0.602-0.45-0.999 0-0.736 0.597-1.333 1.333-1.333 0.339 0 0.648 0.127 0.884 0.335l-0.001-0.001c1.166 1.031 2.969 1.632 4.393 1.632 0.863-0.022 1.68-0.19 2.436-0.481l-0.050 0.017c0.85-0.311 1.568-0.738 2.016-1.2 0.242-0.249 0.581-0.403 0.955-0.403 0.736 0 1.333 0.597 1.333 1.333 0 0.362-0.144 0.69-0.378 0.931l0-0z"></path>
</svg>
