<!-- Generated by IcoMoon.io -->
<svg version="1.1" xmlns="http://www.w3.org/2000/svg" width="32" height="32" viewBox="0 0 32 32">
<path d="M16.267 4.268c-6.627 0-12 5.373-12 12s5.373 12 12 12v0c6.627 0 12-5.373 12-12s-5.373-12-12-12v0zM1.6 16.267c-0.001-0.057-0.001-0.124-0.001-0.192 0-8.101 6.567-14.668 14.667-14.668s14.668 6.567 14.668 14.668c0 0.067-0 0.135-0.001 0.202l0-0.010c-0.108 8.018-6.633 14.476-14.666 14.476s-14.558-6.458-14.666-14.466l-0-0.010zM23.209 11.323c0.241 0.241 0.391 0.575 0.391 0.943s-0.149 0.702-0.391 0.943v0l-8 8c-0.241 0.241-0.575 0.391-0.943 0.391s-0.702-0.149-0.943-0.391v0l-3.998-3.997c-0.241-0.241-0.391-0.575-0.391-0.943 0-0.736 0.597-1.334 1.334-1.334 0.368 0 0.702 0.149 0.943 0.391l3.058 3.058 7.056-7.058c0.241-0.242 0.575-0.391 0.943-0.391s0.702 0.149 0.943 0.391l0 0z"></path>
</svg>
