<!-- Generated by IcoMoon.io -->
<svg version="1.1" xmlns="http://www.w3.org/2000/svg" width="32" height="32" viewBox="0 0 32 32">
<path d="M16 1.333c-8.101 0-14.668 6.567-14.668 14.668s6.567 14.668 14.668 14.668v0c8.101 0 14.668-6.567 14.668-14.668s-6.567-14.668-14.668-14.668v0zM23.209 13.209l-8 8c-0.241 0.241-0.575 0.391-0.943 0.391s-0.702-0.149-0.943-0.391v0l-3.998-3.997c-0.241-0.241-0.391-0.575-0.391-0.943 0-0.736 0.597-1.334 1.334-1.334 0.368 0 0.702 0.149 0.943 0.391l3.058 3.058 7.056-7.058c0.241-0.241 0.575-0.391 0.943-0.391 0.736 0 1.334 0.597 1.334 1.334 0 0.368-0.149 0.702-0.391 0.943v0z"></path>
</svg>
