<!-- Generated by IcoMoon.io -->
<svg version="1.1" xmlns="http://www.w3.org/2000/svg" width="32" height="32" viewBox="0 0 32 32">
<path d="M23.209 11.323c0.241 0.241 0.391 0.575 0.391 0.943s-0.149 0.702-0.391 0.943v0l-8 8c-0.241 0.241-0.575 0.391-0.943 0.391s-0.702-0.149-0.943-0.391v0l-3.998-3.997c-0.241-0.241-0.391-0.575-0.391-0.943 0-0.736 0.597-1.334 1.334-1.334 0.368 0 0.702 0.149 0.943 0.391l3.058 3.058 7.056-7.058c0.241-0.242 0.575-0.391 0.943-0.391s0.702 0.149 0.943 0.391l0 0zM6.668 5.332c-0.001 0-0.002 0-0.003 0-0.736 0-1.333 0.597-1.333 1.332 0 0.001 0 0.002 0 0.003v-0 18.665c0 0.001 0 0.002 0 0.003 0 0.736 0.597 1.332 1.332 1.332 0.001 0 0.002 0 0.003 0h18.665c0.001 0 0.002 0 0.003 0 0.736 0 1.332-0.597 1.332-1.332 0-0.001 0-0.002 0-0.003v0-18.665c0-0.001 0-0.002 0-0.003 0-0.736-0.597-1.333-1.332-1.333-0.001 0-0.002 0-0.003 0h-18.665zM3.838 3.84c0.724-0.723 1.723-1.17 2.827-1.17 0.001 0 0.002 0 0.003 0h18.665c2.209 0 4 1.791 4 4v0 18.665c0 2.209-1.791 4-4 4v0h-18.665c-2.209 0-4-1.791-4-4v0-18.668c0-1.061 0.421-2.080 1.17-2.83z"></path>
</svg>
