<!-- Generated by IcoMoon.io -->
<svg version="1.1" xmlns="http://www.w3.org/2000/svg" width="32" height="32" viewBox="0 0 32 32">
<path d="M27.612 8.388c0.242 0.241 0.392 0.575 0.392 0.944s-0.15 0.703-0.392 0.944l-13.335 13.333c-0.241 0.241-0.575 0.391-0.943 0.391s-0.702-0.149-0.943-0.391v0l-6.668-6.668c-0.245-0.242-0.397-0.578-0.397-0.949 0-0.736 0.597-1.332 1.332-1.332 0.372 0 0.709 0.153 0.95 0.399l5.724 5.723 12.391-12.391c0.241-0.242 0.575-0.391 0.943-0.391s0.702 0.149 0.943 0.391v0z"></path>
</svg>
