<!-- Generated by IcoMoon.io -->
<svg version="1.1" xmlns="http://www.w3.org/2000/svg" width="32" height="32" viewBox="0 0 32 32">
<path d="M16 5.028c-6.059 0-10.972 4.912-10.972 10.972s4.912 10.972 10.972 10.972v0c6.059 0 10.972-4.912 10.972-10.972s-4.912-10.972-10.972-10.972v0zM2.286 16c0-7.574 6.14-13.714 13.714-13.714s13.714 6.14 13.714 13.714v0c0 7.574-6.14 13.714-13.714 13.714s-13.714-6.14-13.714-13.714v0zM16 8.457c0.757 0 1.371 0.614 1.372 1.371v5.184l2.766 0.921c0.535 0.195 0.909 0.7 0.909 1.291 0 0.758-0.614 1.372-1.372 1.372-0.145 0-0.285-0.023-0.416-0.064l0.010 0.003-3.703-1.234c-0.549-0.187-0.937-0.699-0.937-1.301v-6.172c0-0.757 0.614-1.371 1.372-1.371v0z"></path>
</svg>
