<!-- Generated by IcoMoon.io -->
<svg version="1.1" xmlns="http://www.w3.org/2000/svg" width="32" height="32" viewBox="0 0 32 32">
<path d="M16 29.714c7.574 0 13.714-6.14 13.714-13.714s-6.14-13.714-13.714-13.714v0c-7.574 0-13.714 6.14-13.714 13.714s6.14 13.714 13.714 13.714v0zM17.028 9.143v6.117l3.41 1.136c0.413 0.14 0.704 0.524 0.704 0.976 0 0.568-0.461 1.029-1.029 1.029-0.116 0-0.228-0.019-0.332-0.055l0.007 0.002-4.114-1.372c-0.412-0.14-0.704-0.524-0.704-0.976 0-0 0-0 0-0v0-6.857c0-0.568 0.46-1.028 1.028-1.028s1.028 0.46 1.028 1.028v0z"></path>
</svg>
