<!-- Generated by IcoMoon.io -->
<svg version="1.1" xmlns="http://www.w3.org/2000/svg" width="32" height="32" viewBox="0 0 32 32">
<path d="M29.714 16c0 7.574-6.14 13.714-13.714 13.714s-13.714-6.14-13.714-13.714v0c0-7.574 6.14-13.714 13.714-13.714s13.714 6.14 13.714 13.714v0zM20.606 20.606c0.186-0.186 0.301-0.443 0.301-0.727s-0.115-0.541-0.301-0.727v0l-3.152-3.152 3.154-3.152c0.186-0.186 0.301-0.443 0.301-0.727 0-0.568-0.461-1.029-1.029-1.029-0.284 0-0.542 0.115-0.728 0.302v0l-3.152 3.152-3.152-3.154c-0.186-0.186-0.443-0.301-0.727-0.301-0.568 0-1.029 0.461-1.029 1.029 0 0.284 0.115 0.542 0.302 0.728v0l3.152 3.152-3.154 3.152c-0.186 0.186-0.301 0.443-0.301 0.727 0 0.568 0.461 1.029 1.029 1.029 0.284 0 0.542-0.115 0.728-0.302v0l3.152-3.152 3.152 3.154c0.186 0.186 0.443 0.301 0.727 0.301s0.541-0.115 0.727-0.301v0z"></path>
</svg>
