<!-- Generated by IcoMoon.io -->
<svg version="1.1" xmlns="http://www.w3.org/2000/svg" width="32" height="32" viewBox="0 0 32 32">
<path d="M2.286 8.228c0-3.282 2.661-5.943 5.943-5.943v0h15.543c3.282 0 5.943 2.661 5.943 5.943v0 15.543c0 3.282-2.661 5.943-5.943 5.943v0h-15.543c-3.282 0-5.943-2.661-5.943-5.943v0-15.543zM8.228 5.028c-1.767 0-3.2 1.433-3.2 3.2v0 15.543c0 1.767 1.433 3.2 3.2 3.2v0h15.543c1.767 0 3.2-1.433 3.2-3.2v0-15.543c0-1.767-1.433-3.2-3.2-3.2v0h-15.543zM20.462 11.538c0.248 0.248 0.402 0.591 0.402 0.97s-0.154 0.722-0.402 0.97l-2.521 2.521 2.521 2.521c0.248 0.248 0.402 0.591 0.402 0.97 0 0.758-0.614 1.372-1.372 1.372-0.379 0-0.722-0.154-0.97-0.402l-2.521-2.521-2.521 2.521c-0.248 0.248-0.591 0.402-0.97 0.402-0.758 0-1.372-0.614-1.372-1.372 0-0.379 0.154-0.722 0.402-0.97l2.521-2.521-2.521-2.521c-0.248-0.248-0.402-0.591-0.402-0.97 0-0.758 0.614-1.372 1.372-1.372 0.379 0 0.722 0.154 0.97 0.402l2.521 2.521 2.521-2.521c0.248-0.248 0.591-0.402 0.97-0.402s0.722 0.154 0.97 0.402v0z"></path>
</svg>
