<!-- Generated by IcoMoon.io -->
<svg version="1.1" xmlns="http://www.w3.org/2000/svg" width="32" height="32" viewBox="0 0 32 32">
<path d="M2.286 16c0-7.574 6.14-13.714 13.714-13.714s13.714 6.14 13.714 13.714v0c0 7.574-6.14 13.714-13.714 13.714s-13.714-6.14-13.714-13.714v0zM16 5.028c-6.059 0-10.972 4.912-10.972 10.972s4.912 10.972 10.972 10.972v0c6.059 0 10.972-4.912 10.972-10.972s-4.912-10.972-10.972-10.972v0zM11.538 11.538c0.248-0.248 0.591-0.402 0.97-0.402s0.722 0.154 0.97 0.402l2.521 2.521 2.521-2.521c0.248-0.248 0.591-0.402 0.97-0.402 0.758 0 1.372 0.614 1.372 1.372 0 0.379-0.154 0.722-0.402 0.97l-2.521 2.521 2.521 2.521c0.248 0.248 0.402 0.591 0.402 0.97 0 0.758-0.614 1.372-1.372 1.372-0.379 0-0.722-0.154-0.97-0.402l-2.521-2.521-2.521 2.521c-0.248 0.248-0.591 0.402-0.97 0.402-0.758 0-1.372-0.614-1.372-1.372 0-0.379 0.154-0.722 0.402-0.97l2.521-2.521-2.521-2.521c-0.248-0.248-0.402-0.591-0.402-0.97s0.154-0.722 0.402-0.97v0z"></path>
</svg>
