<!-- Generated by IcoMoon.io -->
<svg version="1.1" xmlns="http://www.w3.org/2000/svg" width="32" height="32" viewBox="0 0 32 32">
<path d="M16.732 7.314c-3.415 0-5.508 2.416-6.092 3.561-0.232 0.448-0.692 0.75-1.222 0.75-0 0-0 0-0 0h0c-1.127 0-2.843 0.343-4.238 1.328-1.321 0.937-2.437 2.498-2.437 5.202s1.115 4.265 2.437 5.203c1.394 0.983 3.111 1.328 4.238 1.328h14.628c1.242-0.017 2.391-0.404 3.344-1.056l-0.021 0.014c1.017-0.72 1.888-1.922 1.888-4.052 0-2.126-0.871-3.332-1.888-4.053-0.933-0.637-2.081-1.024-3.319-1.040l-0.004-0c-0.757-0-1.371-0.614-1.371-1.372v0c0-0.732-0.418-2.235-1.447-3.559-0.988-1.266-2.446-2.254-4.496-2.254zM8.617 8.919c1.207-1.797 3.934-4.348 8.114-4.347 3.070 0 5.268 1.527 6.658 3.314 0.985 1.264 1.614 2.72 1.881 3.966 1.148 0.174 2.489 0.606 3.68 1.449 1.726 1.218 3.049 3.246 3.049 6.288 0 3.045-1.323 5.074-3.049 6.293-1.652 1.17-3.593 1.545-4.905 1.545h-14.628c-1.554 0-3.863-0.448-5.819-1.833-2.030-1.431-3.598-3.819-3.598-7.438s1.568-6.007 3.598-7.442c1.646-1.163 3.536-1.664 5.019-1.794z"></path>
</svg>
