<!-- Generated by IcoMoon.io -->
<svg version="1.1" xmlns="http://www.w3.org/2000/svg" width="32" height="32" viewBox="0 0 32 32">
<path d="M8.617 8.919c1.207-1.797 3.934-4.348 8.114-4.347 3.070 0 5.268 1.527 6.658 3.314 0.985 1.264 1.614 2.72 1.881 3.966 1.148 0.174 2.489 0.606 3.68 1.449 1.726 1.218 3.049 3.246 3.049 6.288 0 3.045-1.323 5.074-3.049 6.293-1.652 1.17-3.593 1.545-4.905 1.545h-14.628c-1.554 0-3.863-0.448-5.819-1.833-2.030-1.431-3.598-3.819-3.598-7.438s1.568-6.007 3.598-7.442c1.646-1.163 3.536-1.664 5.019-1.794z"></path>
</svg>
