<!-- Generated by IcoMoon.io -->
<svg version="1.1" xmlns="http://www.w3.org/2000/svg" width="32" height="32" viewBox="0 0 32 32">
<path d="M17.038 2.706c-0.312-0.026-0.675-0.041-1.042-0.041-7.363 0-13.332 5.969-13.332 13.332 0 2.107 0.489 4.101 1.36 5.872l-0.035-0.078v5.881c0.001 0.737 0.598 1.334 1.335 1.334 0.089 0 0.176-0.009 0.26-0.025l-0.008 0.001 4.761-0.914c1.66 0.798 3.61 1.265 5.668 1.265 7.363 0 13.332-5.969 13.332-13.332 0-7-5.394-12.739-12.252-13.289l-0.047-0.003zM10.656 14.677h0.014c0.737 0 1.334 0.597 1.334 1.334s-0.597 1.334-1.334 1.334v0h-0.014c-0.737 0-1.334-0.597-1.334-1.334s0.597-1.334 1.334-1.334v0zM15.988 14.677h0.014c0.737 0 1.334 0.597 1.334 1.334s-0.597 1.334-1.334 1.334v0h-0.014c-0.737 0-1.334-0.597-1.334-1.334s0.597-1.334 1.334-1.334v0zM21.323 14.677h0.014c0.737 0 1.334 0.597 1.334 1.334s-0.597 1.334-1.334 1.334v0h-0.014c-0.737 0-1.334-0.597-1.334-1.334s0.597-1.334 1.334-1.334v0z"></path>
</svg>
