<!-- Generated by IcoMoon.io -->
<svg version="1.1" xmlns="http://www.w3.org/2000/svg" width="32" height="32" viewBox="0 0 32 32">
<path d="M8.148 5.223c2.171-1.597 4.898-2.555 7.849-2.555 7.363 0 13.332 5.969 13.332 13.333s-5.969 13.332-13.332 13.332c-2.056 0-4.003-0.465-5.742-1.296l0.080 0.035-4.761 0.914c-0.076 0.016-0.164 0.024-0.254 0.024-0.736 0-1.333-0.597-1.333-1.332 0-0.001 0-0.003 0-0.004v0-5.883c-0.835-1.692-1.323-3.684-1.323-5.79 0-4.412 2.143-8.324 5.446-10.751l0.037-0.026zM16.83 5.365c-0.248-0.021-0.537-0.032-0.828-0.032-5.892 0-10.668 4.776-10.668 10.668 0 1.778 0.435 3.453 1.204 4.927l-0.028-0.059c0.092 0.176 0.146 0.385 0.146 0.607 0 0 0 0.001 0 0.001v-0 4.585l3.616-0.695c0.075-0.015 0.162-0.024 0.25-0.024 0.222 0 0.432 0.054 0.617 0.151l-0.007-0.003c1.416 0.742 3.093 1.177 4.872 1.177 5.892 0 10.668-4.776 10.668-10.668 0-5.601-4.316-10.193-9.803-10.633l-0.038-0.002zM9.323 16.012c0-0.738 0.594-1.335 1.332-1.335h0.014c0.737 0 1.334 0.597 1.334 1.334s-0.597 1.334-1.334 1.334v0h-0.014c-0.736 0-1.332-0.597-1.332-1.332v0zM14.656 16.012c0-0.738 0.597-1.335 1.332-1.335h0.014c0.737 0 1.334 0.597 1.334 1.334s-0.597 1.334-1.334 1.334v0h-0.014c-0.736 0-1.332-0.597-1.332-1.332v0zM19.988 16.012c0-0.738 0.599-1.335 1.335-1.335h0.014c0.737 0 1.334 0.597 1.334 1.334s-0.597 1.334-1.334 1.334v0h-0.014c-0.001 0-0.002 0-0.003 0-0.736 0-1.332-0.597-1.332-1.332 0 0 0 0 0 0v0z"></path>
</svg>
