<!-- Generated by IcoMoon.io -->
<svg version="1.1" xmlns="http://www.w3.org/2000/svg" width="32" height="32" viewBox="0 0 32 32">
<path d="M7.086 5.028h17.829c1.136 0 2.057 0.921 2.057 2.057v0 10.012h-21.943v-10.012c0-1.136 0.921-2.057 2.057-2.057v0zM29.714 7.086c0-2.651-2.149-4.8-4.8-4.8v0h-17.829c-2.651 0-4.8 2.149-4.8 4.8v0 12.892c0 2.652 2.148 4.8 4.8 4.8h7.543v2.194h-2.331c-0.006-0-0.013-0-0.021-0-0.758 0-1.372 0.614-1.372 1.372s0.614 1.372 1.372 1.372c0.007 0 0.015-0 0.022-0h7.405c0.006 0 0.013 0 0.021 0 0.758 0 1.372-0.614 1.372-1.372s-0.614-1.372-1.372-1.372c-0.007 0-0.015 0-0.022 0h-2.33v-2.194h7.543c2.651 0 4.8-2.149 4.8-4.8v0-12.892zM26.972 19.84v0.137c0 1.136-0.921 2.057-2.057 2.057v0h-17.829c-1.136 0-2.057-0.921-2.057-2.057v0-0.137h21.943z"></path>
</svg>
