<!-- Generated by IcoMoon.io -->
<svg version="1.1" xmlns="http://www.w3.org/2000/svg" width="32" height="32" viewBox="0 0 32 32">
<path d="M2.286 6.4c0-2.272 1.842-4.114 4.114-4.114v0h19.2c2.272 0 4.114 1.842 4.114 4.114v0 11.314h-27.429v-11.314zM2.286 19.772h27.429v0.343c-0 2.272-1.842 4.114-4.114 4.114h-8.572v3.429h3.086c0.568 0 1.029 0.461 1.029 1.029s-0.461 1.029-1.029 1.029v0h-8.229c-0.568 0-1.029-0.461-1.029-1.029s0.461-1.029 1.029-1.029v0h3.086v-3.429h-8.572c-2.272 0-4.114-1.842-4.114-4.114v-0.343z"></path>
</svg>
