<!-- Generated by IcoMoon.io -->
<svg version="1.1" xmlns="http://www.w3.org/2000/svg" width="32" height="32" viewBox="0 0 32 32">
<path d="M10.386 2.45c1.659-0.706 3.588-1.117 5.614-1.117 8.101 0 14.668 6.567 14.668 14.668 0 6.075-3.694 11.288-8.958 13.515l-0.096 0.036c-1.659 0.706-3.588 1.117-5.614 1.117-8.101 0-14.668-6.567-14.668-14.668 0-6.075 3.694-11.288 8.958-13.515l0.096-0.036zM16 4c-6.627 0-12 5.373-12 12s5.373 12 12 12v0c6.627 0 12-5.373 12-12s-5.373-12-12-12v0zM22.868 9.132c0.357 0.357 0.48 0.885 0.323 1.364l-2.962 8.887c-0.136 0.4-0.446 0.708-0.836 0.841l-0.009 0.003-8.887 2.962c-0.126 0.044-0.272 0.069-0.423 0.069-0.736 0-1.332-0.597-1.332-1.332 0-0.151 0.025-0.297 0.072-0.433l-0.003 0.009 2.963-8.884c0.136-0.4 0.446-0.708 0.836-0.841l0.009-0.003 8.887-2.962c0.48-0.16 1.006-0.034 1.364 0.322zM14.092 14.092l-1.909 5.726 5.726-1.909 1.909-5.726-5.726 1.909z"></path>
</svg>
