<!-- Generated by IcoMoon.io -->
<svg version="1.1" xmlns="http://www.w3.org/2000/svg" width="32" height="32" viewBox="0 0 32 32">
<path d="M10.012 3.28c0.572-0.412 1.239-0.613 1.988-0.613h13.332c2.203 0 4 1.797 4 4v13.332c-0.003 1.479-0.807 2.77-2.001 3.462l-0.019 0.010c-0.19 0.11-0.418 0.175-0.66 0.175-0.737 0-1.334-0.597-1.334-1.334 0-0.494 0.268-0.925 0.667-1.155l0.006-0.003c0.405-0.235 0.674-0.665 0.677-1.159v-13.328c-0.004-0.736-0.599-1.331-1.335-1.335h-13.333c-0.252 0-0.354 0.057-0.421 0.105-0.172 0.149-0.311 0.33-0.409 0.534l-0.004 0.010c-0.232 0.412-0.667 0.686-1.166 0.686-0.737 0-1.334-0.597-1.334-1.334 0-0.238 0.062-0.461 0.171-0.655l-0.003 0.007c0.274-0.492 0.638-1.013 1.179-1.406zM5.687 8.373c0.594-0.247 1.23-0.373 1.872-0.373h11.55c2.702 0 4.892 2.19 4.892 4.892v0 11.552c0 0.001 0 0.002 0 0.003 0 2.7-2.189 4.889-4.889 4.889-0.001 0-0.002 0-0.003 0h-11.55c-0.001 0-0.001 0-0.002 0-2.7 0-4.889-2.189-4.889-4.889 0-0.001 0-0.002 0-0.003v0-11.552c0.001-2.025 1.233-3.762 2.987-4.505l0.032-0.012zM7.559 10.668c-0.001 0-0.001 0-0.002 0-1.227 0-2.222 0.995-2.222 2.222v0 11.554c0 1.228 0.996 2.224 2.224 2.224h11.55c0 0 0 0 0 0 1.227 0 2.222-0.995 2.222-2.222 0-0.001 0-0.002 0-0.003v0-11.552c0-0 0-0 0-0 0-1.227-0.995-2.222-2.222-2.222-0 0-0 0-0 0h-11.552zM18.279 15.056c0.241 0.241 0.391 0.575 0.391 0.943s-0.149 0.702-0.391 0.943l-5.337 5.335c-0.241 0.241-0.574 0.39-0.942 0.39s-0.7-0.149-0.942-0.39l-2.67-2.667c-0.241-0.241-0.39-0.575-0.39-0.943 0-0.736 0.597-1.333 1.333-1.333 0.368 0 0.702 0.149 0.943 0.391l1.723 1.723 4.388-4.388c0.241-0.242 0.575-0.392 0.944-0.392s0.703 0.15 0.944 0.392l0 0z"></path>
</svg>
