<!-- Generated by IcoMoon.io -->
<svg version="1.1" xmlns="http://www.w3.org/2000/svg" width="32" height="32" viewBox="0 0 32 32">
<path d="M12 2.667c-0.75 0-1.417 0.199-1.988 0.613-0.539 0.393-0.905 0.914-1.177 1.406-0.106 0.187-0.168 0.41-0.168 0.648 0 0.737 0.597 1.334 1.334 1.334 0.499 0 0.933-0.274 1.162-0.679l0.003-0.007c0.102-0.214 0.241-0.395 0.41-0.542l0.002-0.002c0.068-0.046 0.174-0.105 0.423-0.105h13.332c0.732 0 1.335 0.603 1.335 1.335v13.33c-0.001 0.494-0.271 0.925-0.67 1.155l-0.006 0.003c-0.405 0.234-0.674 0.665-0.674 1.159 0 0.736 0.597 1.333 1.333 1.333 0.242 0 0.47-0.065 0.666-0.178l-0.006 0.003c1.214-0.702 2.019-1.992 2.023-3.472v-13.335c0-2.203-1.797-4-4-4h-13.332zM7.557 8c-0.001 0-0.002 0-0.003 0-2.7 0-4.889 2.189-4.889 4.889 0 0.001 0 0.002 0 0.003v-0 11.552c0 0.001 0 0.002 0 0.003 0 2.7 2.189 4.889 4.889 4.889 0.001 0 0.002 0 0.003 0h11.552c2.701-0.001 4.889-2.191 4.889-4.892v0-11.552c0-2.701-2.189-4.89-4.889-4.892h-11.55zM12 19.447l4.388-4.388c0.241-0.243 0.575-0.394 0.944-0.394s0.703 0.151 0.944 0.394l0 0c0.241 0.241 0.39 0.574 0.39 0.942s-0.149 0.7-0.39 0.942l-5.335 5.335c-0.24 0.243-0.574 0.394-0.943 0.394s-0.702-0.151-0.943-0.394l-2.665-2.668c-0.241-0.241-0.391-0.575-0.391-0.943 0-0.736 0.597-1.333 1.333-1.333 0.368 0 0.702 0.149 0.943 0.391v0l1.723 1.723z"></path>
</svg>
