<!-- Generated by IcoMoon.io -->
<svg version="1.1" xmlns="http://www.w3.org/2000/svg" width="32" height="32" viewBox="0 0 32 32">
<path d="M2.286 6.747c0-1.202 1.052-2.176 2.352-2.176h22.724c1.301 0 2.352 0.974 2.352 2.176v1.952h-27.429v-1.952zM29.714 13.778v-3.177h-27.429v3.177h27.429zM29.714 15.682h-27.429v9.57c0 1.202 1.052 2.176 2.352 2.176h22.724c1.301 0 2.352-0.974 2.352-2.176v-9.572zM7.772 20.715h2.743c0.974 0 1.762 0.732 1.762 1.634 0 0.901-0.788 1.632-1.762 1.632h-2.743c-0.974 0-1.762-0.732-1.763-1.632 0-0.903 0.788-1.634 1.763-1.634z"></path>
</svg>
