<!-- Generated by IcoMoon.io -->
<svg version="1.1" xmlns="http://www.w3.org/2000/svg" width="32" height="32" viewBox="0 0 32 32">
<path d="M2.286 8.357c0-2.121 1.748-3.785 3.84-3.785h19.749c2.092 0 3.84 1.664 3.84 3.785v15.287c0 2.119-1.748 3.785-3.84 3.785h-19.749c-2.092 0-3.84-1.666-3.84-3.785v-15.287zM5.028 16.252v7.39c0 0.548 0.462 1.042 1.097 1.042h19.749c0.635 0 1.097-0.496 1.097-1.042v-7.387h-21.943zM26.972 13.508v-1.726h-21.943v1.726h21.943zM26.972 9.040v-0.686c-0.015-0.579-0.488-1.043-1.069-1.043-0.010 0-0.020 0-0.029 0l0.001-0h-19.749c-0.008-0-0.018-0-0.028-0-0.581 0-1.054 0.464-1.069 1.041l-0 0.001v0.686h21.943zM7.223 21.586c0-0.757 0.614-1.371 1.372-1.371h2.468c0.749 0.012 1.351 0.621 1.351 1.371s-0.602 1.36-1.35 1.371h-2.47c-0.758 0-1.372-0.614-1.372-1.372v0z"></path>
</svg>
