<!-- Generated by IcoMoon.io -->
<svg version="1.1" xmlns="http://www.w3.org/2000/svg" width="32" height="32" viewBox="0 0 32 32">
<path d="M13.577 2.688c0.248 0.248 0.402 0.591 0.402 0.97 0 0.142-0.021 0.278-0.061 0.407l0.003-0.010c-0.309 0.979-0.487 2.105-0.487 3.273 0 6.208 5.033 11.241 11.241 11.241 1.168 0 2.294-0.178 3.353-0.509l-0.080 0.021c0.118-0.037 0.254-0.058 0.394-0.058 0.758 0 1.372 0.614 1.372 1.372 0 0.141-0.021 0.278-0.061 0.406l0.003-0.010c-1.8 5.787-7.107 9.917-13.379 9.917-7.723 0-13.984-6.261-13.984-13.984 0-6.272 4.129-11.58 9.818-13.353l0.099-0.027c0.119-0.037 0.255-0.059 0.397-0.059 0.379 0 0.722 0.154 0.97 0.402v0z"></path>
</svg>
