<!-- Generated by IcoMoon.io -->
<svg version="1.1" xmlns="http://www.w3.org/2000/svg" width="32" height="32" viewBox="0 0 32 32">
<path d="M28 16c0.736 0 1.332-0.597 1.332-1.332v0-5.335c0-2.209-1.791-4-4-4v0h-4.779l1.723-1.723c0.241-0.241 0.39-0.575 0.39-0.943 0-0.737-0.597-1.334-1.334-1.334-0.369 0-0.703 0.15-0.944 0.391v0l-4 4c-0.241 0.241-0.391 0.575-0.391 0.943s0.149 0.702 0.391 0.943v0l4 4c0.241 0.241 0.575 0.391 0.943 0.391 0.736 0 1.333-0.597 1.333-1.333 0-0.368-0.149-0.701-0.39-0.943v0l-1.721-1.723h4.779c0.736 0 1.335 0.597 1.335 1.333v5.335c0 0.736 0.594 1.332 1.332 1.332zM18.828 28.16c0.724-0.724 1.172-1.723 1.172-2.827v-9.333c0-0.737-0.597-1.334-1.334-1.334s-1.334 0.597-1.334 1.334v0 9.332c0 0.001 0 0.002 0 0.003 0 0.736-0.597 1.332-1.332 1.332 0 0 0 0 0 0h-9.332c-0.001 0-0.002 0-0.003 0-0.736 0-1.333-0.597-1.333-1.332 0-0.001 0-0.002 0-0.003v0-17.332c0 0 0 0 0 0 0-0.736 0.597-1.332 1.332-1.332 0.001 0 0.002 0 0.003 0h2.665c0.737 0 1.334-0.597 1.334-1.334s-0.597-1.334-1.334-1.334v0h-2.665c-2.209 0-4 1.791-4 4v0 17.332c0 2.209 1.791 4 4 4v0h9.332c1.061 0 2.080-0.421 2.828-1.17zM10.668 9.332c0 0 0 0 0 0 0-0.736-0.597-1.332-1.332-1.332-0.001 0-0.002 0-0.003 0h-1.332c-0.737 0-1.334 0.597-1.334 1.334s0.597 1.334 1.334 1.334v0h1.332c0.001 0 0.002 0 0.002 0 0.736 0 1.332-0.597 1.332-1.332 0-0.001 0-0.002 0-0.003v0z"></path>
</svg>
