<!-- Generated by IcoMoon.io -->
<svg version="1.1" xmlns="http://www.w3.org/2000/svg" width="32" height="32" viewBox="0 0 32 32">
<path d="M16 4c0-0.736 0.597-1.333 1.332-1.333h5.335c2.208 0 4 1.79 4 4v4.779l1.723-1.723c0.241-0.241 0.575-0.391 0.943-0.391 0.736 0 1.333 0.597 1.333 1.333 0 0.368-0.149 0.702-0.391 0.943v0l-4 4c-0.241 0.242-0.575 0.391-0.943 0.391s-0.702-0.149-0.943-0.391v0l-4.003-3.998c-0.241-0.241-0.391-0.575-0.391-0.943 0-0.736 0.597-1.334 1.334-1.334 0.368 0 0.702 0.149 0.943 0.391l1.723 1.723v-4.782c0 0 0 0 0 0 0-0.737-0.596-1.334-1.333-1.335h-5.333c-0.736 0-1.332-0.597-1.332-1.333v0zM3.84 13.172c0.724-0.724 1.723-1.172 2.827-1.172h9.333c0.737 0 1.334 0.597 1.334 1.334s-0.597 1.334-1.334 1.334v0h-9.332c-0.001 0-0.002 0-0.003 0-0.736 0-1.333 0.597-1.333 1.332 0 0 0 0 0 0v0 9.332c0 0.001 0 0.002 0 0.003 0 0.736 0.597 1.332 1.332 1.332 0.001 0 0.002 0 0.003 0h17.332c0 0 0 0 0 0 0.736 0 1.332-0.597 1.332-1.332 0-0.001 0-0.002 0-0.003v0-2.665c0-0.737 0.597-1.334 1.334-1.334s1.334 0.597 1.334 1.334v0 2.665c0 2.209-1.791 4-4 4v0h-17.332c-2.209 0-4-1.791-4-4v0-9.332c0-1.061 0.421-2.080 1.17-2.828zM22.668 21.332c0.736 0 1.332 0.599 1.332 1.335v1.332c0 0.737-0.597 1.334-1.334 1.334s-1.334-0.597-1.334-1.334v0-1.332c0-0.736 0.599-1.335 1.335-1.335z"></path>
</svg>
