<!-- Generated by IcoMoon.io -->
<svg version="1.1" xmlns="http://www.w3.org/2000/svg" width="32" height="32" viewBox="0 0 32 32">
<path d="M2.286 7.772c0-0 0-0 0-0 0-3.030 2.456-5.486 5.486-5.486 0 0 0 0 0 0h12.053c1.515 0 2.886 0.614 3.879 1.607l4.405 4.405c0.993 0.993 1.607 2.364 1.607 3.879v12.053c0 0 0 0 0 0 0 3.030-2.456 5.486-5.486 5.486-0 0-0 0-0 0h-16.457c-0 0-0 0-0 0-3.030 0-5.486-2.456-5.486-5.486 0-0 0-0 0-0v0-16.457zM21.143 9.143c0-0.568-0.46-1.028-1.028-1.028v0h-8.229c-0.568 0-1.029 0.461-1.029 1.029s0.461 1.029 1.029 1.029v0h8.229c0.568 0 1.028-0.46 1.028-1.028 0-0 0-0 0-0v0zM9.143 25.6c0 0.758 0.614 1.372 1.372 1.372v0h10.971c0.758 0 1.372-0.614 1.372-1.372v0-5.486c0-0.758-0.614-1.372-1.372-1.372h-10.971c-0.758 0-1.372 0.614-1.372 1.372v0 5.486z"></path>
</svg>
