<!-- Generated by IcoMoon.io -->
<svg version="1.1" xmlns="http://www.w3.org/2000/svg" width="32" height="32" viewBox="0 0 32 32">
<path d="M2.286 7.086c0-2.652 2.148-4.8 4.8-4.8h12.354c1.673 0 3.278 0.663 4.462 1.847l3.966 3.966c1.141 1.142 1.847 2.718 1.847 4.46 0 0.001 0 0.001 0 0.002v-0 12.354c0 2.651-2.149 4.8-4.8 4.8v0h-17.829c-2.651 0-4.8-2.149-4.8-4.8v0-17.829zM7.086 5.028c-1.136 0-2.057 0.921-2.057 2.057v0 17.829c0 1.136 0.921 2.057 2.057 2.057v0h1.372v-6.034c0-2.121 1.719-3.84 3.84-3.84h7.406c2.121 0 3.84 1.719 3.84 3.84v6.034h1.372c1.136 0 2.057-0.921 2.057-2.057v-12.354c0-0.946-0.375-1.852-1.045-2.521l-3.966-3.966c-0.645-0.645-1.537-1.045-2.521-1.045h-12.354zM20.8 26.972v-6.034c0-0.606-0.491-1.097-1.097-1.097h-7.406c-0.606 0-1.097 0.491-1.097 1.097v0 6.034h9.6zM10.926 9.828c0-0.757 0.614-1.371 1.372-1.371h7.406c0.749 0.012 1.351 0.621 1.351 1.371s-0.602 1.36-1.35 1.371h-7.407c-0.758 0-1.372-0.614-1.372-1.372v0z"></path>
</svg>
