<!-- Generated by IcoMoon.io -->
<svg version="1.1" xmlns="http://www.w3.org/2000/svg" width="32" height="32" viewBox="0 0 32 32">
<path d="M13.867 10.169c0-1.178 0.955-2.133 2.133-2.133s2.133 0.955 2.133 2.133v0c0 1.178-0.955 2.133-2.133 2.133s-2.133-0.955-2.133-2.133v0zM8 16c0-0.736 0.597-1.332 1.332-1.332h13.335c0.736 0 1.332 0.597 1.332 1.332s-0.597 1.332-1.332 1.332h-13.335c-0.736 0-1.332-0.597-1.332-1.332v0zM13.867 21.831c0-1.178 0.955-2.133 2.133-2.133s2.133 0.955 2.133 2.133v0c0 1.178-0.955 2.133-2.133 2.133s-2.133-0.955-2.133-2.133v0z"></path>
</svg>
