<!-- Generated by IcoMoon.io -->
<svg version="1.1" xmlns="http://www.w3.org/2000/svg" width="32" height="32" viewBox="0 0 32 32">
<path d="M23.052 10.695c-0.073-0.019-0.157-0.030-0.243-0.030-0.201 0-0.388 0.060-0.544 0.163l0.004-0.002c-0.272 0.141-0.474 0.386-0.556 0.68l-0.002 0.008c-0.018 0.075-0.029 0.161-0.029 0.249 0 0.211 0.060 0.408 0.164 0.574l-0.003-0.005 0.752 1.277 0.066 0.098c0.146 0.231 0.376 0.397 0.647 0.456l0.007 0.001c0.283 0.046 0.558 0 0.818-0.13 0.262-0.128 0.455-0.363 0.525-0.647l0.001-0.007c0.030-0.094 0.048-0.202 0.048-0.314 0-0.199-0.055-0.385-0.151-0.543l0.003 0.005-0.752-1.31-0.066-0.064c-0.162-0.229-0.401-0.394-0.678-0.458l-0.008-0.002zM9.858 10.825c0.253 0.145 0.434 0.391 0.49 0.682l0.001 0.006c0.030 0.090 0.048 0.195 0.048 0.303 0 0.191-0.054 0.369-0.148 0.52l0.002-0.004-0.754 1.277c-0.15 0.256-0.391 0.444-0.678 0.522l-0.008 0.002c-0.077 0.018-0.166 0.028-0.258 0.028-0.218 0-0.423-0.059-0.598-0.162l0.006 0.003c-0.252-0.142-0.44-0.372-0.524-0.648l-0.002-0.008c-0.018-0.074-0.029-0.16-0.029-0.248 0-0.211 0.060-0.408 0.164-0.575l-0.003 0.005 0.754-1.31c0.137-0.247 0.37-0.427 0.647-0.49l0.007-0.001c0.097-0.030 0.209-0.047 0.325-0.047 0.205 0 0.397 0.054 0.563 0.149l-0.006-0.003zM25.705 16.587c-0.044-0.088-0.099-0.163-0.164-0.229l0 0c-0.074-0.058-0.161-0.103-0.255-0.129l-0.005-0.001c-0.057-0.029-0.125-0.046-0.196-0.046-0.036 0-0.070 0.004-0.104 0.012l0.003-0.001c-0.108 0-0.206 0.023-0.293 0.066-0.092 0.048-0.169 0.114-0.227 0.195l-0.001 0.002c-0.996 1.178-2.233 2.119-3.638 2.755l-0.065 0.026c-1.38 0.621-2.991 0.983-4.687 0.983-0.032 0-0.063-0-0.095-0l0.005 0c-0.065 0.001-0.142 0.002-0.219 0.002-1.638 0-3.195-0.35-4.599-0.979l0.071 0.029c-1.453-0.646-2.677-1.567-3.655-2.706l-0.011-0.014c-0.060-0.081-0.137-0.147-0.225-0.193l-0.004-0.002c-0.083-0.042-0.182-0.066-0.286-0.066-0.004 0-0.008 0-0.012 0h0.001c-0.028-0.006-0.060-0.009-0.093-0.009-0.072 0-0.141 0.016-0.202 0.045l0.003-0.001c-0.090 0.023-0.167 0.069-0.228 0.13l-0 0c-0.082 0.060-0.148 0.136-0.195 0.225l-0.002 0.004c-0.042 0.076-0.067 0.166-0.069 0.262v0.001c-0.010 0.044-0.016 0.095-0.016 0.148s0.006 0.103 0.017 0.152l-0.001-0.005c0.046 0.087 0.101 0.174 0.165 0.261 0.569 0.656 1.202 1.243 1.899 1.769 0.663 0.488 1.415 0.936 2.21 1.307l0.082 0.035c0.728 0.317 1.592 0.599 2.486 0.799l0.099 0.019c0.841 0.188 1.806 0.295 2.796 0.295 1.962 0 3.826-0.422 5.505-1.179l-0.084 0.034c0.875-0.394 1.628-0.854 2.316-1.394l-0.024 0.018c0.728-0.532 1.362-1.125 1.918-1.785l0.013-0.016c0.058-0.074 0.103-0.161 0.129-0.255l0.001-0.005c0.029-0.057 0.046-0.125 0.046-0.197 0-0.035-0.004-0.070-0.012-0.103l0.001 0.003c-0.004-0.1-0.040-0.19-0.099-0.261l0.001 0.001zM19.792 14.332c0 0.722-1.332 1.472-3.778 1.472s-3.778-0.75-3.778-1.472c0-0.72 1.692-1.138 3.778-1.138s3.778 0.418 3.778 1.138zM14.839 2.718c7.932-0.695 15.12 4.539 15.772 12.004 0.028 0.314 0.044 0.679 0.044 1.047 0 2.539-0.759 4.901-2.062 6.871l0.029-0.046 0.359 4.080c0.005 0.053 0.008 0.115 0.008 0.177 0 1.103-0.894 1.998-1.998 1.998-0.148 0-0.293-0.016-0.432-0.047l0.013 0.002c-1.339-0.288-2.837-0.613-4.142-0.907-1.538 0.722-3.325 1.214-5.206 1.381l-0.061 0.004c-7.936 0.695-15.12-4.539-15.774-12.004-0.654-7.463 5.513-13.867 13.449-14.56zM22.135 25.097l0.88 0.199c1.012 0.228 2.146 0.475 3.23 0.709l-0.357-4.085 0.491-0.768c1.010-1.517 1.611-3.381 1.611-5.385 0-0.286-0.012-0.57-0.036-0.85l0.003 0.036c-0.503-5.732-6.142-10.172-12.887-9.579-6.743 0.59-11.525 5.938-11.024 11.671 0.503 5.735 6.139 10.172 12.885 9.582 1.617-0.141 3.105-0.551 4.468-1.186l-0.082 0.034 0.818-0.377z"></path>
</svg>
