<!-- Generated by IcoMoon.io -->
<svg version="1.1" xmlns="http://www.w3.org/2000/svg" width="32" height="32" viewBox="0 0 32 32">
<path d="M30.61 14.72c-0.652-7.463-7.84-12.697-15.772-12.002-7.936 0.692-14.103 7.097-13.449 14.56 0.654 7.465 7.84 12.699 15.772 12.004 1.942-0.17 3.73-0.663 5.367-1.426l-0.098 0.041c1.303 0.295 2.802 0.619 4.142 0.907 0.126 0.028 0.271 0.044 0.419 0.044 1.103 0 1.998-0.894 1.998-1.998 0-0.062-0.003-0.124-0.008-0.185l0.001 0.008-0.357-4.080c1.274-1.924 2.033-4.286 2.033-6.824 0-0.369-0.016-0.734-0.047-1.095l0.003 0.047zM22.267 10.825c0.153-0.101 0.34-0.16 0.541-0.16 0.086 0 0.17 0.011 0.25 0.032l-0.007-0.002c0.286 0.064 0.525 0.229 0.685 0.453l0.002 0.004 0.066 0.069 0.754 1.307c0.091 0.153 0.145 0.337 0.145 0.534 0 0.114-0.018 0.224-0.052 0.326l0.002-0.007c-0.070 0.29-0.262 0.525-0.518 0.651l-0.006 0.003c-0.177 0.093-0.386 0.147-0.609 0.147-0.074 0-0.146-0.006-0.217-0.018l0.008 0.001c-0.277-0.060-0.508-0.226-0.651-0.453l-0.002-0.004-0.066-0.098-0.754-1.277c-0.1-0.161-0.16-0.357-0.16-0.567 0-0.089 0.011-0.176 0.031-0.259l-0.002 0.007c0.084-0.301 0.286-0.545 0.552-0.683l0.006-0.003zM10.35 11.513c0.030 0.090 0.048 0.195 0.048 0.303 0 0.191-0.054 0.369-0.148 0.52l0.002-0.004-0.754 1.277c-0.15 0.256-0.391 0.444-0.678 0.522l-0.008 0.002c-0.077 0.018-0.166 0.028-0.258 0.028-0.218 0-0.423-0.059-0.598-0.162l0.006 0.003c-0.252-0.142-0.44-0.372-0.524-0.648l-0.002-0.008c-0.018-0.075-0.029-0.16-0.029-0.248 0-0.211 0.060-0.408 0.164-0.574l-0.003 0.005 0.754-1.31c0.137-0.247 0.37-0.427 0.647-0.49l0.007-0.001c0.097-0.030 0.209-0.047 0.325-0.047 0.205 0 0.397 0.054 0.563 0.149l-0.006-0.003c0.253 0.145 0.434 0.391 0.49 0.682l0.001 0.006zM25.705 16.587c0.059 0.071 0.095 0.162 0.098 0.262l0 0.001c0.023 0.108 0.009 0.206-0.034 0.295-0.027 0.1-0.072 0.187-0.131 0.262l0.001-0.002c-0.567 0.677-1.212 1.278-1.931 1.801-0.699 0.546-1.463 1.006-2.293 1.376-1.595 0.724-3.459 1.145-5.421 1.145-0.99 0-1.956-0.107-2.885-0.311l0.089 0.016c-0.993-0.22-1.857-0.501-2.682-0.855l0.097 0.037c-0.877-0.406-1.629-0.854-2.33-1.368l0.037 0.026c-0.707-0.534-1.329-1.115-1.885-1.754l-0.013-0.015c-0.058-0.076-0.113-0.161-0.16-0.251l-0.005-0.010c-0.011-0.045-0.017-0.096-0.017-0.149s0.006-0.104 0.018-0.153l-0.001 0.005c0-0.085 0.023-0.174 0.066-0.261 0.047-0.092 0.113-0.168 0.192-0.227l0.002-0.001c0.061-0.062 0.139-0.108 0.225-0.13l0.003-0.001c0.059-0.028 0.128-0.044 0.201-0.044 0.034 0 0.067 0.004 0.1 0.010l-0.003-0.001c0.107 0 0.206 0.023 0.295 0.066 0.092 0.049 0.168 0.115 0.227 0.195l0.001 0.002c0.983 1.157 2.203 2.062 3.666 2.718 1.334 0.601 2.891 0.951 4.53 0.951 0.076 0 0.153-0.001 0.229-0.002l-0.011 0c1.703 0 3.296-0.327 4.777-0.983 1.47-0.662 2.707-1.603 3.69-2.766l0.012-0.015c0.060-0.082 0.137-0.148 0.225-0.195l0.004-0.002c0.083-0.042 0.182-0.066 0.286-0.066 0.003 0 0.006 0 0.009 0h-0c0.030-0.007 0.064-0.011 0.099-0.011 0.071 0 0.139 0.017 0.198 0.046l-0.003-0.001c0.087 0.023 0.174 0.064 0.261 0.13 0.065 0.065 0.12 0.141 0.162 0.224l0.002 0.005zM16.014 15.803c-2.446 0-3.778-0.75-3.778-1.472 0-0.72 1.692-1.138 3.778-1.138s3.778 0.418 3.778 1.138c0 0.722-1.332 1.472-3.778 1.472z"></path>
</svg>
