<!-- Generated by IcoMoon.io -->
<svg version="1.1" xmlns="http://www.w3.org/2000/svg" width="32" height="32" viewBox="0 0 32 32">
<path d="M16 2.667c0.736 0 1.332 0.594 1.332 1.333v13.154l5.815-4.846c0.23-0.196 0.531-0.315 0.86-0.315 0.736 0 1.332 0.597 1.332 1.332 0 0.414-0.189 0.784-0.485 1.028l-0.002 0.002-8 6.668c-0.229 0.192-0.527 0.308-0.852 0.308s-0.623-0.117-0.855-0.31l0.002 0.002-8-6.668c-0.29-0.246-0.472-0.611-0.472-1.018 0-0.736 0.597-1.332 1.333-1.332 0.322 0 0.617 0.114 0.847 0.304l-0.002-0.002 5.815 4.846v-13.154c0-0.736 0.594-1.333 1.332-1.333zM4 21.332c0.736 0 1.332 0.597 1.332 1.335v2.665c0 0.001 0 0.002 0 0.003 0 0.736 0.597 1.332 1.332 1.332 0.001 0 0.002 0 0.003 0h18.665c0.001 0 0.002 0 0.003 0 0.736 0 1.332-0.597 1.332-1.332 0-0.001 0-0.002 0-0.003v0-2.665c0-0.736 0.597-1.332 1.332-1.332s1.332 0.597 1.332 1.332v2.665c0 2.209-1.791 4-4 4v0h-18.665c-2.209 0-4-1.791-4-4v0-2.665c0-0.738 0.594-1.335 1.332-1.335z"></path>
</svg>
