<!-- Generated by IcoMoon.io -->
<svg version="1.1" xmlns="http://www.w3.org/2000/svg" width="32" height="32" viewBox="0 0 32 32">
<path d="M21.212 3.317c0.637-0.637 1.518-1.031 2.49-1.031s1.853 0.394 2.49 1.031l2.492 2.492c0.638 0.637 1.032 1.518 1.032 2.491s-0.395 1.854-1.032 2.491l-2.21 2.208c-0.323-0.157-0.502-0.25-0.679-0.345l0.134 0.066c-1.273-0.67-2.784-1.612-3.911-2.738s-2.068-2.638-2.738-3.911c-0.030-0.045-0.123-0.224-0.214-0.403l-0.065-0.141 2.208-2.21zM20.402 11.598c1.332 1.335 3.031 2.384 4.375 3.099l-8.686 8.686c-0.523 0.522-1.208 0.88-1.974 0.992l-0.019 0.002-5.23 0.747c-0.075 0.011-0.163 0.018-0.251 0.018-0.972 0-1.76-0.788-1.76-1.76 0-0.089 0.007-0.176 0.019-0.261l-0.001 0.010 0.747-5.23c0.115-0.785 0.474-1.471 0.997-1.993l8.686-8.686c0.713 1.344 1.762 3.040 3.097 4.375zM3.428 27.428c-0.631 0-1.143 0.512-1.143 1.143s0.512 1.143 1.143 1.143v0h25.143c0.631 0 1.143-0.512 1.143-1.143s-0.512-1.143-1.143-1.143v0h-25.143z"></path>
</svg>
