<!-- Generated by IcoMoon.io -->
<svg version="1.1" xmlns="http://www.w3.org/2000/svg" width="32" height="32" viewBox="0 0 32 32">
<path d="M8.345 4.199c-2.29 0-4.146 1.856-4.146 4.146v0 15.31c0 2.29 1.856 4.146 4.146 4.146h15.31c2.29 0 4.146-1.856 4.146-4.146v0-7.655c-0.001-0.015-0.001-0.032-0.001-0.049 0-0.529 0.429-0.958 0.958-0.958s0.958 0.429 0.958 0.958c0 0.017-0 0.034-0.001 0.051l0-0.002v7.655c0 3.346-2.713 6.059-6.059 6.059v0h-15.312c-3.346-0.001-6.057-2.714-6.057-6.059v0-15.312c0.001-3.346 2.714-6.057 6.059-6.057h7.655c0.508 0.027 0.909 0.445 0.909 0.957s-0.401 0.93-0.907 0.956l-0.002 0h-7.655zM25.808 4.107c-0.534-0.534-1.271-0.865-2.086-0.865s-1.552 0.33-2.086 0.864l-1.847 1.847c0.071 0.146 0.148 0.297 0.231 0.457 0.562 1.065 1.348 2.332 2.293 3.275s2.21 1.73 3.275 2.293c0.16 0.082 0.311 0.16 0.457 0.231l1.849-1.847c0.534-0.534 0.864-1.271 0.864-2.086s-0.33-1.552-0.864-2.086l-2.087-2.084zM24.624 13.632c-1.125-0.597-2.546-1.477-3.664-2.592-1.115-1.12-1.995-2.537-2.592-3.664l-7.271 7.271c-0.437 0.437-0.738 1.011-0.832 1.652l-0.002 0.016-0.626 4.38c-0.137 0.974 0.695 1.806 1.668 1.668l4.38-0.626c0.657-0.096 1.231-0.397 1.668-0.834l7.268-7.268z"></path>
</svg>
