<!-- Generated by IcoMoon.io -->
<svg version="1.1" xmlns="http://www.w3.org/2000/svg" width="32" height="32" viewBox="0 0 32 32">
<path d="M19.719 3.616c0.822-0.822 1.957-1.33 3.211-1.33s2.39 0.508 3.211 1.33v0l2.242 2.24c0.822 0.822 1.33 1.957 1.33 3.211s-0.508 2.39-1.33 3.211v0l-11.332 11.335c-0.673 0.673-1.557 1.136-2.545 1.282l-0.025 0.003-4.708 0.672c-0.126 0.019-0.271 0.030-0.419 0.030-1.632 0-2.955-1.323-2.955-2.955 0-0.148 0.011-0.294 0.032-0.437l-0.002 0.016 0.672-4.709c0.139-0.972 0.59-1.874 1.285-2.567l11.332-11.332zM17.744 9.47l-7.417 7.417c-0.267 0.267-0.451 0.616-0.508 1.007l-0.001 0.010-0.672 4.708c-0.002 0.010-0.002 0.021-0.002 0.032 0 0.117 0.095 0.212 0.213 0.212 0.011 0 0.023-0.001 0.034-0.003l-0.001 0 4.708-0.672c0.401-0.059 0.751-0.243 1.017-0.51l7.417-7.417c-1.090-0.509-2.020-1.172-2.81-1.974l-0.001-0.001c-0.803-0.791-1.466-1.722-1.95-2.753l-0.025-0.059zM24.681 12.105l1.762-1.764c0.326-0.326 0.527-0.775 0.527-1.272s-0.201-0.947-0.527-1.272l-2.24-2.24c-0.326-0.326-0.775-0.527-1.272-0.527s-0.947 0.201-1.272 0.527v0l-1.764 1.762c0.032 0.137 0.073 0.297 0.133 0.476 0.222 0.663 0.679 1.593 1.632 2.546s1.883 1.41 2.546 1.632c0.178 0.059 0.338 0.101 0.476 0.133zM2.286 28.343c0-0.757 0.614-1.371 1.372-1.371h24.686c0.006-0 0.013-0 0.021-0 0.758 0 1.372 0.614 1.372 1.372s-0.614 1.372-1.372 1.372c-0.007 0-0.015-0-0.022-0h-24.685c-0.757 0-1.372-0.614-1.372-1.372v0z"></path>
</svg>
