<!-- Generated by IcoMoon.io -->
<svg version="1.1" xmlns="http://www.w3.org/2000/svg" width="32" height="32" viewBox="0 0 32 32">
<path d="M2.286 8.228c0-3.282 2.661-5.943 5.943-5.943v0h7.772c0.749 0.012 1.351 0.621 1.351 1.371s-0.602 1.36-1.35 1.371h-7.773c-1.767 0-3.2 1.433-3.2 3.2v0 15.543c0 1.767 1.433 3.2 3.2 3.2v0h15.543c1.767 0 3.2-1.433 3.2-3.2v0-7.772c-0-0.006-0-0.013-0-0.021 0-0.758 0.614-1.372 1.372-1.372s1.372 0.614 1.372 1.372c0 0.007-0 0.015-0 0.022v-0.001 7.772c0 3.282-2.661 5.943-5.943 5.943v0h-15.543c-3.282 0-5.943-2.661-5.943-5.943v0-15.543zM21.346 3.419c1.508-1.511 3.959-1.511 5.47 0l1.765 1.765c1.511 1.508 1.511 3.959 0 5.47l-10.002 10.005c-0.574 0.574-1.327 0.969-2.169 1.092l-0.021 0.003-3.707 0.528c-0.111 0.017-0.239 0.026-0.369 0.026-1.447 0-2.619-1.173-2.619-2.619 0-0.13 0.009-0.258 0.028-0.384l-0.002 0.014 0.528-3.707c0.119-0.83 0.503-1.598 1.095-2.19l10.005-10.002zM19.913 8.729l-6.631 6.633c-0.167 0.166-0.283 0.385-0.319 0.629l-0.001 0.006-0.505 3.545 3.543-0.503c0.252-0.036 0.473-0.152 0.64-0.32l6.628-6.631c-0.737-0.397-1.37-0.874-1.921-1.432l-0.001-0.001c-0.559-0.553-1.036-1.186-1.412-1.882l-0.021-0.042zM25.867 10.078h0.002zM25.369 9.986l1.273-1.271c0.204-0.204 0.329-0.485 0.329-0.795s-0.126-0.592-0.329-0.795l-1.767-1.767c-0.204-0.204-0.485-0.329-0.795-0.329s-0.592 0.126-0.795 0.329v0l-1.271 1.273c0.254 0.822 0.694 1.524 1.272 2.083l0.001 0.001c0.56 0.578 1.261 1.017 2.048 1.262l0.034 0.009z"></path>
</svg>
