<!-- Generated by IcoMoon.io -->
<svg version="1.1" xmlns="http://www.w3.org/2000/svg" width="32" height="32" viewBox="0 0 32 32">
<path d="M5.588 3.593c-0.24-0.236-0.57-0.381-0.934-0.381-0.737 0-1.334 0.597-1.334 1.334 0 0.373 0.153 0.711 0.4 0.953l3.31 3.237-0.023 0.014c-1.647 1.152-3.084 2.421-4.365 3.832l-0.019 0.021c-1.675 1.893-1.701 5.045 0 6.798 2.775 3.031 7.794 7.072 13.392 7.072 2.434 0 4.981-0.818 7.058-2l0.021-0.012 3.739 3.66c0.24 0.235 0.569 0.381 0.933 0.381 0.736 0 1.333-0.597 1.333-1.333 0-0.373-0.153-0.71-0.4-0.952l-0-0-23.111-22.624zM11.572 13.184l6.050 5.92 1.262 1.243c-0.59 0.487-1.925 0.859-2.869 0.859-0.012 0-0.027 0-0.041 0-2.885 0-5.228-2.325-5.255-5.204l-0-0.003c0-1.303 0.468-2.176 0.853-2.816zM29.424 12.588c-2.868-2.955-7.483-7.063-13.406-7.063-1.182 0-2.329 0.144-4.057 0.656l15.422 15.241c0.798-0.732 1.568-1.47 2.194-2.194 1.534-1.943 1.463-4.807-0.153-6.64z"></path>
</svg>
