<!-- Generated by IcoMoon.io -->
<svg version="1.1" xmlns="http://www.w3.org/2000/svg" width="32" height="32" viewBox="0 0 32 32">
<path d="M5.588 3.593c-0.24-0.236-0.57-0.381-0.934-0.381-0.737 0-1.334 0.597-1.334 1.334 0 0.373 0.153 0.711 0.4 0.953l3.291 3.219c-1.549 1.103-2.91 2.279-4.151 3.57l-0.009 0.009c-0.94 0.951-1.521 2.259-1.521 3.703s0.581 2.752 1.521 3.703l-0.001-0c2.652 2.738 7.479 6.77 13.147 6.77 2.583 0 4.992-0.837 7.099-2.009l3.735 3.657c0.24 0.235 0.569 0.38 0.933 0.38 0.737 0 1.334-0.597 1.334-1.334 0-0.374-0.154-0.712-0.402-0.954l-0-0-23.111-22.619zM21.212 22.619c-1.625 0.809-3.39 1.342-5.214 1.342-4.562 0-8.748-3.328-11.339-6.007-0.502-0.499-0.813-1.19-0.813-1.954s0.311-1.455 0.813-1.954l0-0c1.246-1.299 2.616-2.461 4.096-3.474l0.089-0.057 2.72 2.663c-0.529 0.793-0.843 1.769-0.843 2.817 0 0.002 0 0.004 0 0.006v-0c0 2.898 2.386 5.209 5.28 5.209 0.001 0 0.003 0 0.005 0 1.076 0 2.077-0.319 2.914-0.867l-0.020 0.012 2.315 2.265zM13.431 15.001l3.582 3.506c-0.3 0.119-0.648 0.189-1.012 0.19h-0c-1.55 0-2.766-1.227-2.766-2.695 0-0.352 0.068-0.688 0.197-0.999zM27.339 17.954c-0.503 0.517-1.063 1.061-1.673 1.6l1.801 1.76c0.628-0.558 1.188-1.106 1.68-1.614 0.939-0.951 1.52-2.259 1.52-3.702s-0.58-2.751-1.52-3.702l0.001 0.001c-2.652-2.741-7.479-6.772-13.148-6.772-1.392 0-2.732 0.242-4 0.649l2.094 2.053c0.572-0.118 1.231-0.186 1.905-0.188h0.001c4.562 0 8.747 3.328 11.339 6.007 1.083 1.12 1.083 2.788 0 3.909z"></path>
</svg>
