<!-- Generated by IcoMoon.io -->
<svg version="1.1" xmlns="http://www.w3.org/2000/svg" width="32" height="32" viewBox="0 0 32 32">
<path d="M16 5.525c-5.668 0-10.494 4.032-13.148 6.772-0.94 0.951-1.521 2.259-1.521 3.703s0.581 2.752 1.521 3.703l-0.001-0c2.652 2.738 7.479 6.77 13.148 6.77s10.494-4.032 13.148-6.775c0.94-0.951 1.52-2.258 1.52-3.702s-0.581-2.751-1.521-3.702l0 0.001c-2.652-2.738-7.479-6.77-13.148-6.77zM16 10.788c2.894 0 5.28 2.311 5.28 5.209s-2.386 5.212-5.28 5.211-5.28-2.311-5.28-5.209 2.386-5.209 5.28-5.209z"></path>
</svg>
