<!-- Generated by IcoMoon.io -->
<svg version="1.1" xmlns="http://www.w3.org/2000/svg" width="32" height="32" viewBox="0 0 32 32">
<path d="M16 8.039c-4.562 0-8.748 3.328-11.339 6.007-0.502 0.499-0.813 1.19-0.813 1.954s0.311 1.455 0.813 1.954l0 0c2.592 2.679 6.777 6.007 11.339 6.007s8.748-3.328 11.339-6.007c1.083-1.12 1.083-2.788 0-3.909-2.592-2.679-6.777-6.007-11.339-6.007zM2.853 12.297c2.652-2.741 7.479-6.772 13.148-6.772s10.494 4.032 13.148 6.772c0.94 0.951 1.521 2.259 1.521 3.703s-0.581 2.752-1.521 3.703l0-0c-2.652 2.738-7.479 6.77-13.148 6.77s-10.494-4.027-13.148-6.77c-0.939-0.951-1.52-2.259-1.52-3.702s0.58-2.751 1.52-3.702l-0.001 0.001zM16 13.305c-1.55 0-2.766 1.227-2.766 2.695s1.216 2.695 2.766 2.695 2.766-1.227 2.766-2.695-1.216-2.695-2.766-2.695zM10.72 16c0-2.898 2.386-5.209 5.28-5.209s5.28 2.311 5.28 5.209-2.386 5.209-5.28 5.209-5.28-2.311-5.28-5.209z"></path>
</svg>
