<!-- Generated by IcoMoon.io -->
<svg version="1.1" xmlns="http://www.w3.org/2000/svg" width="32" height="32" viewBox="0 0 32 32">
<path d="M16 2.286c-7.574 0-13.714 6.14-13.714 13.714s6.14 13.714 13.714 13.714v0c7.574 0 13.714-6.14 13.714-13.714s-6.14-13.714-13.714-13.714v0zM13.198 21.973c-0.24 0.212-0.558 0.342-0.906 0.342-0.758 0-1.372-0.614-1.372-1.372 0-0.409 0.179-0.777 0.464-1.028l0.001-0.001v-0.005h0.005l0.002-0.004 0.012-0.009 0.025-0.023c0.1-0.086 0.211-0.17 0.326-0.248l0.013-0.008c0.217-0.151 0.526-0.343 0.914-0.532 0.782-0.379 1.913-0.754 3.319-0.754s2.535 0.375 3.317 0.754c0.478 0.235 0.89 0.499 1.269 0.801l-0.014-0.011 0.027 0.023 0.009 0.009 0.004 0.002 0.003 0.005c0.259 0.25 0.42 0.6 0.42 0.988 0 0.758-0.614 1.372-1.372 1.372-0.326 0-0.626-0.114-0.861-0.304l0.003 0.002-0.018-0.012c-0.192-0.146-0.41-0.28-0.639-0.394l-0.024-0.011c-0.615-0.303-1.339-0.48-2.104-0.48-0.007 0-0.014 0-0.021 0h0.001c-0.91 0-1.632 0.242-2.121 0.48-0.254 0.124-0.472 0.259-0.675 0.412l0.010-0.008-0.016 0.014zM8.457 12.754c0-1.010 0.819-1.829 1.829-1.829s1.829 0.819 1.829 1.829v0c0 1.010-0.819 1.829-1.829 1.829s-1.829-0.819-1.829-1.829v0zM21.559 10.926c1.010 0 1.829 0.819 1.829 1.829s-0.819 1.829-1.829 1.829v0c-1.010 0-1.829-0.819-1.829-1.829s0.819-1.829 1.829-1.829v0z"></path>
</svg>
