<!-- Generated by IcoMoon.io -->
<svg version="1.1" xmlns="http://www.w3.org/2000/svg" width="32" height="32" viewBox="0 0 32 32">
<path d="M16 2.286c-7.574 0-13.714 6.14-13.714 13.714s6.14 13.714 13.714 13.714v0c7.574 0 13.714-6.14 13.714-13.714s-6.14-13.714-13.714-13.714v0zM13.198 18.668l0.016 0.014 0.119 0.089c0.114 0.080 0.302 0.197 0.546 0.315 0.492 0.238 1.212 0.48 2.121 0.48 0.907 0 1.63-0.242 2.121-0.48 0.253-0.124 0.471-0.259 0.673-0.412l-0.010 0.007 0.018-0.014c0.236-0.196 0.541-0.315 0.875-0.315 0.758 0 1.372 0.614 1.372 1.372 0 0.396-0.167 0.752-0.435 1.002l-0.001 0.001v0.002h-0.002l-0.014 0.014-0.027 0.023c-0.1 0.086-0.209 0.17-0.323 0.248l-0.012 0.008c-0.217 0.151-0.526 0.343-0.914 0.533-0.784 0.379-1.913 0.754-3.319 0.754s-2.537-0.375-3.319-0.754c-0.477-0.235-0.888-0.497-1.267-0.799l0.014 0.011-0.025-0.023-0.009-0.009-0.005-0.002h-0.002v-0.005c-0.259-0.25-0.42-0.6-0.42-0.988 0-0.758 0.614-1.372 1.372-1.372 0.326 0 0.626 0.114 0.861 0.304l-0.003-0.002zM8.457 12.754c0-1.010 0.819-1.829 1.829-1.829s1.829 0.819 1.829 1.829v0c0 1.010-0.819 1.829-1.829 1.829s-1.829-0.819-1.829-1.829v0zM21.559 10.926c1.010 0 1.829 0.819 1.829 1.829s-0.819 1.829-1.829 1.829v0c-1.010 0-1.829-0.819-1.829-1.829s0.819-1.829 1.829-1.829v0z"></path>
</svg>
