<!-- Generated by IcoMoon.io -->
<svg version="1.1" xmlns="http://www.w3.org/2000/svg" width="32" height="32" viewBox="0 0 32 32">
<path d="M16 2.286c-7.574 0-13.714 6.14-13.714 13.714s6.14 13.714 13.714 13.714v0c7.574 0 13.714-6.14 13.714-13.714s-6.14-13.714-13.714-13.714v0zM13.275 19.323h5.685c0.821 0 1.486 0.665 1.486 1.486s-0.665 1.486-1.486 1.486h-5.685c-0.821 0-1.486-0.665-1.486-1.486s0.665-1.486 1.486-1.486v0zM8.457 12.754c0-1.010 0.819-1.829 1.829-1.829s1.829 0.819 1.829 1.829v0c0 1.010-0.819 1.829-1.829 1.829s-1.829-0.819-1.829-1.829v0zM21.559 10.926c1.010 0 1.829 0.819 1.829 1.829s-0.819 1.829-1.829 1.829v0c-1.010 0-1.829-0.819-1.829-1.829s0.819-1.829 1.829-1.829v0z"></path>
</svg>
