<!-- Generated by IcoMoon.io -->
<svg version="1.1" xmlns="http://www.w3.org/2000/svg" width="32" height="32" viewBox="0 0 32 32">
<path d="M16 5.028c-6.059 0-10.972 4.912-10.972 10.972s4.912 10.972 10.972 10.972v0c6.059 0 10.972-4.912 10.972-10.972s-4.912-10.972-10.972-10.972v0zM2.286 16c0-7.574 6.14-13.714 13.714-13.714s13.714 6.14 13.714 13.714v0c0 7.574-6.14 13.714-13.714 13.714s-13.714-6.14-13.714-13.714v0zM11.271 21.849c0.252 0.283 0.618 0.461 1.026 0.461 0.346 0 0.662-0.128 0.903-0.339l0.014-0.012 0.119-0.089c0.114-0.080 0.299-0.197 0.546-0.315 0.489-0.238 1.212-0.48 2.121-0.48 0.907 0 1.63 0.242 2.121 0.48 0.253 0.124 0.471 0.259 0.673 0.412l-0.010-0.007 0.018 0.014c0.236 0.196 0.541 0.315 0.875 0.315 0.758 0 1.372-0.614 1.372-1.372 0-0.396-0.167-0.752-0.435-1.002l-0.001-0.001v-0.005h-0.002l-0.005-0.004-0.009-0.009-0.027-0.023c-0.1-0.086-0.209-0.17-0.323-0.248l-0.012-0.008c-0.262-0.184-0.561-0.361-0.874-0.515l-0.040-0.018c-0.963-0.474-2.096-0.752-3.294-0.752-0.009 0-0.017 0-0.026 0h0.001c-1.406 0-2.537 0.375-3.319 0.754-0.477 0.235-0.888 0.497-1.267 0.799l0.014-0.011-0.025 0.023-0.012 0.009-0.002 0.002h-0.002v0.005c-0.283 0.252-0.46 0.618-0.46 1.025 0 0.35 0.131 0.67 0.347 0.912l-0.001-0.001zM8.457 12.754c0-1.010 0.819-1.829 1.829-1.829s1.829 0.819 1.829 1.829v0c0 1.010-0.819 1.829-1.829 1.829s-1.829-0.819-1.829-1.829v0zM21.559 10.926c-1.010 0-1.829 0.819-1.829 1.829s0.819 1.829 1.829 1.829v0c1.010 0 1.829-0.819 1.829-1.829s-0.819-1.829-1.829-1.829v0z"></path>
</svg>
