<!-- Generated by IcoMoon.io -->
<svg version="1.1" xmlns="http://www.w3.org/2000/svg" width="32" height="32" viewBox="0 0 32 32">
<path d="M16 5.028c-6.059 0-10.972 4.912-10.972 10.972s4.912 10.972 10.972 10.972v0c6.059 0 10.972-4.912 10.972-10.972s-4.912-10.972-10.972-10.972v0zM2.286 16c0-7.574 6.14-13.714 13.714-13.714s13.714 6.14 13.714 13.714v0c0 7.574-6.14 13.714-13.714 13.714s-13.714-6.14-13.714-13.714v0zM11.79 20.809c0-0.82 0.665-1.486 1.486-1.486h5.685c0.821 0 1.486 0.665 1.486 1.486s-0.665 1.486-1.486 1.486h-5.685c-0.82 0-1.486-0.665-1.486-1.486 0-0 0-0 0-0v0zM8.457 12.754c0-1.010 0.819-1.829 1.829-1.829s1.829 0.819 1.829 1.829v0c0 1.010-0.819 1.829-1.829 1.829s-1.829-0.819-1.829-1.829v0zM21.559 10.926c-1.010 0-1.829 0.819-1.829 1.829s0.819 1.829 1.829 1.829v0c1.010 0 1.829-0.819 1.829-1.829s-0.819-1.829-1.829-1.829v0z"></path>
</svg>
