<!-- Generated by IcoMoon.io -->
<svg version="1.1" xmlns="http://www.w3.org/2000/svg" width="32" height="32" viewBox="0 0 32 32">
<path d="M28.551 5.452c-0.161-0.075-0.35-0.119-0.55-0.119-0.338 0-0.646 0.125-0.881 0.332l0.001-0.001-10.667 9.33c-0.28 0.246-0.456 0.604-0.456 1.003s0.176 0.758 0.454 1.002l0.002 0.001 10.667 9.332c0.233 0.205 0.541 0.33 0.878 0.33 0.736 0 1.332-0.597 1.332-1.332 0-0 0-0.001 0-0.001v0-18.663c0-0.001 0-0.002 0-0.003 0-0.536-0.317-0.998-0.773-1.21l-0.008-0.003zM13.883 5.452c-0.161-0.075-0.35-0.119-0.549-0.119-0.338 0-0.646 0.125-0.88 0.332l0.001-0.001-10.665 9.33c-0.28 0.246-0.456 0.604-0.456 1.003s0.176 0.758 0.454 1.002l0.002 0.001 10.665 9.332c0.233 0.206 0.542 0.332 0.88 0.332 0.736 0 1.332-0.597 1.332-1.332 0-0.001 0-0.002 0-0.003v0-18.663c0-0 0-0.001 0-0.002 0-0.537-0.318-1-0.776-1.211l-0.008-0.003z"></path>
</svg>
