<!-- Generated by IcoMoon.io -->
<svg version="1.1" xmlns="http://www.w3.org/2000/svg" width="32" height="32" viewBox="0 0 32 32">
<path d="M3.449 5.454c0.162-0.075 0.351-0.119 0.551-0.119 0.337 0 0.644 0.125 0.879 0.331l-0.002-0.001 10.667 9.33c0.28 0.246 0.456 0.604 0.456 1.003s-0.176 0.758-0.454 1.002l-0.002 0.001-10.667 9.332c-0.233 0.205-0.541 0.33-0.878 0.33-0.736 0-1.333-0.597-1.333-1.332 0-0 0-0.001 0-0.001v0-18.663c0-0.526 0.306-0.999 0.782-1.214zM18.117 5.454c0.162-0.075 0.351-0.119 0.551-0.119 0.337 0 0.644 0.125 0.879 0.331l-0.002-0.001 10.665 9.332c0.28 0.246 0.456 0.604 0.456 1.003s-0.176 0.758-0.454 1.002l-0.002 0.001-10.665 9.332c-0.233 0.206-0.542 0.332-0.88 0.332-0.736 0-1.332-0.597-1.332-1.332 0-0.001 0-0.002 0-0.003v0-18.665c0-0.526 0.306-0.999 0.784-1.214zM5.332 9.605v12.791l7.31-6.395-7.31-6.395zM20 9.605v12.791l7.308-6.395-7.308-6.395z"></path>
</svg>
