<!-- Generated by IcoMoon.io -->
<svg version="1.1" xmlns="http://www.w3.org/2000/svg" width="32" height="32" viewBox="0 0 32 32">
<path d="M2.286 7.086c0-3.282 2.661-5.943 5.943-5.943v0h15.543c3.282 0 5.943 2.661 5.943 5.943v0 17.829c0 3.282-2.661 5.943-5.943 5.943v0h-15.543c-3.282 0-5.943-2.661-5.943-5.943v-17.829zM8.228 3.886c-1.767 0-3.2 1.433-3.2 3.2v0 17.829c0 1.767 1.433 3.2 3.2 3.2v0h15.543c1.767 0 3.2-1.433 3.2-3.2v0-17.829c0-1.767-1.433-3.2-3.2-3.2v0h-15.543zM7.772 9.257c0-0.757 0.614-1.371 1.371-1.372h13.714c0.006-0 0.013-0 0.021-0 0.758 0 1.372 0.614 1.372 1.372s-0.614 1.372-1.372 1.372c-0.007 0-0.015-0-0.022-0h-13.713c-0.757-0-1.371-0.614-1.371-1.371v-0zM7.772 16c0-0.757 0.614-1.371 1.371-1.372h13.714c0.758 0 1.372 0.614 1.372 1.372s-0.614 1.372-1.372 1.372h-13.714c-0.757-0-1.371-0.614-1.371-1.372v0zM7.772 22.743c0-0.757 0.614-1.371 1.371-1.371h6.857c0.749 0.012 1.351 0.621 1.351 1.371s-0.602 1.36-1.35 1.371h-6.858c-0.757-0-1.371-0.614-1.371-1.372v0z"></path>
</svg>
