<!-- Generated by IcoMoon.io -->
<svg version="1.1" xmlns="http://www.w3.org/2000/svg" width="32" height="32" viewBox="0 0 32 32">
<path d="M8.382 1.143c-3.367 0-6.096 2.661-6.096 5.943v17.829c0 3.282 2.729 5.943 6.096 5.943h15.237c3.367 0 6.096-2.661 6.096-5.943v-17.829c0-3.282-2.729-5.943-6.096-5.943h-15.237zM23.618 9.685h-15.237c-0.004 0-0.009 0-0.014 0-0.618 0-1.12-0.496-1.129-1.112v-0.001c0-0.617 0.512-1.113 1.143-1.113h15.237c0.633 0 1.143 0.498 1.143 1.113 0 0.617-0.51 1.113-1.143 1.113zM24.761 16c0 0.617-0.51 1.113-1.143 1.113h-15.237c-0.004 0-0.009 0-0.014 0-0.618 0-1.12-0.497-1.129-1.112v-0.001c0-0.617 0.512-1.113 1.143-1.113h15.237c0.633 0 1.143 0.498 1.143 1.113zM16 24.544h-7.618c-0.004 0-0.009 0-0.014 0-0.619 0-1.121-0.498-1.129-1.115v-0.001c0-0.617 0.512-1.115 1.143-1.115h7.618c0.631 0 1.143 0.501 1.143 1.115 0 0.617-0.512 1.115-1.143 1.116z"></path>
</svg>
