<!-- Generated by IcoMoon.io -->
<svg version="1.1" xmlns="http://www.w3.org/2000/svg" width="32" height="32" viewBox="0 0 32 32">
<path d="M3.006 6.985c-1.833-2.896 0.050-6.994 3.646-6.994h18.713c3.593 0 5.479 4.098 3.646 6.994-0.018 0.028-0.033 0.049-0.049 0.071l0.003-0.004-7.826 10.903c-0.484 0.772-0.77 1.709-0.77 2.714 0 0.005 0 0.009 0 0.014v-0.001 5.195c0 0.759-0.286 1.499-0.814 2.057l-2.988 3.145c-1.904 2.005-4.919 0.425-4.919-2.057v-8.343c0-0.974-0.272-1.92-0.773-2.724l-7.826-10.903c-0.013-0.018-0.028-0.040-0.042-0.063l-0.003-0.006zM5.305 5.49l7.872 10.967c0.793 1.257 1.216 2.727 1.216 4.224v8.343c0 0.080 0.021 0.121 0.034 0.142 0.016 0.025 0.039 0.046 0.064 0.055 0.023 0.012 0.037 0.009 0.037 0.009l0.007-0.005c0.015-0.009 0.028-0.020 0.039-0.032l0-0 2.99-3.148c0.037-0.043 0.059-0.1 0.059-0.162 0-0.003-0-0.005-0-0.008v0-5.195c0-0.002 0-0.004 0-0.007 0-1.592 0.471-3.074 1.28-4.314l-0.019 0.030 7.824-10.903c0.782-1.28-0.174-2.757-1.344-2.757h-18.713c-1.17 0-2.126 1.479-1.347 2.759z"></path>
</svg>
