<!-- Generated by IcoMoon.io -->
<svg version="1.1" xmlns="http://www.w3.org/2000/svg" width="32" height="32" viewBox="0 0 32 32">
<path d="M2.286 16c0-1.772 1.188-3.264 2.812-3.723v-8.937c0-0.583 0.473-1.056 1.056-1.056s1.056 0.473 1.056 1.056v0 8.937c1.638 0.475 2.816 1.962 2.816 3.723s-1.178 3.249-2.789 3.717l-0.027 0.007v8.937c-0.026 0.562-0.489 1.008-1.055 1.008s-1.028-0.446-1.055-1.006l-0-0.002v-8.937c-1.625-0.459-2.814-1.952-2.814-3.723zM17.056 5.243v-1.902c0-0.583-0.473-1.056-1.056-1.056s-1.056 0.473-1.056 1.056v0 1.902c-1.637 0.475-2.814 1.962-2.814 3.723 0 2.137 1.733 3.87 3.87 3.87s3.87-1.733 3.87-3.87c0-1.761-1.177-3.248-2.786-3.716l-0.027-0.007zM16 29.714c0 0 0 0 0 0-0.582 0-1.055-0.471-1.056-1.054v-12.661c0-0.583 0.473-1.056 1.056-1.056s1.056 0.473 1.056 1.056v0 12.661c-0.001 0.582-0.474 1.054-1.056 1.054 0 0 0 0 0 0v0zM25.847 17.056c-0.583 0-1.056-0.473-1.056-1.056v0-12.658c-0.001-0.014-0.001-0.031-0.001-0.048 0-0.583 0.473-1.056 1.056-1.056s1.056 0.473 1.056 1.056c0 0.017-0 0.034-0.001 0.050l0-0.002v12.658c0 0 0 0 0 0 0 0.582-0.471 1.055-1.054 1.056h-0zM25.847 29.714c-0.001 0-0.001 0-0.002 0-0.582 0-1.054-0.472-1.054-1.054 0 0 0 0 0 0v0-1.904c-1.638-0.475-2.815-1.962-2.815-3.723 0-2.137 1.733-3.87 3.87-3.87s3.87 1.733 3.87 3.87c0 1.762-1.177 3.248-2.788 3.716l-0.027 0.007v1.904c0 0.582-0.472 1.054-1.054 1.054v0z"></path>
</svg>
