<!-- Generated by IcoMoon.io -->
<svg version="1.1" xmlns="http://www.w3.org/2000/svg" width="32" height="32" viewBox="0 0 32 32">
<path d="M16 5.028c-0.758 0-1.372 0.614-1.372 1.372s0.614 1.372 1.372 1.372v0c0.758 0 1.372-0.614 1.372-1.372s-0.614-1.372-1.372-1.372v0zM12.119 5.028c0.58-1.615 2.098-2.749 3.881-2.749s3.301 1.134 3.872 2.72l0.009 0.029h8.462c0.758 0 1.372 0.614 1.372 1.372s-0.614 1.372-1.372 1.372h-8.462c-0.58 1.615-2.098 2.749-3.881 2.749s-3.301-1.134-3.872-2.72l-0.009-0.029h-8.462c-0.757 0-1.372-0.614-1.372-1.372s0.614-1.372 1.372-1.372h8.462zM22.857 14.628c-0.758 0-1.372 0.614-1.372 1.372s0.614 1.372 1.372 1.372v0c0.758 0 1.372-0.614 1.372-1.372s-0.614-1.372-1.372-1.372v0zM18.743 16c0-0.002 0-0.004 0-0.006 0-2.272 1.842-4.114 4.114-4.114 1.783 0 3.301 1.134 3.872 2.72l0.009 0.029h1.604c0.758 0 1.372 0.614 1.372 1.372s-0.614 1.372-1.372 1.372h-1.604c-0.58 1.615-2.098 2.749-3.881 2.749-2.272 0-4.114-1.842-4.114-4.114 0-0.002 0-0.004 0-0.007v0zM2.286 16c0-0.758 0.614-1.372 1.372-1.372h12.343c0.758 0 1.372 0.614 1.372 1.372s-0.614 1.372-1.372 1.372h-12.343c-0.757 0-1.372-0.614-1.372-1.372v0zM9.143 24.228c-0.758 0-1.372 0.614-1.372 1.372s0.614 1.372 1.372 1.372v0c0.758 0 1.372-0.614 1.372-1.372s-0.614-1.372-1.372-1.372v0zM5.262 24.228c0.582-1.612 2.098-2.743 3.879-2.743 2.272 0 4.114 1.842 4.114 4.114s-1.842 4.114-4.114 4.114c-1.781 0-3.297-1.131-3.87-2.714l-0.009-0.029h-1.604c-0.757 0-1.372-0.614-1.372-1.372s0.614-1.372 1.372-1.372v0h1.604zM14.628 25.6c0-0.758 0.614-1.372 1.372-1.372v0h12.343c0.758 0 1.372 0.614 1.372 1.372s-0.614 1.372-1.372 1.372v0h-12.343c-0.758 0-1.372-0.614-1.372-1.372v0z"></path>
</svg>
