<!-- Generated by IcoMoon.io -->
<svg version="1.1" xmlns="http://www.w3.org/2000/svg" width="32" height="32" viewBox="0 0 32 32">
<path d="M6.4 2.286c0.758 0 1.372 0.614 1.372 1.372v0 8.462c1.615 0.58 2.749 2.098 2.749 3.881s-1.134 3.301-2.72 3.872l-0.029 0.009v8.462c0 0.758-0.614 1.372-1.372 1.372s-1.372-0.614-1.372-1.372v0-8.462c-1.615-0.58-2.749-2.098-2.749-3.881s1.134-3.301 2.72-3.872l0.029-0.009v-8.462c0-0.757 0.614-1.372 1.372-1.372v0zM16 2.286c0.758 0 1.372 0.614 1.372 1.372v0 1.604c1.612 0.582 2.743 2.098 2.743 3.879 0 2.272-1.842 4.114-4.114 4.114s-4.114-1.842-4.114-4.114c0-1.781 1.131-3.297 2.714-3.87l0.029-0.009v-1.604c0-0.757 0.614-1.372 1.372-1.372v0zM25.6 2.286c0.758 0 1.372 0.614 1.372 1.372v0 12.343c0 0.758-0.614 1.372-1.372 1.372s-1.372-0.614-1.372-1.372v-12.343c0-0.757 0.614-1.372 1.372-1.372v0zM16 7.772c-0.006-0-0.013-0-0.021-0-0.758 0-1.372 0.614-1.372 1.372s0.614 1.372 1.372 1.372c0.007 0 0.015-0 0.022-0h-0.001c0.749-0.012 1.351-0.621 1.351-1.371s-0.602-1.36-1.35-1.371h-0.001zM6.4 14.628c-0.758 0-1.372 0.614-1.372 1.372s0.614 1.372 1.372 1.372v0c0.758 0 1.372-0.614 1.372-1.372s-0.614-1.372-1.372-1.372v0zM16 14.628c0.758 0 1.372 0.614 1.372 1.372v0 12.343c0 0.758-0.614 1.372-1.372 1.372s-1.372-0.614-1.372-1.372v-12.343c0-0.758 0.614-1.372 1.372-1.372v0zM25.6 21.486c-0.006-0-0.013-0-0.021-0-0.758 0-1.372 0.614-1.372 1.372s0.614 1.372 1.372 1.372c0.007 0 0.015-0 0.022-0h-0.001c0.749-0.012 1.351-0.621 1.351-1.371s-0.602-1.36-1.35-1.371h-0.001zM21.486 22.857c0.001-2.271 1.843-4.112 4.114-4.112s4.114 1.842 4.114 4.114c0 1.781-1.131 3.297-2.714 3.87l-0.029 0.009v1.604c0 0.758-0.614 1.372-1.372 1.372s-1.372-0.614-1.372-1.372v-1.604c-1.612-0.582-2.743-2.098-2.743-3.879 0-0.001 0-0.002 0-0.002v0z"></path>
</svg>
