<!-- Generated by IcoMoon.io -->
<svg version="1.1" xmlns="http://www.w3.org/2000/svg" width="32" height="32" viewBox="0 0 32 32">
<path d="M12.999 5.332h6c0 0 0 0 0 0 0.921 0 1.668 0.747 1.668 1.668 0 0 0 0 0 0v-0 1.666h-9.335v-1.669c0.001-0.92 0.748-1.666 1.668-1.666 0 0 0 0 0 0h-0zM23.332 8.668v-1.669c-0.001-2.392-1.941-4.331-4.334-4.331 0 0 0 0 0 0h-6c-2.392 0.001-4.33 1.94-4.331 4.331v1.669h-1.669c-2.391 0.001-4.33 1.94-4.331 4.331v12c0 2.393 1.939 4.332 4.331 4.334h18c0.001 0 0.001 0 0.002 0 2.392 0 4.332-1.939 4.332-4.332 0-0.001 0-0.002 0-0.002v0-12c-0.001-2.392-1.941-4.331-4.334-4.331 0 0 0 0 0 0h-1.666zM6.999 11.332h18.003c0.921 0.001 1.666 0.748 1.666 1.668 0 0 0 0 0 0v-0 12c-0.001 0.921-0.748 1.666-1.668 1.666-0 0-0 0-0 0h-17.997c-0.92-0.001-1.666-0.748-1.666-1.668 0-0 0-0 0-0v0-12c0.001-0.921 0.748-1.666 1.668-1.666v0zM16 14.668c0.736 0 1.332 0.594 1.332 1.332v1.668h1.669c0.736 0 1.333 0.597 1.333 1.333s-0.597 1.333-1.333 1.333v0h-1.669v1.666c0 0.736-0.597 1.332-1.332 1.332s-1.332-0.597-1.332-1.332v-1.668h-1.669c-0.736 0-1.333-0.597-1.333-1.333s0.597-1.333 1.333-1.333v0h1.669v-1.666c0-0.736 0.594-1.332 1.332-1.332z"></path>
</svg>
