<!-- Generated by IcoMoon.io -->
<svg version="1.1" xmlns="http://www.w3.org/2000/svg" width="32" height="32" viewBox="0 0 32 32">
<path d="M23.332 7.001v1.666h1.669c2.392 0.001 4.331 1.941 4.331 4.334 0 0 0 0 0 0v0 12c-0.001 2.392-1.941 4.331-4.334 4.331 0 0 0 0 0 0h-17.997c-2.393-0.001-4.332-1.941-4.332-4.334v0-12c0.001-2.392 1.94-4.33 4.331-4.331h1.669v-1.669c0.001-2.392 1.94-4.33 4.331-4.331h6c2.393 0 4.334 1.94 4.334 4.334v0zM18.999 5.332h-6c-0.921 0.001-1.666 0.748-1.666 1.668 0 0 0 0 0 0v-0 1.666h9.335v-1.669c-0.001-0.92-0.748-1.666-1.668-1.666-0 0-0 0-0 0h0zM17.332 16c0-0.736-0.597-1.332-1.332-1.332s-1.332 0.597-1.332 1.332v1.668h-1.669c-0.736 0-1.333 0.597-1.333 1.333s0.597 1.333 1.333 1.333v0h1.669v1.666c0 0.736 0.597 1.332 1.332 1.332s1.332-0.597 1.332-1.332v-1.668h1.669c0.736 0 1.333-0.597 1.333-1.333s-0.597-1.333-1.333-1.333v0h-1.669v-1.666z"></path>
</svg>
