<!-- Generated by IcoMoon.io -->
<svg version="1.1" xmlns="http://www.w3.org/2000/svg" width="32" height="32" viewBox="0 0 32 32">
<path d="M3.657 0c0.757 0 1.371 0.614 1.371 1.372v0 0.091h14.4c2.652 0 4.8 2.148 4.8 4.8v1.052h0.686c2.652 0 4.8 2.148 4.8 4.8v8.304c0 2.651-2.149 4.8-4.8 4.8h-12.343c-2.651 0-4.8-2.149-4.8-4.8v0-0.121h-2.743v10.331c0 0.006 0 0.013 0 0.021 0 0.758-0.614 1.372-1.372 1.372s-1.372-0.614-1.372-1.372c0-0.007 0-0.015 0-0.022v0.001-29.257c0-0.757 0.614-1.372 1.372-1.372v0zM5.028 17.554h14.4c1.136 0 2.057-0.921 2.057-2.057v0-9.234c0-1.136-0.921-2.057-2.057-2.057v0h-14.4v13.349zM10.514 20.297v0.121c0 1.136 0.921 2.057 2.057 2.057h12.343c1.136 0 2.057-0.921 2.057-2.057v-8.304c0-1.136-0.921-2.057-2.057-2.057v0h-0.686v5.44c0 2.651-2.149 4.8-4.8 4.8h-8.914z"></path>
</svg>
