<!-- Generated by IcoMoon.io -->
<svg version="1.1" xmlns="http://www.w3.org/2000/svg" width="32" height="32" viewBox="0 0 32 32">
<path d="M3.428 0c0.631 0 1.143 0.537 1.143 1.2v0.4h16c1.682 0 3.047 1.433 3.047 3.2v12.4c0 1.104-0.852 2-1.904 2h-17.143v11.6c0 0.663-0.512 1.2-1.143 1.2-0.635-0.016-1.143-0.535-1.143-1.172 0-0.010 0-0.020 0-0.029l-0 0.001v-29.6c0-0.663 0.512-1.2 1.143-1.2zM8.382 22.4v-0.8h13.333c2.313 0 4.19-1.97 4.19-4.4v-9.2h0.763c1.682 0 3.047 1.433 3.047 3.2v11.2c0 1.767-1.365 3.2-3.047 3.2h-15.239c-1.682 0-3.047-1.433-3.047-3.2z"></path>
</svg>
