<!-- Generated by IcoMoon.io -->
<svg version="1.1" xmlns="http://www.w3.org/2000/svg" width="32" height="32" viewBox="0 0 32 32">
<path d="M25.001 7.243h1.97c1.515 0 2.743 1.184 2.743 2.642v1.323c0 1.458-1.227 2.642-2.743 2.643h-21.943c-1.515 0-2.743-1.184-2.743-2.643v-1.323c0-1.458 1.228-2.642 2.743-2.642h1.97c-0.162-0.389-0.256-0.842-0.256-1.316 0-0.003 0-0.005 0-0.008v0c0-2.007 1.689-3.634 3.772-3.634 2.304 0 4.327 1.152 5.486 2.892 1.198-1.755 3.189-2.892 5.445-2.892 0.014 0 0.029 0 0.043 0h-0.002c2.082 0 3.772 1.627 3.772 3.634 0 0.466-0.092 0.914-0.258 1.323zM9.486 7.243h5.271c-0.578-1.726-2.258-2.976-4.242-2.976-0.009-0-0.019-0-0.030-0-0.919 0-1.666 0.736-1.684 1.651l-0 0.002c0 0.542 0.27 1.022 0.686 1.323zM22.514 7.243c0.416-0.298 0.684-0.779 0.686-1.323v-0c0-0.912-0.768-1.652-1.714-1.652-1.984 0-3.664 1.25-4.242 2.976h5.271zM26.972 15.835h-21.943v11.234c0 1.463 1.228 2.645 2.743 2.645h16.457c1.515 0 2.743-1.184 2.743-2.645v-11.234z"></path>
</svg>
