<!-- Generated by IcoMoon.io -->
<svg version="1.1" xmlns="http://www.w3.org/2000/svg" width="32" height="32" viewBox="0 0 32 32">
<path d="M7.223 6.126c0-2.121 1.719-3.84 3.84-3.84 2 0 3.781 0.93 4.937 2.382 1.164-1.457 2.94-2.382 4.932-2.382 0.002 0 0.004 0 0.005 0h-0c0 0 0 0 0 0 2.121 0 3.84 1.719 3.84 3.84 0 0.391-0.058 0.769-0.167 1.124l0.007-0.027h1.257c2.121 0 3.84 1.719 3.84 3.84v1.234c0 0 0 0.001 0 0.002 0 1.628-1.013 3.019-2.443 3.578l-0.026 0.009v9.989c0 2.121-1.719 3.84-3.84 3.84v0h-14.811c-2.121 0-3.84-1.719-3.84-3.84v0-9.989c-1.456-0.568-2.469-1.959-2.469-3.587 0-0.001 0-0.001 0-0.002v0-1.234c0-2.121 1.719-3.84 3.84-3.84h1.257c-0.102-0.328-0.16-0.706-0.16-1.097 0-0 0-0 0-0v0zM11.063 7.223h3.292c-0.552-1.3-1.817-2.194-3.291-2.194-0 0-0 0-0 0v0c-0.606 0-1.097 0.491-1.097 1.097s0.491 1.097 1.097 1.097v0zM14.628 9.966h-8.503c-0.606 0-1.097 0.491-1.097 1.097v1.234c0 0.606 0.492 1.097 1.097 1.097h8.503v-3.429zM14.628 16.137h-7.131v9.737c0 0.606 0.492 1.097 1.097 1.097h6.034v-10.834zM17.372 26.972h6.034c0.606 0 1.097-0.491 1.097-1.097v0-9.737h-7.131v10.834zM17.372 13.394h8.503c0.606 0 1.097-0.491 1.097-1.097v0-1.234c0-0.606-0.491-1.097-1.097-1.097v0h-8.503v3.429zM17.646 7.223h3.292c0.606 0 1.097-0.491 1.097-1.097s-0.491-1.097-1.097-1.097v0c-0 0-0 0-0 0-1.474 0-2.74 0.895-3.283 2.171l-0.009 0.023z"></path>
</svg>
