<!-- Generated by IcoMoon.io -->
<svg version="1.1" xmlns="http://www.w3.org/2000/svg" width="32" height="32" viewBox="0 0 32 32">
<path d="M4.222 18.114c1.015 2.959 3.171 5.299 5.928 6.536l0.070 0.028c-0.092-0.181-0.212-0.449-0.323-0.722l-0.033-0.092c-0.529-1.328-0.948-2.879-1.186-4.49l-0.014-0.116c-1.157-0.183-2.219-0.418-3.154-0.699-0.543-0.16-0.97-0.312-1.388-0.482l0.101 0.036zM14.628 28.343c-0.019 0-0.042 0-0.065 0-7.574 0-13.714-6.14-13.714-13.714s6.14-13.714 13.714-13.714c0.023 0 0.046 0 0.069 0h-0.004c7.546 0.037 13.649 6.163 13.649 13.714s-6.103 13.677-13.645 13.714h-0.004zM25.035 18.114c-0.316 0.133-0.743 0.285-1.177 0.418l-0.107 0.028c-0.937 0.281-2 0.517-3.154 0.699-0.254 1.727-0.674 3.278-1.255 4.749l0.050-0.144c-0.11 0.279-0.228 0.548-0.354 0.812 2.825-1.265 4.979-3.604 5.972-6.483l0.023-0.077zM25.035 11.143c-1.016-2.959-3.171-5.298-5.928-6.536l-0.070-0.028c0.096 0.189 0.215 0.457 0.324 0.73l0.030 0.083c0.528 1.319 0.937 2.885 1.203 4.606 1.157 0.183 2.219 0.418 3.154 0.699 0.45 0.135 0.88 0.283 1.287 0.446zM17.758 9.668c-0.224-1.24-0.54-2.335-0.954-3.38l0.041 0.119c-0.409-1.019-0.859-1.755-1.291-2.21-0.43-0.453-0.743-0.539-0.926-0.539s-0.496 0.087-0.926 0.542c-0.432 0.457-0.885 1.188-1.291 2.21-0.372 0.927-0.689 2.022-0.896 3.155l-0.016 0.107c0.937-0.075 2.028-0.118 3.129-0.118s2.193 0.043 3.272 0.127l-0.143-0.009zM11.143 12.453c-0.052 0.651-0.081 1.41-0.081 2.176s0.029 1.525 0.087 2.276l-0.006-0.1c1.097 0.101 2.265 0.155 3.486 0.155s2.391-0.055 3.486-0.155c0.052-0.651 0.081-1.41 0.081-2.176s-0.029-1.525-0.087-2.276l0.006 0.1c-1.097-0.101-2.265-0.155-3.486-0.155s-2.391 0.055-3.486 0.155zM8.37 12.83c-0.836 0.153-1.535 0.324-2.218 0.531l0.142-0.037c-1.045 0.313-1.792 0.661-2.247 0.983-0.139 0.091-0.258 0.198-0.359 0.32l-0.002 0.003c0.104 0.124 0.223 0.231 0.355 0.319l0.006 0.004c0.457 0.322 1.202 0.67 2.247 0.983 0.617 0.185 1.314 0.352 2.075 0.494-0.032-0.538-0.050-1.166-0.050-1.799s0.018-1.261 0.054-1.885l-0.004 0.086zM8.663 9.995c0.252-1.726 0.671-3.277 1.25-4.747l-0.050 0.144c0.114-0.279 0.228-0.548 0.357-0.813-2.827 1.266-4.982 3.606-5.975 6.487l-0.023 0.077c0.407-0.162 0.837-0.311 1.285-0.446 0.937-0.281 2-0.517 3.154-0.699zM11.497 19.588c0.228 1.234 0.542 2.338 0.912 3.262 0.407 1.019 0.859 1.755 1.292 2.21 0.43 0.455 0.743 0.542 0.926 0.542s0.496-0.087 0.926-0.542c0.432-0.457 0.882-1.188 1.292-2.21 0.37-0.923 0.681-2.025 0.912-3.262-0.937 0.075-2.028 0.118-3.129 0.118s-2.192-0.043-3.272-0.127l0.143 0.009zM20.885 16.43c0.761-0.142 1.456-0.308 2.075-0.494 1.045-0.313 1.792-0.661 2.245-0.983 0.139-0.091 0.257-0.198 0.359-0.32l0.002-0.003c-0.104-0.124-0.222-0.231-0.355-0.319l-0.006-0.004c-0.453-0.322-1.2-0.67-2.245-0.983-0.541-0.169-1.239-0.341-1.951-0.474l-0.125-0.019c0.032 0.538 0.050 1.166 0.050 1.799s-0.018 1.261-0.054 1.885l0.004-0.086z"></path>
</svg>
