<!-- Generated by IcoMoon.io -->
<svg version="1.1" xmlns="http://www.w3.org/2000/svg" width="32" height="32" viewBox="0 0 32 32">
<path d="M13.038 6.487c-0.505 1.277-0.911 2.773-1.151 4.324l-0.015 0.12c1.22-0.116 2.638-0.183 4.071-0.183 0.020 0 0.040 0 0.060 0h-0.003c1.431 0 2.816 0.064 4.128 0.183-0.255-1.671-0.661-3.167-1.216-4.589l0.050 0.146c-0.473-1.195-1.012-2.092-1.554-2.672-0.544-0.576-1.019-0.77-1.408-0.77s-0.864 0.194-1.406 0.77c-0.544 0.581-1.083 1.477-1.554 2.672zM11.104 5.705c-0.617 1.55-1.088 3.417-1.378 5.481-1.422 0.213-2.72 0.496-3.849 0.837-1.312 0.395-2.448 0.889-3.28 1.486-0.121 0.085-0.222 0.163-0.321 0.243l0.010-0.008c0.919-5.723 5.28-10.288 10.878-11.458-0.028 0.028-0.055 0.056-0.083 0.085l-0.002 0.002c-0.784 0.837-1.445 1.993-1.975 3.333zM18.834 2.286l0.084 0.087c0.784 0.837 1.445 1.993 1.975 3.333 0.617 1.55 1.088 3.417 1.378 5.481 1.424 0.213 2.72 0.496 3.849 0.837 1.312 0.395 2.448 0.889 3.28 1.486 0.105 0.073 0.21 0.153 0.311 0.238-0.917-5.726-5.278-10.29-10.875-11.461zM29.714 18.254c-0.101 0.085-0.206 0.162-0.311 0.238-0.832 0.594-1.968 1.090-3.28 1.486-1.127 0.343-2.427 0.624-3.849 0.834-0.29 2.064-0.761 3.932-1.378 5.483-0.53 1.339-1.188 2.496-1.975 3.332-0.029 0.030-0.057 0.058-0.086 0.086l-0.001 0.001c5.595-1.17 9.959-5.735 10.878-11.461zM13.163 29.714c-0.028-0.028-0.055-0.056-0.083-0.085l-0.002-0.002c-0.784-0.837-1.445-1.993-1.975-3.332-0.617-1.55-1.088-3.417-1.378-5.483-1.48-0.213-2.78-0.504-4.043-0.884l0.193 0.050c-1.312-0.395-2.448-0.892-3.28-1.486-0.12-0.086-0.222-0.164-0.32-0.245l0.009 0.007c0.919 5.726 5.28 10.29 10.878 11.461zM6.475 17.966c0.885 0.267 1.902 0.498 3.022 0.686-0.062-0.794-0.097-1.718-0.097-2.652s0.035-1.858 0.105-2.773l-0.007 0.122c-1.12 0.188-2.137 0.418-3.022 0.686-1.202 0.366-2.101 0.777-2.674 1.188-0.601 0.428-0.652 0.706-0.652 0.777 0 0.068 0.050 0.35 0.652 0.777 0.574 0.412 1.472 0.823 2.674 1.188zM11.486 16c0 1.010 0.043 1.991 0.126 2.933 1.369 0.142 2.846 0.219 4.388 0.219s3.019-0.078 4.388-0.219c0.081-0.879 0.128-1.9 0.128-2.933s-0.046-2.054-0.137-3.063l0.009 0.13c-1.369-0.142-2.846-0.219-4.388-0.219s-3.019 0.078-4.388 0.219c-0.082 0.942-0.126 1.922-0.126 2.932zM13.040 25.513c-0.505-1.277-0.911-2.774-1.15-4.326l-0.015-0.119c1.31 0.121 2.697 0.183 4.126 0.183 1.431 0 2.816-0.062 4.128-0.183-0.255 1.671-0.661 3.168-1.216 4.591l0.050-0.146c-0.473 1.195-1.012 2.092-1.554 2.67-0.544 0.578-1.019 0.773-1.408 0.773s-0.864-0.194-1.406-0.77c-0.544-0.581-1.083-1.477-1.554-2.672zM25.525 17.966c-0.885 0.267-1.902 0.498-3.022 0.686 0.062-0.794 0.097-1.718 0.097-2.652s-0.035-1.858-0.105-2.773l0.007 0.122c1.12 0.188 2.137 0.418 3.022 0.686 1.202 0.366 2.101 0.777 2.674 1.188 0.601 0.428 0.652 0.706 0.652 0.777 0 0.068-0.050 0.35-0.652 0.777-0.574 0.412-1.472 0.823-2.674 1.188z"></path>
</svg>
