<!-- Generated by IcoMoon.io -->
<svg version="1.1" xmlns="http://www.w3.org/2000/svg" width="32" height="32" viewBox="0 0 32 32">
<path d="M10.114 4.782c0.487-0.509 1.171-0.825 1.929-0.825 1.473 0 2.668 1.194 2.668 2.667 0 0.758-0.316 1.443-0.824 1.928l-0.001 0.001c-0.478 0.457-1.127 0.738-1.842 0.738-1.473 0-2.668-1.194-2.668-2.668 0-0.715 0.281-1.364 0.739-1.843l-0.001 0.001zM18.114 4.782c0.487-0.509 1.171-0.825 1.929-0.825 1.473 0 2.668 1.194 2.668 2.667 0 0.758-0.316 1.443-0.824 1.928l-0.001 0.001c-0.478 0.457-1.127 0.738-1.842 0.738-1.473 0-2.668-1.194-2.668-2.668 0-0.715 0.281-1.364 0.739-1.843l-0.001 0.001zM10.114 14.114c0.487-0.511 1.173-0.829 1.932-0.829 1.473 0 2.668 1.194 2.668 2.668 0 0.76-0.318 1.446-0.828 1.931l-0.001 0.001c-0.478 0.455-1.125 0.735-1.839 0.735-1.473 0-2.668-1.194-2.668-2.668 0-0.713 0.28-1.361 0.736-1.84l-0.001 0.001zM18.114 14.114c0.487-0.511 1.173-0.829 1.933-0.829 1.473 0 2.668 1.194 2.668 2.668 0 0.76-0.318 1.446-0.828 1.931l-0.001 0.001c-0.478 0.455-1.125 0.735-1.839 0.735-1.473 0-2.668-1.194-2.668-2.668 0-0.713 0.28-1.361 0.736-1.84l-0.001 0.001zM10.114 23.447c0.487-0.509 1.171-0.825 1.929-0.825 1.473 0 2.668 1.194 2.668 2.668 0 0.758-0.316 1.443-0.824 1.928l-0.001 0.001c-0.478 0.457-1.127 0.738-1.842 0.738-1.473 0-2.668-1.194-2.668-2.668 0-0.715 0.281-1.364 0.739-1.843l-0.001 0.001zM18.114 23.447c0.487-0.509 1.171-0.825 1.929-0.825 1.473 0 2.668 1.194 2.668 2.668 0 0.758-0.316 1.443-0.824 1.928l-0.001 0.001c-0.478 0.457-1.127 0.738-1.842 0.738-1.473 0-2.668-1.194-2.668-2.668 0-0.715 0.281-1.364 0.739-1.843l-0.001 0.001z"></path>
</svg>
