<!-- Generated by IcoMoon.io -->
<svg version="1.1" xmlns="http://www.w3.org/2000/svg" width="32" height="32" viewBox="0 0 32 32">
<path d="M16 5.028c-6.059 0-10.972 4.912-10.972 10.972v1.372h2.743c2.272 0 4.114 1.842 4.114 4.114v0 4.114c0 2.272-1.842 4.114-4.114 4.114h-1.372c-2.272 0-4.114-1.842-4.114-4.114v0-9.6c0-7.574 6.14-13.714 13.714-13.714s13.714 6.14 13.714 13.714v0 9.6c0 2.272-1.842 4.114-4.114 4.114h-1.372c-2.272-0-4.114-1.842-4.114-4.114v0-4.114c0-2.272 1.842-4.114 4.114-4.114h2.743v-1.372c0-6.059-4.912-10.972-10.972-10.972v0zM26.972 20.114h-2.743c-0.757 0-1.371 0.614-1.371 1.371v4.114c0 0.757 0.614 1.371 1.371 1.372h1.372c0.758 0 1.372-0.614 1.372-1.372v0-5.486zM5.028 20.114v5.486c0 0.758 0.614 1.372 1.372 1.372h1.372c0.757-0 1.371-0.614 1.371-1.372v-4.114c-0-0.757-0.614-1.371-1.371-1.371h-2.743z"></path>
</svg>
