<!-- Generated by IcoMoon.io -->
<svg version="1.1" xmlns="http://www.w3.org/2000/svg" width="32" height="32" viewBox="0 0 32 32">
<path d="M13.908 6.958c-1.179-1.192-2.815-1.929-4.623-1.929s-3.444 0.738-4.622 1.929l-0.001 0.001c-1.186 1.199-1.919 2.849-1.919 4.67s0.733 3.471 1.92 4.67l-0.001-0.001 10.073 10.146c0.699 0.704 1.828 0.704 2.528 0l10.073-10.146c1.186-1.199 1.919-2.849 1.919-4.67s-0.733-3.471-1.92-4.67l0.001 0.001c-1.179-1.192-2.815-1.929-4.623-1.929s-3.444 0.738-4.622 1.929l-0.001 0.001-1.12 1.127c-0.248 0.249-0.592 0.403-0.972 0.403s-0.723-0.154-0.972-0.403l-0-0-1.12-1.127zM2.715 5.028c1.676-1.692 4-2.74 6.569-2.74s4.893 1.048 6.569 2.739l0.001 0.001 0.146 0.144 0.146-0.146c1.676-1.692 4-2.74 6.569-2.74s4.893 1.048 6.569 2.739l0.001 0.001c1.679 1.695 2.716 4.027 2.716 6.602s-1.037 4.908-2.717 6.603l0.001-0.001-10.073 10.144c-0.82 0.827-1.956 1.339-3.212 1.339s-2.392-0.512-3.211-1.339l-0-0-10.073-10.144c-1.679-1.695-2.716-4.027-2.716-6.602s1.037-4.908 2.717-6.603l-0.001 0.001z"></path>
</svg>
