<!-- Generated by IcoMoon.io -->
<svg version="1.1" xmlns="http://www.w3.org/2000/svg" width="32" height="32" viewBox="0 0 32 32">
<path d="M17.225 4.88l-1.225 1.253-1.225-1.252c-1.55-1.601-3.719-2.594-6.12-2.594s-4.57 0.993-6.118 2.592l-0.002 0.002c-1.568 1.618-2.535 3.828-2.535 6.263s0.967 4.645 2.537 6.265l-0.002-0.002 11.017 11.271c0.62 0.641 1.488 1.038 2.448 1.038s1.828-0.398 2.447-1.037l0.001-0.001 11.017-11.273c1.568-1.618 2.535-3.828 2.535-6.263s-0.967-4.644-2.537-6.265l0.002 0.002c-1.55-1.601-3.719-2.594-6.12-2.594s-4.57 0.993-6.118 2.592l-0.002 0.002z"></path>
</svg>
