<!-- Generated by IcoMoon.io -->
<svg version="1.1" xmlns="http://www.w3.org/2000/svg" width="32" height="32" viewBox="0 0 32 32">
<path d="M25.332 20c0.736 0 1.335 0.597 1.335 1.332v2.668h2.665c0.737 0 1.334 0.597 1.334 1.334s-0.597 1.334-1.334 1.334h-2.665v2.665c0 0.737-0.597 1.334-1.334 1.334s-1.334-0.597-1.334-1.334v0-2.665h-2.668c-0.737 0-1.334-0.597-1.334-1.334s0.597-1.334 1.334-1.334h2.668v-2.668c0-0.736 0.597-1.332 1.332-1.332zM28.121 17.833c-0.83-0.319-1.789-0.503-2.792-0.503-4.418 0-8 3.582-8 8 0 1.002 0.184 1.96 0.52 2.844l-0.018-0.055-0.786 0.786c-0.264 0.265-0.629 0.429-1.032 0.429s-0.768-0.164-1.032-0.429l-10.99-10.994c-1.639-1.624-2.654-3.876-2.654-6.366 0-1.369 0.307-2.666 0.856-3.826l-0.023 0.054c0.514-1.108 1.252-2.101 2.167-2.908 1.532-1.369 3.566-2.206 5.794-2.206 2.273 0 4.343 0.87 5.894 2.296l-0.006-0.006c1.325-1.194 3.027-1.993 4.907-2.2l0.039-0.004c0.274-0.030 0.591-0.048 0.912-0.048 2.227 0 4.259 0.836 5.8 2.211l-0.009-0.008c1.84 1.648 2.993 4.031 2.993 6.683 0 2.431-0.968 4.635-2.54 6.249l0.002-0.002z"></path>
</svg>
