<!-- Generated by IcoMoon.io -->
<svg version="1.1" xmlns="http://www.w3.org/2000/svg" width="32" height="32" viewBox="0 0 32 32">
<path d="M16 5.028c-6.059 0-10.972 4.912-10.972 10.972s4.912 10.972 10.972 10.972v0c6.059 0 10.972-4.912 10.972-10.972s-4.912-10.972-10.972-10.972v0zM2.286 16c0-7.574 6.14-13.714 13.714-13.714s13.714 6.14 13.714 13.714v0c0 7.574-6.14 13.714-13.714 13.714s-13.714-6.14-13.714-13.714v0zM16 11.2c-0.606 0-1.097 0.491-1.097 1.097v0c-0.012 0.749-0.621 1.351-1.371 1.351s-1.36-0.602-1.371-1.35v-0.001c0-0.001 0-0.001 0-0.002 0-2.121 1.719-3.84 3.84-3.84s3.84 1.719 3.84 3.84c0 0.772-0.228 1.49-0.619 2.092l0.009-0.015c-0.282 0.428-0.56 0.797-0.859 1.148l0.014-0.016c-0.151 0.181-0.319 0.394-0.481 0.611l-0.031 0.043c-0.388 0.53-0.501 0.846-0.5 1.077v0.617c0 0.758-0.614 1.372-1.372 1.372s-1.372-0.614-1.372-1.372v0-0.617c0-1.134 0.555-2.046 1.024-2.69 0.265-0.357 0.501-0.656 0.745-0.947l-0.025 0.030c0.228-0.286 0.412-0.519 0.551-0.738 0.109-0.167 0.173-0.372 0.173-0.592 0-0.606-0.491-1.097-1.097-1.097h-0zM16 20.8c0.006-0 0.013-0 0.021-0 0.758 0 1.372 0.614 1.372 1.372s-0.614 1.372-1.372 1.372c-0.007 0-0.015-0-0.022-0h0.001c-0.749-0.012-1.351-0.621-1.351-1.371s0.602-1.36 1.35-1.371h0.001z"></path>
</svg>
