<!-- Generated by IcoMoon.io -->
<svg version="1.1" xmlns="http://www.w3.org/2000/svg" width="32" height="32" viewBox="0 0 32 32">
<path d="M13.097 3.070c0.832-0.492 1.833-0.783 2.903-0.783s2.071 0.291 2.93 0.798l-0.027-0.015 6.766 3.932c1.749 1.035 2.903 2.911 2.903 5.057 0 0.004 0 0.007 0 0.011v-0.001 7.867c0 2.089-1.106 4.018-2.903 5.063l-6.766 3.934c-0.832 0.492-1.833 0.783-2.903 0.783s-2.071-0.291-2.93-0.798l0.027 0.015-6.766-3.931c-1.749-1.035-2.903-2.911-2.903-5.057 0-0.004 0-0.009 0-0.013v0.001-7.865c0-2.089 1.106-4.018 2.903-5.063l6.766-3.934zM16 10.172c0.965 0 1.746 0.768 1.746 1.714 0 0.343-0.101 0.658-0.274 0.926-0.224 0.327-0.439 0.607-0.668 0.876l0.012-0.015-0.13 0.155c-0.217 0.263-0.457 0.553-0.672 0.846-0.517 0.695-1.063 1.6-1.063 2.697v0.686c0 0.569 0.468 1.028 1.047 1.028 0.003 0 0.006 0 0.009 0 0.57 0 1.032-0.459 1.038-1.028v-0.686c0-0.418 0.21-0.878 0.663-1.486 0.183-0.249 0.382-0.489 0.597-0.754l0.142-0.169c0.261-0.318 0.542-0.67 0.784-1.037 0.386-0.588 0.61-1.289 0.61-2.039 0-2.082-1.721-3.772-3.842-3.771s-3.84 1.689-3.84 3.771c0 0.569 0.468 1.028 1.047 1.029 0.003 0 0.006 0 0.009 0 0.57 0 1.033-0.46 1.038-1.028v-0c0-0.946 0.782-1.714 1.746-1.714zM17.047 22.857c-0.005-0.569-0.468-1.029-1.038-1.029-0.003 0-0.006 0-0.010 0h0.001c-0.003-0-0.006-0-0.009-0-0.57 0-1.033 0.459-1.038 1.028v0c0 0.567 0.468 1.028 1.047 1.028 0.003 0 0.006 0 0.009 0 0.57 0 1.032-0.459 1.038-1.028v-0z"></path>
</svg>
