<!-- Generated by IcoMoon.io -->
<svg version="1.1" xmlns="http://www.w3.org/2000/svg" width="32" height="32" viewBox="0 0 32 32">
<path d="M14.88 12.114c0-0.398 0.388-0.914 1.12-0.914 0.729 0 1.118 0.517 1.118 0.914-0.001 0.168-0.056 0.324-0.148 0.45l0.002-0.002c-0.139 0.199-0.32 0.412-0.549 0.674l-0.112 0.126c-0.192 0.214-0.394 0.452-0.59 0.694l-0.028 0.035c-0.471 0.59-1.065 1.474-1.065 2.594v0.572c0 0.758 0.614 1.372 1.372 1.372s1.372-0.614 1.372-1.372v0-0.572c0-0.142 0.078-0.395 0.471-0.891 0.155-0.197 0.32-0.384 0.514-0.603l0.128-0.146c0.231-0.265 0.501-0.576 0.731-0.908 0.402-0.574 0.645-1.271 0.645-2.023 0-2.126-1.842-3.657-3.863-3.657-2.018 0-3.858 1.532-3.858 3.657 0.012 0.749 0.621 1.351 1.371 1.351s1.36-0.602 1.371-1.35v-0.001zM17.372 21.138c0-0.758-0.614-1.372-1.372-1.372s-1.372 0.614-1.372 1.372v0 0.119c0 0.758 0.614 1.372 1.372 1.372s1.372-0.614 1.372-1.372v0-0.119zM19.28 3.179c-0.939-0.561-2.071-0.893-3.28-0.893s-2.341 0.332-3.31 0.91l0.030-0.016-6.032 3.541c-1.965 1.18-3.26 3.3-3.26 5.722 0 0.005 0 0.011 0 0.016v-0.001 7.086c0 0.005-0 0.011-0 0.016 0 2.423 1.296 4.543 3.232 5.706l0.030 0.017 6.027 3.541c0.939 0.562 2.071 0.894 3.281 0.894s2.342-0.332 3.311-0.91l-0.030 0.016 6.027-3.541c1.968-1.179 3.264-3.3 3.264-5.724 0-0.005 0-0.011-0-0.016v0.001-7.086c0-0.004 0-0.010 0-0.015 0-2.424-1.297-4.545-3.234-5.708l-0.030-0.017-6.027-3.541zM14.107 5.545c0.541-0.324 1.194-0.516 1.891-0.516s1.35 0.192 1.908 0.525l-0.017-0.009 6.027 3.541c1.175 0.688 1.911 1.973 1.911 3.374v7.083c0 0.004 0 0.009 0 0.014 0 1.421-0.759 2.665-1.893 3.349l-0.018 0.010-6.027 3.543c-0.541 0.324-1.194 0.516-1.891 0.516s-1.35-0.192-1.908-0.525l0.017 0.009-6.027-3.543c-1.151-0.694-1.908-1.938-1.908-3.358 0-0.006 0-0.011 0-0.017v0.001-7.086c0-1.401 0.734-2.686 1.908-3.374l6.027-3.543z"></path>
</svg>
