<!-- Generated by IcoMoon.io -->
<svg version="1.1" xmlns="http://www.w3.org/2000/svg" width="32" height="32" viewBox="0 0 32 32">
<path d="M29.714 16c0 7.574-6.14 13.714-13.714 13.714s-13.714-6.14-13.714-13.714v0c0-7.574 6.14-13.714 13.714-13.714s13.714 6.14 13.714 13.714v0zM16 10.172c0.946 0 1.714 0.768 1.714 1.714 0 0.344-0.101 0.664-0.275 0.932l0.004-0.007c-0.172 0.268-0.388 0.546-0.64 0.862l-0.128 0.155c-0.193 0.233-0.409 0.509-0.618 0.789l-0.040 0.056c-0.508 0.695-1.045 1.6-1.044 2.697v0.686c0 0.568 0.46 1.028 1.028 1.028s1.028-0.46 1.028-1.028v0-0.686c0-0.418 0.206-0.878 0.649-1.486 0.181-0.249 0.375-0.489 0.587-0.754l0.137-0.169c0.256-0.318 0.535-0.67 0.77-1.037 0.376-0.576 0.599-1.282 0.599-2.040 0-2.083-1.689-3.772-3.772-3.772s-3.772 1.689-3.772 3.772c0 0 0 0 0 0.001v-0c0 0.568 0.461 1.029 1.029 1.029s1.029-0.461 1.029-1.029v0c0-0.947 0.768-1.714 1.714-1.714v0zM17.028 22.857c0-0.568-0.46-1.028-1.028-1.028s-1.028 0.46-1.028 1.028v0c0 0.568 0.46 1.028 1.028 1.028s1.028-0.46 1.028-1.028v0z"></path>
</svg>
