<!-- Generated by IcoMoon.io -->
<svg version="1.1" xmlns="http://www.w3.org/2000/svg" width="32" height="32" viewBox="0 0 32 32">
<path d="M12.727 3.79c0.894-0.7 2.034-1.122 3.273-1.122s2.379 0.422 3.285 1.131l-0.012-0.009 8.078 6.277c0.151 0.12 0.286 0.242 0.413 0.372l0.001 0.001c0.968 0.965 1.568 2.299 1.568 3.774 0 0 0 0 0 0v0 10.789c0 2.393-1.94 4.334-4.334 4.334h-17.995c-2.393 0-4.332-1.939-4.334-4.331v-10.789c0-0.002 0-0.004 0-0.006 0-1.704 0.8-3.221 2.046-4.196l0.012-0.009 8-6.217zM22.249 19.566c-0.238-0.226-0.561-0.365-0.917-0.365-0.38 0-0.724 0.159-0.966 0.415l-0.001 0.001c-0.455 0.48-1.172 0.919-2.025 1.239-0.846 0.32-1.71 0.48-2.382 0.48-1.417 0-3.223-0.617-4.395-1.685-0.236-0.215-0.551-0.347-0.897-0.347-0.736 0-1.333 0.597-1.333 1.333 0 0.39 0.168 0.741 0.435 0.985l0.001 0.001c1.703 1.547 4.16 2.377 6.19 2.377 1.040 0 2.226-0.235 3.323-0.649 1.090-0.412 2.201-1.038 3.019-1.902 0.226-0.238 0.364-0.561 0.364-0.915 0-0.381-0.16-0.725-0.416-0.967l-0.001-0.001z"></path>
</svg>
