<!-- Generated by IcoMoon.io -->
<svg version="1.1" xmlns="http://www.w3.org/2000/svg" width="32" height="32" viewBox="0 0 32 32">
<path d="M22.302 21.449c0.226-0.238 0.365-0.561 0.365-0.917 0-0.736-0.597-1.333-1.333-1.333-0.381 0-0.724 0.16-0.967 0.416l-0.001 0.001c-0.455 0.48-1.172 0.919-2.025 1.239-0.846 0.32-1.71 0.48-2.382 0.48-1.417 0-3.223-0.617-4.395-1.685-0.236-0.215-0.551-0.347-0.897-0.347-0.736 0-1.333 0.597-1.333 1.333 0 0.39 0.168 0.741 0.435 0.985l0.001 0.001c1.703 1.547 4.16 2.377 6.19 2.377 1.040 0 2.226-0.235 3.323-0.649 1.090-0.412 2.201-1.038 3.017-1.902zM16 2.667c-1.186 0-2.338 0.395-3.273 1.12l-8 6.217c-1.258 0.984-2.059 2.501-2.059 4.206 0 0.001 0 0.001 0 0.001v-0 10.789c0 0.001 0 0.003 0 0.005 0 2.391 1.938 4.329 4.329 4.329 0.001 0 0.002 0 0.002 0h18c2.393 0 4.334-1.94 4.334-4.334v-10.789c0-0.001 0-0.002 0-0.002 0-1.707-0.803-3.227-2.052-4.201l-0.012-0.009-0.011-0.007-7.984-6.203c-0.894-0.7-2.034-1.122-3.273-1.122v0zM26.668 14.213v10.789c0 0.001 0 0.003 0 0.005 0 0.918-0.744 1.662-1.662 1.662-0.003 0-0.005 0-0.008-0h-17.997c-0.919-0.001-1.664-0.745-1.666-1.664v-10.791c0-0.001 0-0.002 0-0.003 0-0.851 0.4-1.609 1.023-2.096l0.006-0.004 8-6.215c0.447-0.35 1.018-0.562 1.638-0.562s1.191 0.212 1.643 0.566l-0.006-0.004 8 6.217c0.628 0.49 1.029 1.247 1.029 2.097 0 0.002 0 0.004 0 0.007v-0z"></path>
</svg>
