<!-- Generated by IcoMoon.io -->
<svg version="1.1" xmlns="http://www.w3.org/2000/svg" width="32" height="32" viewBox="0 0 32 32">
<path d="M14.757 13.605c-0.003-0-0.008-0-0.012-0-0.758 0-1.372 0.614-1.372 1.372 0 0.716 0.549 1.305 1.25 1.366l0.005 0v5.829c0 0.758 0.614 1.372 1.372 1.372s1.372-0.614 1.372-1.372v-7.196c-0-0.757-0.614-1.371-1.372-1.371h-1.243zM15.737 11.906c1.079 0 1.953-0.874 1.953-1.953s-0.874-1.953-1.953-1.953v0c-1.079 0-1.953 0.874-1.953 1.953s0.874 1.953 1.953 1.953v0zM19.28 3.179c-0.939-0.561-2.071-0.893-3.28-0.893s-2.341 0.332-3.31 0.91l0.030-0.016-6.027 3.541c-1.968 1.179-3.264 3.3-3.264 5.724 0 0.005 0 0.009 0 0.014v-0.001 7.086c0 0.004-0 0.010-0 0.015 0 2.424 1.297 4.545 3.234 5.708l0.030 0.017 6.027 3.541c0.939 0.561 2.071 0.893 3.28 0.893s2.341-0.332 3.31-0.91l-0.030 0.016 6.027-3.541c1.968-1.179 3.264-3.3 3.264-5.724 0-0.005 0-0.011-0-0.016v0.001-7.086c0-0.004 0-0.010 0-0.015 0-2.424-1.297-4.545-3.234-5.708l-0.030-0.017-6.027-3.541zM14.107 5.545c0.541-0.325 1.195-0.516 1.893-0.516s1.351 0.192 1.91 0.526l-0.017-0.009 6.025 3.541c1.175 0.688 1.911 1.973 1.911 3.374v7.083c0 0.004 0 0.009 0 0.014 0 1.421-0.759 2.665-1.893 3.349l-0.018 0.010-6.025 3.543c-0.541 0.325-1.195 0.516-1.892 0.516s-1.351-0.192-1.909-0.526l0.017 0.009-6.027-3.543c-1.151-0.694-1.908-1.938-1.908-3.358 0-0.006 0-0.011 0-0.017v0.001-7.086c0-1.401 0.736-2.686 1.908-3.374l6.027-3.543z"></path>
</svg>
