<!-- Generated by IcoMoon.io -->
<svg version="1.1" xmlns="http://www.w3.org/2000/svg" width="32" height="32" viewBox="0 0 32 32">
<path d="M29.714 16c0 7.574-6.14 13.714-13.714 13.714s-13.714-6.14-13.714-13.714v0c0-7.574 6.14-13.714 13.714-13.714s13.714 6.14 13.714 13.714v0zM17.372 9.143c0-0.758-0.614-1.372-1.372-1.372s-1.372 0.614-1.372 1.372v0c0 0.758 0.614 1.372 1.372 1.372s1.372-0.614 1.372-1.372v0zM14.628 12.228c-0.568 0-1.029 0.461-1.029 1.029s0.461 1.029 1.029 1.029v0h0.343v8.572c0 0.568 0.46 1.028 1.028 1.028s1.028-0.46 1.028-1.028v0-9.6c0-0 0-0 0-0 0-0.568-0.46-1.028-1.028-1.028h-1.372z"></path>
</svg>
