<!-- Generated by IcoMoon.io -->
<svg version="1.1" xmlns="http://www.w3.org/2000/svg" width="32" height="32" viewBox="0 0 32 32">
<path d="M13.097 3.070c0.832-0.492 1.833-0.783 2.903-0.783s2.071 0.291 2.93 0.798l-0.027-0.015 6.766 3.932c1.749 1.035 2.903 2.911 2.903 5.057 0 0.004 0 0.007 0 0.011v-0.001 7.867c0 2.089-1.106 4.018-2.903 5.063l-6.766 3.934c-0.832 0.492-1.833 0.783-2.903 0.783s-2.071-0.291-2.93-0.798l0.027 0.015-6.766-3.931c-1.749-1.035-2.903-2.911-2.903-5.057 0-0.004 0-0.009 0-0.013v0.001-7.865c0-2.089 1.106-4.018 2.903-5.063l6.766-3.934zM17.394 9.143c0-0.757-0.624-1.372-1.397-1.371-0.003-0-0.008-0-0.012-0-0.76 0-1.377 0.612-1.385 1.371v0.001c0 0.757 0.624 1.372 1.397 1.372 0.003 0 0.008 0 0.012 0 0.76 0 1.377-0.612 1.385-1.371v-0.001zM14.606 12.228c-0.003-0-0.006-0-0.009-0-0.57 0-1.033 0.46-1.038 1.028v0c0 0.569 0.468 1.028 1.047 1.028h0.35v8.572c0 0.567 0.468 1.028 1.047 1.028 0.003 0 0.006 0 0.009 0 0.57 0 1.032-0.459 1.038-1.028v-9.6c-0.005-0.569-0.468-1.029-1.038-1.029-0.004 0-0.008 0-0.012 0h-1.396z"></path>
</svg>
