<!-- Generated by IcoMoon.io -->
<svg version="1.1" xmlns="http://www.w3.org/2000/svg" width="32" height="32" viewBox="0 0 32 32">
<path d="M6.222 2.286h19.557c1.543 0 2.793 1.239 2.793 2.77v20.985c0 1.92-1.92 3.255-3.74 2.606l-2.183-0.777c-0.282-0.104-0.608-0.165-0.948-0.165-0.414 0-0.807 0.089-1.161 0.25l0.018-0.007-3.41 1.522c-0.337 0.154-0.732 0.244-1.148 0.244s-0.81-0.090-1.165-0.252l0.018 0.007-3.41-1.522c-0.337-0.154-0.731-0.244-1.146-0.244-0.339 0-0.664 0.060-0.965 0.17l0.020-0.006-2.183 0.779c-1.819 0.649-3.739-0.686-3.74-2.606v-20.985c0-1.532 1.25-2.77 2.793-2.77zM10.414 8.172c-0.002 0-0.004-0-0.007-0-0.574 0-1.040 0.464-1.042 1.037v0c0 0.574 0.468 1.040 1.049 1.040h5.586c0.001 0 0.003 0 0.005 0 0.575 0 1.041-0.465 1.042-1.040v-0c-0.003-0.574-0.468-1.037-1.042-1.037-0.002 0-0.003 0-0.005 0h-5.586zM10.414 13.71c-0.002 0-0.004-0-0.007-0-0.575 0-1.041 0.465-1.042 1.040v0c0 0.572 0.468 1.038 1.049 1.038h11.173c0.002 0 0.004 0 0.007 0 0.574 0 1.040-0.464 1.042-1.038v-0c-0.001-0.575-0.467-1.040-1.042-1.040-0.002 0-0.005 0-0.007 0h-11.172zM10.414 19.25c-0.002 0-0.004-0-0.007-0-0.574 0-1.040 0.464-1.042 1.038v0c0 0.574 0.468 1.038 1.049 1.038h11.173c0.002 0 0.004 0 0.007 0 0.574 0 1.040-0.464 1.042-1.037v-0c-0.002-0.574-0.468-1.038-1.042-1.038-0.002 0-0.005 0-0.007 0h-11.172z"></path>
</svg>
