<!-- Generated by IcoMoon.io -->
<svg version="1.1" xmlns="http://www.w3.org/2000/svg" width="32" height="32" viewBox="0 0 32 32">
<path d="M3.428 6.148c0-2.128 1.726-3.863 3.861-3.863h17.422c2.132 0.001 3.861 1.73 3.861 3.863v0 18.889c-0.001 2.133-1.73 3.861-3.863 3.861-0.468 0-0.917-0.083-1.332-0.236l0.027 0.009-1.943-0.699c-0.113-0.042-0.243-0.066-0.379-0.066-0.166 0-0.323 0.036-0.465 0.101l0.007-0.003-3.040 1.369c-1.006 0.455-2.16 0.455-3.168 0l-3.040-1.372c-0.133-0.061-0.29-0.097-0.454-0.097-0.136 0-0.267 0.025-0.388 0.069l0.008-0.003-1.943 0.699c-0.389 0.144-0.839 0.228-1.308 0.228-2.133 0-3.862-1.729-3.863-3.862v-18.889zM7.289 5.028c-0.617 0.001-1.117 0.502-1.117 1.12 0 0 0 0 0 0v0 18.889c0 0.777 0.77 1.317 1.495 1.054l1.943-0.7c0.389-0.145 0.839-0.229 1.308-0.229 0.574 0 1.12 0.126 1.609 0.351l-0.024-0.010 3.040 1.369c0.134 0.062 0.292 0.098 0.457 0.098s0.323-0.036 0.464-0.101l-0.007 0.003 3.040-1.372c0.465-0.215 1.008-0.34 1.581-0.34 0.47 0 0.921 0.084 1.337 0.239l-0.027-0.009 1.943 0.7c0.112 0.041 0.242 0.065 0.377 0.065 0.618 0 1.119-0.501 1.12-1.119v-18.889c0-0.001 0-0.001 0-0.002 0-0.618-0.5-1.119-1.117-1.12h-17.419zM9.65 9.888c0-0.757 0.614-1.371 1.371-1.372h4.978c0.749 0.012 1.351 0.621 1.351 1.371s-0.602 1.36-1.35 1.371h-4.98c-0.757-0-1.371-0.614-1.371-1.371v-0zM9.65 14.873c0-0.757 0.614-1.371 1.371-1.372h9.957c0.758 0 1.372 0.614 1.372 1.372s-0.614 1.372-1.372 1.372h-9.957c-0.757-0-1.371-0.614-1.371-1.372v0zM9.65 19.858c0-0.757 0.614-1.371 1.371-1.372h9.957c0.749 0.012 1.351 0.621 1.351 1.371s-0.602 1.36-1.35 1.371h-9.958c-0.757-0-1.371-0.614-1.371-1.371v-0z"></path>
</svg>
