<!-- Generated by IcoMoon.io -->
<svg version="1.1" xmlns="http://www.w3.org/2000/svg" width="32" height="32" viewBox="0 0 32 32">
<path d="M14.27 2.683c0.506-0.25 1.101-0.397 1.73-0.397s1.225 0.147 1.754 0.407l-0.023-0.010 10.29 4.997c0.811 0.385 1.362 1.198 1.362 2.139s-0.551 1.754-1.348 2.133l-0.014 0.006-10.29 4.997c-0.506 0.25-1.101 0.397-1.73 0.397s-1.225-0.146-1.754-0.407l0.023 0.010-10.29-4.997c-0.811-0.385-1.362-1.198-1.362-2.139s0.551-1.754 1.348-2.133l0.014-0.006 10.29-4.997zM2.377 23.065c0.176-0.363 0.541-0.609 0.964-0.609 0.156 0 0.304 0.033 0.437 0.093l-0.007-0.003 11.515 4.972c0.21 0.093 0.455 0.147 0.713 0.147s0.503-0.054 0.725-0.151l-0.012 0.005 11.518-4.972c0.532-0.228 1.157 0.002 1.394 0.519 0.057 0.123 0.090 0.266 0.090 0.417 0 0.42-0.256 0.78-0.62 0.934l-0.007 0.003-11.518 4.971c-0.463 0.204-1.003 0.324-1.57 0.324s-1.107-0.119-1.596-0.334l0.025 0.010-11.518-4.971c-0.37-0.156-0.625-0.516-0.625-0.935 0-0.151 0.033-0.295 0.093-0.424l-0.003 0.006zM3.772 16.398c-0.127-0.057-0.275-0.091-0.43-0.091-0.423 0-0.789 0.246-0.961 0.603l-0.003 0.006c-0.057 0.123-0.090 0.266-0.090 0.418 0 0.419 0.255 0.779 0.618 0.933l0.007 0.003 11.518 4.972c0.999 0.434 2.142 0.434 3.141 0l11.518-4.972c0.37-0.156 0.625-0.516 0.625-0.935 0-0.151-0.033-0.295-0.093-0.424l0.003 0.006c-0.176-0.363-0.541-0.609-0.964-0.609-0.156 0-0.304 0.033-0.437 0.093l0.007-0.003-11.513 4.971c-0.21 0.093-0.455 0.147-0.713 0.147s-0.503-0.054-0.725-0.151l0.012 0.005-11.52-4.971z"></path>
</svg>
