<!-- Generated by IcoMoon.io -->
<svg version="1.1" xmlns="http://www.w3.org/2000/svg" width="32" height="32" viewBox="0 0 32 32">
<path d="M14.201 2.677c0.528-0.247 1.147-0.391 1.799-0.391s1.271 0.144 1.825 0.403l-0.027-0.011 10.034 4.615c2.078 0.953 2.078 3.794 0 4.747l-10.034 4.613c-0.528 0.247-1.147 0.391-1.799 0.391s-1.271-0.144-1.825-0.403l0.027 0.011-10.034-4.613c-0.924-0.408-1.557-1.317-1.557-2.374s0.633-1.965 1.541-2.367l0.017-0.007 10.034-4.615zM16.654 5.168c-0.192-0.089-0.417-0.141-0.654-0.141s-0.462 0.052-0.664 0.145l0.010-0.004-9.776 4.498 9.776 4.496c0.192 0.089 0.417 0.141 0.654 0.141s0.462-0.052 0.664-0.145l-0.010 0.004 9.778-4.496-9.778-4.494zM2.388 16.711c0.21-0.504 0.699-0.851 1.269-0.851 0.187 0 0.365 0.037 0.527 0.105l-0.009-0.003 11.23 4.59c0.176 0.073 0.38 0.115 0.594 0.115s0.418-0.042 0.605-0.119l-0.011 0.004 11.23-4.59c0.153-0.064 0.332-0.102 0.519-0.102 0.758 0 1.372 0.614 1.372 1.372 0 0.57-0.348 1.060-0.844 1.266l-0.009 0.003-11.227 4.59c-0.483 0.202-1.045 0.32-1.634 0.32s-1.151-0.118-1.663-0.331l0.029 0.011-11.225-4.59c-0.504-0.21-0.851-0.699-0.851-1.269 0-0.187 0.037-0.365 0.105-0.527l-0.003 0.009zM2.388 23.019c0.209-0.506 0.699-0.855 1.271-0.855 0.186 0 0.364 0.037 0.526 0.104l-0.009-0.003 11.23 4.592c0.176 0.073 0.38 0.115 0.594 0.115s0.418-0.042 0.605-0.119l-0.011 0.004 11.23-4.588c0.14-0.053 0.301-0.083 0.47-0.083 0.758 0 1.372 0.614 1.372 1.372 0 0.552-0.326 1.028-0.796 1.245l-0.008 0.004-11.227 4.587c-0.483 0.202-1.045 0.32-1.634 0.32s-1.151-0.118-1.663-0.331l0.029 0.011-11.227-4.587c-0.504-0.21-0.852-0.699-0.852-1.27 0-0.188 0.038-0.366 0.106-0.529l-0.003 0.009z"></path>
</svg>
