<!-- Generated by IcoMoon.io -->
<svg version="1.1" xmlns="http://www.w3.org/2000/svg" width="32" height="32" viewBox="0 0 32 32">
<path d="M24.308 7.692c-0.939-0.939-2.236-1.519-3.668-1.519s-2.73 0.581-3.668 1.519v0l-2.325 2.32c-0.247 0.241-0.585 0.389-0.957 0.389-0.758 0-1.372-0.614-1.372-1.372 0-0.373 0.149-0.711 0.39-0.959l2.32-2.32c1.436-1.436 3.419-2.323 5.609-2.323 4.381 0 7.933 3.551 7.933 7.933 0 2.19-0.888 4.174-2.323 5.609v0l-2.318 2.322c-0.249 0.256-0.597 0.414-0.982 0.414-0.758 0-1.372-0.614-1.372-1.372 0-0.384 0.158-0.732 0.413-0.981l2.32-2.32c0.939-0.939 1.521-2.236 1.521-3.67s-0.581-2.731-1.521-3.67l-0-0zM19.92 12.080c0.248 0.248 0.401 0.591 0.401 0.969s-0.153 0.721-0.401 0.969l-5.899 5.904c-0.248 0.248-0.591 0.402-0.97 0.402-0.758 0-1.372-0.614-1.372-1.372 0-0.379 0.154-0.722 0.402-0.97v0l5.904-5.904c0.248-0.248 0.591-0.402 0.97-0.402s0.722 0.154 0.97 0.402v0zM10.012 12.708c0.248 0.248 0.401 0.591 0.401 0.969s-0.153 0.721-0.401 0.969l-2.32 2.322c-0.939 0.939-1.52 2.237-1.52 3.67 0 2.866 2.323 5.189 5.189 5.189 1.433 0 2.729-0.581 3.668-1.519v0l2.325-2.32c0.247-0.241 0.585-0.389 0.957-0.389 0.758 0 1.372 0.614 1.372 1.372 0 0.373-0.149 0.711-0.39 0.959l-2.32 2.318c-1.435 1.436-3.419 2.324-5.609 2.324-4.381 0-7.932-3.551-7.932-7.932 0-2.19 0.888-4.173 2.323-5.608v0l2.318-2.322c0.248-0.248 0.591-0.402 0.97-0.402s0.722 0.154 0.97 0.402v0z"></path>
</svg>
