<!-- Generated by IcoMoon.io -->
<svg version="1.1" xmlns="http://www.w3.org/2000/svg" width="32" height="32" viewBox="0 0 32 32">
<path d="M6.668 6.668c0.736 0 1.332 0.594 1.332 1.332v0.014c0 0.737-0.597 1.334-1.334 1.334s-1.334-0.597-1.334-1.334v0-0.014c0-0.736 0.599-1.332 1.335-1.332zM10.668 8c0-0.736 0.594-1.332 1.332-1.332h14.668c0.736 0 1.332 0.597 1.332 1.332s-0.597 1.332-1.332 1.332h-14.668c-0.736 0-1.332-0.597-1.332-1.332v0zM10.668 14.668c0.736 0 1.332 0.594 1.332 1.332v0.014c0 0.737-0.597 1.334-1.334 1.334s-1.334-0.597-1.334-1.334v0-0.014c0-0.736 0.599-1.332 1.335-1.332zM14.668 16c0-0.736 0.594-1.332 1.332-1.332h10.668c0.736 0 1.332 0.597 1.332 1.332s-0.597 1.332-1.332 1.332h-10.668c-0.736 0-1.332-0.597-1.332-1.332v0zM14.668 22.668c0.736 0 1.332 0.594 1.332 1.332v0.014c0 0.737-0.597 1.334-1.334 1.334s-1.334-0.597-1.334-1.334v0-0.014c0-0.736 0.599-1.332 1.335-1.332zM18.668 24c0-0.736 0.594-1.332 1.332-1.332h6.668c0.736 0 1.332 0.597 1.332 1.332s-0.597 1.332-1.332 1.332v0h-6.668c-0.736 0-1.332-0.597-1.332-1.332v0z"></path>
</svg>
