<!-- Generated by IcoMoon.io -->
<svg version="1.1" xmlns="http://www.w3.org/2000/svg" width="32" height="32" viewBox="0 0 32 32">
<path d="M2.667 6.668c0-0.736 0.594-1.335 1.333-1.335h24c0.737 0 1.334 0.597 1.334 1.334s-0.597 1.334-1.334 1.334v0h-24c-0.736 0-1.333-0.597-1.333-1.332v0zM2.667 16c0-0.736 0.594-1.332 1.333-1.332h24c0.736 0 1.332 0.597 1.332 1.332s-0.597 1.332-1.332 1.332h-24c-0.736 0-1.333-0.597-1.333-1.332v0zM30.245 21.694c0.537 0.503 0.565 1.348 0.062 1.886l-5.001 5.332c-0.244 0.26-0.589 0.422-0.973 0.422-0.341 0-0.651-0.128-0.887-0.338l0.001 0.001-2.999-2.668c-0.275-0.245-0.448-0.601-0.448-0.997 0-0.736 0.597-1.333 1.333-1.333 0.341 0 0.651 0.128 0.887 0.338l-0.001-0.001 2.030 1.806 4.112-4.388c0.244-0.259 0.589-0.42 0.971-0.42 0.353 0 0.674 0.137 0.913 0.362l-0.001-0.001zM2.667 25.332c0-0.736 0.594-1.332 1.333-1.332h10.88c0.737 0 1.334 0.597 1.334 1.334s-0.597 1.334-1.334 1.334h-10.88c0 0 0 0 0 0-0.736 0-1.333-0.597-1.333-1.332 0-0.001 0-0.002 0-0.003v0z"></path>
</svg>
