<!-- Generated by IcoMoon.io -->
<svg version="1.1" xmlns="http://www.w3.org/2000/svg" width="32" height="32" viewBox="0 0 32 32">
<path d="M16 2.286c0.758 0 1.372 0.614 1.372 1.372v0 3.703c0 0.758-0.614 1.372-1.372 1.372s-1.372-0.614-1.372-1.372v0-3.703c0-0.757 0.614-1.372 1.372-1.372v0zM6.302 6.302c0.248-0.248 0.591-0.402 0.97-0.402s0.722 0.154 0.97 0.402l2.615 2.62c0.271 0.251 0.439 0.609 0.439 1.006 0 0.758-0.614 1.372-1.372 1.372-0.397 0-0.755-0.169-1.005-0.438l-0.001-0.001-2.617-2.617c-0.248-0.248-0.402-0.591-0.402-0.97s0.154-0.722 0.402-0.97v0zM25.698 6.302c0.248 0.248 0.402 0.591 0.402 0.97s-0.154 0.722-0.402 0.97l-2.62 2.615c-0.251 0.271-0.609 0.439-1.006 0.439-0.758 0-1.372-0.614-1.372-1.372 0-0.397 0.169-0.755 0.439-1.005l0.001-0.001 2.617-2.619c0.248-0.248 0.591-0.402 0.97-0.402s0.722 0.154 0.97 0.402v0zM2.286 16c0-0.758 0.614-1.372 1.372-1.372h3.703c0.758 0 1.372 0.614 1.372 1.372s-0.614 1.372-1.372 1.372h-3.703c-0.757 0-1.372-0.614-1.372-1.372v0zM23.268 16c0-0.758 0.614-1.372 1.372-1.372h3.703c0.758 0 1.372 0.614 1.372 1.372s-0.614 1.372-1.372 1.372h-3.703c-0.758 0-1.372-0.614-1.372-1.372v0zM10.859 21.141c0.248 0.248 0.401 0.591 0.401 0.969s-0.153 0.721-0.401 0.969l-2.617 2.62c-0.248 0.248-0.591 0.402-0.97 0.402-0.758 0-1.372-0.614-1.372-1.372 0-0.379 0.154-0.722 0.402-0.97v0l2.62-2.615c0.248-0.248 0.591-0.401 0.969-0.401s0.721 0.153 0.969 0.401l-0-0zM21.141 21.141c0.248-0.248 0.591-0.401 0.969-0.401s0.721 0.153 0.969 0.401l2.62 2.617c0.248 0.248 0.402 0.591 0.402 0.97 0 0.758-0.614 1.372-1.372 1.372-0.379 0-0.722-0.154-0.97-0.402v0l-2.615-2.62c-0.248-0.248-0.401-0.591-0.401-0.969s0.153-0.721 0.401-0.969l-0 0zM16 23.268c0.758 0 1.372 0.614 1.372 1.372v0 3.703c0 0.758-0.614 1.372-1.372 1.372s-1.372-0.614-1.372-1.372v-3.703c0-0.758 0.614-1.372 1.372-1.372v0z"></path>
</svg>
