<!-- Generated by IcoMoon.io -->
<svg version="1.1" xmlns="http://www.w3.org/2000/svg" width="32" height="32" viewBox="0 0 32 32">
<path d="M16 2.743c-5.993 0-10.972 5.141-10.972 11.632 0 3.161 1.732 6.93 4.14 9.968 1.188 1.502 2.492 2.761 3.737 3.634 1.278 0.892 2.348 1.28 3.095 1.28s1.817-0.388 3.095-1.28c1.243-0.873 2.548-2.133 3.737-3.634 2.407-3.040 4.139-6.807 4.14-9.966 0-6.494-4.978-11.634-10.972-11.634zM2.286 14.375c0-7.872 6.073-14.375 13.714-14.375s13.714 6.503 13.714 14.375c0 4.021-2.126 8.379-4.732 11.671-1.319 1.666-2.812 3.122-4.315 4.176-1.472 1.031-3.102 1.778-4.668 1.778s-3.195-0.747-4.668-1.778c-1.504-1.052-2.994-2.51-4.315-4.176-2.606-3.292-4.732-7.65-4.732-11.668zM16 11.39c-1.433 0-2.743 1.205-2.743 2.873s1.31 2.873 2.743 2.873 2.743-1.205 2.743-2.873-1.31-2.873-2.743-2.873zM10.514 14.263c0-3.030 2.456-5.486 5.486-5.486s5.486 2.456 5.486 5.486v0c0 3.030-2.456 5.486-5.486 5.486s-5.486-2.456-5.486-5.486v0z"></path>
</svg>
