<!-- Generated by IcoMoon.io -->
<svg version="1.1" xmlns="http://www.w3.org/2000/svg" width="32" height="32" viewBox="0 0 32 32">
<path d="M16 5.028c2.043 0 3.657 1.621 3.657 3.566v1.097h-7.314v-1.097c0-1.945 1.614-3.566 3.657-3.566zM22.4 9.692v-1.097c0-3.508-2.889-6.308-6.4-6.309s-6.4 2.8-6.4 6.309v1.097h-1.372c-2.020 0-3.657 1.637-3.657 3.657v12.709c0 2.020 1.637 3.657 3.657 3.657h15.543c2.020-0 3.657-1.637 3.657-3.657v-12.709c-0-2.020-1.637-3.657-3.657-3.657h-1.372zM8.228 12.434h15.543c0.505 0 0.914 0.409 0.914 0.914v12.709c0 0.505-0.409 0.914-0.914 0.914h-15.543c-0.505-0-0.914-0.41-0.914-0.914v0-12.709c0-0.505 0.409-0.914 0.914-0.914h0zM16 17.097c0.757 0 1.371 0.614 1.372 1.371v2.469c0 0.758-0.614 1.372-1.372 1.372s-1.372-0.614-1.372-1.372v0-2.469c0-0.757 0.614-1.371 1.372-1.371v0z"></path>
</svg>
