<!-- Generated by IcoMoon.io -->
<svg version="1.1" xmlns="http://www.w3.org/2000/svg" width="32" height="32" viewBox="0 0 32 32">
<path d="M22.4 8.594v1.097h1.372c2.020 0 3.657 1.637 3.657 3.657v12.709c0 2.020-1.637 3.657-3.657 3.657h-15.543c-2.020-0-3.657-1.637-3.657-3.657v0-12.709c0-2.020 1.637-3.657 3.657-3.657h1.372v-1.097c0-3.508 2.889-6.308 6.4-6.309s6.4 2.8 6.4 6.309zM19.657 8.594c0-1.945-1.614-3.566-3.657-3.566s-3.657 1.621-3.657 3.566v1.097h7.314v-1.097zM17.372 18.468c0-0.758-0.614-1.372-1.372-1.372s-1.372 0.614-1.372 1.372v0 2.469c0 0.758 0.614 1.372 1.372 1.372s1.372-0.614 1.372-1.372v0-2.469z"></path>
</svg>
