<!-- Generated by IcoMoon.io -->
<svg version="1.1" xmlns="http://www.w3.org/2000/svg" width="32" height="32" viewBox="0 0 32 32">
<path d="M2.286 6.009c0-2.057 1.668-3.723 3.723-3.723h7.052c0.749 0.012 1.351 0.621 1.351 1.371s-0.602 1.36-1.35 1.371h-7.050c-0.542 0-0.981 0.439-0.981 0.981v0 19.982c0 0.542 0.439 0.981 0.981 0.981h7.051c0.006-0 0.013-0 0.021-0 0.758 0 1.372 0.614 1.372 1.372s-0.614 1.372-1.372 1.372c-0.007 0-0.015-0-0.022-0h-7.050c-2.059 0-3.726-1.668-3.726-3.723v-19.979zM23.259 10.917c0.248-0.248 0.591-0.401 0.969-0.401s0.721 0.153 0.969 0.401v0l4.114 4.114c0.248 0.248 0.401 0.591 0.401 0.969s-0.153 0.721-0.401 0.969l-4.114 4.114c-0.244 0.228-0.573 0.368-0.934 0.368-0.758 0-1.372-0.614-1.372-1.372 0-0.361 0.14-0.69 0.368-0.935l-0.001 0.001 1.772-1.773h-13.145c-0.758 0-1.372-0.614-1.372-1.372s0.614-1.372 1.372-1.372h13.145l-1.772-1.773c-0.248-0.248-0.401-0.591-0.401-0.969s0.153-0.721 0.401-0.969v0z"></path>
</svg>
