<!-- Generated by IcoMoon.io -->
<svg version="1.1" xmlns="http://www.w3.org/2000/svg" width="32" height="32" viewBox="0 0 32 32">
<path d="M7.086 4.572c-2.651 0-4.8 2.149-4.8 4.8v13.257c0 2.652 2.148 4.8 4.8 4.8h17.829c2.651 0 4.8-2.149 4.8-4.8v0-13.257c0-2.651-2.149-4.8-4.8-4.8v0h-17.829zM9.303 10.354l4.668 2.818c0.581 0.348 1.281 0.553 2.030 0.553s1.449-0.206 2.048-0.563l-0.018 0.010 4.668-2.816c0.209-0.136 0.465-0.217 0.741-0.217 0.758 0 1.372 0.614 1.372 1.372 0 0.509-0.277 0.953-0.688 1.19l-0.007 0.004-4.668 2.816c-0.985 0.595-2.175 0.948-3.447 0.948s-2.462-0.352-3.477-0.965l0.030 0.017-4.668-2.816c-0.418-0.24-0.695-0.684-0.695-1.193 0-0.758 0.614-1.372 1.372-1.372 0.275 0 0.531 0.081 0.746 0.22l-0.005-0.003z"></path>
</svg>
