<!-- Generated by IcoMoon.io -->
<svg version="1.1" xmlns="http://www.w3.org/2000/svg" width="32" height="32" viewBox="0 0 32 32">
<path d="M20.103 5.097c-0.776 0-1.406-0.629-1.406-1.406s0.629-1.406 1.406-1.406h8.206c0.777 0 1.406 0.631 1.406 1.406v8.206c0 0.776-0.629 1.406-1.406 1.406s-1.406-0.629-1.406-1.406v-4.809l-7.175 7.172c-0.254 0.254-0.606 0.412-0.994 0.412-0.777 0-1.406-0.63-1.406-1.406 0-0.388 0.157-0.74 0.412-0.994l7.17-7.173h-4.807zM14.261 17.742c0.548 0.548 0.548 1.44 0 1.989l-7.175 7.172h4.809c0.777 0 1.407 0.63 1.407 1.407s-0.63 1.407-1.407 1.407v0h-8.206c-0.775-0.001-1.403-0.63-1.403-1.406 0-0.001 0-0.002 0-0.003v0-8.206c0-0.776 0.629-1.406 1.406-1.406s1.406 0.629 1.406 1.406v0 4.809l7.175-7.175c0.548-0.548 1.44-0.548 1.989 0z"></path>
</svg>
