<!-- Generated by IcoMoon.io -->
<svg version="1.1" xmlns="http://www.w3.org/2000/svg" width="32" height="32" viewBox="0 0 32 32">
<path d="M2.286 7.772c0-0.758 0.614-1.372 1.372-1.372v0h24.686c0.006-0 0.013-0 0.021-0 0.758 0 1.372 0.614 1.372 1.372s-0.614 1.372-1.372 1.372c-0.007 0-0.015-0-0.022-0h-24.685c-0.757 0-1.371-0.614-1.372-1.371v-0zM2.286 16c0-0.758 0.614-1.372 1.372-1.372v0h24.686c0.758 0 1.372 0.614 1.372 1.372s-0.614 1.372-1.372 1.372h-24.686c-0.757 0-1.372-0.614-1.372-1.372v0zM2.286 24.228c0-0.757 0.614-1.371 1.372-1.371h24.686c0.006-0 0.013-0 0.021-0 0.758 0 1.372 0.614 1.372 1.372s-0.614 1.372-1.372 1.372c-0.007 0-0.015-0-0.022-0h-24.685c-0.757 0-1.372-0.614-1.372-1.372v0z"></path>
</svg>
