<!-- Generated by IcoMoon.io -->
<svg version="1.1" xmlns="http://www.w3.org/2000/svg" width="32" height="32" viewBox="0 0 32 32">
<path d="M8.882 7.908c0-3.817 3.268-6.766 7.118-6.766s7.118 2.948 7.118 6.766v8.092c0 3.817-3.268 6.766-7.118 6.766s-7.118-2.948-7.118-6.766v-8.092zM16 3.886c-2.501 0-4.375 1.881-4.375 4.023v8.092c0 2.142 1.874 4.023 4.375 4.023s4.375-1.881 4.375-4.023v-8.092c0-2.142-1.874-4.023-4.375-4.023zM5.943 13.28c0.758 0 1.372 0.614 1.372 1.372v0 1.348c0 4.375 3.806 8.068 8.686 8.068s8.686-3.694 8.686-8.068v-1.348c-0-0.006-0-0.013-0-0.021 0-0.758 0.614-1.372 1.372-1.372s1.372 0.614 1.372 1.372c0 0.007-0 0.015-0 0.022v-0.001 1.348c0 5.6-4.455 10.096-10.057 10.734v1.381h2.939c0.006-0 0.013-0 0.021-0 0.758 0 1.372 0.614 1.372 1.372s-0.614 1.372-1.372 1.372c-0.007 0-0.015-0-0.022-0h-8.621c-0.006 0-0.013 0-0.021 0-0.758 0-1.372-0.614-1.372-1.372s0.614-1.372 1.372-1.372c0.007 0 0.015 0 0.022 0h2.938v-1.381c-5.602-0.638-10.057-5.132-10.057-10.734v-1.348c0-0.757 0.614-1.371 1.371-1.372h0z"></path>
</svg>
