<!-- Generated by IcoMoon.io -->
<svg version="1.1" xmlns="http://www.w3.org/2000/svg" width="32" height="32" viewBox="0 0 32 32">
<path d="M9.893 4.83c1.172-2.208 3.457-3.687 6.087-3.687 0.007 0 0.014 0 0.021 0h-0.001c3.765 0 6.857 3.008 6.857 6.766v7.756c-0.012 0.749-0.621 1.351-1.371 1.351s-1.36-0.602-1.371-1.35v-7.757c0-2.201-1.819-4.023-4.114-4.023-1.609 0-2.994 0.903-3.673 2.206-0.239 0.424-0.686 0.706-1.199 0.706-0.758 0-1.372-0.614-1.372-1.372 0-0.217 0.050-0.422 0.14-0.604l-0.004 0.008zM2.679 2.565c0.249-0.253 0.595-0.41 0.978-0.41 0.375 0 0.715 0.15 0.962 0.394l18.873 18.56c0.398 0.137 0.706 0.44 0.847 0.825l0.003 0.009 4.96 4.88c0.283 0.252 0.46 0.618 0.46 1.025 0 0.758-0.614 1.372-1.372 1.372-0.399 0-0.757-0.17-1.008-0.441l-0.001-0.001-4.464-4.389c-1.554 1.248-3.461 2.082-5.547 2.338v1.387h2.743c0.006-0 0.013-0 0.021-0 0.758 0 1.372 0.614 1.372 1.372s-0.614 1.372-1.372 1.372c-0.007 0-0.015-0-0.022-0h-8.228c-0.006 0-0.013 0-0.021 0-0.758 0-1.372-0.614-1.372-1.372s0.614-1.372 1.372-1.372c0.007 0 0.015 0 0.022 0h2.742v-1.387c-5.394-0.663-9.6-5.195-9.6-10.727v-1.348c0-0.758 0.614-1.372 1.372-1.372s1.372 0.614 1.372 1.372v0 1.348c0 4.434 3.662 8.068 8.228 8.068 1.858 0 3.57-0.603 4.946-1.618l-0.96-0.944c-1.106 0.788-2.484 1.259-3.972 1.259-0.005 0-0.010 0-0.015-0h0.001c-3.765 0-6.857-3.008-6.857-6.766v-5.157l-6.446-6.341c-0.253-0.249-0.41-0.595-0.41-0.978 0-0.374 0.15-0.713 0.392-0.96l-0 0zM11.886 13.541v2.459c0 2.201 1.819 4.023 4.114 4.023 0.718 0 1.39-0.178 1.977-0.494l-6.092-5.988zM25.6 13.28c0.758 0 1.372 0.614 1.372 1.372v0 1.348c0 1.271-0.224 2.496-0.636 3.632-0.184 0.555-0.698 0.949-1.305 0.949-0.758 0-1.372-0.614-1.372-1.372 0-0.184 0.036-0.359 0.101-0.519l-0.003 0.009c0.304-0.843 0.471-1.751 0.471-2.699v-1.348c0-0.758 0.614-1.372 1.372-1.372v0z"></path>
</svg>
