<!-- Generated by IcoMoon.io -->
<svg version="1.1" xmlns="http://www.w3.org/2000/svg" width="32" height="32" viewBox="0 0 32 32">
<path d="M16 1.143c-3.739 0-6.773 2.661-6.773 5.943v8.914c0 3.282 3.033 5.943 6.773 5.943s6.773-2.661 6.773-5.943v-8.914c0-3.282-3.033-5.943-6.773-5.943zM5.842 13.399c0.699 0 1.268 0.501 1.269 1.116v1.486c0 4.308 3.979 7.799 8.889 7.799s8.889-3.49 8.889-7.799v-1.486c0-0.617 0.569-1.113 1.269-1.113 0.702 0 1.271 0.498 1.271 1.113v1.486c0 5.161-4.443 9.412-10.157 9.966v2.663h3.808c0.702 0 1.271 0.498 1.271 1.113 0 0.617-0.569 1.115-1.271 1.116h-10.158c-0.702 0-1.271-0.498-1.271-1.116 0-0.615 0.569-1.113 1.271-1.113h3.808v-2.66c-5.714-0.555-10.158-4.807-10.158-9.968v-1.486c0-0.617 0.569-1.113 1.271-1.113z"></path>
</svg>
