<!-- Generated by IcoMoon.io -->
<svg version="1.1" xmlns="http://www.w3.org/2000/svg" width="32" height="32" viewBox="0 0 32 32">
<path d="M2.594 1.47c-0.192 0.206-0.31 0.484-0.31 0.789s0.118 0.582 0.31 0.789l-0.001-0.001 7.778 8.215v4.738c0 3.282 2.521 5.943 5.628 5.943 1.264 0 2.43-0.439 3.367-1.182l1.253 1.326c-1.264 1.072-2.871 1.714-4.619 1.714-4.078 0-7.383-3.492-7.383-7.801v-1.486c0-0.008 0-0.018 0-0.028 0-0.589-0.469-1.069-1.055-1.085l-0.002-0c-0.587 0.016-1.057 0.496-1.057 1.085 0 0.010 0 0.020 0 0.029l-0-0.001v1.486c0 5.161 3.694 9.412 8.439 9.966v2.663h-3.163c-0.587 0.016-1.056 0.496-1.056 1.085 0 0.010 0 0.020 0 0.029l-0-0.001c0 0.617 0.473 1.115 1.056 1.116h8.439c0.587-0.016 1.056-0.496 1.056-1.085 0-0.011-0-0.021-0-0.032l0 0.002c0-0.008 0-0.018 0-0.028 0-0.589-0.469-1.069-1.055-1.085l-0.002-0h-3.163v-2.66c1.966-0.243 3.704-1.073 5.071-2.307l-0.008 0.007 5.794 6.119c0.412 0.434 1.081 0.434 1.492 0 0.192-0.206 0.31-0.484 0.31-0.789s-0.118-0.582-0.31-0.789l0.001 0.001-25.319-26.741c-0.186-0.201-0.451-0.327-0.746-0.327s-0.56 0.126-0.746 0.326l-0.001 0.001zM24.628 20.194l-1.623-1.714c0.245-0.779 0.379-1.614 0.379-2.48v-1.486c0-0.617 0.471-1.113 1.054-1.113s1.056 0.498 1.056 1.113v1.486c0 1.497-0.311 2.917-0.869 4.194zM10.606 5.385l10.949 11.566c0.046-0.311 0.068-0.628 0.068-0.951v-8.914c0.005-3.282-2.514-5.943-5.623-5.943-2.548 0-4.699 1.79-5.394 4.242z"></path>
</svg>
