<!-- Generated by IcoMoon.io -->
<svg version="1.1" xmlns="http://www.w3.org/2000/svg" width="32" height="32" viewBox="0 0 32 32">
<path d="M29.303 2.697c0.548 0.548 0.548 1.44 0 1.988l-7.172 7.175h4.809c0.776 0 1.406 0.629 1.406 1.406s-0.629 1.406-1.406 1.406h-8.206c-0.776 0-1.406-0.629-1.406-1.406v0-8.206c0-0.777 0.63-1.407 1.407-1.407s1.407 0.63 1.407 1.407v0 4.811l7.173-7.175c0.548-0.548 1.44-0.548 1.988 0zM3.652 18.736c0-0.777 0.631-1.408 1.408-1.408h8.206c0.777 0 1.406 0.631 1.406 1.408v8.206c0 0.777-0.63 1.407-1.407 1.407s-1.407-0.63-1.407-1.407v0-4.813l-7.17 7.175c-0.254 0.255-0.606 0.412-0.994 0.412-0.777 0-1.406-0.63-1.406-1.406 0-0.388 0.157-0.74 0.412-0.994l7.17-7.173h-4.809c-0.001 0-0.002 0-0.003 0-0.776 0-1.406-0.629-1.406-1.406 0 0 0 0 0 0v0z"></path>
</svg>
