<!-- Generated by IcoMoon.io -->
<svg version="1.1" xmlns="http://www.w3.org/2000/svg" width="32" height="32" viewBox="0 0 32 32">
<path d="M18.668 16c0 1.473-1.194 2.668-2.668 2.668s-2.668-1.194-2.668-2.668v0c0-1.473 1.194-2.668 2.668-2.668s2.668 1.194 2.668 2.668v0zM18.668 5.332c0 1.473-1.194 2.668-2.668 2.668s-2.668-1.194-2.668-2.668v0c0-1.473 1.194-2.667 2.668-2.667s2.668 1.194 2.668 2.667v0zM18.668 26.668c0 1.473-1.194 2.668-2.668 2.668s-2.668-1.194-2.668-2.668v0c0-1.473 1.194-2.668 2.668-2.668s2.668 1.194 2.668 2.668v0z"></path>
</svg>
