<!-- Generated by IcoMoon.io -->
<svg version="1.1" xmlns="http://www.w3.org/2000/svg" width="32" height="32" viewBox="0 0 32 32">
<path d="M6.857 17.458c0-1.739-0.005-3.353 0.11-4.843 0.128-1.698 0.4-3.132 0.935-4.286 0.518-1.156 1.393-2.074 2.484-2.633l0.030-0.014c1.25-0.647 3.028-1.052 5.582-1.044h0.004c2.553-0.005 4.332 0.398 5.579 1.044 1.221 0.631 1.998 1.522 2.517 2.647 0.535 1.157 0.807 2.588 0.937 4.286 0.112 1.49 0.11 3.104 0.108 4.843v0.754c0 5.028-4.068 9.15-9.143 9.15s-9.143-4.123-9.143-9.15v-0.754zM16 2.286c-2.766-0.005-4.933 0.427-6.608 1.296-1.581 0.814-2.818 2.11-3.537 3.691l-0.020 0.048c-0.708 1.532-1.010 3.292-1.147 5.113-0.121 1.588-0.119 3.305-0.114 5.031v0.747c-0.002 6.377 5.141 11.502 11.426 11.502s11.428-5.122 11.428-11.502v-0.747c0-1.726 0.005-3.442-0.114-5.031-0.137-1.822-0.443-3.582-1.15-5.113-0.739-1.63-1.977-2.926-3.516-3.719l-0.043-0.020c-1.673-0.868-3.84-1.303-6.606-1.296zM16 7.449c0.758 0 1.372 0.614 1.372 1.372v0 5.877c0 0.758-0.614 1.372-1.372 1.372s-1.372-0.614-1.372-1.372v0-5.874c0-0.757 0.614-1.371 1.372-1.371v0z"></path>
</svg>
