<!-- Generated by IcoMoon.io -->
<svg version="1.1" xmlns="http://www.w3.org/2000/svg" width="32" height="32" viewBox="0 0 32 32">
<path d="M11.010 10.343c0.241-0.242 0.575-0.391 0.943-0.391s0.702 0.149 0.943 0.391v0l3.772 3.772 3.771-3.772c0.241-0.241 0.575-0.391 0.943-0.391 0.736 0 1.333 0.597 1.333 1.333 0 0.368-0.149 0.701-0.39 0.943l-3.772 3.772 3.772 3.772c0.241 0.241 0.39 0.575 0.39 0.943 0 0.736-0.597 1.333-1.333 1.333-0.368 0-0.702-0.149-0.943-0.391l-3.771-3.772-3.772 3.772c-0.241 0.241-0.575 0.391-0.943 0.391-0.736 0-1.333-0.597-1.333-1.333 0-0.368 0.149-0.702 0.391-0.943l3.771-3.772-3.771-3.772c-0.242-0.241-0.391-0.575-0.391-0.943s0.149-0.702 0.391-0.943v0z"></path>
</svg>
