<!-- Generated by IcoMoon.io -->
<svg version="1.1" xmlns="http://www.w3.org/2000/svg" width="32" height="32" viewBox="0 0 32 32">
<path d="M8.092 4.88v0.023c0 2.574 2.117 4.617 4.679 4.617h6.64c2.56 0 4.681-2.043 4.681-4.617v-0.016c2.51 0.173 4.48 2.251 4.48 4.789 0 0.001 0 0.001 0 0.002v-0 15.237c0 2.651-2.149 4.8-4.8 4.8v0h-15.543c-2.651 0-4.8-2.149-4.8-4.8v0-15.237c0-0.001 0-0.001 0-0.002 0-2.603 2.072-4.722 4.656-4.798l0.007-0zM11.161 11.76c-0.749 0.012-1.351 0.621-1.351 1.371s0.602 1.36 1.35 1.371h9.681c0.749-0.012 1.351-0.621 1.351-1.371s-0.602-1.36-1.35-1.371h-9.681zM11.161 16.887c-0.749 0.012-1.351 0.621-1.351 1.371s0.602 1.36 1.35 1.371h9.681c0.749-0.012 1.351-0.621 1.351-1.371s-0.602-1.36-1.35-1.371h-9.681zM9.79 23.387c0 0.757 0.614 1.371 1.372 1.371 0 0 0 0 0 0h4.839c0.006 0 0.013 0 0.021 0 0.758 0 1.372-0.614 1.372-1.372s-0.614-1.372-1.372-1.372c-0.007 0-0.015 0-0.022 0h-4.838c-0.758 0-1.372 0.614-1.372 1.372v0zM13.296 2.16h5.589c1.543 0 2.793 1.228 2.793 2.743s-1.25 2.743-2.793 2.743h-5.589c-0.007 0-0.016 0-0.025 0-1.52 0-2.754-1.225-2.768-2.742v-0.001c0-1.515 1.25-2.743 2.793-2.743z"></path>
</svg>
