<!-- Generated by IcoMoon.io -->
<svg version="1.1" xmlns="http://www.w3.org/2000/svg" width="32" height="32" viewBox="0 0 32 32">
<path d="M10.018 4.878c0.521-1.481 1.877-2.592 3.561-2.592h4.843c1.685 0 3.040 1.111 3.561 2.592h1.79c2.652 0 4.8 2.148 4.8 4.8v15.237c0 2.651-2.149 4.8-4.8 4.8v0h-15.545c-2.651 0-4.8-2.149-4.8-4.8v0-15.237c0-2.652 2.148-4.8 4.8-4.8h1.79zM10.039 7.621h-1.81c-1.136 0-2.057 0.921-2.057 2.057v15.237c0 1.136 0.921 2.057 2.057 2.057h15.543c1.136-0 2.057-0.921 2.057-2.057v-15.237c0-1.136-0.921-2.057-2.057-2.057h-1.81c-0.532 1.452-1.877 2.537-3.543 2.537h-4.837c-1.664 0-3.008-1.086-3.543-2.537zM13.582 5.028c-0.508 0-1.052 0.457-1.051 1.193 0 0.732 0.544 1.191 1.051 1.191h4.839c0.503 0 1.047-0.457 1.047-1.191 0-0.736-0.542-1.193-1.047-1.193h-4.843zM9.787 13.132c0-0.757 0.614-1.371 1.371-1.372h9.68c0.749 0.012 1.351 0.621 1.351 1.371s-0.602 1.36-1.35 1.371h-9.679c-0.757 0-1.371-0.614-1.372-1.371v-0zM9.787 18.258c0-0.757 0.614-1.371 1.371-1.372h9.68c0.749 0.012 1.351 0.621 1.351 1.371s-0.602 1.36-1.35 1.371h-9.679c-0.757 0-1.371-0.614-1.372-1.371v-0zM9.787 23.387c0-0.757 0.614-1.371 1.371-1.372h4.841c0.749 0.012 1.351 0.621 1.351 1.371s-0.602 1.36-1.35 1.371h-4.84c-0.757 0-1.371-0.614-1.372-1.371v-0z"></path>
</svg>
