<!-- Generated by IcoMoon.io -->
<svg version="1.1" xmlns="http://www.w3.org/2000/svg" width="32" height="32" viewBox="0 0 32 32">
<path d="M10.528 2.286c-1.655 0-3.223 0.754-4.258 2.046l-2.788 3.488c-0.177 0.22-0.345 0.466-0.491 0.725l-0.014 0.027h26.048c-0.16-0.286-0.326-0.532-0.511-0.763l0.008 0.011-2.791-3.488c-1.008-1.252-2.54-2.046-4.258-2.046-0 0-0 0-0 0h-10.944zM29.703 10.857h-27.406c-0.007 0.106-0.012 0.23-0.012 0.355 0 0.005 0 0.009 0 0.014v-0.001 13.036c0 3.012 2.442 5.454 5.454 5.454h16.521c3.012 0 5.454-2.442 5.454-5.454v0-13.036c0-0.123-0.005-0.245-0.012-0.368zM13.467 13.89h5.065c0.562 0.026 1.008 0.489 1.008 1.055s-0.446 1.028-1.006 1.055l-0.002 0h-5.065c-0.562-0.026-1.008-0.489-1.008-1.055s0.446-1.028 1.006-1.055l0.002-0z"></path>
</svg>
