<!-- Generated by IcoMoon.io -->
<svg version="1.1" xmlns="http://www.w3.org/2000/svg" width="32" height="32" viewBox="0 0 32 32">
<path d="M2.667 6.668c0-2.21 1.79-4 4-4h18.665c2.21 0 4 1.79 4 4v9.332c0 0.736-0.597 1.332-1.332 1.332s-1.332-0.597-1.332-1.332v-9.332c0-0.001 0-0.002 0-0.003 0-0.736-0.597-1.333-1.332-1.333-0.001 0-0.002 0-0.003 0h-2.665v10.668c0 0.001 0 0.002 0 0.004 0 0.736-0.597 1.332-1.332 1.332-0.344 0-0.658-0.131-0.895-0.345l0.001 0.001-4.441-4-4.441 4c-0.235 0.213-0.549 0.344-0.894 0.344-0.736 0-1.332-0.597-1.332-1.332 0-0.001 0-0.003 0-0.004v0-10.668h-2.665c-0.001 0-0.002 0-0.003 0-0.736 0-1.332 0.597-1.332 1.332 0 0.001 0 0.002 0 0.003v-0 18.665c0 0.736 0.597 1.335 1.335 1.335h9.332c0.736 0 1.332 0.597 1.332 1.332s-0.597 1.332-1.332 1.332v0h-9.332c-2.209 0-4-1.791-4-4v0-18.665zM12 5.332v7.673l2.306-2.075c0.447-0.403 1.041-0.65 1.694-0.65s1.247 0.247 1.696 0.652l-0.002-0.002 2.306 2.075v-7.673h-8zM24 20c-2.209 0-4 1.791-4 4s1.791 4 4 4v0c2.209 0 4-1.791 4-4s-1.791-4-4-4v0zM17.332 24c0-3.682 2.985-6.668 6.668-6.668s6.668 2.985 6.668 6.668v0c0 3.682-2.985 6.668-6.668 6.668s-6.668-2.985-6.668-6.668v0zM23.959 20.117c0.736 0 1.332 0.597 1.333 1.332v2.037l0.907 0.425c0.458 0.218 0.769 0.677 0.769 1.208 0 0.736-0.597 1.333-1.333 1.333-0.205 0-0.399-0.046-0.573-0.129l0.008 0.003-1.675-0.786c-0.457-0.218-0.768-0.676-0.768-1.207v0-2.885c0-0.736 0.594-1.332 1.332-1.332z"></path>
</svg>
