<!-- Generated by IcoMoon.io -->
<svg version="1.1" xmlns="http://www.w3.org/2000/svg" width="32" height="32" viewBox="0 0 32 32">
<path d="M20.526 15.141c0.239 0.21 0.388 0.517 0.388 0.858 0 0.289-0.107 0.553-0.284 0.754l0.001-0.001-3.040 3.477c-0.608 0.693-1.495 1.128-2.483 1.128-0.783 0-1.502-0.273-2.067-0.728l0.006 0.005-1.532-1.227c-0.287-0.21-0.472-0.546-0.472-0.925 0-0.631 0.512-1.143 1.143-1.143 0.29 0 0.555 0.108 0.756 0.286l-0.001-0.001 1.532 1.225c0.172 0.138 0.392 0.222 0.633 0.222 0.303 0 0.575-0.133 0.761-0.344l0.001-0.001 3.047-3.479c0.211-0.239 0.517-0.389 0.859-0.389 0.289 0 0.552 0.107 0.753 0.283l-0.001-0.001zM6.27 4.332c1.008-1.252 2.54-2.046 4.258-2.046 0 0 0 0 0.001 0h10.944c1.655 0 3.223 0.754 4.258 2.046l2.788 3.488c0.775 0.967 1.195 2.169 1.196 3.406v13.036c0 3.012-2.442 5.454-5.454 5.454v0h-16.521c-3.012 0-5.454-2.442-5.454-5.454v0-13.036c0-1.237 0.421-2.439 1.196-3.406l2.788-3.488zM10.528 4.572c-0.96 0-1.872 0.437-2.473 1.188l-2.249 2.812h20.389l-2.249-2.812c-0.585-0.727-1.475-1.188-2.473-1.188h-10.944zM27.406 10.852c-0.027 0.003-0.058 0.004-0.091 0.005h-22.629c-0.032 0-0.062 0-0.091-0.005-0.016 0.123-0.023 0.249-0.023 0.373v13.036c0 1.751 1.417 3.168 3.168 3.168h16.521c1.751 0 3.168-1.417 3.168-3.168v-13.036c0-0.123-0.007-0.249-0.023-0.373z"></path>
</svg>
