<!-- Generated by IcoMoon.io -->
<svg version="1.1" xmlns="http://www.w3.org/2000/svg" width="32" height="32" viewBox="0 0 32 32">
<path d="M6.27 4.332c1.008-1.252 2.54-2.046 4.258-2.046 0 0 0 0 0.001 0h10.944c1.655 0 3.223 0.754 4.258 2.046l2.788 3.488c0.19 0.238 0.359 0.489 0.505 0.752h-26.048c0.146-0.263 0.315-0.514 0.503-0.752l2.791-3.488zM2.297 10.857h27.406c0.007 0.123 0.012 0.245 0.012 0.368v13.036c0 3.012-2.442 5.454-5.454 5.454v0h-16.521c-3.012 0-5.454-2.442-5.454-5.454v0-13.036c0-0.123 0.005-0.245 0.012-0.368zM17.696 14.304c-0.434-0.434-1.034-0.703-1.697-0.703s-1.263 0.269-1.697 0.703l-1.623 1.623c-0.199 0.205-0.322 0.486-0.322 0.795 0 0.631 0.512 1.143 1.143 1.143 0.308 0 0.588-0.122 0.793-0.32l0.564-0.564v5.305c0 0.631 0.512 1.143 1.143 1.143s1.143-0.512 1.143-1.143v-5.303l0.562 0.562c0.206 0.202 0.488 0.326 0.8 0.326 0.631 0 1.143-0.512 1.143-1.143 0-0.311-0.125-0.594-0.326-0.8l0 0-1.623-1.625z"></path>
</svg>
