<!-- Generated by IcoMoon.io -->
<svg version="1.1" xmlns="http://www.w3.org/2000/svg" width="32" height="32" viewBox="0 0 32 32">
<path d="M12.526 15.040c0.207-0.207 0.492-0.335 0.808-0.335s0.601 0.128 0.808 0.335l1.858 1.858 1.858-1.858c0.205-0.198 0.485-0.321 0.794-0.321 0.631 0 1.143 0.512 1.143 1.143 0 0.309-0.122 0.589-0.321 0.794l-1.858 1.858 1.858 1.858c0.198 0.205 0.321 0.485 0.321 0.794 0 0.631-0.512 1.143-1.143 1.143-0.309 0-0.589-0.122-0.794-0.321l-1.858-1.858-1.858 1.858c-0.205 0.198-0.485 0.321-0.794 0.321-0.631 0-1.143-0.512-1.143-1.143 0-0.309 0.122-0.589 0.321-0.794l1.858-1.858-1.858-1.858c-0.207-0.207-0.335-0.492-0.335-0.808s0.128-0.601 0.335-0.808v0zM6.27 4.332c1.008-1.252 2.54-2.046 4.258-2.046 0 0 0 0 0.001 0h10.944c1.655 0 3.223 0.754 4.258 2.046l2.788 3.488c0.775 0.967 1.195 2.169 1.196 3.406v13.036c0 3.012-2.442 5.454-5.454 5.454v0h-16.521c-3.012 0-5.454-2.442-5.454-5.454v0-13.036c0-1.237 0.421-2.439 1.196-3.406l2.788-3.488zM10.528 4.572c-0.96 0-1.872 0.437-2.473 1.188l-2.249 2.812h20.389l-2.249-2.812c-0.585-0.727-1.475-1.188-2.473-1.188h-10.944zM27.406 10.852c-0.027 0.003-0.058 0.004-0.091 0.005h-22.629c-0.032 0-0.062 0-0.091-0.005-0.016 0.123-0.023 0.249-0.023 0.373v13.036c0 1.751 1.417 3.168 3.168 3.168h16.521c1.751 0 3.168-1.417 3.168-3.168v-13.036c0-0.123-0.007-0.249-0.023-0.373z"></path>
</svg>
