<!-- Generated by IcoMoon.io -->
<svg version="1.1" xmlns="http://www.w3.org/2000/svg" width="32" height="32" viewBox="0 0 32 32">
<path d="M6.27 4.332c1.008-1.252 2.54-2.046 4.258-2.046 0 0 0 0 0.001 0h10.944c1.655 0 3.223 0.754 4.258 2.046l2.788 3.488c0.19 0.238 0.359 0.489 0.505 0.752h-26.048c0.146-0.263 0.315-0.514 0.503-0.752l2.791-3.488zM2.297 10.857h27.406c0.007 0.123 0.012 0.245 0.012 0.368v13.036c0 3.012-2.442 5.454-5.454 5.454v0h-16.521c-3.012 0-5.454-2.442-5.454-5.454v0-13.036c0-0.123 0.005-0.245 0.012-0.368zM17.143 14.743c0-0.631-0.512-1.143-1.143-1.143s-1.143 0.512-1.143 1.143v0 5.303l-0.565-0.562c-0.208-0.215-0.499-0.349-0.822-0.349-0.631 0-1.143 0.512-1.143 1.143 0 0.323 0.134 0.614 0.349 0.822l1.625 1.626c0.937 0.937 2.457 0.937 3.394 0l1.625-1.623c0.207-0.207 0.335-0.493 0.335-0.809 0-0.632-0.512-1.144-1.144-1.144-0.316 0-0.601 0.128-0.808 0.334v0l-0.562 0.565v-5.305z"></path>
</svg>
