<!-- Generated by IcoMoon.io -->
<svg version="1.1" xmlns="http://www.w3.org/2000/svg" width="32" height="32" viewBox="0 0 32 32">
<path d="M2.667 6.4c0-2.062 1.668-3.732 3.733-3.732h19.2c2.062 0 3.733 1.668 3.733 3.732v19.2c0 2.062-1.668 3.733-3.733 3.733h-19.2c-2.061 0-3.732-1.671-3.732-3.733v0-19.2zM20 5.332h-8v7.673l3.108-2.797c0.508-0.457 1.275-0.457 1.783 0l3.108 2.797v-7.673zM9.332 5.332h-2.933c-0.59 0-1.067 0.478-1.067 1.067v0 19.2c0 0.59 0.48 1.067 1.067 1.067h19.2c0.59 0 1.067-0.478 1.067-1.067v0-19.2c0-0.59-0.478-1.067-1.067-1.067v0h-2.933v10.668c0 0.001 0 0.002 0 0.004 0 0.736-0.597 1.332-1.332 1.332-0.344 0-0.658-0.131-0.895-0.345l0.001 0.001-4.441-4-4.441 4c-0.235 0.213-0.549 0.344-0.894 0.344-0.736 0-1.332-0.597-1.332-1.332 0-0.001 0-0.003 0-0.004v0-10.668z"></path>
</svg>
