<!-- Generated by IcoMoon.io -->
<svg version="1.1" xmlns="http://www.w3.org/2000/svg" width="32" height="32" viewBox="0 0 32 32">
<path d="M16 1.333c-8.101 0-14.668 6.567-14.668 14.668s6.567 14.668 14.668 14.668v0c8.101 0 14.668-6.567 14.668-14.668s-6.567-14.668-14.668-14.668v0zM14.668 12v8c0 0.737-0.597 1.334-1.334 1.334s-1.334-0.597-1.334-1.334v0-8c0-0.737 0.597-1.334 1.334-1.334s1.334 0.597 1.334 1.334v0zM17.332 12c0-0.737 0.597-1.334 1.334-1.334s1.334 0.597 1.334 1.334v0 8c0 0.737-0.597 1.334-1.334 1.334s-1.334-0.597-1.334-1.334v0-8z"></path>
</svg>
