<!-- Generated by IcoMoon.io -->
<svg version="1.1" xmlns="http://www.w3.org/2000/svg" width="32" height="32" viewBox="0 0 32 32">
<path d="M21.723 21.723c0.241-0.241 0.575-0.391 0.943-0.391s0.702 0.149 0.943 0.391v0l2.391 2.391 2.391-2.391c0.241-0.241 0.575-0.391 0.943-0.391 0.736 0 1.333 0.597 1.333 1.333 0 0.368-0.149 0.702-0.391 0.943l-2.391 2.391 2.391 2.391c0.241 0.241 0.391 0.575 0.391 0.943 0 0.736-0.597 1.333-1.333 1.333-0.368 0-0.702-0.149-0.943-0.391l-2.391-2.391-2.391 2.391c-0.241 0.241-0.575 0.391-0.943 0.391-0.736 0-1.333-0.597-1.333-1.333 0-0.368 0.149-0.702 0.391-0.943l2.391-2.391-2.391-2.391c-0.241-0.241-0.391-0.575-0.391-0.943s0.149-0.702 0.391-0.943v0zM13.6 15.497c-0.626-0.521-1.239-0.521-1.852-0.014l-0.137 0.126-8.919 8.921v0.802c0 2.21 1.792 4 4 4h13.308v-7.447l-6.258-6.258-0.142-0.13zM28.782 20c-0.151-0-0.289-0.061-0.388-0.16l-3.452-3.452-0.199-0.18c-1.675-1.461-3.801-1.463-5.463-0.023l-0.206 0.188-0.407 0.407-3.058-3.056-0.199-0.183c-1.675-1.458-3.801-1.463-5.463-0.023l-0.206 0.187-7.074 7.074v-14.112c0-2.21 1.79-4 4-4h18.665c2.21 0 4 1.79 4 4v12.782c0 0.304-0.247 0.551-0.551 0.551v0zM19.845 9.342c-0.671 0.075-1.188 0.64-1.188 1.325s0.517 1.25 1.182 1.324l0.006 0.001 0.155 0.009 0.169-0.009c0.671-0.075 1.188-0.64 1.188-1.325s-0.517-1.25-1.182-1.324l-0.006-0.001-0.155-0.009-0.169 0.009z"></path>
</svg>
