<!-- Generated by IcoMoon.io -->
<svg version="1.1" xmlns="http://www.w3.org/2000/svg" width="32" height="32" viewBox="0 0 32 32">
<path d="M6.668 5.332c-0.001 0-0.002 0-0.003 0-0.736 0-1.333 0.597-1.333 1.332 0 0.001 0 0.002 0 0.003v-0 11.447l4.412-4.409c0.816-0.786 1.826-1.264 2.923-1.264s2.103 0.478 2.926 1.264l0.016 0.018 3.058 3.058 0.407-0.409c0.821-0.788 1.828-1.266 2.926-1.266s2.105 0.48 2.926 1.266c0.252 0.243 0.408 0.583 0.408 0.96 0 0.736-0.597 1.334-1.334 1.334-0.36 0-0.686-0.142-0.926-0.374l0 0c-0.418-0.4-0.791-0.519-1.074-0.519s-0.652 0.114-1.067 0.512l-1.323 1.326c-0.241 0.241-0.575 0.391-0.943 0.391s-0.702-0.149-0.943-0.391l-3.986-3.993c-0.416-0.398-0.786-0.514-1.068-0.514-0.283 0-0.654 0.117-1.067 0.514l-6.27 6.267v3.447c0 0.736 0.599 1.335 1.335 1.335h10.665c0.736 0 1.332 0.597 1.332 1.332s-0.597 1.332-1.332 1.332v0h-10.665c-2.209 0-4-1.791-4-4v0-18.665c0-2.21 1.79-4 4-4h18.665c2.21 0 4 1.79 4 4v10.665c0 0.736-0.597 1.332-1.332 1.332s-1.332-0.597-1.332-1.332v0-10.665c0-0.001 0-0.002 0-0.003 0-0.736-0.597-1.333-1.332-1.333-0.001 0-0.002 0-0.003 0h-18.665zM18.668 10.668c0-0.736 0.594-1.335 1.332-1.335h0.014c0.737 0 1.334 0.597 1.334 1.334s-0.597 1.334-1.334 1.334v0h-0.014c-0.736 0-1.332-0.597-1.332-1.332v0zM21.723 21.723c0.241-0.241 0.575-0.391 0.943-0.391s0.702 0.149 0.943 0.391v0l2.391 2.391 2.391-2.391c0.241-0.241 0.575-0.391 0.943-0.391 0.736 0 1.333 0.597 1.333 1.333 0 0.368-0.149 0.702-0.391 0.943l-2.391 2.391 2.391 2.391c0.241 0.241 0.391 0.575 0.391 0.943 0 0.736-0.597 1.333-1.333 1.333-0.368 0-0.702-0.149-0.943-0.391l-2.391-2.391-2.391 2.391c-0.241 0.241-0.575 0.391-0.943 0.391-0.736 0-1.333-0.597-1.333-1.333 0-0.368 0.149-0.702 0.391-0.943l2.391-2.391-2.391-2.391c-0.241-0.241-0.391-0.575-0.391-0.943s0.149-0.702 0.391-0.943v0z"></path>
</svg>
