<!-- Generated by IcoMoon.io -->
<svg version="1.1" xmlns="http://www.w3.org/2000/svg" width="32" height="32" viewBox="0 0 32 32">
<path d="M3.056 3.058c0.241-0.241 0.575-0.391 0.943-0.391s0.702 0.149 0.943 0.391v0l24 23.986c0.226 0.238 0.365 0.561 0.365 0.916 0 0.736-0.597 1.332-1.332 1.332-0.349 0-0.666-0.134-0.903-0.353l0.001 0.001-0.071 0.030c0.034-0.010 0.018-0.004 0.003 0.001l-0.049 0.015-0.24 0.096c-0.243 0.099-0.526 0.171-0.82 0.202l-0.014 0.001c-0.218 0.026-0.475 0.042-0.736 0.046l-0.005 0c-0.095 0.001-0.207 0.002-0.32 0.002-0.289 0-0.578-0.005-0.865-0.014l0.042 0.001h-17.328c-2.209 0-4-1.791-4-4v0-18.59c-0.001-0.026-0.001-0.057-0.001-0.088 0-0.621 0.14-1.21 0.391-1.735l-0.010 0.024c-0.235-0.24-0.38-0.569-0.38-0.932 0-0.368 0.149-0.701 0.39-0.942v0zM5.332 7.218v10.889l4.412-4.407c0.366-0.357 0.777-0.649 1.211-0.862l-5.623-5.623zM13.737 15.612c-0.416-0.395-0.786-0.512-1.068-0.512-0.283 0-0.654 0.114-1.067 0.512l-6.267 6.263v3.444c0 0.736 0.597 1.332 1.335 1.333h17.33c0.151 0 0.288 0.005 0.425 0.007l0.366 0.007-11.056-11.051zM8 4c0-0.736 0.597-1.333 1.332-1.333h16c2.208 0 4 1.79 4 4v15.988c0 0.736-0.597 1.332-1.332 1.332s-1.332-0.597-1.332-1.332v-0.779l-3.6-3.598c-0.457-0.437-0.862-0.537-1.17-0.507-0.037 0.004-0.081 0.006-0.125 0.006-0.736 0-1.333-0.597-1.333-1.333 0-0.692 0.528-1.261 1.203-1.326l0.005-0c1.221-0.114 2.363 0.37 3.277 1.248l1.742 1.742v-11.443c0 0 0 0 0 0 0-0.736-0.597-1.332-1.332-1.332-0.001 0-0.002 0-0.003 0h-16c-0.736 0-1.332-0.597-1.332-1.333v0zM18.668 10.663c0-0.736 0.594-1.332 1.332-1.332h0.014c0.736 0 1.332 0.597 1.332 1.332s-0.597 1.332-1.332 1.332h-0.014c-0.736 0-1.332-0.597-1.332-1.332v0z"></path>
</svg>
