<!-- Generated by IcoMoon.io -->
<svg version="1.1" xmlns="http://www.w3.org/2000/svg" width="32" height="32" viewBox="0 0 32 32">
<path d="M11.748 15.483c0.613-0.508 1.225-0.508 1.852 0.014l0.142 0.13 6.649 6.649 0.126 0.11c0.223 0.175 0.508 0.28 0.817 0.28 0.736 0 1.332-0.597 1.332-1.332 0-0.309-0.105-0.594-0.282-0.82l0.002 0.003-0.11-0.126-1.723-1.723 0.388-0.391 0.142-0.128c0.61-0.505 1.225-0.505 1.849 0.016l0.144 0.13 6.231 6.233v0.804c0 2.209-1.791 4-4 4v0h-18.615c-2.209 0-4-1.791-4-4v0-0.802l8.919-8.921 0.142-0.126zM25.332 2.667c2.21 0 4 1.79 4 4v14.11l-4.388-4.389-0.201-0.183c-1.675-1.461-3.801-1.463-5.463-0.023l-0.206 0.188-0.407 0.407-3.058-3.056-0.199-0.183c-1.675-1.458-3.801-1.463-5.463-0.023l-0.206 0.188-7.074 7.074v-14.11c0-2.21 1.79-4 4-4h18.665zM20.014 9.332l-0.169 0.009c-0.671 0.075-1.188 0.64-1.188 1.325s0.517 1.25 1.182 1.324l0.006 0.001 0.155 0.009 0.169-0.009c0.671-0.075 1.188-0.64 1.188-1.325s-0.517-1.25-1.182-1.324l-0.006-0.001-0.155-0.009z"></path>
</svg>
