<!-- Generated by IcoMoon.io -->
<svg version="1.1" xmlns="http://www.w3.org/2000/svg" width="32" height="32" viewBox="0 0 32 32">
<path d="M4.942 3.056c-0.241-0.241-0.574-0.389-0.942-0.389-0.736 0-1.333 0.597-1.333 1.333 0 0.369 0.15 0.703 0.392 0.944l0 0c-0.247 0.501-0.391 1.091-0.391 1.714 0 0.003 0 0.006 0 0.010v-0 14.11l7.074-7.074 0.206-0.188c0.322-0.279 0.663-0.503 1.015-0.674l1.737 1.737c-0.169 0.142-0.334 0.308-0.494 0.468s-0.313 0.315-0.457 0.434l-0.137 0.126-8.919 8.921v0.802c0 2.21 1.792 4 4 4h18.615c0.628 0 1.221-0.144 1.751-0.402 0.241 0.241 0.574 0.39 0.942 0.39 0.736 0 1.333-0.597 1.333-1.333 0-0.368-0.149-0.702-0.391-0.943v0l-24-23.986zM24.743 16.208c-1.166-1.017-2.551-1.326-3.844-0.937l-12.613-12.601h17.047c2.21 0 4 1.79 4 4v14.107l-4.388-4.389-0.201-0.183zM20.012 9.332l-0.167 0.009c-0.671 0.075-1.188 0.64-1.188 1.325s0.517 1.25 1.182 1.324l0.006 0.001 0.155 0.009 0.169-0.009c0.671-0.075 1.188-0.64 1.188-1.325s-0.517-1.25-1.182-1.324l-0.006-0.001-0.155-0.009z"></path>
</svg>
