<!-- Generated by IcoMoon.io -->
<svg version="1.1" xmlns="http://www.w3.org/2000/svg" width="32" height="32" viewBox="0 0 32 32">
<path d="M2.667 6.668c0-2.21 1.79-4 4-4h18.665c2.21 0 4 1.79 4 4v18.665c0 2.209-1.791 4-4 4v0h-18.665c-2.209 0-4-1.791-4-4v0-18.665zM5.332 21.886v3.447c0 0.736 0.597 1.335 1.335 1.335h18.665c0.001 0 0.002 0 0.003 0 0.736 0 1.332-0.597 1.332-1.332 0-0.001 0-0.002 0-0.003v0-3.447l-3.6-3.6c-0.416-0.395-0.784-0.512-1.067-0.512s-0.652 0.114-1.067 0.512l-0.379 0.382 1.723 1.723c0.241 0.241 0.391 0.575 0.391 0.943 0 0.736-0.597 1.333-1.333 1.333-0.368 0-0.702-0.149-0.943-0.391l-6.656-6.656c-0.416-0.398-0.786-0.514-1.067-0.514-0.283 0-0.654 0.117-1.067 0.514l-6.268 6.265zM18.668 16.782l0.409-0.409c0.818-0.788 1.828-1.266 2.923-1.266 1.097 0 2.105 0.48 2.926 1.266l1.742 1.742v-11.447c0-0.001 0-0.002 0-0.003 0-0.736-0.597-1.333-1.332-1.333-0.001 0-0.002 0-0.003 0h-18.665c-0.001 0-0.002 0-0.003 0-0.736 0-1.333 0.597-1.333 1.332 0 0.001 0 0.002 0 0.003v-0 11.447l4.412-4.409c0.816-0.786 1.826-1.264 2.923-1.264s2.103 0.478 2.926 1.264l0.016 0.018 3.058 3.058zM18.668 10.668c0 0.736 0.594 1.332 1.332 1.332h0.014c0.737 0 1.334-0.597 1.334-1.334s-0.597-1.334-1.334-1.334v0h-0.014c0 0 0 0 0 0-0.736 0-1.332 0.597-1.332 1.332 0 0.001 0 0.002 0 0.003v-0z"></path>
</svg>
