<!-- Generated by IcoMoon.io -->
<svg version="1.1" xmlns="http://www.w3.org/2000/svg" width="32" height="32" viewBox="0 0 32 32">
<path d="M20.041 3.166c-1.877-1.879-5.088-0.548-5.088 2.108 0 0.791-0.315 1.55-0.873 2.107l-2.468 2.471c-0.54 0.541-1.286 0.875-2.11 0.875-0 0-0 0-0 0v0c-2.656 0-3.986 3.209-2.107 5.088l3.621 3.62-8.407 8.409c-0.222 0.202-0.361 0.491-0.361 0.814 0 0.606 0.491 1.097 1.097 1.097 0.322 0 0.612-0.139 0.813-0.36l0.001-0.001 8.409-8.407 3.621 3.621c1.879 1.879 5.088 0.548 5.088-2.107 0-0.791 0.315-1.55 0.873-2.108l2.469-2.468c0.56-0.56 1.319-0.875 2.11-0.876 2.656 0 3.986-3.212 2.108-5.088l-8.793-8.796z"></path>
</svg>
