<!-- Generated by IcoMoon.io -->
<svg version="1.1" xmlns="http://www.w3.org/2000/svg" width="32" height="32" viewBox="0 0 32 32">
<path d="M13.132 6.459c0-3.712 4.489-5.57 7.113-2.944l8.244 8.242c2.624 2.624 0.766 7.113-2.948 7.113-0.393 0-0.748 0.159-1.006 0.416l0-0-2.311 2.315c-0.258 0.257-0.418 0.613-0.418 1.006v0c0 3.712-4.487 5.573-7.111 2.948l-3.157-3.157-6.912 6.912c-0.251 0.272-0.61 0.441-1.008 0.441-0.757 0-1.372-0.614-1.372-1.372 0-0.398 0.17-0.757 0.44-1.007l0.001-0.001 6.912-6.91-3.154-3.154c-2.622-2.624-0.763-7.111 2.949-7.111 0.393-0 0.748-0.159 1.006-0.416l2.315-2.315c0.257-0.258 0.416-0.613 0.416-1.006v0zM18.304 5.454c-0.258-0.257-0.613-0.416-1.006-0.416-0.786 0-1.423 0.636-1.424 1.421v0c0 1.106-0.439 2.165-1.221 2.949l-2.311 2.311c-0.754 0.754-1.796 1.221-2.947 1.221-0.001 0-0.001 0-0.002 0h0c-0.785 0.001-1.422 0.638-1.422 1.424 0 0.393 0.159 0.748 0.416 1.006l8.245 8.245c0.258 0.257 0.613 0.416 1.006 0.416 0.786 0 1.423-0.636 1.424-1.421v-0c0-1.106 0.439-2.167 1.221-2.949l2.313-2.311c0.754-0.754 1.796-1.22 2.946-1.22v0c1.268 0 1.902-1.532 1.006-2.43l-8.244-8.245z"></path>
</svg>
