<!-- Generated by IcoMoon.io -->
<svg version="1.1" xmlns="http://www.w3.org/2000/svg" width="32" height="32" viewBox="0 0 32 32">
<path d="M16 1.333c-8.101 0-14.668 6.567-14.668 14.668s6.567 14.668 14.668 14.668v0c8.101 0 14.668-6.567 14.668-14.668s-6.567-14.668-14.668-14.668v0zM14.073 9.557l8 5.335c0.36 0.242 0.593 0.648 0.593 1.108s-0.233 0.866-0.588 1.105l-0.005 0.003-8 5.335c-0.208 0.141-0.465 0.225-0.741 0.225-0.736 0-1.332-0.597-1.332-1.332 0-0.001 0-0.002 0-0.003v0-10.665c0-0.001 0-0.002 0-0.003 0-0.736 0.597-1.332 1.332-1.332 0.276 0 0.533 0.084 0.745 0.228l-0.005-0.003z"></path>
</svg>
