<!-- Generated by IcoMoon.io -->
<svg version="1.1" xmlns="http://www.w3.org/2000/svg" width="32" height="32" viewBox="0 0 32 32">
<path d="M16 4c-6.627 0-12 5.373-12 12s5.373 12 12 12v0c6.627 0 12-5.373 12-12s-5.373-12-12-12v0zM1.333 16c0-8.101 6.567-14.668 14.668-14.668s14.668 6.567 14.668 14.668v0c0 8.101-6.567 14.668-14.668 14.668s-14.668-6.567-14.668-14.668v0zM12.704 9.49c0.434-0.231 0.96-0.206 1.369 0.068l8 5.333c0.36 0.242 0.593 0.648 0.593 1.108s-0.233 0.866-0.588 1.105l-0.005 0.003-8 5.335c-0.208 0.141-0.465 0.225-0.741 0.225-0.736 0-1.332-0.597-1.332-1.332 0-0.001 0-0.002 0-0.003v0-10.665c0-0.492 0.27-0.944 0.704-1.177z"></path>
</svg>
