<!-- Generated by IcoMoon.io -->
<svg version="1.1" xmlns="http://www.w3.org/2000/svg" width="32" height="32" viewBox="0 0 32 32">
<path d="M26.972 2.286h-16.457c-1.515 0-2.743 1.365-2.743 3.047v4.572c0 0.843-0.615 1.525-1.372 1.524-2.272 0-4.114 2.046-4.114 4.572s1.842 4.572 4.114 4.572c0.757 0 1.372 0.681 1.372 1.524v4.572c0 1.682 1.227 3.047 2.743 3.047h2.743c0.757 0 1.372-0.683 1.371-1.525 0-2.523 1.842-4.572 4.114-4.571s4.114 2.048 4.114 4.571c0 0.841 0.615 1.525 1.371 1.525h2.743c1.515 0 2.743-1.365 2.743-3.047v-4.572c0-0.843-0.615-1.525-1.372-1.524-2.272 0-4.114-2.046-4.114-4.572s1.842-4.572 4.114-4.572c0.757 0 1.372-0.681 1.372-1.524v-4.572c0-1.682-1.227-3.047-2.743-3.047z"></path>
</svg>
