<!-- Generated by IcoMoon.io -->
<svg version="1.1" xmlns="http://www.w3.org/2000/svg" width="32" height="32" viewBox="0 0 32 32">
<path d="M16 2.286c0.758 0 1.372 0.614 1.372 1.372v0 11.108c0 0.758-0.614 1.372-1.372 1.372s-1.372-0.614-1.372-1.372v0-11.108c0-0.757 0.614-1.372 1.372-1.372v0zM9.692 5.303c0.171 0.226 0.274 0.513 0.274 0.823 0 0.447-0.214 0.844-0.545 1.095l-0.003 0.003c-2.677 2.023-4.389 5.2-4.389 8.777 0 6.059 4.912 10.972 10.972 10.972s10.972-4.912 10.972-10.972c0-3.577-1.712-6.754-4.361-8.757l-0.028-0.020c-0.326-0.253-0.534-0.645-0.534-1.086 0-0.758 0.614-1.372 1.372-1.372 0.304 0 0.584 0.099 0.812 0.266l-0.004-0.003c3.346 2.529 5.486 6.5 5.486 10.972 0 7.574-6.14 13.714-13.714 13.714s-13.714-6.14-13.714-13.714c0-4.471 2.14-8.443 5.451-10.947l0.035-0.025c0.226-0.171 0.513-0.274 0.823-0.274 0.447 0 0.844 0.214 1.095 0.545l0.002 0.003z"></path>
</svg>
