<!-- Generated by IcoMoon.io -->
<svg version="1.1" xmlns="http://www.w3.org/2000/svg" width="32" height="32" viewBox="0 0 32 32">
<path d="M2.286 4.268c0-1.095 0.921-1.982 2.057-1.982h23.314c1.136 0 2.057 0.887 2.057 1.982 0 1.097-0.921 1.984-2.057 1.984h-23.314c-1.136 0-2.057-0.887-2.057-1.984zM3.657 8.233h24.686v12.558c0 1.463-1.227 2.645-2.743 2.644h-8.572v5.287c0 0.548-0.459 0.992-1.028 0.992-0.005 0-0.012 0-0.018 0-0.552 0-1-0.442-1.010-0.991v-5.288h-8.572c-1.515 0-2.743-1.184-2.743-2.644v-12.558zM22.114 14.24c0.123-0.202 0.196-0.445 0.196-0.706 0-0.758-0.615-1.373-1.373-1.373-0.497 0-0.933 0.264-1.174 0.66l-0.003 0.006-1.335 2.226c-0.147 0.241-0.409 0.4-0.708 0.4-0.26 0-0.492-0.12-0.643-0.307l-0.001-0.002c-0.66-0.82-1.663-1.34-2.788-1.34-1.293 0-2.426 0.688-3.052 1.717l-0.009 0.016-1.335 2.226c-0.123 0.202-0.196 0.445-0.196 0.706 0 0.758 0.614 1.372 1.372 1.372 0.497 0 0.932-0.264 1.172-0.659l0.003-0.006 1.335-2.226c0.147-0.242 0.41-0.402 0.71-0.402 0.261 0 0.493 0.12 0.645 0.308l0.001 0.002c1.554 1.943 4.567 1.739 5.847-0.393l1.337-2.226z"></path>
</svg>
