<!-- Generated by IcoMoon.io -->
<svg version="1.1" xmlns="http://www.w3.org/2000/svg" width="32" height="32" viewBox="0 0 32 32">
<path d="M2.286 6.126c0-2.121 1.719-3.84 3.84-3.84h19.749c2.121 0 3.84 1.719 3.84 3.84 0 1.114-0.474 2.117-1.232 2.818l-0.003 0.002v11.991c0 2.121-1.719 3.84-3.84 3.84v0h-7.268v3.566c0 0.758-0.614 1.372-1.372 1.372s-1.372-0.614-1.372-1.372v-3.566h-7.268c-2.121 0-3.84-1.719-3.84-3.84v0-11.991c-0.76-0.702-1.234-1.704-1.234-2.817 0-0.001 0-0.003 0-0.004v0zM6.126 7.223h19.749c0.606 0 1.097-0.491 1.097-1.097s-0.491-1.097-1.097-1.097h-19.749c-0.606 0-1.097 0.491-1.097 1.097s0.491 1.097 1.097 1.097v0zM6.263 9.966v10.972c0 0.606 0.492 1.097 1.097 1.097h17.28c0.606 0 1.097-0.491 1.097-1.097v0-10.972h-19.474zM21.643 12.354c0.402 0.244 0.667 0.679 0.667 1.177 0 0.261-0.073 0.505-0.2 0.713l0.003-0.006-1.337 2.226c-0.635 1.045-1.768 1.733-3.061 1.733-1.125 0-2.128-0.52-2.782-1.333l-0.005-0.007c-0.153-0.189-0.385-0.309-0.645-0.309-0.299 0-0.561 0.159-0.706 0.396l-0.002 0.004-1.337 2.227c-0.244 0.401-0.679 0.666-1.176 0.666-0.758 0-1.372-0.614-1.372-1.372 0-0.261 0.073-0.505 0.199-0.712l-0.003 0.006 1.337-2.226c0.635-1.045 1.768-1.733 3.061-1.733 1.125 0 2.128 0.52 2.782 1.333l0.005 0.007c0.153 0.189 0.385 0.309 0.645 0.309 0.299 0 0.561-0.159 0.706-0.396l0.002-0.004 1.337-2.227c0.244-0.401 0.679-0.664 1.175-0.664 0.261 0 0.505 0.073 0.712 0.199l-0.006-0.003z"></path>
</svg>
