<!-- Generated by IcoMoon.io -->
<svg version="1.1" xmlns="http://www.w3.org/2000/svg" width="32" height="32" viewBox="0 0 32 32">
<path d="M11.198 7.001h9.602c1.55-2.094-0.537-5.024-3.132-4.188l-1.237 0.398c-0.13 0.043-0.279 0.068-0.434 0.068s-0.305-0.025-0.444-0.071l0.010 0.003-1.237-0.398c-2.594-0.837-4.681 2.094-3.132 4.188zM20.658 9.001h-9.317c-1.786 1.001-3.126 2.618-3.747 4.556l-0.016 0.057-1.668 5.332c-1.609 5.152 2.24 10.386 7.637 10.386h4.905c5.394 0 9.246-5.234 7.634-10.386l-1.666-5.332c-0.636-1.995-1.977-3.611-3.722-4.592l-0.040-0.021zM20.485 24.873c-1.668 0.928-3.099 1.463-4.572 1.456-1.481-0.005-2.857-0.553-4.416-1.465-0.299-0.176-0.497-0.497-0.497-0.864 0-0.552 0.448-1 1-1 0.185 0 0.359 0.050 0.507 0.138l-0.005-0.003c1.445 0.843 2.455 1.188 3.417 1.193 0.967 0.005 2.034-0.338 3.595-1.204 0.14-0.079 0.307-0.125 0.485-0.125 0.552 0 1 0.448 1 1 0 0.374-0.206 0.7-0.51 0.872l-0.005 0.003z"></path>
</svg>
