<!-- Generated by IcoMoon.io -->
<svg version="1.1" xmlns="http://www.w3.org/2000/svg" width="32" height="32" viewBox="0 0 32 32">
<path d="M12.352 5.593c0.304-0.423 0.892-0.708 1.609-0.489l1.214 0.37c0.247 0.077 0.531 0.122 0.825 0.122s0.578-0.044 0.845-0.127l-0.020 0.005 1.212-0.37c0.722-0.217 1.308 0.066 1.612 0.489 0.293 0.402 0.315 0.882-0.092 1.321l-1.426 1.543h-4.263l-1.424-1.543c-0.407-0.439-0.384-0.919-0.092-1.321zM21.006 9.383l0.563-0.606c1.392-1.508 1.266-3.452 0.302-4.789-0.764-1.041-1.982-1.709-3.357-1.709-0.455 0-0.894 0.073-1.304 0.209l0.029-0.008-1.214 0.37c-0.008 0.002-0.018 0.004-0.027 0.004s-0.019-0.001-0.028-0.004l0.001 0-1.214-0.37c-0.381-0.127-0.819-0.2-1.274-0.2-1.375 0-2.593 0.668-3.348 1.697l-0.008 0.012c-0.965 1.335-1.090 3.282 0.302 4.789l0.562 0.606c-2.146 1.016-3.789 2.801-4.597 4.99l-0.020 0.062-1.31 3.703c-2.048 5.799 2.558 11.577 8.745 11.577h4.384c6.188 0 10.793-5.778 8.743-11.577l-1.31-3.703c-0.828-2.251-2.471-4.035-4.563-5.029l-0.054-0.023zM16.885 11.2c2.841 0 5.296 1.714 6.157 4.151l1.308 3.703c1.342 3.792-1.623 7.918-6.158 7.918h-4.384c-4.535 0-7.497-4.126-6.158-7.918l1.307-3.703c0.862-2.439 3.317-4.151 6.157-4.151h1.769zM21.141 22.77c0.099 0.185 0.157 0.404 0.157 0.636 0 0.525-0.295 0.981-0.728 1.211l-0.007 0.004c-1.664 0.868-3.125 1.394-4.649 1.387-1.532-0.007-2.942-0.544-4.501-1.401-0.427-0.238-0.711-0.687-0.711-1.202 0-0.758 0.614-1.372 1.372-1.372 0.242 0 0.47 0.063 0.668 0.173l-0.007-0.004c1.394 0.766 2.325 1.058 3.188 1.061 0.871 0.005 1.861-0.283 3.369-1.074 0.184-0.098 0.403-0.156 0.635-0.156 0.525 0 0.982 0.295 1.212 0.729l0.004 0.007z"></path>
</svg>
