<!-- Generated by IcoMoon.io -->
<svg version="1.1" xmlns="http://www.w3.org/2000/svg" width="32" height="32" viewBox="0 0 32 32">
<path d="M2.667 5.332c0-1.472 1.193-2.665 2.665-2.665h6.668c1.472 0 2.668 1.193 2.668 2.665v6.668c0 1.472-1.195 2.668-2.668 2.668h-6.668c-1.472-0.001-2.665-1.195-2.665-2.668v0-6.668zM12 5.332h-6.668v6.668h6.668v-6.668zM17.332 5.332c0-1.472 1.195-2.665 2.668-2.665h6.668c1.472 0 2.665 1.193 2.665 2.665v6.668c0 1.472-1.193 2.668-2.665 2.668h-6.668c-1.473 0-2.668-1.194-2.668-2.668v0-6.668zM26.668 5.332h-6.668v6.668h6.668v-6.668zM2.667 20c0-1.472 1.193-2.668 2.665-2.668h6.668c1.472 0 2.668 1.195 2.668 2.668v6.668c0 1.472-1.195 2.665-2.668 2.665h-6.668c-1.471-0.001-2.664-1.194-2.665-2.665v-6.668zM12 20h-6.668v6.668h6.668v-6.668zM18.668 17.332c0.736 0 1.332 0.597 1.332 1.335v5.332c0 0.737-0.597 1.334-1.334 1.334s-1.334-0.597-1.334-1.334v0-5.332c0-0.738 0.597-1.335 1.335-1.335zM23.332 17.332c0.736 0 1.335 0.597 1.335 1.335v9.332c0 0.737-0.597 1.334-1.334 1.334s-1.334-0.597-1.334-1.334v0-9.332c0-0.738 0.597-1.335 1.332-1.335zM28 17.332c0.736 0 1.332 0.597 1.332 1.335v0.011c0 0.736-0.597 1.332-1.332 1.332s-1.332-0.597-1.332-1.332v-0.011c0-0.738 0.594-1.335 1.332-1.335zM28 21.332c0.736 0 1.332 0.597 1.332 1.335v5.332c0 0.736-0.597 1.332-1.332 1.332s-1.332-0.597-1.332-1.332v-5.332c0-0.738 0.594-1.335 1.332-1.335zM18.668 26.665c0.736 0 1.332 0.597 1.332 1.333v0.002c0 0.737-0.597 1.334-1.334 1.334s-1.334-0.597-1.334-1.334v0c0-0.738 0.597-1.335 1.335-1.335z"></path>
</svg>
