<!-- Generated by IcoMoon.io -->
<svg version="1.1" xmlns="http://www.w3.org/2000/svg" width="32" height="32" viewBox="0 0 32 32">
<path d="M2.286 4.325c0-2.29 1.748-4.325 4.114-4.325h19.2c2.366 0 4.114 2.034 4.114 4.325v22.386c0 2.852-2.713 5.154-5.538 4.057l-2.142-0.83c-0.129-0.052-0.278-0.082-0.434-0.082-0.192 0-0.373 0.045-0.533 0.126l0.007-0.003-3.351 1.623c-0.503 0.251-1.096 0.397-1.723 0.397s-1.22-0.147-1.746-0.408l0.023 0.010-3.348-1.623c-0.153-0.078-0.335-0.123-0.526-0.123-0.156 0-0.305 0.030-0.442 0.085l0.008-0.003-2.144 0.83c-2.828 1.097-5.538-1.205-5.538-4.057v-22.386zM6.4 2.743c-0.663 0-1.372 0.61-1.372 1.582v22.386c0 1.239 1.056 1.79 1.806 1.499l2.142-0.83c0.422-0.169 0.912-0.267 1.425-0.267 0.627 0 1.22 0.147 1.746 0.408l-0.023-0.010 3.348 1.623c0.154 0.078 0.336 0.123 0.528 0.123s0.374-0.046 0.535-0.126l-0.007 0.003 3.348-1.623c0.99-0.48 2.123-0.526 3.148-0.13l2.142 0.832c0.75 0.288 1.806-0.263 1.806-1.502v-22.386c0-0.972-0.708-1.582-1.372-1.582h-19.2zM7.772 8.757c0-0.757 0.614-1.371 1.371-1.372h13.714c0.758 0 1.372 0.614 1.372 1.372s-0.614 1.372-1.372 1.372h-13.714c-0.757-0-1.371-0.614-1.371-1.372v0zM7.772 14.665c0-0.757 0.614-1.371 1.371-1.371h13.714c0.006-0 0.013-0 0.021-0 0.758 0 1.372 0.614 1.372 1.372s-0.614 1.372-1.372 1.372c-0.007 0-0.015-0-0.022-0h-13.713c-0.757-0-1.371-0.614-1.371-1.372v0zM7.772 20.574c0-0.757 0.614-1.371 1.371-1.372h6.857c0.749 0.012 1.351 0.621 1.351 1.371s-0.602 1.36-1.35 1.371h-6.858c-0.757-0-1.371-0.614-1.371-1.371v-0z"></path>
</svg>
