<!-- Generated by IcoMoon.io -->
<svg version="1.1" xmlns="http://www.w3.org/2000/svg" width="32" height="32" viewBox="0 0 32 32">
<path d="M5.332 0h21.335c1.682 0 3.047 1.447 3.047 3.232v24.483c0 2.24-2.094 3.799-4.080 3.040l-2.379-0.907c-0.307-0.121-0.663-0.192-1.035-0.192-0.454 0-0.883 0.105-1.265 0.291l0.017-0.008-3.721 1.776c-0.366 0.179-0.796 0.284-1.25 0.284s-0.885-0.105-1.267-0.292l0.017 0.008-3.721-1.772c-0.366-0.18-0.796-0.285-1.251-0.285-0.371 0-0.726 0.070-1.053 0.198l0.020-0.007-2.379 0.907c-1.986 0.759-4.080-0.8-4.080-3.040v-24.485c0-1.785 1.365-3.232 3.047-3.232zM23.618 9.289c0.633 0 1.143-0.542 1.143-1.211s-0.51-1.212-1.143-1.212h-15.237c-0.631 0-1.143 0.542-1.143 1.212s0.512 1.212 1.143 1.211h15.237zM24.761 14.539c0-0.668-0.51-1.212-1.143-1.211h-15.237c-0.631 0-1.143 0.544-1.143 1.211 0 0.67 0.512 1.212 1.143 1.212h15.237c0.633 0 1.143-0.542 1.143-1.212zM16 22.217c0.631 0 1.143-0.542 1.143-1.212s-0.512-1.212-1.143-1.211h-7.618c-0.631 0-1.143 0.542-1.143 1.211s0.512 1.212 1.143 1.212h7.618z"></path>
</svg>
