<!-- Generated by IcoMoon.io -->
<svg version="1.1" xmlns="http://www.w3.org/2000/svg" width="32" height="32" viewBox="0 0 32 32">
<path d="M16.005 4.572c-6.314 0-11.433 5.119-11.433 11.433s5.119 11.433 11.433 11.433c6.314 0 11.433-5.119 11.433-11.433v0c0-0.631 0.512-1.143 1.143-1.143s1.143 0.512 1.143 1.143v0c0 0 0 0.001 0 0.002 0 7.577-6.142 13.719-13.719 13.719s-13.719-6.142-13.719-13.719c0-7.577 6.142-13.719 13.719-13.719 3.741 0 7.132 1.497 9.607 3.925l-0.002-0.002 0.631-1.886c0.167-0.437 0.583-0.742 1.070-0.742 0.631 0 1.143 0.512 1.143 1.143 0 0.114-0.017 0.225-0.048 0.329l0.002-0.008-1.257 3.772c-0.156 0.458-0.582 0.782-1.084 0.782-0.372 0-0.703-0.178-0.911-0.453l-0.002-0.003c-2.104-2.789-5.413-4.573-9.138-4.573-0.003 0-0.007 0-0.010 0h0.001zM11.547 8.802c0.189-0.143 0.427-0.229 0.686-0.229 0.373 0 0.704 0.178 0.912 0.454l0.002 0.003 2.857 3.813 2.857-3.813c0.211-0.279 0.542-0.457 0.914-0.457 0.631 0 1.143 0.512 1.143 1.143 0 0.259-0.086 0.497-0.231 0.688l0.002-0.003-2.4 3.203h1.486c0.631 0 1.143 0.512 1.143 1.143s-0.512 1.143-1.143 1.143h-2.628v1.486h2.628c0.631 0 1.143 0.512 1.143 1.143s-0.512 1.143-1.143 1.143h-2.628v2.631c0 0.631-0.512 1.143-1.143 1.143s-1.143-0.512-1.143-1.143v0-2.628h-2.628c-0.631 0-1.143-0.512-1.143-1.143s0.512-1.143 1.143-1.143h2.628v-1.488h-2.628c-0.631 0-1.143-0.512-1.143-1.143s0.512-1.143 1.143-1.143h1.486l-2.4-3.2c-0.143-0.189-0.229-0.427-0.229-0.686 0-0.373 0.178-0.704 0.454-0.912l0.003-0.002z"></path>
</svg>
