<!-- Generated by IcoMoon.io -->
<svg version="1.1" xmlns="http://www.w3.org/2000/svg" width="32" height="32" viewBox="0 0 32 32">
<path d="M19.897 0.098c0.151-0.062 0.327-0.099 0.51-0.099 0.573 0 1.064 0.351 1.269 0.85l0.003 0.009 1.819 4.521c0.063 0.152 0.099 0.328 0.099 0.513 0 0.758-0.614 1.372-1.372 1.372-0.245 0-0.474-0.064-0.673-0.176l0.007 0.004c-1.593-0.896-3.498-1.424-5.525-1.424-0.013 0-0.025 0-0.038 0h0.002c-6.128 0-10.972 4.695-10.972 10.332 0 1.87 0.526 3.623 1.452 5.138 0.126 0.203 0.201 0.45 0.201 0.714 0 0.758-0.614 1.372-1.372 1.372-0.494 0-0.926-0.261-1.168-0.652l-0.003-0.006c-1.162-1.868-1.852-4.135-1.852-6.564 0-0.001 0-0.002 0-0.003v0c0-7.289 6.21-13.074 13.714-13.074 1.301 0 2.56 0.174 3.755 0.496l-0.619-1.538c-0.062-0.151-0.098-0.326-0.098-0.51 0-0.573 0.351-1.064 0.851-1.269l0.009-0.003zM25.977 8.978c0.203-0.126 0.45-0.201 0.715-0.201 0.494 0 0.926 0.261 1.168 0.652l0.003 0.006c1.175 1.925 1.852 4.172 1.852 6.565 0 7.289-6.21 13.074-13.714 13.074-0.004 0-0.010 0-0.015 0-1.331 0-2.619-0.181-3.841-0.52l0.101 0.024 0.619 1.538c0.056 0.144 0.088 0.31 0.088 0.484 0 0.758-0.614 1.372-1.372 1.372-0.562 0-1.045-0.338-1.257-0.822l-0.003-0.009-1.817-4.521c-0.063-0.151-0.099-0.327-0.099-0.511 0-0.758 0.614-1.372 1.372-1.372 0.243 0 0.472 0.063 0.67 0.175l-0.007-0.004c1.593 0.896 3.498 1.424 5.525 1.424 0.013 0 0.025-0 0.038-0h-0.002c6.128 0 10.972-4.692 10.972-10.332 0-1.87-0.526-3.621-1.452-5.136-0.126-0.203-0.201-0.45-0.201-0.714 0-0.494 0.261-0.926 0.652-1.168l0.006-0.003z"></path>
</svg>
