<!-- Generated by IcoMoon.io -->
<svg version="1.1" xmlns="http://www.w3.org/2000/svg" width="32" height="32" viewBox="0 0 32 32">
<path d="M10.222 16c0-0.736 0.597-1.332 1.335-1.332h8.887c0.736 0 1.332 0.597 1.332 1.332s-0.597 1.332-1.332 1.332h-8.887c-0.001 0-0.002 0-0.002 0-0.736 0-1.332-0.597-1.332-1.332 0 0 0 0 0 0v0zM16 4c-6.627 0-12 5.373-12 12s5.373 12 12 12v0c6.627 0 12-5.373 12-12s-5.373-12-12-12v0zM1.333 16c0-8.101 6.567-14.668 14.668-14.668s14.668 6.567 14.668 14.668v0c0 8.101-6.567 14.668-14.668 14.668s-14.668-6.567-14.668-14.668v0z"></path>
</svg>
