<!-- Generated by IcoMoon.io -->
<svg version="1.1" xmlns="http://www.w3.org/2000/svg" width="32" height="32" viewBox="0 0 32 32">
<path d="M16 4.572c0.757 0 1.371 0.614 1.372 1.371v7.71l6.868-3.877c0.194-0.111 0.426-0.177 0.674-0.177 0.758 0 1.372 0.614 1.372 1.373 0 0.51-0.278 0.955-0.692 1.192l-0.007 0.004-6.8 3.833 6.798 3.833c0.42 0.24 0.698 0.685 0.698 1.195 0 0.758-0.614 1.372-1.372 1.372-0.248 0-0.48-0.066-0.681-0.181l0.007 0.004-6.866-3.877v7.71c0 0.758-0.614 1.372-1.372 1.372s-1.372-0.614-1.372-1.372v0-7.71l-6.868 3.877c-0.194 0.111-0.426 0.177-0.674 0.177-0.758 0-1.372-0.614-1.372-1.372 0-0.51 0.278-0.955 0.692-1.192l0.007-0.004 6.8-3.833-6.8-3.833c-0.42-0.24-0.698-0.685-0.698-1.195 0-0.758 0.614-1.373 1.373-1.373 0.248 0 0.48 0.066 0.681 0.181l-0.007-0.004 6.868 3.877v-7.71c0-0.757 0.614-1.371 1.372-1.371v0z"></path>
</svg>
