<!-- Generated by IcoMoon.io -->
<svg version="1.1" xmlns="http://www.w3.org/2000/svg" width="32" height="32" viewBox="0 0 32 32">
<path d="M18.212 0.85c-0.583-0.527-1.36-0.85-2.213-0.85s-1.629 0.323-2.215 0.852l0.003-0.003-1.125 0.999c-0.518 0.466-1.189 0.773-1.928 0.838l-0.013 0.001-1.472 0.121c-1.668 0.139-2.994 1.522-3.127 3.264l-0.119 1.536c-0.059 0.774-0.352 1.471-0.808 2.029l0.005-0.007-0.96 1.173c-0.507 0.625-0.815 1.43-0.815 2.307s0.307 1.682 0.82 2.314l-0.005-0.007 0.96 1.172c0.464 0.572 0.745 1.28 0.803 2.025l0.119 1.534c0.133 1.742 1.458 3.125 3.127 3.264l1.472 0.121c0.715 0.059 1.394 0.354 1.943 0.839l1.123 0.999c0.583 0.527 1.36 0.85 2.213 0.85s1.629-0.323 2.215-0.852l-0.003 0.003 1.125-0.999c0.518-0.466 1.189-0.773 1.928-0.838l0.013-0.001 1.472-0.121c1.668-0.139 2.994-1.522 3.127-3.264l0.119-1.534c0.057-0.747 0.338-1.456 0.805-2.025l0.958-1.172c0.507-0.625 0.815-1.43 0.815-2.307s-0.307-1.682-0.82-2.314l0.005 0.007-0.96-1.173c-0.45-0.552-0.743-1.248-0.802-2.010l-0.001-0.012-0.119-1.536c-0.133-1.742-1.458-3.125-3.127-3.264l-1.472-0.121c-0.753-0.066-1.424-0.373-1.946-0.842l0.003 0.003-1.12-0.999zM8.144 30.359v-4.649c0.297 0.078 0.606 0.13 0.919 0.155l1.472 0.123c0.233 0.020 0.44 0.114 0.602 0.259l-0.001-0.001 1.123 0.999c2.155 1.915 5.326 1.915 7.483 0l1.122-0.999c0.161-0.144 0.368-0.239 0.597-0.258l0.004-0 1.472-0.123c0.313-0.025 0.622-0.078 0.919-0.155v4.649c0 1.161-1.12 1.952-2.153 1.523l-5.12-2.135c-0.172-0.074-0.372-0.117-0.583-0.117s-0.411 0.043-0.593 0.121l0.010-0.004-5.12 2.135c-1.031 0.43-2.153-0.363-2.153-1.523z"></path>
</svg>
