<!-- Generated by IcoMoon.io -->
<svg version="1.1" xmlns="http://www.w3.org/2000/svg" width="32" height="32" viewBox="0 0 32 32">
<path d="M13.148 1.038c0.766-0.645 1.763-1.037 2.852-1.037s2.087 0.392 2.859 1.043l-0.007-0.006 1.003 0.843c0.258 0.217 0.587 0.359 0.947 0.388l0.006 0 1.312 0.103c2.151 0.166 3.859 1.86 4.044 3.99l0.001 0.016 0.105 1.296c0.030 0.356 0.172 0.674 0.39 0.923l-0.002-0.002 0.852 0.988c1.41 1.637 1.41 4.046 0 5.682l-0.855 0.99c-0.216 0.248-0.358 0.566-0.388 0.915l-0 0.006-0.103 1.294c-0.122 1.45-0.937 2.686-2.108 3.388l-0.020 0.011v7.442c0 1.925-1.954 3.188-3.703 2.496l-4.336-1.71-4.334 1.71c-1.751 0.693-3.703-0.572-3.703-2.496v-7.442c-1.192-0.712-2.008-1.949-2.129-3.383l-0.001-0.016-0.105-1.294c-0.030-0.356-0.172-0.673-0.39-0.923l0.002 0.002-0.853-0.99c-0.658-0.757-1.059-1.752-1.059-2.841s0.401-2.084 1.063-2.846l-0.005 0.005 0.855-0.988c0.216-0.248 0.358-0.566 0.388-0.915l0-0.006 0.103-1.296c0.187-2.147 1.894-3.841 4.031-4.006l0.015-0.001 1.312-0.103c0.366-0.029 0.695-0.171 0.956-0.391l-0.003 0.002 1.003-0.843zM10.704 22.544v6.697l4.297-1.698c0.64-0.252 1.355-0.252 1.997 0l4.297 1.696v-6.697l-0.487 0.039c-0.366 0.029-0.695 0.171-0.956 0.391l0.003-0.002-1.003 0.846c-0.766 0.645-1.763 1.037-2.852 1.037s-2.087-0.392-2.859-1.043l0.007 0.006-1.003-0.846c-0.258-0.217-0.587-0.359-0.947-0.388l-0.006-0-0.487-0.037zM17.088 3.138c-0.292-0.245-0.673-0.394-1.088-0.394s-0.796 0.149-1.091 0.397l0.003-0.002-1.001 0.841c-0.708 0.594-1.584 0.953-2.505 1.024l-1.31 0.103c-0.809 0.056-1.455 0.689-1.529 1.489l-0 0.006-0.105 1.296c-0.080 0.961-0.462 1.82-1.049 2.497l0.005-0.005-0.853 0.988c-0.244 0.279-0.393 0.647-0.393 1.049s0.149 0.77 0.394 1.051l-0.002-0.002 0.853 0.987c0.603 0.699 0.972 1.572 1.044 2.492l0.105 1.296c0.074 0.806 0.72 1.439 1.524 1.495l0.005 0 1.31 0.103c0.921 0.073 1.799 0.43 2.505 1.024l1.001 0.843c0.626 0.526 1.55 0.526 2.176 0l1.001-0.843c0.708-0.594 1.584-0.951 2.505-1.024l1.312-0.103c0.808-0.057 1.453-0.69 1.526-1.489l0-0.006 0.105-1.294c0.073-0.921 0.441-1.794 1.044-2.491l0.852-0.99c0.244-0.279 0.392-0.647 0.392-1.049s-0.148-0.77-0.394-1.051l0.002 0.002-0.852-0.988c-0.582-0.671-0.964-1.53-1.043-2.475l-0.001-0.016-0.105-1.296c-0.074-0.805-0.718-1.438-1.522-1.495l-0.005-0-1.312-0.101c-0.963-0.077-1.826-0.451-2.512-1.030l0.007 0.005-1.001-0.841z"></path>
</svg>
