<!-- Generated by IcoMoon.io -->
<svg version="1.1" xmlns="http://www.w3.org/2000/svg" width="32" height="32" viewBox="0 0 32 32">
<path d="M9.723 3.056c0.241-0.241 0.575-0.391 0.943-0.391s0.702 0.149 0.943 0.391v0l4.391 4.391 4.388-4.388c0.241-0.242 0.575-0.392 0.944-0.392 0.736 0 1.333 0.597 1.333 1.333 0 0.368-0.149 0.7-0.389 0.942l-3.726 3.726h5.449c2.208 0 4 1.79 4 4v4h1.332c0.736 0 1.332 0.597 1.332 1.332s-0.597 1.332-1.332 1.332h-1.332v4c0 2.209-1.791 4-4 4v0h-16c-2.209 0-4-1.791-4-4v0-4h-1.333c-0.736 0-1.333-0.597-1.333-1.332s0.597-1.332 1.333-1.332h1.333v-4c0-2.21 1.792-4 4-4h5.447l-3.723-3.726c-0.242-0.241-0.391-0.575-0.391-0.943s0.149-0.702 0.391-0.943v0zM6.668 23.332c0 0.736 0.594 1.335 1.332 1.335h16c0 0 0 0 0 0 0.736 0 1.332-0.597 1.332-1.332 0-0.001 0-0.002 0-0.003v0-10.665c0-0.001 0-0.002 0-0.002 0-0.736-0.597-1.332-1.332-1.332 0 0 0 0 0 0h-16c0 0 0 0 0 0-0.736 0-1.332 0.597-1.332 1.332 0 0.001 0 0.002 0 0.003v-0 10.665zM12 15.332c0.736 0 1.332 0.597 1.332 1.335v2.665c0 0.736-0.597 1.332-1.332 1.332s-1.332-0.597-1.332-1.332v-2.665c0-0.738 0.594-1.335 1.332-1.335zM20 15.332c0.736 0 1.332 0.597 1.332 1.335v2.665c0 0.736-0.597 1.332-1.332 1.332s-1.332-0.597-1.332-1.332v-2.665c0-0.738 0.594-1.335 1.332-1.335z"></path>
</svg>
