<!-- Generated by IcoMoon.io -->
<svg version="1.1" xmlns="http://www.w3.org/2000/svg" width="32" height="32" viewBox="0 0 32 32">
<path d="M6.025 4.777c0 0 0 0 0 0-0.688 0-1.246 0.558-1.246 1.246 0 0.001 0 0.002 0 0.002v-0 3.742c0 0.689-0.558 1.247-1.247 1.247s-1.247-0.558-1.247-1.247v0-3.742c0-2.064 1.675-3.739 3.739-3.739h3.742c0.688 0 1.246 0.558 1.246 1.246s-0.558 1.246-1.246 1.246h-3.742zM8.519 16c0-0.688 0.558-1.246 1.248-1.246h12.466c0.688 0 1.246 0.558 1.246 1.246s-0.558 1.246-1.246 1.246h-12.466c-0.001 0-0.002 0-0.002 0-0.688 0-1.246-0.558-1.246-1.246 0 0 0 0 0 0v0zM29.714 22.233c0-0.688-0.558-1.246-1.246-1.246s-1.246 0.558-1.246 1.246v0 3.742c0 0 0 0 0 0 0 0.688-0.558 1.246-1.246 1.246-0.001 0-0.002 0-0.002 0h-3.742c-0.689 0-1.247 0.558-1.247 1.247s0.558 1.247 1.247 1.247v0h3.742c2.064 0 3.739-1.675 3.739-3.739v-3.742zM20.988 3.532c0-0.686 0.558-1.246 1.246-1.246h3.742c2.064 0 3.739 1.675 3.739 3.739v3.742c0 0.688-0.558 1.246-1.246 1.246s-1.246-0.558-1.246-1.246v0-3.742c0 0 0 0 0 0 0-0.688-0.558-1.246-1.246-1.246-0.001 0-0.002 0-0.002 0h-3.742c0 0 0 0 0 0-0.688 0-1.246-0.558-1.246-1.246 0-0.001 0-0.002 0-0.002v0zM4.777 22.233c0-0.688-0.558-1.246-1.246-1.246s-1.246 0.558-1.246 1.246v0 3.742c0 2.064 1.675 3.739 3.739 3.739h3.742c0.688 0 1.246-0.558 1.246-1.246s-0.558-1.246-1.246-1.246v0h-3.742c0 0 0 0 0 0-0.688 0-1.246-0.558-1.246-1.246 0-0.001 0-0.002 0-0.002v0-3.742z"></path>
</svg>
