<!-- Generated by IcoMoon.io -->
<svg version="1.1" xmlns="http://www.w3.org/2000/svg" width="32" height="32" viewBox="0 0 32 32">
<path d="M1.333 6.668c0-2.21 1.792-4 4-4h21.335c2.208 0 4 1.79 4 4v6.665c0 1.026-0.386 1.959-1.019 2.668 0.633 0.708 1.019 1.641 1.019 2.668v6.665c0 2.209-1.791 4-4 4v0h-21.335c-2.209 0-4-1.791-4-4v0-6.665c0-1.026 0.386-1.959 1.019-2.668-0.632-0.702-1.019-1.637-1.019-2.661 0-0.002 0-0.004 0-0.006v0-6.665zM5.332 17.332c0 0 0 0 0 0-0.736 0-1.333 0.597-1.333 1.332 0 0.001 0 0.002 0 0.003v-0 6.665c0 0.736 0.597 1.335 1.333 1.335h21.335c0 0 0 0 0 0 0.736 0 1.332-0.597 1.332-1.332 0-0.001 0-0.002 0-0.003v0-6.665c0-0.001 0-0.002 0-0.003 0-0.736-0.597-1.332-1.332-1.332 0 0 0 0 0 0h-21.335zM26.668 14.668c0 0 0 0 0 0 0.736 0 1.332-0.597 1.332-1.332 0-0.001 0-0.002 0-0.003v0-6.665c0-0.001 0-0.002 0-0.003 0-0.736-0.597-1.332-1.332-1.332 0 0 0 0 0 0h-21.335c0 0 0 0 0 0-0.736 0-1.333 0.597-1.333 1.332 0 0.001 0 0.002 0 0.003v-0 6.665c0 0.738 0.597 1.335 1.333 1.335h21.335zM8.592 8.668c0.736 0 1.335 0.594 1.335 1.332v0.016c0 0.737-0.597 1.334-1.334 1.334s-1.334-0.597-1.334-1.334v0-0.016c0-0.736 0.597-1.332 1.332-1.332zM8.592 20.668c0.736 0 1.335 0.594 1.335 1.332v0.016c0 0.737-0.597 1.334-1.334 1.334s-1.334-0.597-1.334-1.334v0-0.016c0-0.736 0.597-1.332 1.332-1.332z"></path>
</svg>
