<!-- Generated by IcoMoon.io -->
<svg version="1.1" xmlns="http://www.w3.org/2000/svg" width="32" height="32" viewBox="0 0 32 32">
<path d="M5.332 2.667c-2.209 0-4 1.791-4 4v0 4.665c0 2.21 1.792 4 4 4h21.335c2.209 0 4-1.791 4-4v0-4.665c0-2.209-1.791-4-4-4v0h-21.335zM9.927 8.668v0.281c0 0 0 0 0 0 0 0.736-0.597 1.332-1.332 1.332-0.001 0-0.002 0-0.003 0h0c-0.736 0-1.332-0.864-1.332-1.6v0.251c0-0.736 0.597-1.332 1.332-1.332s1.335 0.332 1.335 1.067zM30.668 20.668c0-2.209-1.791-4-4-4v0h-21.335c-2.209 0-4 1.791-4 4v0 4.665c0 2.21 1.792 4 4 4h21.335c2.209 0 4-1.791 4-4v0-4.665zM9.927 22.933v0.016c0 0.737-0.597 1.334-1.334 1.334s-1.334-0.597-1.334-1.334v0-0.016c0-0.737 0.597-1.334 1.334-1.334s1.334 0.597 1.334 1.334v0z"></path>
</svg>
