<!-- Generated by IcoMoon.io -->
<svg version="1.1" xmlns="http://www.w3.org/2000/svg" width="32" height="32" viewBox="0 0 32 32">
<path d="M10.857 5.943c0-2.082 1.772-3.657 3.81-3.657h2.668c2.039 0 3.81 1.575 3.81 3.657 0 0.722 0.773 1.182 1.406 0.837l0.142-0.078c1.783-0.972 4.094-0.418 5.166 1.326l1.33 2.178c1.097 1.79 0.416 4.046-1.403 5.036-0.27 0.15-0.451 0.433-0.451 0.759s0.18 0.609 0.446 0.756l0.004 0.002c1.819 0.99 2.501 3.246 1.403 5.036l-1.332 2.176c-1.070 1.746-3.378 2.299-5.163 1.328l-0.142-0.078c-0.131-0.073-0.288-0.116-0.455-0.116-0.525 0-0.951 0.426-0.951 0.951 0 0.001 0 0.001 0 0.002v-0c0 2.082-1.772 3.657-3.81 3.657h-2.668c-2.039 0-3.808-1.575-3.808-3.657 0-0.001 0-0.002 0-0.003 0-0.525-0.426-0.951-0.951-0.951-0.168 0-0.325 0.043-0.462 0.119l0.005-0.002-0.142 0.078c-1.783 0.972-4.094 0.421-5.163-1.326l-1.333-2.178c-1.097-1.79-0.416-4.046 1.403-5.036 0.271-0.15 0.451-0.433 0.451-0.759s-0.18-0.609-0.446-0.756l-0.004-0.002c-1.819-0.99-2.501-3.246-1.403-5.036l1.333-2.176c1.070-1.746 3.381-2.299 5.166-1.328l0.14 0.078c0.132 0.074 0.289 0.117 0.457 0.117 0.525 0 0.951-0.426 0.951-0.951 0-0.001 0-0.002 0-0.003v0zM14.67 4.572c-0.905 0-1.522 0.677-1.522 1.371 0 0.001 0 0.001 0 0.002 0 1.787-1.449 3.237-3.237 3.237-0.568 0-1.102-0.146-1.566-0.404l0.017 0.008-0.142-0.078c-0.766-0.416-1.719-0.144-2.121 0.514l-1.333 2.176c-0.377 0.617-0.183 1.438 0.549 1.836 0.986 0.545 1.642 1.579 1.642 2.766s-0.657 2.22-1.626 2.757l-0.016 0.008c-0.732 0.398-0.926 1.218-0.549 1.836l1.333 2.176c0.402 0.658 1.355 0.93 2.121 0.514l0.142-0.078c0.447-0.248 0.98-0.394 1.547-0.394 1.787 0 3.237 1.449 3.237 3.237 0 0 0 0 0 0.001v-0c0 0.695 0.617 1.372 1.522 1.371h2.668c0.905 0 1.525-0.677 1.524-1.371 0-0 0-0.001 0-0.001 0-1.788 1.449-3.237 3.237-3.237 0.567 0 1.101 0.146 1.564 0.402l-0.017-0.008 0.142 0.078c0.768 0.416 1.719 0.144 2.121-0.514l1.335-2.176c0.377-0.617 0.183-1.438-0.549-1.836-0.986-0.545-1.642-1.579-1.642-2.766s0.657-2.22 1.626-2.757l0.016-0.008c0.732-0.398 0.926-1.218 0.549-1.836l-1.335-2.176c-0.402-0.658-1.353-0.93-2.121-0.514l-0.142 0.078c-0.447 0.248-0.98 0.394-1.547 0.394-1.788 0-3.237-1.449-3.237-3.237 0-0 0-0.001 0-0.001v0c0-0.695-0.617-1.372-1.524-1.371h-2.668zM16.005 12.953c-1.683 0-3.047 1.364-3.047 3.047s1.364 3.047 3.047 3.047v0c1.683 0 3.047-1.364 3.047-3.047s-1.364-3.047-3.047-3.047v0zM10.668 16c0-2.946 2.388-5.334 5.334-5.334s5.334 2.388 5.334 5.334v0c0 2.946-2.388 5.334-5.334 5.334s-5.334-2.388-5.334-5.334v0z"></path>
</svg>
