<!-- Generated by IcoMoon.io -->
<svg version="1.1" xmlns="http://www.w3.org/2000/svg" width="32" height="32" viewBox="0 0 32 32">
<path d="M14.546 2.286h2.907c1.607 0 2.91 1.228 2.91 2.743 0 1.262 1.024 2.285 2.286 2.285 0.401 0 0.777-0.103 1.104-0.284l-0.012 0.006 0.153-0.084c1.394-0.757 3.17-0.308 3.975 1.006l1.454 2.375c0.805 1.312 0.327 2.988-1.065 3.746-0.685 0.379-1.141 1.097-1.141 1.922s0.456 1.543 1.13 1.916l0.011 0.006c1.394 0.759 1.87 2.434 1.065 3.749l-1.454 2.375c-0.802 1.312-2.583 1.76-3.975 1.003l-0.153-0.084c-0.316-0.175-0.692-0.278-1.093-0.278-1.262 0-2.285 1.023-2.286 2.285v0c0 1.515-1.303 2.743-2.91 2.743h-2.908c-1.607 0-2.91-1.227-2.91-2.743-0-1.262-1.024-2.285-2.286-2.285-0.4 0-0.777 0.103-1.104 0.284l0.012-0.006-0.153 0.084c-1.394 0.757-3.17 0.308-3.975-1.006l-1.454-2.375c-0.805-1.312-0.327-2.988 1.065-3.746 0.685-0.379 1.141-1.097 1.141-1.922s-0.456-1.543-1.13-1.916l-0.011-0.006c-1.394-0.759-1.87-2.434-1.065-3.749l1.454-2.375c0.805-1.312 2.583-1.76 3.975-1.003l0.153 0.084c0.316 0.175 0.692 0.278 1.092 0.278 1.262 0 2.285-1.023 2.286-2.285v-0c0-1.515 1.303-2.743 2.91-2.743zM16 20.572c2.525 0 4.572-2.047 4.572-4.572s-2.047-4.572-4.572-4.572v0c-2.525 0-4.572 2.047-4.572 4.572s2.047 4.572 4.572 4.572v0z"></path>
</svg>
