<!-- Generated by IcoMoon.io -->
<svg version="1.1" xmlns="http://www.w3.org/2000/svg" width="32" height="32" viewBox="0 0 32 32">
<path d="M18.668 3.932c0-0.734 0.594-1.33 1.332-1.33h8c0.736 0 1.332 0.594 1.332 1.333v8c0 0.736-0.597 1.332-1.332 1.332s-1.332-0.597-1.332-1.332v-4.768l-8.523 8.574c-0.241 0.243-0.576 0.393-0.945 0.393-0.736 0-1.333-0.597-1.333-1.333 0-0.367 0.148-0.699 0.387-0.939l8.541-8.594h-4.795c-0.736 0-1.332-0.597-1.332-1.333v0zM5.73 5.728c-0.32 0.32-0.398 0.599-0.398 0.672v19.132c0 0.108 0.092 0.414 0.396 0.74 0.311 0.334 0.567 0.395 0.606 0.396h19.266c0.073 0 0.354-0.078 0.672-0.396 0.318-0.32 0.395-0.599 0.396-0.672v-5.95c0-0.736 0.597-1.332 1.332-1.332s1.332 0.597 1.332 1.332v5.95c0 1.033-0.572 1.952-1.175 2.558-0.606 0.606-1.527 1.175-2.558 1.175h-19.268c-1.063 0-1.975-0.619-2.556-1.243-0.585-0.631-1.108-1.554-1.108-2.555v-19.134c0-1.033 0.572-1.952 1.175-2.558 0.606-0.606 1.525-1.175 2.558-1.175h5.6c0.736 0 1.332 0.597 1.332 1.332s-0.597 1.332-1.332 1.332h-5.6c-0.073 0-0.354 0.078-0.672 0.396z"></path>
</svg>
