<!-- Generated by IcoMoon.io -->
<svg version="1.1" xmlns="http://www.w3.org/2000/svg" width="32" height="32" viewBox="0 0 32 32">
<path d="M29.714 7.086c0 0 0 0 0 0.001 0 2.651-2.149 4.8-4.8 4.8-1.506 0-2.85-0.694-3.73-1.779l-0.007-0.009c-0.026 0.017-0.058 0.035-0.090 0.052l-0.006 0.003-9.241 4.619c-0.027 0.014-0.060 0.030-0.094 0.043l-0.007 0.002c0.094 0.355 0.148 0.763 0.148 1.183s-0.054 0.828-0.155 1.216l0.007-0.033c0.034 0.012 0.068 0.027 0.101 0.043l9.241 4.619c0.038 0.019 0.070 0.037 0.1 0.057l-0.004-0.002c0.887-1.094 2.231-1.788 3.738-1.788 2.651 0 4.8 2.149 4.8 4.8s-2.149 4.8-4.8 4.8c-2.651 0-4.8-2.149-4.8-4.8 0-0.42 0.054-0.828 0.155-1.216l-0.007 0.033c-0.042-0.015-0.076-0.030-0.109-0.046l0.006 0.003-9.241-4.619c-0.038-0.019-0.070-0.038-0.1-0.057l0.004 0.002c-0.887 1.094-2.231 1.788-3.737 1.788-2.651 0-4.8-2.149-4.8-4.8s2.149-4.8 4.8-4.8c1.506 0 2.85 0.694 3.73 1.779l0.007 0.009c0.026-0.017 0.058-0.036 0.090-0.052l0.006-0.003 9.241-4.619c0.026-0.014 0.060-0.030 0.094-0.043l0.007-0.002c-0.093-0.353-0.146-0.758-0.146-1.176 0-2.651 2.149-4.8 4.8-4.8 2.649 0 4.797 2.146 4.8 4.794v0z"></path>
</svg>
