<!-- Generated by IcoMoon.io -->
<svg version="1.1" xmlns="http://www.w3.org/2000/svg" width="32" height="32" viewBox="0 0 32 32">
<path d="M13.518 0.583l-7.678 3.753c-2.222 1.088-3.687 3.52-3.543 6.188 0.548 10.437 3.328 15.031 10.544 20.407 0.87 0.667 1.974 1.069 3.171 1.069s2.302-0.402 3.184-1.078l-0.012 0.009c7.239-5.403 9.92-10.064 10.519-20.37 0.158-2.686-1.312-5.143-3.547-6.238l-7.648-3.739c-0.728-0.367-1.586-0.582-2.495-0.582s-1.767 0.215-2.527 0.597l0.032-0.015zM16 21.332c0.737 0 1.334 0.597 1.334 1.334s-0.597 1.334-1.334 1.334v0c-0.737 0-1.334-0.597-1.334-1.334s0.597-1.334 1.334-1.334v0zM15.001 9.332c0.027-0.531 0.465-0.951 1-0.951s0.973 0.42 1 0.949l0 0.002v9.335c0 0.552-0.448 1-1 1s-1-0.448-1-1v-9.335z"></path>
</svg>
