<!-- Generated by IcoMoon.io -->
<svg version="1.1" xmlns="http://www.w3.org/2000/svg" width="32" height="32" viewBox="0 0 32 32">
<path d="M13.518 0.583l-7.678 3.753c-2.222 1.088-3.687 3.52-3.543 6.188 0.548 10.437 3.328 15.031 10.544 20.407 0.87 0.667 1.974 1.069 3.171 1.069s2.302-0.402 3.184-1.078l-0.012 0.009c7.239-5.403 9.92-10.064 10.519-20.37 0.158-2.686-1.312-5.143-3.547-6.238l-7.648-3.739c-0.728-0.367-1.586-0.582-2.495-0.582s-1.767 0.215-2.527 0.597l0.032-0.015zM20.658 12.583c0.416 0.361 0.457 0.994 0.093 1.408l-3.826 4.375c-0.43 0.489-1.056 0.797-1.755 0.797-0.553 0-1.061-0.193-1.461-0.514l0.005 0.003-2.336-1.87c-0.23-0.185-0.376-0.466-0.376-0.782 0-0.552 0.448-1 1-1 0.237 0 0.455 0.082 0.626 0.22l-0.002-0.002 2.338 1.87c0.137 0.114 0.343 0.094 0.457-0.041l3.829-4.372c0.363-0.416 0.994-0.457 1.41-0.092z"></path>
</svg>
