<!-- Generated by IcoMoon.io -->
<svg version="1.1" xmlns="http://www.w3.org/2000/svg" width="32" height="32" viewBox="0 0 32 32">
<path d="M20.903 12.302c0.288 0.253 0.468 0.621 0.468 1.032 0 0.346-0.128 0.662-0.339 0.903l0.001-0.002-3.828 4.375c-0.498 0.568-1.225 0.924-2.036 0.924-0.642 0-1.232-0.224-1.695-0.597l0.005 0.004-2.336-1.87c-0.315-0.254-0.515-0.639-0.515-1.072 0-0.758 0.614-1.372 1.372-1.372 0.325 0 0.625 0.113 0.86 0.303l-0.003-0.002 2.308 1.849 3.801-4.348c0.253-0.288 0.621-0.468 1.032-0.468 0.347 0 0.664 0.129 0.905 0.341l-0.002-0.001zM17.646 3.132c-0.476-0.245-1.038-0.389-1.634-0.389s-1.158 0.144-1.655 0.398l0.020-0.010-6.914 3.433c-1.49 0.741-2.53 2.443-2.43 4.359 0.242 4.67 0.972 7.886 2.341 10.496 1.367 2.606 3.44 4.741 6.61 7.138 1.232 0.933 2.823 0.933 4.050 0 3.175-2.407 5.232-4.56 6.585-7.17 1.36-2.619 2.078-5.822 2.341-10.439 0.112-1.932-0.93-3.65-2.432-4.397l-6.883-3.419zM13.159 0.677c0.832-0.426 1.815-0.676 2.856-0.676s2.024 0.25 2.892 0.693l-0.036-0.017 6.88 3.419c2.526 1.252 4.123 4.025 3.954 7.010-0.277 4.805-1.035 8.443-2.647 11.545-1.614 3.111-4.018 5.559-7.36 8.091-1.007 0.784-2.29 1.256-3.683 1.256s-2.676-0.473-3.697-1.267l0.014 0.010c-3.326-2.514-5.751-4.939-7.383-8.048-1.625-3.104-2.395-6.759-2.651-11.63-0.153-2.967 1.445-5.712 3.952-6.955l6.908-3.433z"></path>
</svg>
