<!-- Generated by IcoMoon.io -->
<svg version="1.1" xmlns="http://www.w3.org/2000/svg" width="32" height="32" viewBox="0 0 32 32">
<path d="M17.372 9.257c0-0.758-0.614-1.372-1.372-1.372s-1.372 0.614-1.372 1.372v0 9.44c0 0.758 0.614 1.372 1.372 1.372s1.372-0.614 1.372-1.372v0-9.44zM16 21.332c-0.737 0-1.334 0.597-1.334 1.334s0.597 1.334 1.334 1.334v0c0.737 0 1.334-0.597 1.334-1.334s-0.597-1.334-1.334-1.334v0zM18.83 1.76c-0.827-0.389-1.795-0.616-2.817-0.616s-1.991 0.227-2.859 0.633l0.041-0.017-6.91 3.161c-2.487 1.141-4.151 3.696-3.988 6.539 0.254 4.51 1.028 7.913 2.674 10.802 1.643 2.887 4.080 5.127 7.401 7.447 1.014 0.718 2.277 1.148 3.64 1.148s2.626-0.43 3.66-1.162l-0.020 0.013c3.337-2.336 5.755-4.597 7.383-7.488 1.625-2.889 2.388-6.272 2.665-10.72 0.178-2.859-1.486-5.445-3.989-6.592l-6.882-3.15zM14.336 4.252c0.492-0.232 1.068-0.367 1.675-0.367s1.184 0.135 1.7 0.377l-0.025-0.010 6.88 3.154c1.429 0.654 2.403 2.072 2.403 3.716 0 0.073-0.002 0.146-0.006 0.218l0-0.010c-0.265 4.238-0.976 7.161-2.32 9.545-1.342 2.384-3.387 4.366-6.565 6.585-0.576 0.409-1.294 0.654-2.069 0.654s-1.492-0.245-2.080-0.661l0.011 0.008c-3.172-2.215-5.234-4.176-6.588-6.556-1.355-2.377-2.080-5.31-2.32-9.598-0.003-0.055-0.004-0.12-0.004-0.185 0-1.64 0.971-3.053 2.37-3.695l0.025-0.010 6.91-3.166z"></path>
</svg>
