<!-- Generated by IcoMoon.io -->
<svg version="1.1" xmlns="http://www.w3.org/2000/svg" width="32" height="32" viewBox="0 0 32 32">
<path d="M4.907 8.242c0.514-3.191 3.207-5.579 6.421-5.579h9.344c3.212 0 5.904 2.388 6.421 5.577l1.463 9.052c0.011 0.064 0.017 0.137 0.017 0.212 0 0.737-0.597 1.334-1.334 1.334-0.662 0-1.21-0.482-1.316-1.113l-0.001-0.008-1.463-9.052c-0.318-1.954-1.943-3.335-3.788-3.335h-9.344c-1.847 0-3.472 1.381-3.787 3.337l-2.156 13.337c-0.402 2.489 1.458 4.665 3.787 4.665h7.648c0.737 0 1.334 0.597 1.334 1.334s-0.597 1.334-1.334 1.334h-7.648c-4.068 0-7.070-3.744-6.423-7.758l2.158-13.337zM12.119 6.663c0.736 0 1.335 0.599 1.335 1.335v1.332c0 1.513 1.175 2.67 2.546 2.67 1.369 0 2.546-1.154 2.546-2.668v-1.332c0.032-0.712 0.617-1.277 1.334-1.277s1.302 0.565 1.334 1.274l0 0.003v1.333c0 2.91-2.297 5.335-5.214 5.335-2.919 0-5.214-2.425-5.214-5.335v-1.332c0-0.736 0.594-1.335 1.332-1.335zM28.958 22.325c0.235-0.24 0.38-0.57 0.38-0.933 0-0.737-0.597-1.334-1.334-1.334-0.374 0-0.712 0.154-0.954 0.402l-0 0-1.813 1.854-1.815-1.854c-0.242-0.247-0.58-0.401-0.953-0.401-0.736 0-1.334 0.597-1.334 1.334 0 0.363 0.145 0.692 0.381 0.933l-0-0 1.854 1.897-1.854 1.897c-0.21 0.235-0.338 0.546-0.338 0.888 0 0.737 0.598 1.335 1.335 1.335 0.352 0 0.672-0.136 0.91-0.358l-0.001 0.001 1.815-1.856 1.813 1.856c0.242 0.248 0.581 0.402 0.954 0.402 0.737 0 1.334-0.597 1.334-1.334 0-0.363-0.145-0.692-0.38-0.933l0 0-1.856-1.897 1.856-1.897z"></path>
</svg>
