<!-- Generated by IcoMoon.io -->
<svg version="1.1" xmlns="http://www.w3.org/2000/svg" width="32" height="32" viewBox="0 0 32 32">
<path d="M10.809 2.663h10.382c2.812 0 5.209 2.096 5.671 4.953l2.396 14.818c0.585 3.614-2.119 6.903-5.671 6.903h-15.172c-3.552 0-6.256-3.289-5.671-6.903l2.396-14.818c0.462-2.857 2.859-4.953 5.671-4.953zM16 14.148c2.976 0 5.39-2.489 5.39-5.559v-1.481c0-0.004 0-0.009 0-0.014 0-0.599-0.481-1.087-1.078-1.097h-0.001c-0.597 0.012-1.077 0.498-1.077 1.097 0 0.005 0 0.010 0 0.014v-0.001 1.481c0 1.842-1.449 3.337-3.234 3.337s-3.234-1.495-3.234-3.337v-1.481c0-0.004 0-0.009 0-0.014 0-0.599-0.481-1.087-1.078-1.097h-0.001c-0.597 0.012-1.077 0.498-1.077 1.097 0 0.005 0 0.010 0 0.014v-0.001 1.481c0 3.070 2.414 5.559 5.39 5.559z"></path>
</svg>
