<!-- Generated by IcoMoon.io -->
<svg version="1.1" xmlns="http://www.w3.org/2000/svg" width="32" height="32" viewBox="0 0 32 32">
<path d="M20.732 2.663h-10.126c-2.738 0-5.079 2.096-5.529 4.953l-2.334 14.818c-0.572 3.614 2.066 6.903 5.532 6.903h7.399c0.773 0 1.401-0.663 1.401-1.481v-4.446c0-3.275 2.51-5.929 5.607-5.929h3.486c0.866 0 1.525-0.823 1.383-1.726l-1.285-8.139c-0.45-2.857-2.788-4.953-5.531-4.953zM20.926 8.59c0 3.070-2.354 5.559-5.257 5.559s-5.257-2.489-5.257-5.559v-1.481c0-0.615 0.473-1.111 1.051-1.111 0.583 0 1.052 0.496 1.052 1.111v1.481c0 1.842 1.412 3.337 3.154 3.337 1.744 0 3.154-1.495 3.154-3.337v-1.481c0-0.615 0.471-1.111 1.052-1.111s1.052 0.496 1.051 1.111v1.481zM28.286 24.521c0.581 0 1.052-0.498 1.052-1.111 0-0.009 0-0.020 0-0.030 0-0.587-0.467-1.065-1.050-1.083l-0.002-0h-8.411c-0.585 0.017-1.052 0.496-1.052 1.083 0 0.011 0 0.021 0 0.032l-0-0.002c0 0.613 0.471 1.111 1.052 1.111h8.411z"></path>
</svg>
