<!-- Generated by IcoMoon.io -->
<svg version="1.1" xmlns="http://www.w3.org/2000/svg" width="32" height="32" viewBox="0 0 32 32">
<path d="M4.91 8.245c0.517-3.188 3.207-5.577 6.418-5.577h9.342c3.214 0 5.904 2.388 6.421 5.577l2.153 13.333c0.649 4.014-2.354 7.758-6.418 7.758h-13.652c-4.064 0-7.067-3.744-6.418-7.758l2.155-13.332zM11.328 5.332c-1.845 0-3.47 1.381-3.785 3.337l-2.155 13.332c-0.402 2.489 1.458 4.663 3.785 4.663h13.652c2.329 0 4.19-2.174 3.788-4.663l-2.155-13.332c-0.315-1.957-1.943-3.337-3.788-3.337h-9.342zM12.119 6.668c0.738 0 1.335 0.594 1.335 1.332v1.332c0 1.513 1.175 2.668 2.546 2.668 1.367 0 2.546-1.154 2.546-2.668v-1.332c0-0.737 0.597-1.334 1.334-1.334s1.334 0.597 1.334 1.334v0 1.332c-0.002 2.908-2.297 5.335-5.214 5.335s-5.212-2.428-5.212-5.335v-1.332c0-0.736 0.594-1.332 1.33-1.332z"></path>
</svg>
