<!-- Generated by IcoMoon.io -->
<svg version="1.1" xmlns="http://www.w3.org/2000/svg" width="32" height="32" viewBox="0 0 32 32">
<path d="M19.831 2.663h-9.621c-2.603 0-4.825 2.096-5.255 4.953l-2.217 14.818c-0.542 3.614 1.961 6.903 5.253 6.903h7.031c0.734 0 1.33-0.663 1.33-1.481v-4.446c0-3.275 2.386-5.929 5.326-5.929h3.314c0.823 0 1.447-0.823 1.312-1.726l-1.218-8.139c-0.43-2.857-2.652-4.953-5.257-4.953zM20.014 8.59c0 3.070-2.235 5.559-4.994 5.559-2.757 0-4.994-2.489-4.994-5.559v-1.481c0-0.615 0.448-1.111 0.999-1.111 0.553 0 0.999 0.496 0.999 1.111v1.481c0 1.842 1.342 3.337 2.997 3.337s2.997-1.495 2.997-3.337v-1.481c0-0.615 0.448-1.111 0.999-1.111 0.553 0 0.999 0.496 0.999 1.111v1.481zM29.090 21.177c0.154-0.2 0.248-0.454 0.248-0.73 0-0.326-0.13-0.622-0.341-0.838l0 0c-0.169-0.17-0.402-0.275-0.66-0.275-0.307 0-0.579 0.149-0.748 0.378l-0.002 0.003-3.822 4.859c-0.057 0.076-0.148 0.125-0.249 0.125-0.080 0-0.153-0.030-0.208-0.080l0 0-2.336-2.080c-0.165-0.15-0.385-0.241-0.626-0.241-0.323 0-0.608 0.164-0.775 0.414l-0.002 0.003c-0.343 0.48-0.274 1.179 0.155 1.561l2.334 2.080c0.974 0.866 2.388 0.727 3.211-0.32l3.822-4.859z"></path>
</svg>
