<!-- Generated by IcoMoon.io -->
<svg version="1.1" xmlns="http://www.w3.org/2000/svg" width="32" height="32" viewBox="0 0 32 32">
<path d="M28.839 21.856c0.304 0.243 0.497 0.614 0.497 1.031 0 0.323-0.116 0.619-0.309 0.848l0.002-0.002-3.652 4.375c-0.482 0.578-1.202 0.942-2.007 0.942-0.641 0-1.227-0.231-1.681-0.614l0.004 0.003-2.231-1.87c-0.292-0.243-0.477-0.607-0.477-1.014 0-0.333 0.123-0.637 0.327-0.869l-0.001 0.001c0.253-0.287 0.622-0.467 1.033-0.467 0.337 0 0.645 0.121 0.885 0.322l-0.002-0.002 2.126 1.783 3.577-4.283c0.254-0.299 0.63-0.487 1.050-0.487 0.327 0 0.627 0.114 0.863 0.304l-0.003-0.002zM11.328 2.663c-3.214 0-5.906 2.388-6.423 5.577l-2.153 13.339c-0.649 4.014 2.354 7.758 6.421 7.758h7.648c0.712-0.032 1.277-0.617 1.277-1.334s-0.565-1.302-1.274-1.334l-0.003-0h-7.648c-2.329 0-4.19-2.176-3.787-4.665l2.156-13.337c0.315-1.957 1.943-3.337 3.787-3.337h9.344c1.845 0 3.47 1.381 3.788 3.337l1.463 9.049c0.106 0.64 0.655 1.121 1.317 1.121 0.737 0 1.334-0.597 1.334-1.334 0-0.075-0.006-0.149-0.018-0.22l0.001 0.008-1.463-9.052c-0.517-3.188-3.207-5.577-6.423-5.577h-9.339zM13.454 7.998c0-0.737-0.597-1.334-1.334-1.334s-1.334 0.597-1.334 1.334v0 1.332c0 2.91 2.295 5.335 5.212 5.335 2.919 0 5.216-2.425 5.216-5.335v-1.33c0-0.737-0.597-1.334-1.334-1.334s-1.334 0.597-1.334 1.334v0 1.332c0 1.511-1.175 2.668-2.546 2.668-1.369 0-2.546-1.154-2.546-2.668v-1.332z"></path>
</svg>
