<!-- Generated by IcoMoon.io -->
<svg version="1.1" xmlns="http://www.w3.org/2000/svg" width="32" height="32" viewBox="0 0 32 32">
<path d="M21.607 2.663h-10.613c-2.914 0.011-5.329 2.135-5.794 4.919l-0.005 0.034-2.45 14.818c-0.599 3.614 2.165 6.903 5.797 6.903h7.758c0.812 0 1.47-0.663 1.47-1.481v-4.446c-0-0.007-0-0.016-0-0.025 0-3.252 2.629-5.89 5.878-5.904h3.654c0.91 0 1.6-0.823 1.451-1.726l-1.346-8.139c-0.468-2.819-2.884-4.944-5.798-4.953h-0.001zM21.813 8.59c0 0.007 0 0.016 0 0.025 0 3.050-2.467 5.523-5.514 5.534h-0.001c-3.045-0.014-5.509-2.486-5.509-5.534 0-0.009 0-0.018 0-0.026v0.001-1.481c0-0.615 0.494-1.111 1.102-1.111s1.102 0.496 1.102 1.111v1.481c0 1.842 1.481 3.337 3.307 3.337s3.308-1.495 3.308-3.337v-1.481c0-0.615 0.494-1.111 1.102-1.111s1.102 0.496 1.102 1.111v1.481zM29.015 22.532c0.199-0.202 0.322-0.479 0.322-0.785s-0.123-0.583-0.322-0.785l0 0c-0.199-0.201-0.475-0.325-0.78-0.325s-0.581 0.124-0.779 0.325l-0 0-2.338 2.357-2.338-2.357c-0.199-0.201-0.475-0.325-0.779-0.325s-0.58 0.124-0.779 0.325l-0 0c-0.199 0.202-0.323 0.48-0.323 0.786s0.123 0.584 0.323 0.787l-0-0 2.338 2.357-2.338 2.357c-0.199 0.202-0.322 0.48-0.322 0.786s0.123 0.584 0.323 0.786l-0-0c0.199 0.201 0.475 0.325 0.779 0.325s0.58-0.124 0.779-0.325l0-0 2.338-2.357 2.338 2.357c0.199 0.201 0.475 0.325 0.78 0.325s0.581-0.124 0.779-0.325l0-0c0.2-0.202 0.323-0.48 0.323-0.786s-0.123-0.584-0.323-0.786l0 0-2.341-2.357 2.338-2.359z"></path>
</svg>
