<!-- Generated by IcoMoon.io -->
<svg version="1.1" xmlns="http://www.w3.org/2000/svg" width="32" height="32" viewBox="0 0 32 32">
<path d="M20.732 2.663h-10.126c-2.738 0-5.079 2.012-5.529 4.754l-2.334 14.228c-0.572 3.47 2.066 6.628 5.532 6.629h7.399c0.775-0.006 1.401-0.636 1.401-1.412 0-0.004-0-0.008-0-0.012v0.001-4.27c0-3.143 2.51-5.692 5.607-5.692h3.486c0.777-0.008 1.403-0.639 1.403-1.417 0-0.085-0.007-0.168-0.022-0.249l0.001 0.009-1.285-7.815c-0.438-2.699-2.744-4.738-5.53-4.754h-0.002zM20.926 8.354c0 2.946-2.354 5.335-5.257 5.335s-5.257-2.388-5.257-5.335v-1.424c0-0.59 0.473-1.067 1.051-1.067 0.583 0 1.052 0.48 1.052 1.067v1.424c0 1.767 1.415 3.2 3.154 3.2 1.745-0.013 3.154-1.43 3.154-3.177 0-0.008-0-0.016-0-0.024v0.001-1.424c0-0.59 0.471-1.067 1.052-1.067s1.052 0.48 1.051 1.067v1.424zM25.132 19.735c0-0.003 0-0.006 0-0.009 0-0.582-0.47-1.055-1.051-1.058h-0c-0.582 0.004-1.052 0.476-1.052 1.058 0 0.003 0 0.006 0 0.010v-0 3.2h-3.154c-0.582 0.004-1.052 0.476-1.052 1.058 0 0.003 0 0.006 0 0.009v-0c0 0.59 0.471 1.067 1.052 1.067h3.154v3.2c0 0.59 0.471 1.067 1.052 1.067s1.052-0.478 1.052-1.067v-3.2h3.154c0.581 0 1.052-0.48 1.052-1.067 0-0.003 0-0.006 0-0.009 0-0.582-0.47-1.055-1.051-1.058h-3.154v-3.2z"></path>
</svg>
