<!-- Generated by IcoMoon.io -->
<svg version="1.1" xmlns="http://www.w3.org/2000/svg" width="32" height="32" viewBox="0 0 32 32">
<path d="M4.907 8.24c0.514-3.188 3.207-5.577 6.421-5.577h9.344c3.214 0 5.904 2.388 6.421 5.577l1.463 9.052c0.006 0.046 0.009 0.099 0.009 0.152 0 0.737-0.598 1.335-1.335 1.335-0.641 0-1.176-0.451-1.305-1.053l-0.002-0.009-1.463-9.052c-0.315-1.954-1.943-3.337-3.788-3.337h-9.344c-1.847 0-3.472 1.383-3.787 3.337l-2.158 13.34c-0.402 2.489 1.461 4.665 3.79 4.665h7.648c0.712 0.032 1.277 0.617 1.277 1.334s-0.565 1.302-1.274 1.334l-0.003 0h-7.648c-4.068 0-7.072-3.744-6.423-7.758l2.158-13.339zM12.119 6.663c0.736 0 1.332 0.599 1.333 1.335v1.332c0 1.513 1.179 2.668 2.548 2.668s2.546-1.154 2.546-2.668v-1.33c-0.001-0.017-0.001-0.037-0.001-0.058 0-0.737 0.598-1.335 1.335-1.335s1.335 0.598 1.335 1.335c0 0.020-0 0.041-0.001 0.061l0-0.003v1.332c0 2.908-2.295 5.335-5.214 5.335s-5.216-2.428-5.216-5.335v-1.332c0-0.736 0.599-1.335 1.335-1.335zM20.53 21.554c-0.018-0.001-0.040-0.001-0.061-0.001-0.737 0-1.335 0.598-1.335 1.335s0.598 1.335 1.335 1.335c0.022 0 0.043-0 0.064-0.002l-0.003 0h7.474c0.71-0.034 1.274-0.618 1.274-1.334s-0.563-1.3-1.271-1.333l-0.003-0h-7.474z"></path>
</svg>
