<!-- Generated by IcoMoon.io -->
<svg version="1.1" xmlns="http://www.w3.org/2000/svg" width="32" height="32" viewBox="0 0 32 32">
<path d="M22.313 22.361l0.336 0.352c0.244 0.256 0.588 0.415 0.969 0.415s0.725-0.159 0.969-0.414l0-0.001 0.336-0.352c0.175-0.193 0.427-0.314 0.707-0.314s0.532 0.121 0.707 0.314l0.001 0.001c0.204 0.222 0.33 0.52 0.33 0.847s-0.125 0.625-0.331 0.848l0.001-0.001-2.348 2.462c-0.091 0.104-0.224 0.169-0.373 0.169s-0.281-0.065-0.372-0.168l-0-0.001-2.347-2.462c-0.203-0.222-0.328-0.519-0.328-0.846s0.125-0.624 0.329-0.847l-0.001 0.001c0.175-0.194 0.428-0.316 0.708-0.316s0.533 0.121 0.708 0.315l0.001 0.001zM23.618 20.007c-0.566-0.382-1.264-0.61-2.015-0.61-1.041 0-1.979 0.437-2.642 1.138l-0.002 0.002c-0.657 0.695-1.061 1.636-1.061 2.671s0.404 1.975 1.063 2.673l-0.002-0.002 2.348 2.462c0.581 0.614 1.401 0.997 2.311 0.997s1.73-0.382 2.309-0.995l0.001-0.002 2.348-2.462c0.657-0.695 1.061-1.636 1.061-2.671s-0.404-1.975-1.063-2.673l0.002 0.002c-0.664-0.703-1.603-1.141-2.645-1.141-0.75 0-1.448 0.227-2.027 0.617l0.013-0.008zM11.328 2.663c-3.214 0-5.906 2.388-6.423 5.577l-2.153 13.339c-0.649 4.014 2.354 7.758 6.421 7.758h7.648c0.712-0.032 1.277-0.617 1.277-1.334s-0.565-1.302-1.274-1.334l-0.003-0h-7.648c-2.329 0-4.19-2.176-3.787-4.665l2.156-13.337c0.315-1.957 1.943-3.337 3.787-3.337h9.344c1.845 0 3.47 1.381 3.788 3.337l1.463 9.049c0.106 0.64 0.655 1.121 1.317 1.121 0.737 0 1.334-0.597 1.334-1.334 0-0.075-0.006-0.149-0.018-0.22l0.001 0.008-1.463-9.052c-0.517-3.188-3.207-5.577-6.423-5.577h-9.339zM13.454 7.998c0-0.737-0.597-1.334-1.334-1.334s-1.334 0.597-1.334 1.334v0 1.332c0 2.91 2.295 5.335 5.212 5.335 2.919 0 5.216-2.425 5.216-5.335v-1.33c0-0.737-0.597-1.334-1.334-1.334s-1.334 0.597-1.334 1.334v0 1.332c0 1.511-1.175 2.668-2.546 2.668-1.369 0-2.546-1.154-2.546-2.668v-1.332z"></path>
</svg>
