<!-- Generated by IcoMoon.io -->
<svg version="1.1" xmlns="http://www.w3.org/2000/svg" width="32" height="32" viewBox="0 0 32 32">
<path d="M20.759 2.663h-10.139c-2.745 0-5.088 2.096-5.538 4.953l-2.341 14.818c-0.572 3.614 2.068 6.903 5.538 6.903h7.41c0.775 0 1.403-0.663 1.403-1.481v-4.446c0-3.275 2.514-5.929 5.614-5.929h3.49c0.868 0 1.527-0.823 1.385-1.726l-1.284-8.139c-0.453-2.857-2.795-4.953-5.538-4.953zM20.953 8.59c0 3.070-2.357 5.559-5.264 5.559s-5.266-2.492-5.266-5.559v-1.481c0-0.615 0.471-1.111 1.052-1.111 0.583 0 1.052 0.496 1.051 1.111v1.481c0 1.842 1.417 3.337 3.161 3.337s3.157-1.495 3.157-3.337v-1.481c0-0.615 0.473-1.111 1.054-1.111s1.052 0.496 1.051 1.111v1.481zM24.471 21.566l0.372-0.393c0.465-0.501 1.127-0.813 1.862-0.813s1.397 0.312 1.86 0.812l0.001 0.002c1.028 1.086 1.028 2.843 0 3.929l-2.606 2.75c-0.372 0.401-0.901 0.652-1.489 0.652s-1.118-0.25-1.488-0.65l-0.001-0.001-2.606-2.75c-0.478-0.514-0.772-1.206-0.772-1.966s0.294-1.452 0.773-1.967l-0.002 0.002c0.465-0.502 1.127-0.814 1.862-0.814s1.397 0.313 1.86 0.813l0.002 0.002 0.37 0.395z"></path>
</svg>
