<!-- Generated by IcoMoon.io -->
<svg version="1.1" xmlns="http://www.w3.org/2000/svg" width="32" height="32" viewBox="0 0 32 32">
<path d="M24.283 17.63c0.726 0.008 1.312 0.598 1.312 1.326 0 0.003 0 0.007-0 0.010v-0 2.667h2.43c0.725 0 1.312 0.597 1.312 1.333 0 0.003 0 0.007 0 0.011 0 0.727-0.586 1.317-1.312 1.323h-2.43v2.668c0 0.003 0 0.006 0 0.009 0 0.727-0.586 1.317-1.311 1.323h-0.001c-0.726-0.007-1.312-0.597-1.312-1.323 0-0.003 0-0.006 0-0.010v0-2.67h-2.432c-0.726-0.007-1.312-0.597-1.312-1.323 0-0.004 0-0.008 0-0.012v0.001c0-0.736 0.587-1.332 1.312-1.332h2.432v-2.665c-0-0.003-0-0.006-0-0.009 0-0.727 0.586-1.318 1.311-1.326h0.001zM11.328 2.663c-3.214 0-5.904 2.391-6.421 5.577l-2.156 13.339c-0.649 4.014 2.354 7.758 6.421 7.758h7.648c0.737 0 1.334-0.597 1.334-1.334s-0.597-1.334-1.334-1.334h-7.648c-2.329 0-4.19-2.176-3.787-4.665l2.156-13.337c0.315-1.957 1.943-3.337 3.787-3.337h9.344c1.845 0 3.47 1.381 3.788 3.337l1.463 9.049c0.131 0.611 0.666 1.062 1.307 1.062 0.737 0 1.335-0.598 1.335-1.335 0-0.054-0.003-0.107-0.009-0.159l0.001 0.006-1.463-9.052c-0.517-3.186-3.207-5.577-6.423-5.577h-9.339zM13.454 7.998c0-0.737-0.597-1.334-1.334-1.334s-1.334 0.597-1.334 1.334v0 1.335c0 2.908 2.295 5.332 5.212 5.332 2.919 0 5.216-2.425 5.216-5.332v-1.335c0-0.737-0.597-1.334-1.334-1.334s-1.334 0.597-1.334 1.334v0 1.335c0 1.508-1.175 2.668-2.546 2.668-1.369 0-2.546-1.157-2.546-2.668v-1.335z"></path>
</svg>
