<!-- Generated by IcoMoon.io -->
<svg version="1.1" xmlns="http://www.w3.org/2000/svg" width="32" height="32" viewBox="0 0 32 32">
<path d="M5.332 5.332c0.736 0 1.335 0.597 1.335 1.335v18.665c0 0.737-0.597 1.334-1.334 1.334s-1.334-0.597-1.334-1.334v0-18.665c0-0.738 0.597-1.335 1.333-1.335zM27.33 5.511c0.403 0.234 0.67 0.664 0.67 1.156 0 0 0 0 0 0.001v-0 18.665c0 0 0 0.001 0 0.002 0 0.736-0.597 1.332-1.332 1.332-0.248 0-0.48-0.068-0.678-0.185l0.006 0.003-16-9.333c-0.399-0.235-0.663-0.663-0.663-1.152s0.264-0.917 0.656-1.148l0.006-0.003 16-9.333c0.192-0.114 0.424-0.181 0.671-0.181 0.244 0 0.473 0.066 0.67 0.18l-0.006-0.003z"></path>
</svg>
