<!-- Generated by IcoMoon.io -->
<svg version="1.1" xmlns="http://www.w3.org/2000/svg" width="32" height="32" viewBox="0 0 32 32">
<path d="M4.67 5.508c0.19-0.111 0.418-0.176 0.662-0.176 0.248 0 0.481 0.068 0.68 0.186l-0.006-0.003 16 9.333c0.399 0.235 0.663 0.663 0.663 1.152s-0.264 0.917-0.656 1.148l-0.006 0.003-16 9.333c-0.193 0.114-0.424 0.182-0.672 0.182-0.736 0-1.332-0.597-1.332-1.332 0-0.001 0-0.001 0-0.002v0-18.665c0-0.48 0.256-0.919 0.67-1.157zM26.668 5.332c0.736 0 1.332 0.599 1.332 1.335v18.665c0 0.737-0.597 1.334-1.334 1.334s-1.334-0.597-1.334-1.334v0-18.665c0-0.736 0.597-1.335 1.335-1.335zM6.668 8.99v14.023l12.021-7.012-12.023-7.012z"></path>
</svg>
