<!-- Generated by IcoMoon.io -->
<svg version="1.1" xmlns="http://www.w3.org/2000/svg" width="32" height="32" viewBox="0 0 32 32">
<path d="M22.249 4.366c0.535 0.505 0.558 1.348 0.052 1.883-0.818 0.864-1.929 1.49-3.019 1.902-1.097 0.412-2.283 0.649-3.323 0.649-2.027 0-4.487-0.83-6.19-2.377-0.268-0.245-0.436-0.596-0.436-0.986 0-0.736 0.597-1.333 1.333-1.333 0.346 0 0.661 0.132 0.898 0.348l-0.001-0.001c1.172 1.067 2.976 1.682 4.395 1.682 0.672 0 1.538-0.16 2.382-0.478 0.852-0.32 1.57-0.759 2.025-1.239 0.243-0.256 0.587-0.416 0.967-0.416 0.355 0 0.678 0.139 0.917 0.366l-0.001-0.001z"></path>
</svg>
