<!-- Generated by IcoMoon.io -->
<svg version="1.1" xmlns="http://www.w3.org/2000/svg" width="32" height="32" viewBox="0 0 32 32">
<path d="M21.746 6.857c0.757 0 1.371 0.614 1.372 1.371v12.46l2.021-1.822c0.242-0.219 0.565-0.353 0.919-0.353 0.758 0 1.372 0.614 1.372 1.372 0 0.404-0.175 0.767-0.452 1.018l-0.001 0.001-4.311 3.886c-0.242 0.218-0.564 0.352-0.918 0.352s-0.676-0.134-0.919-0.353l0.001 0.001-4.311-3.886c-0.279-0.252-0.454-0.615-0.454-1.019 0-0.758 0.614-1.372 1.372-1.372 0.354 0 0.676 0.134 0.919 0.353l-0.001-0.001 2.021 1.822v-12.46c0-0.757 0.614-1.371 1.371-1.371h0zM9.335 7.209c0.242-0.218 0.564-0.352 0.918-0.352s0.676 0.134 0.919 0.353l-0.001-0.001 4.311 3.886c0.279 0.252 0.454 0.615 0.454 1.019 0 0.758-0.614 1.372-1.372 1.372-0.354 0-0.676-0.134-0.919-0.353l0.001 0.001-2.021-1.822v12.46c0 0.006 0 0.013 0 0.021 0 0.758-0.614 1.372-1.372 1.372s-1.372-0.614-1.372-1.372c0-0.007 0-0.015 0-0.022v0.001-12.46l-2.021 1.822c-0.242 0.219-0.565 0.353-0.919 0.353-0.758 0-1.372-0.614-1.372-1.372 0-0.404 0.175-0.767 0.452-1.018l0.001-0.001 4.311-3.886z"></path>
</svg>
