<!-- Generated by IcoMoon.io -->
<svg version="1.1" xmlns="http://www.w3.org/2000/svg" width="32" height="32" viewBox="0 0 32 32">
<path d="M13.858 3.621c0.41-0.797 1.226-1.333 2.168-1.333s1.758 0.536 2.162 1.319l0.006 0.014 3.097 6.094 6.427 1.188c1.143 0.22 1.994 1.213 1.994 2.404 0 0.631-0.239 1.206-0.631 1.64l0.002-0.002-4.594 5.104 0.878 6.903c0.245 1.943-1.774 3.374-3.513 2.491l-5.829-2.96-5.833 2.962c-1.737 0.882-3.753-0.539-3.515-2.478l0.821-6.697-4.617-5.367c-0.369-0.426-0.593-0.985-0.593-1.597 0-1.186 0.845-2.175 1.965-2.398l0.016-0.003 6.526-1.248 3.063-6.037zM16.027 5.806l-2.741 5.394c-0.343 0.674-0.974 1.15-1.714 1.292l-5.931 1.133 4.206 4.892c0.45 0.523 0.658 1.212 0.576 1.897l-0.736 6 5.241-2.661c0.32-0.165 0.698-0.262 1.098-0.262s0.779 0.097 1.112 0.269l-0.014-0.006 5.227 2.656-0.786-6.215c-0.092-0.706 0.133-1.417 0.608-1.945l4.16-4.622-5.808-1.074c-0.76-0.144-1.384-0.625-1.721-1.278l-0.006-0.014-2.77-5.456z"></path>
</svg>
