<!-- Generated by IcoMoon.io -->
<svg version="1.1" xmlns="http://www.w3.org/2000/svg" width="32" height="32" viewBox="0 0 32 32">
<path d="M15.058 2.882c0.183-0.357 0.549-0.598 0.971-0.598s0.788 0.24 0.969 0.592l0.003 0.006 3.588 7.070c0.154 0.298 0.433 0.514 0.766 0.577l0.007 0.001 7.458 1.381c0.511 0.1 0.891 0.545 0.891 1.078 0 0.281-0.106 0.537-0.279 0.731l0.001-0.001-5.31 5.904c-0.175 0.194-0.283 0.452-0.283 0.735 0 0.048 0.003 0.095 0.009 0.141l-0.001-0.005 1.012 7.982c0.006 0.042 0.009 0.090 0.009 0.14 0 0.602-0.488 1.090-1.090 1.090-0.179 0-0.348-0.043-0.497-0.12l0.006 0.003-6.768-3.438c-0.143-0.074-0.312-0.118-0.491-0.118s-0.348 0.043-0.497 0.12l0.006-0.003-6.777 3.444c-0.144 0.074-0.313 0.118-0.493 0.118-0.602 0-1.090-0.488-1.090-1.090 0-0.049 0.003-0.097 0.009-0.144l-0.001 0.006 0.949-7.74c0.005-0.041 0.008-0.088 0.008-0.135 0-0.274-0.1-0.524-0.266-0.716l0.001 0.001-5.326-6.194c-0.164-0.191-0.264-0.44-0.264-0.714 0-0.53 0.376-0.973 0.876-1.075l0.007-0.001 7.566-1.449c0.338-0.066 0.615-0.281 0.765-0.572l0.003-0.006 3.552-7.001z"></path>
</svg>
