<!-- Generated by IcoMoon.io -->
<svg version="1.1" xmlns="http://www.w3.org/2000/svg" width="32" height="32" viewBox="0 0 32 32">
<path d="M15.993 4c-6.627 0-12 5.373-12 12s5.373 12 12 12v0c6.627 0 12-5.373 12-12s-5.373-12-12-12v0zM1.326 16c-0.001-0.053-0.001-0.116-0.001-0.179 0-8.101 6.567-14.668 14.668-14.668s14.668 6.567 14.668 14.668c0 0.063-0 0.126-0.001 0.189l0-0.010c-0.101 8.023-6.629 14.488-14.666 14.488s-14.565-6.465-14.666-14.479l-0-0.010zM10.658 12c0-0.736 0.599-1.332 1.335-1.332h8c0.736 0 1.332 0.594 1.332 1.332v8c0 0.736-0.597 1.332-1.332 1.332h-8c-0.001 0-0.001 0-0.002 0-0.736 0-1.332-0.597-1.332-1.332v0-8z"></path>
</svg>
