<!-- Generated by IcoMoon.io -->
<svg version="1.1" xmlns="http://www.w3.org/2000/svg" width="32" height="32" viewBox="0 0 32 32">
<path d="M4.772 16.172v8.834c0 1.074 0.35 2.144 1.029 2.967 0.686 0.832 1.675 1.365 2.779 1.365h14.825c1.104 0 2.094-0.532 2.779-1.365 0.679-0.823 1.028-1.892 1.029-2.967v-8.571c-2.146 1.422-5.499 1.102-7.214-0.96-0.947 1.177-2.388 1.924-4.003 1.924-1.619 0-3.063-0.751-4.003-1.923l-0.008-0.010c-1.79 2.121-5.097 2.347-7.214 0.707zM22.304 22.786c-0.818 0.862-1.932 1.49-3.024 1.899-1.097 0.414-2.286 0.649-3.328 0.649-2.034 0-4.496-0.828-6.201-2.377-0.268-0.245-0.436-0.596-0.436-0.986 0-0.737 0.597-1.334 1.334-1.334 0.347 0 0.662 0.132 0.899 0.349l-0.001-0.001c1.177 1.067 2.983 1.682 4.404 1.683 0.672 0 1.541-0.16 2.387-0.478 0.852-0.32 1.573-0.759 2.027-1.239 0.238-0.223 0.56-0.361 0.913-0.361 0.738 0 1.337 0.599 1.337 1.337 0 0.328-0.118 0.628-0.314 0.861l0.002-0.002zM5.399 4.912c0.721-1.348 2.119-2.249 3.727-2.249 0.014 0 0.028 0 0.042 0l-0.002-0h13.333c1.554 0 2.978 0.818 3.703 2.128l1.92 3.47c5.232 7.76-8.121 9.584-8.121 2.67 0 0 0.098 3.831-4.199 3.735-4.105-0.092-3.813-3.417-3.817-3.714-0.023 6.892-13.026 4.663-8.279-2.711l1.694-3.328z"></path>
</svg>
