<!-- Generated by IcoMoon.io -->
<svg version="1.1" xmlns="http://www.w3.org/2000/svg" width="32" height="32" viewBox="0 0 32 32">
<path d="M20.56 3.762c-2.638-1.968-6.482-1.968-9.12 0l-4.311 3.218c-1.584 1.179-2.558 2.962-2.558 4.898v11.461c0 3.692 3.372 6.375 7.117 6.375h8.622c3.746 0 7.118-2.683 7.117-6.377v-11.456c0-1.936-0.974-3.717-2.56-4.898l-4.306-3.221zM16 8.082c2.231 0 4.039 1.808 4.039 4.039s-1.808 4.039-4.039 4.039v0c-2.231 0-4.039-1.808-4.039-4.039s1.808-4.039 4.039-4.039v0z"></path>
</svg>
