<!-- Generated by IcoMoon.io -->
<svg version="1.1" xmlns="http://www.w3.org/2000/svg" width="32" height="32" viewBox="0 0 32 32">
<path d="M18.919 5.961c-1.664-1.243-4.174-1.243-5.838 0l-4.311 3.216c-0.962 0.72-1.456 1.714-1.456 2.702v11.461c0 1.833 1.774 3.632 4.375 3.632h8.622c2.601 0 4.375-1.799 4.375-3.634v-11.456c0-0.985-0.494-1.982-1.456-2.702l-4.311-3.218zM11.44 3.762c2.638-1.968 6.482-1.968 9.12 0l4.311 3.218c1.584 1.179 2.558 2.962 2.558 4.898v11.461c0 3.692-3.372 6.375-7.117 6.375h-8.622c-3.746 0-7.118-2.683-7.117-6.377v-11.456c0-1.936 0.974-3.717 2.56-4.898l4.308-3.218zM16 10.825c-0.716 0-1.296 0.58-1.296 1.296s0.58 1.296 1.296 1.296v0c0.692-0.029 1.243-0.598 1.243-1.295s-0.55-1.265-1.24-1.295l-0.003-0zM11.961 12.121c-0.001-0.028-0.001-0.061-0.001-0.094 0-2.231 1.808-4.039 4.039-4.039s4.039 1.808 4.039 4.039c0 0.033-0 0.066-0.001 0.099l0-0.005c-0.053 2.19-1.84 3.945-4.038 3.945s-3.985-1.755-4.038-3.94l-0-0.005z"></path>
</svg>
