<!-- Generated by IcoMoon.io -->
<svg version="1.1" xmlns="http://www.w3.org/2000/svg" width="32" height="32" viewBox="0 0 32 32">
<path d="M16 1.333c0.736 0 1.332 0.597 1.332 1.335v1.406c5.575 0.64 9.954 5.020 10.589 10.539l0.005 0.056h1.406c0.736 0 1.332 0.597 1.332 1.333s-0.597 1.332-1.332 1.332h-1.406c-0.641 5.574-5.021 9.952-10.539 10.587l-0.056 0.005v1.408c0 0.736-0.597 1.332-1.332 1.332s-1.332-0.597-1.332-1.332v-1.408c-5.573-0.641-9.951-5.019-10.587-10.537l-0.005-0.056h-1.408c-0.736 0-1.333-0.597-1.333-1.332s0.597-1.332 1.333-1.332h1.408c0.64-5.574 5.019-9.953 10.537-10.589l0.056-0.005v-1.406c0-0.738 0.594-1.335 1.332-1.335zM16 6.668c-5.154 0-9.332 4.178-9.332 9.332s4.178 9.332 9.332 9.332v0c5.154 0 9.332-4.178 9.332-9.332s-4.178-9.332-9.332-9.332v0zM12.228 12.228c0.965-0.965 2.299-1.562 3.772-1.562 2.946 0 5.334 2.388 5.334 5.334 0 1.473-0.597 2.806-1.562 3.772v0c-0.965 0.965-2.299 1.562-3.772 1.562-2.946 0-5.334-2.388-5.334-5.334 0-1.473 0.597-2.806 1.562-3.772v0z"></path>
</svg>
