<!-- Generated by IcoMoon.io -->
<svg version="1.1" xmlns="http://www.w3.org/2000/svg" width="32" height="32" viewBox="0 0 32 32">
<path d="M8.498 10.738c0 0.014 0-0.012 0 0h-1.968c-0.001 0-0.001 0-0.002 0-2.132 0-3.861 1.728-3.861 3.861 0 0.002 0 0.005 0 0.007v-0 10.862c0.003 2.133 1.73 3.861 3.862 3.865h1.966v-18.594zM11.212 29.332h11.358c0.837 0 1.692-0.075 2.706-0.775 0.67-0.503 1.157-1.207 1.39-2.012l0.012-0.039 2.51-10.841c0.094-0.317 0.147-0.681 0.147-1.058 0-2.135-1.729-3.866-3.864-3.87h-5.006l0.674-1.742c0.112-0.406 0.176-0.871 0.176-1.352 0-2.054-1.172-3.835-2.884-4.709l-0.030-0.014c-0.2-0.098-0.432-0.17-0.676-0.205l-0.012-0.001c-0.165-0.025-0.362-0.042-0.561-0.048l-0.008-0h-2.898c-0.59-0.007-1.118 0.471-1.312 1.028l-1.721 4.706v20.93z"></path>
</svg>
