<!-- Generated by IcoMoon.io -->
<svg version="1.1" xmlns="http://www.w3.org/2000/svg" width="32" height="32" viewBox="0 0 32 32">
<path d="M16.775 26.526l2.123-5.689c0.022-0.062 0.045-0.114 0.070-0.163l-0.004 0.008c0.393-0.783 1.020-1.4 1.787-1.771l0.023-0.010c-0.015-0.075-0.023-0.161-0.023-0.249v-13.239h-11.705c-0.001 0-0.002 0-0.003 0-0.502 0-0.926 0.332-1.065 0.788l-0.002 0.008-2.51 10.834-0.012 0.041c-0.028 0.094-0.044 0.202-0.044 0.314 0 0.439 0.249 0.82 0.614 1.009l0.006 0.003c0.145 0.075 0.316 0.12 0.498 0.121h6.876c0 0 0.001 0 0.001 0 0.758 0 1.372 0.614 1.372 1.372 0 0.149-0.024 0.293-0.068 0.428l0.003-0.010-1.23 3.458c-0.040 0.17-0.064 0.366-0.064 0.567 0 0.952 0.52 1.782 1.292 2.222l0.013 0.007c0.053 0.007 0.126 0.012 0.228 0.016 0.087 0.002 0.188 0.003 0.291 0.003 0.231 0 0.46-0.006 0.687-0.018l-0.032 0.001c0.297-0.014 0.594-0.032 0.876-0.050zM23.495 5.412v13.118h1.975c0.618-0.006 1.117-0.508 1.12-1.127v-10.867c-0.003-0.619-0.502-1.12-1.119-1.127h-1.973zM22.423 21.275c-0.412 0.001-0.772 0.226-0.964 0.559l-0.003 0.005-2.395 6.464c-0.194 0.558-0.722 1.038-1.312 1.028h-2.898c-0.207-0.006-0.404-0.023-0.597-0.051l0.028 0.003c-0.257-0.035-0.49-0.108-0.704-0.212l0.014 0.006c-1.423-0.724-2.459-2.034-2.796-3.604l-0.006-0.035c-0.072-0.327-0.113-0.703-0.113-1.088 0-0.483 0.065-0.951 0.185-1.395l-0.009 0.037 0.674-1.719h-4.997c-0.002 0-0.004 0-0.007 0-1.891 0-3.464-1.362-3.791-3.158l-0.004-0.024c-0.040-0.209-0.062-0.449-0.062-0.694 0-0.377 0.054-0.742 0.154-1.087l-0.007 0.027 2.523-10.885c0.484-1.622 1.961-2.784 3.709-2.788h16.423c2.133 0.008 3.86 1.738 3.863 3.872v10.862c0 0.005 0 0.010 0 0.016 0 2.131-1.727 3.858-3.858 3.858-0.002 0-0.003 0-0.005 0h-3.047z"></path>
</svg>
