<!-- Generated by IcoMoon.io -->
<svg version="1.1" xmlns="http://www.w3.org/2000/svg" width="32" height="32" viewBox="0 0 32 32">
<path d="M15.225 5.474l-2.123 5.689c-0.022 0.062-0.045 0.114-0.070 0.163l0.004-0.008c-0.393 0.784-1.019 1.401-1.787 1.773l-0.023 0.010c0.016 0.078 0.023 0.16 0.023 0.247v13.239h11.705c0.001 0 0.002 0 0.003 0 0.502 0 0.926-0.332 1.065-0.788l0.002-0.008 2.51-10.834 0.012-0.041c0.028-0.094 0.044-0.201 0.044-0.312 0-0.439-0.249-0.821-0.613-1.010l-0.006-0.003c-0.145-0.075-0.316-0.12-0.498-0.121h-6.876c-0 0-0.001 0-0.001 0-0.758 0-1.372-0.614-1.372-1.372 0-0.149 0.024-0.293 0.068-0.428l-0.003 0.010 1.23-3.458c0.040-0.17 0.064-0.366 0.064-0.567 0-0.952-0.52-1.782-1.292-2.222l-0.013-0.007c-0.065-0.008-0.144-0.013-0.224-0.016l-0.005-0c-0.088-0.002-0.192-0.004-0.296-0.004-0.229 0-0.456 0.006-0.681 0.019l0.031-0.001c-0.297 0.014-0.594 0.032-0.876 0.050zM8.505 26.587v-13.118h-1.975c-0.001 0-0.003 0-0.005 0-0.616 0-1.115 0.499-1.115 1.115 0 0.005 0 0.010 0 0.014v-0.001 10.862c0.004 0.618 0.502 1.119 1.119 1.127h1.973zM9.577 10.725c0.412-0.001 0.772-0.226 0.964-0.559l0.003-0.005 2.395-6.464c0.194-0.558 0.722-1.035 1.312-1.028h2.898c0.185 0.007 0.382 0.021 0.569 0.048 0.16 0.023 0.427 0.075 0.69 0.206 1.423 0.723 2.459 2.034 2.796 3.604l0.006 0.035c0.072 0.327 0.113 0.703 0.113 1.088 0 0.483-0.065 0.951-0.185 1.395l0.009-0.037-0.674 1.719h4.997c0.001 0 0.003 0 0.005 0 1.891 0 3.464 1.362 3.793 3.158l0.004 0.024c0.040 0.209 0.062 0.449 0.062 0.694 0 0.377-0.054 0.742-0.154 1.087l0.007-0.027-2.523 10.885c-0.484 1.622-1.96 2.785-3.709 2.788h-16.423c-1.028 0-2.012-0.409-2.734-1.136-0.698-0.701-1.129-1.668-1.129-2.736 0-0 0-0 0-0v0-10.862c-0-0.005-0-0.010-0-0.016 0-2.131 1.727-3.858 3.858-3.858 0.002 0 0.003 0 0.005 0h3.047z"></path>
</svg>
