<!-- Generated by IcoMoon.io -->
<svg version="1.1" xmlns="http://www.w3.org/2000/svg" width="32" height="32" viewBox="0 0 32 32">
<path d="M23.504 21.262c0-0.014 0 0.012 0 0h1.966c2.133 0 3.863-1.729 3.863-3.863 0-0.002 0-0.003 0-0.005v0-10.862c-0.003-2.133-1.73-3.861-3.862-3.865h-1.966v18.594zM20.788 2.667h-11.357c-0.837 0-1.692 0.075-2.706 0.775-0.67 0.503-1.157 1.207-1.39 2.012l-0.012 0.039-2.51 10.841c-0.093 0.316-0.147 0.68-0.147 1.056 0 2.135 1.729 3.867 3.863 3.872h5.006l-0.674 1.742c-0.112 0.406-0.176 0.871-0.176 1.352 0 2.054 1.172 3.835 2.884 4.709l0.030 0.014c0.261 0.13 0.526 0.183 0.688 0.206 0.188 0.027 0.384 0.041 0.569 0.048h2.898c0.59 0.007 1.118-0.471 1.312-1.028l1.721-4.706v-20.93z"></path>
</svg>
