<!-- Generated by IcoMoon.io -->
<svg version="1.1" xmlns="http://www.w3.org/2000/svg" width="32" height="32" viewBox="0 0 32 32">
<path d="M4.114 2.286c-2.272 0-4.114 1.842-4.114 4.114v0 4.114c0 1.634 1.381 2.576 2.384 2.903 1.218 0.393 2.005 1.44 2.004 2.583s-0.786 2.19-2.004 2.583c-1.003 0.329-2.384 1.271-2.384 2.903v4.114c0 2.272 1.842 4.114 4.114 4.114v0h23.771c2.272 0 4.114-1.842 4.114-4.114v0-4.114c0-1.634-1.381-2.576-2.384-2.903-1.218-0.393-2.005-1.44-2.004-2.583s0.786-2.19 2.004-2.583c1.003-0.329 2.384-1.271 2.384-2.903v-4.114c0-2.272-1.842-4.114-4.114-4.114v0h-23.771zM13.074 6.4c0.757 0 1.371 0.614 1.371 1.372v2.743c-0.012 0.749-0.621 1.351-1.371 1.351s-1.36-0.602-1.371-1.35v-2.744c0-0.758 0.614-1.372 1.372-1.372v0zM13.074 13.257c0.757 0 1.371 0.614 1.371 1.371v2.743c-0.012 0.749-0.621 1.351-1.371 1.351s-1.36-0.602-1.371-1.35v-2.744c0-0.757 0.614-1.371 1.372-1.371v0zM14.446 21.486v2.743c0 0.006 0 0.013 0 0.021 0 0.758-0.614 1.372-1.372 1.372s-1.372-0.614-1.372-1.372c0-0.007 0-0.015 0-0.022v0.001-2.743c0.012-0.749 0.621-1.351 1.371-1.351s1.36 0.602 1.371 1.35v0.001z"></path>
</svg>
