<!-- Generated by IcoMoon.io -->
<svg version="1.1" xmlns="http://www.w3.org/2000/svg" width="32" height="32" viewBox="0 0 32 32">
<path d="M4 18c-0-0.013-0-0.029-0-0.044 0-6.6 5.35-11.95 11.95-11.95 2.859 0 5.483 1.004 7.54 2.678l-0.022-0.017 0.969-0.969c0.51-0.512 1.298-0.578 1.824-0.085 0.271 0.259 0.44 0.623 0.44 1.027s-0.169 0.768-0.439 1.027l-0.001 0.001-0.928 0.864c1.657 2.035 2.661 4.659 2.661 7.518 0 6.6-5.35 11.95-11.95 11.95-0.015 0-0.031-0-0.046-0h0.002c-0.015 0-0.033 0-0.050 0-6.6 0-11.95-5.35-11.95-11.95 0-0.018 0-0.035 0-0.053v0.003zM6.668 18c-0 0.017-0 0.037-0 0.057 0 5.123 4.153 9.275 9.275 9.275 0.020 0 0.040-0 0.060-0h-0.003c0.017 0 0.037 0 0.057 0 5.123 0 9.275-4.153 9.275-9.275 0-0.020-0-0.040-0-0.060v0.003c0-0.017 0-0.037 0-0.057 0-5.123-4.153-9.275-9.275-9.275-0.020 0-0.040 0-0.060 0h0.003c-0.017-0-0.037-0-0.057-0-5.123 0-9.275 4.153-9.275 9.275 0 0.020 0 0.040 0 0.060v-0.003zM14.668 18v-5.332c0-0.8 0.533-1.335 1.332-1.335s1.332 0.535 1.332 1.335v5.332c0 0.8-0.532 1.332-1.332 1.332s-1.332-0.532-1.332-1.332zM13.332 4.668c-0.8 0-1.332-0.535-1.332-1.335s0.533-1.333 1.332-1.333h5.335c0.8 0 1.332 0.533 1.332 1.333s-0.532 1.335-1.332 1.335h-5.335z"></path>
</svg>
