<!-- Generated by IcoMoon.io -->
<svg version="1.1" xmlns="http://www.w3.org/2000/svg" width="32" height="32" viewBox="0 0 32 32">
<path d="M16 6c-0.015-0-0.033-0-0.050-0-6.6 0-11.95 5.35-11.95 11.95 0 0.018 0 0.035 0 0.053v-0.003c-0 0.015-0 0.033-0 0.050 0 6.6 5.35 11.95 11.95 11.95 0.018 0 0.035-0 0.053-0h-0.003c0.013 0 0.029 0 0.044 0 6.6 0 11.95-5.35 11.95-11.95 0-2.859-1.004-5.483-2.678-7.54l0.017 0.022 0.928-0.864c0.271-0.259 0.44-0.623 0.44-1.027s-0.169-0.768-0.439-1.027l-0.001-0.001c-0.526-0.494-1.314-0.428-1.824 0.085l-0.969 0.969c-2.020-1.652-4.625-2.657-7.465-2.668h-0.002zM14.668 18v-5.332c0-0.8 0.533-1.335 1.332-1.335s1.332 0.535 1.332 1.335v5.332c0 0.8-0.532 1.332-1.332 1.332s-1.332-0.532-1.332-1.332zM12 3.333c0 0.8 0.533 1.335 1.332 1.335h5.335c0.8 0 1.332-0.535 1.332-1.335s-0.532-1.333-1.332-1.333h-5.335c-0.8 0-1.332 0.533-1.332 1.333z"></path>
</svg>
