<!-- Generated by IcoMoon.io -->
<svg version="1.1" xmlns="http://www.w3.org/2000/svg" width="32" height="32" viewBox="0 0 32 32">
<path d="M10.391 4.656c0.847-1.427 2.38-2.369 4.132-2.37h2.953c1.701 0 3.268 0.905 4.133 2.37l0.921 1.568h5.813c0.006-0 0.013-0 0.021-0 0.758 0 1.372 0.614 1.372 1.372s-0.614 1.372-1.372 1.372c-0.007 0-0.015-0-0.022-0h-24.685c-0.749-0.012-1.351-0.621-1.351-1.371s0.602-1.36 1.35-1.371h5.814l0.921-1.568zM12.652 6.224h6.697l-0.105-0.178c-0.362-0.611-1.017-1.015-1.767-1.017h-2.953c-0.751 0.001-1.407 0.405-1.764 1.008l-0.005 0.010-0.103 0.178zM27.426 9.988h-22.855v14.898c0 2.656 2.139 4.828 4.8 4.828h13.257c2.661 0 4.8-2.172 4.8-4.828v-14.898zM13.205 13.314c0.757 0 1.371 0.614 1.371 1.371v7.582c0 0.006 0 0.013 0 0.021 0 0.758-0.614 1.372-1.372 1.372s-1.372-0.614-1.372-1.372c0-0.007 0-0.015 0-0.022v0.001-7.582c0-0.757 0.614-1.371 1.372-1.371v0zM18.692 13.314c0.757 0 1.371 0.614 1.372 1.371v7.582c0 0.006 0 0.013 0 0.021 0 0.758-0.614 1.372-1.372 1.372s-1.372-0.614-1.372-1.372c0-0.007 0-0.015 0-0.022v0.001-7.582c0-0.757 0.614-1.371 1.371-1.371h0z"></path>
</svg>
