<!-- Generated by IcoMoon.io -->
<svg version="1.1" xmlns="http://www.w3.org/2000/svg" width="32" height="32" viewBox="0 0 32 32">
<path d="M0 7.086c0-2.020 1.637-3.657 3.657-3.657v0h12.983c1.783 0 3.268 1.276 3.592 2.965l0.004 0.023h6.005c0.383 0 0.73 0.158 0.978 0.411l0 0 2.679 2.731c1.301 1.339 2.103 3.168 2.103 5.185 0 0.001 0 0.002 0 0.004v-0 7.973c0 0.758-0.614 1.372-1.372 1.372h-1.591c-0.304 2.505-2.4 4.48-4.992 4.48s-4.688-1.975-4.992-4.48h-4.645c-0.304 2.505-2.4 4.48-4.992 4.48s-4.688-1.975-4.992-4.48h-3.053c-0.757 0-1.372-0.614-1.372-1.372v0-15.634zM20.297 20.064c0.917-1.046 2.255-1.703 3.747-1.703 0.001 0 0.001 0 0.002 0h-0c2.048 0 3.788 1.234 4.576 2.987h0.636v-6.603c0-0.608-0.117-1.212-0.343-1.771-0.239-0.581-0.569-1.077-0.979-1.496l0.001 0.001-2.272-2.32h-5.367v10.905zM17.554 21.348v-14.263c-0-0.505-0.41-0.914-0.914-0.914h-12.983c-0.505 0-0.914 0.409-0.914 0.914v14.263h2.098c0.798-1.77 2.545-2.981 4.575-2.987h0.001c2.048 0 3.787 1.234 4.576 2.987h3.561zM9.417 21.104c-1.234 0-2.286 1.031-2.286 2.363 0 1.33 1.052 2.361 2.286 2.361s2.286-1.028 2.286-2.361-1.052-2.363-2.286-2.363zM21.76 23.468c0 1.33 1.052 2.361 2.286 2.361s2.286-1.028 2.286-2.361-1.052-2.363-2.286-2.363-2.286 1.031-2.286 2.363z"></path>
</svg>
