<!-- Generated by IcoMoon.io -->
<svg version="1.1" xmlns="http://www.w3.org/2000/svg" width="32" height="32" viewBox="0 0 32 32">
<path d="M3.657 3.428c-2.021 0-3.657 1.714-3.657 3.831v16.379c0 0.793 0.615 1.435 1.372 1.436h2.784c-0.026-0.208-0.041-0.448-0.041-0.693v-0c0-3.108 2.405-5.417 5.371-5.417s5.372 2.308 5.372 5.417c0 0.235-0.014 0.466-0.041 0.693h2.741c-0.027-0.228 0 0.235 0 0v-18.514c0-1.874-1.413-3.129-3.202-3.129h-10.697zM20.366 6.558v13.406s1.326-1.065 3.749-0.999c2.967 0 5.372 2.308 5.371 5.417 0 0.235-0.014 0.466-0.041 0.693h1.184c0.757 0 1.372-0.64 1.372-1.436v-8.354c0-1.006-0.183-2.002-0.544-2.935-0.377-0.967-0.905-1.796-1.563-2.503l0.004 0.005-2.677-2.862c-0.245-0.266-0.594-0.433-0.983-0.434h-5.872zM28.114 24.572c0 2.209-1.791 4-4 4s-4-1.791-4-4v0c0-2.209 1.791-4 4-4s4 1.791 4 4v0zM13.486 24.572c0 2.209-1.791 4-4 4s-4-1.791-4-4v0c0-2.209 1.791-4 4-4s4 1.791 4 4v0z"></path>
</svg>
