<!-- Generated by IcoMoon.io -->
<svg version="1.1" xmlns="http://www.w3.org/2000/svg" width="32" height="32" viewBox="0 0 32 32">
<path d="M16 5.028c6.059 0 10.972 4.912 10.972 10.972s-4.912 10.972-10.972 10.972c-6.059 0-10.972-4.912-10.972-10.972v0c-0.012-0.749-0.621-1.351-1.371-1.351s-1.36 0.602-1.371 1.35v0.001c0 0 0 0 0 0 0 7.574 6.14 13.714 13.714 13.714s13.714-6.14 13.714-13.714c0-7.574-6.14-13.714-13.714-13.714-3.603 0-6.882 1.39-9.33 3.663l0.009-0.008v-2.283c0-0.006 0-0.013 0-0.021 0-0.757-0.614-1.372-1.372-1.372s-1.372 0.614-1.372 1.372c0 0.007 0 0.015 0 0.022v-0.001 6.171c0 0.758 0.614 1.372 1.372 1.372v0h6.064c0.749-0.012 1.351-0.621 1.351-1.371s-0.602-1.36-1.35-1.371h-3.338c1.999-2.113 4.823-3.429 7.954-3.429 0.004 0 0.008 0 0.013 0h-0.001z"></path>
</svg>
