<!-- Generated by IcoMoon.io -->
<svg version="1.1" xmlns="http://www.w3.org/2000/svg" width="32" height="32" viewBox="0 0 32 32">
<path d="M9.28 3.428c0.758 0 1.372 0.614 1.372 1.372v0 4.48c0 0.758-0.614 1.372-1.372 1.372v0h-4.48c-0.758 0-1.372-0.614-1.372-1.372s0.614-1.372 1.372-1.372h3.108v-3.108c0-0.758 0.614-1.372 1.372-1.372v0zM23.991 8.009c-0.898-0.899-2.14-1.454-3.511-1.454s-2.612 0.556-3.511 1.454l-2.24 2.24c-0.251 0.272-0.61 0.441-1.008 0.441-0.758 0-1.372-0.614-1.372-1.372 0-0.398 0.17-0.757 0.44-1.007l0.001-0.001 2.24-2.24c1.384-1.334 3.269-2.156 5.347-2.156 4.257 0 7.707 3.451 7.707 7.707 0 2.077-0.822 3.963-2.158 5.349l0.002-0.002-2.24 2.24c-0.244 0.225-0.571 0.364-0.93 0.364-0.758 0-1.372-0.614-1.372-1.372 0-0.359 0.138-0.687 0.364-0.931l-0.001 0.001 2.24-2.24c0.899-0.898 1.454-2.14 1.454-3.511s-0.556-2.612-1.454-3.511v0zM20.329 11.671c0.248 0.248 0.401 0.591 0.401 0.969s-0.153 0.721-0.401 0.969l-6.72 6.72c-0.244 0.225-0.571 0.364-0.93 0.364-0.758 0-1.372-0.614-1.372-1.372 0-0.359 0.138-0.687 0.364-0.931l-0.001 0.001 6.72-6.72c0.248-0.248 0.591-0.401 0.969-0.401s0.721 0.153 0.969 0.401l-0-0zM10.249 12.791c0.248 0.248 0.401 0.591 0.401 0.969s-0.153 0.721-0.401 0.969l-2.24 2.24c-0.899 0.899-1.454 2.14-1.454 3.511 0 2.742 2.223 4.965 4.965 4.965 1.371 0 2.612-0.556 3.511-1.454l2.24-2.24c0.244-0.225 0.571-0.364 0.93-0.364 0.758 0 1.372 0.614 1.372 1.372 0 0.359-0.138 0.687-0.364 0.931l0.001-0.001-2.24 2.24c-1.384 1.334-3.269 2.156-5.347 2.156-4.257 0-7.707-3.451-7.707-7.707 0-2.077 0.822-3.963 2.158-5.349l-0.002 0.002 2.24-2.24c0.248-0.248 0.591-0.401 0.969-0.401s0.721 0.153 0.969 0.401l-0-0zM21.348 22.72c0-0.758 0.614-1.372 1.372-1.372h4.48c0.758 0 1.372 0.614 1.372 1.372s-0.614 1.372-1.372 1.372v0h-3.108v3.108c0 0.758-0.614 1.372-1.372 1.372s-1.372-0.614-1.372-1.372v-4.48z"></path>
</svg>
