<!-- Generated by IcoMoon.io -->
<svg version="1.1" xmlns="http://www.w3.org/2000/svg" width="32" height="32" viewBox="0 0 32 32">
<path d="M16 5.028c-1.365 0-2.546 0.727-3.175 1.794-0.243 0.407-0.681 0.675-1.182 0.675-0.758 0-1.372-0.614-1.372-1.372 0-0.257 0.071-0.498 0.194-0.703l-0.003 0.006c1.138-1.895 3.183-3.143 5.518-3.143 0.007 0 0.014 0 0.021 0h-0.001c3.511 0 6.4 2.8 6.4 6.309v1.097h1.372c2.020 0 3.657 1.637 3.657 3.657v12.709c0 2.020-1.637 3.657-3.657 3.657h-15.543c-2.020-0-3.657-1.637-3.657-3.657v0-12.709c0-2.020 1.637-3.657 3.657-3.657h11.429v-1.097c0-1.945-1.614-3.566-3.657-3.566zM14.628 18.468v2.469c0 0.758 0.614 1.372 1.372 1.372s1.372-0.614 1.372-1.372v0-2.469c0-0.758-0.614-1.372-1.372-1.372s-1.372 0.614-1.372 1.372v0z"></path>
</svg>
