<!-- Generated by IcoMoon.io -->
<svg version="1.1" xmlns="http://www.w3.org/2000/svg" width="32" height="32" viewBox="0 0 32 32">
<path d="M16 17.097c-0.757 0-1.371 0.614-1.372 1.371v2.469c0 0.758 0.614 1.372 1.372 1.372s1.372-0.614 1.372-1.372v0-2.469c-0-0.757-0.614-1.371-1.372-1.371v0zM12.825 6.823c0.652-1.082 1.821-1.794 3.156-1.794 0.007 0 0.013 0 0.020 0h-0.001c2.043 0 3.657 1.621 3.657 3.566v1.097h-11.429c-2.020 0-3.657 1.637-3.657 3.657v12.709c0 2.020 1.637 3.657 3.657 3.657h15.543c2.020-0 3.657-1.637 3.657-3.657v-12.709c-0-2.020-1.637-3.657-3.657-3.657h-1.372v-1.097c0-3.508-2.889-6.308-6.4-6.309-0.006-0-0.013-0-0.020-0-2.336 0-4.38 1.248-5.502 3.114l-0.016 0.029c-0.12 0.199-0.19 0.44-0.19 0.697 0 0.758 0.614 1.372 1.372 1.372 0.501 0 0.939-0.268 1.178-0.669l0.003-0.006zM24.686 13.348v12.709c0 0.505-0.409 0.914-0.914 0.914h-15.543c-0.505-0-0.914-0.41-0.914-0.914v0-12.709c0-0.505 0.409-0.914 0.914-0.914h15.543c0.505 0 0.914 0.409 0.914 0.914v0z"></path>
</svg>
