<!-- Generated by IcoMoon.io -->
<svg version="1.1" xmlns="http://www.w3.org/2000/svg" width="32" height="32" viewBox="0 0 32 32">
<path d="M15.058 3.058c0.241-0.241 0.574-0.39 0.942-0.39s0.701 0.149 0.942 0.39l8 8c0.245 0.242 0.397 0.578 0.397 0.949 0 0.736-0.597 1.332-1.332 1.332-0.372 0-0.709-0.153-0.95-0.399l-5.721-5.723v12.782c0 0.736-0.597 1.333-1.333 1.333s-1.333-0.597-1.333-1.333v0-12.782l-5.728 5.723c-0.244 0.262-0.591 0.426-0.977 0.426-0.736 0-1.333-0.597-1.333-1.332 0-0.385 0.164-0.733 0.425-0.976l0.001-0.001 8-8zM4 21.332c0.736 0 1.332 0.599 1.332 1.335v2.665c0 0.001 0 0.002 0 0.003 0 0.736 0.597 1.332 1.332 1.332 0.001 0 0.002 0 0.003 0h18.665c0.001 0 0.002 0 0.003 0 0.736 0 1.332-0.597 1.332-1.332 0-0.001 0-0.002 0-0.003v0-2.665c0-0.736 0.597-1.332 1.332-1.332s1.332 0.597 1.332 1.332v2.665c0 2.209-1.791 4-4 4v0h-18.665c-2.209 0-4-1.791-4-4v0-2.665c0-0.736 0.594-1.335 1.332-1.335z"></path>
</svg>
