<!-- Generated by IcoMoon.io -->
<svg version="1.1" xmlns="http://www.w3.org/2000/svg" width="32" height="32" viewBox="0 0 32 32">
<path d="M16 5.028c-2.478 0-4.375 1.902-4.375 4.114s1.897 4.114 4.375 4.114 4.375-1.902 4.375-4.114c0-2.213-1.897-4.114-4.375-4.114zM8.882 9.143c0-3.847 3.246-6.857 7.118-6.857 3.87 0 7.118 3.010 7.118 6.857s-3.246 6.857-7.118 6.857c-3.87 0-7.118-3.010-7.118-6.857zM9.479 21.387c-1.698 0.809-2.165 1.664-2.164 2.155s0.466 1.346 2.164 2.156c1.6 0.763 3.902 1.273 6.521 1.273s4.923-0.51 6.521-1.273c1.698-0.809 2.165-1.664 2.164-2.156 0-0.494-0.466-1.346-2.164-2.155-1.6-0.763-3.902-1.273-6.521-1.273s-4.923 0.51-6.521 1.273zM8.297 18.912c2.043-0.976 4.768-1.541 7.703-1.54s5.659 0.565 7.703 1.54c1.941 0.926 3.726 2.473 3.726 4.631s-1.785 3.705-3.726 4.631c-2.043 0.976-4.768 1.541-7.703 1.541s-5.659-0.565-7.703-1.541c-1.941-0.926-3.726-2.473-3.726-4.631s1.785-3.705 3.726-4.631z"></path>
</svg>
