<!-- Generated by IcoMoon.io -->
<svg version="1.1" xmlns="http://www.w3.org/2000/svg" width="32" height="32" viewBox="0 0 32 32">
<path d="M20.332 13.412c-0.511 0.821-1.127 1.519-1.841 2.102l-0.015 0.012c0.504 0.173 1.086 0.273 1.69 0.273 2.964 0 5.367-2.403 5.367-5.367 0-2.823-2.179-5.137-4.947-5.351l-0.018-0.001c0.441 0.818 0.75 1.714 0.898 2.665 1.011 0.491 1.696 1.51 1.696 2.689 0 1.593-1.25 2.894-2.822 2.976l-0.007 0zM24.935 26.354c0.505-0.778 0.805-1.73 0.805-2.751 0-0.012-0-0.025-0-0.037v0.002c0.497-0.201 0.924-0.472 1.293-0.806l-0.004 0.003c0.274-0.27 0.302-0.441 0.302-0.503 0-0.068-0.027-0.238-0.302-0.508-0.279-0.274-0.741-0.574-1.41-0.852-0.24-0.105-0.55-0.217-0.868-0.314l-0.067-0.018c-0.846-1.172-2.16-2.194-3.799-2.972 2.148 0.073 4.128 0.466 5.65 1.099 0.841 0.352 1.6 0.8 2.167 1.358 0.572 0.562 1.012 1.308 1.013 2.203s-0.441 1.641-1.013 2.203c-0.567 0.558-1.326 1.006-2.167 1.357-0.489 0.203-1.024 0.382-1.6 0.533zM13.714 5.028c-2.478 0-4.375 1.902-4.375 4.114s1.897 4.114 4.375 4.114 4.375-1.902 4.375-4.114c0-2.213-1.897-4.114-4.375-4.114zM6.597 9.143c0-3.847 3.246-6.857 7.118-6.857 3.87 0 7.118 3.010 7.117 6.857s-3.246 6.857-7.117 6.857c-3.87 0-7.118-3.010-7.118-6.857zM7.193 21.387c-1.698 0.809-2.165 1.664-2.165 2.155s0.466 1.346 2.165 2.156c1.6 0.763 3.902 1.273 6.521 1.273s4.923-0.51 6.521-1.273c1.698-0.809 2.165-1.664 2.165-2.156 0-0.494-0.466-1.346-2.165-2.155-1.6-0.763-3.902-1.273-6.521-1.273s-4.923 0.51-6.521 1.273zM6.012 18.912c2.043-0.976 4.768-1.541 7.703-1.54s5.659 0.565 7.703 1.54c1.941 0.926 3.726 2.473 3.726 4.631s-1.785 3.705-3.726 4.631c-2.043 0.976-4.768 1.541-7.703 1.541s-5.659-0.565-7.703-1.541c-1.941-0.926-3.726-2.473-3.726-4.631s1.785-3.705 3.726-4.631z"></path>
</svg>
