<!-- Generated by IcoMoon.io -->
<svg version="1.1" xmlns="http://www.w3.org/2000/svg" width="32" height="32" viewBox="0 0 32 32">
<path d="M21.842 14.603c0-0.631 0.512-1.143 1.143-1.143v0h5.587c0.631 0 1.143 0.512 1.143 1.143s-0.512 1.143-1.143 1.143h-5.587c-0.631 0-1.143-0.512-1.143-1.143v0zM6.597 9.143c0-3.847 3.246-6.857 7.118-6.857 3.87 0 7.118 3.010 7.117 6.857s-3.246 6.857-7.117 6.857c-3.87 0-7.118-3.010-7.118-6.857zM6.012 18.912c2.043-0.976 4.768-1.541 7.703-1.54s5.659 0.565 7.703 1.54c1.941 0.926 3.726 2.473 3.726 4.631s-1.785 3.705-3.726 4.631c-2.043 0.976-4.768 1.541-7.703 1.541s-5.659-0.565-7.703-1.541c-1.941-0.926-3.726-2.473-3.726-4.631s1.785-3.705 3.726-4.631z"></path>
</svg>
