<!-- Generated by IcoMoon.io -->
<svg version="1.1" xmlns="http://www.w3.org/2000/svg" width="32" height="32" viewBox="0 0 32 32">
<path d="M16 3.2c-0 0-0 0-0 0-7.069 0-12.8 5.731-12.8 12.8 0 3.107 1.107 5.955 2.948 8.172l-0.017-0.021c2.102-3.285 5.732-5.431 9.863-5.431 0.002 0 0.005 0 0.007 0h-0c4.153 0 7.799 2.169 9.87 5.431 1.824-2.196 2.931-5.044 2.931-8.151 0-7.069-5.731-12.8-12.8-12.8-0 0-0 0-0 0h0zM23.474 26.391c-1.459-2.684-4.258-4.474-7.474-4.474s-6.015 1.791-7.452 4.43l-0.022 0.044c2.066 1.506 4.654 2.409 7.454 2.409 0.007 0 0.014 0 0.022-0h-0.001c2.791 0 5.372-0.892 7.474-2.409zM0 16c0-8.837 7.163-16 16-16s16 7.163 16 16v0c0 8.837-7.163 16-16 16s-16-7.163-16-16v0zM16 8.96c-1.502 0-2.72 1.218-2.72 2.72s1.218 2.72 2.72 2.72v0c1.502 0 2.72-1.218 2.72-2.72s-1.218-2.72-2.72-2.72v0zM10.080 11.68c0-3.27 2.65-5.92 5.92-5.92s5.92 2.65 5.92 5.92v0c0 3.27-2.65 5.92-5.92 5.92s-5.92-2.65-5.92-5.92v0z"></path>
</svg>
