<!-- Generated by IcoMoon.io -->
<svg version="1.1" xmlns="http://www.w3.org/2000/svg" width="32" height="32" viewBox="0 0 32 32">
<path d="M32 16c0 4.823-2.133 9.143-5.506 12.078-2.785 2.436-6.454 3.922-10.471 3.922-0.008 0-0.016 0-0.024-0h0.001c-0.007 0-0.015 0-0.023 0-4.017 0-7.687-1.486-10.49-3.938l0.019 0.016c-3.382-2.949-5.506-7.266-5.506-12.078 0-8.837 7.163-16 16-16s16 7.163 16 16c0 0 0 0 0 0v0zM16 27.2c0.006 0 0.013 0 0.021 0 3.126 0 5.952-1.286 7.977-3.358l0.002-0.002c-1.728-2.802-4.668-4.64-8-4.64s-6.272 1.84-8 4.64c2.027 2.074 4.853 3.36 7.979 3.36 0.007 0 0.015 0 0.022-0h-0.001zM16 16c2.651 0 4.8-2.149 4.8-4.8s-2.149-4.8-4.8-4.8v0c-2.651 0-4.8 2.149-4.8 4.8s2.149 4.8 4.8 4.8v0z"></path>
</svg>
