<!-- Generated by IcoMoon.io -->
<svg version="1.1" xmlns="http://www.w3.org/2000/svg" width="32" height="32" viewBox="0 0 32 32">
<path d="M24 9.332v0.229l2.686-1.719c0.378-0.218 0.831-0.346 1.314-0.346 1.471 0 2.664 1.191 2.668 2.662v11.687c-0.002 1.47-1.195 2.661-2.665 2.661-0.484 0-0.938-0.129-1.33-0.355l0.013 0.007-2.686-1.721v0.228c0 2.209-1.791 4-4 4v0h-14.668c-2.209 0-4-1.791-4-4v0-13.33c0-2.209 1.791-4 4-4v0h14.668c2.209 0 4 1.791 4 4v0zM10 16c1.105 0 2-0.895 2-2s-0.895-2-2-2v0c-1.105 0-2 0.895-2 2s0.895 2 2 2v0z"></path>
</svg>
