<!-- Generated by IcoMoon.io -->
<svg version="1.1" xmlns="http://www.w3.org/2000/svg" width="32" height="32" viewBox="0 0 32 32">
<path d="M5.332 8h14.668c0.736 0 1.332 0.597 1.332 1.332v0 13.335c0 0.736-0.597 1.332-1.332 1.332h-14.668c-0.736 0-1.333-0.597-1.333-1.332v0-13.335c0-0.736 0.597-1.332 1.333-1.332v0zM24 9.563v-0.228c0-2.209-1.791-4-4-4v0h-14.668c-2.209 0-4 1.791-4 4v0 13.332c0 2.209 1.791 4 4 4v0h14.668c2.209 0 4-1.791 4-4v0-0.229l2.686 1.719c0.378 0.218 0.831 0.346 1.314 0.346 1.47 0 2.663-1.19 2.668-2.659v-11.687c-0-1.473-1.195-2.667-2.668-2.667-0.434 0-0.844 0.104-1.206 0.288l0.015-0.007c-0.049 0.024-0.090 0.047-0.129 0.072l0.005-0.003-2.686 1.721zM24 12.729l4-2.56v11.664l-4-2.562v-6.542zM12 14c0 1.105-0.895 2-2 2s-2-0.895-2-2v0c0-1.105 0.895-2 2-2s2 0.895 2 2v0z"></path>
</svg>
