<!-- Generated by IcoMoon.io -->
<svg version="1.1" xmlns="http://www.w3.org/2000/svg" width="32" height="32" viewBox="0 0 32 32">
<path d="M13.285 4.041c0.133-0.027 0.285-0.043 0.441-0.043 1.254 0 2.272 1.015 2.274 2.269v19.463c0 0.743-0.423 1.495-1.065 1.915-0.334 0.224-0.745 0.357-1.187 0.357-0.050 0-0.1-0.002-0.15-0.005l0.007 0c-0.579-0.050-1.093-0.291-1.487-0.66l0.001 0.001-4.512-4.512v-0.005c-0.096-0.096-0.229-0.155-0.376-0.155-0.002 0-0.004 0-0.006 0h-3.225c-1.473 0-2.667-1.194-2.667-2.668v0-8c0-1.473 1.194-2.668 2.667-2.668h3.225c0 0 0.001 0 0.002 0 0.148 0 0.282-0.060 0.378-0.157l0-0h0.004l4.512-4.514c0.309-0.307 0.705-0.527 1.149-0.617l0.015-0.002zM13.332 7.218l-3.838 3.84c-0.58 0.583-1.382 0.944-2.269 0.944-0.002 0-0.004 0-0.005 0h-3.22v8h3.221c0.002 0 0.005 0 0.007 0 0.886 0 1.688 0.36 2.267 0.942l3.84 3.84v-17.561z"></path>
</svg>
