<!-- Generated by IcoMoon.io -->
<svg version="1.1" xmlns="http://www.w3.org/2000/svg" width="32" height="32" viewBox="0 0 32 32">
<path d="M3.703 3.612c0.242-0.247 0.579-0.4 0.952-0.4 0.364 0 0.693 0.146 0.934 0.382l23.109 22.624c0.265 0.244 0.43 0.593 0.43 0.981 0 0.736-0.597 1.332-1.332 1.332-0.377 0-0.718-0.157-0.96-0.409l-0-0-10.834-10.606v8.215c0 0.743-0.423 1.495-1.065 1.918-0.333 0.222-0.743 0.355-1.184 0.355-0.052 0-0.103-0.002-0.153-0.005l0.007 0c-0.579-0.050-1.093-0.291-1.487-0.66l0.001 0.001-4.512-4.514c-0.097-0.099-0.231-0.16-0.381-0.16-0 0-0.001 0-0.001 0h-3.225c-1.472 0-2.666-1.193-2.667-2.665v-8c0-1.473 1.194-2.668 2.667-2.668v0h3.225c0.002 0 0.003 0 0.005 0 0.115 0 0.222-0.037 0.31-0.099l-0.002 0.001-3.817-3.735c-0.247-0.242-0.4-0.579-0.4-0.952 0-0.364 0.146-0.693 0.382-0.934l-0 0zM9.449 11.104c-0.575 0.554-1.358 0.896-2.221 0.896-0.003 0-0.005 0-0.008 0h-3.22v8h3.221c0.002 0 0.005 0 0.007 0 0.886 0 1.688 0.36 2.267 0.941l0 0v0.003l3.84 3.84v-9.879l-3.886-3.803zM12.121 4.663l-0.823 0.823 4.702 4.603v-3.822c-0.003-1.254-1.020-2.269-2.274-2.269-0.626 0-1.193 0.253-1.604 0.662l0-0zM23.808 17.733l-2.526-2.473c-0.134-0.938-0.495-1.774-1.024-2.475l0.010 0.013c-0.167-0.22-0.267-0.498-0.267-0.8 0-0.736 0.597-1.333 1.333-1.333 0.434 0 0.82 0.208 1.064 0.53l0.002 0.003c0.998 1.32 1.599 2.988 1.599 4.797 0 0.616-0.070 1.215-0.201 1.791l0.010-0.054zM26.885 20.743l1.982 1.943c1.133-1.918 1.802-4.226 1.802-6.691 0-3.68-1.492-7.012-3.905-9.423l-0-0c-0.241-0.242-0.575-0.391-0.944-0.391-0.737 0-1.334 0.597-1.334 1.334 0 0.368 0.149 0.701 0.39 0.943v0c1.929 1.93 3.123 4.596 3.123 7.541 0 1.729-0.411 3.361-1.141 4.806l0.028-0.061z"></path>
</svg>
