<!-- Generated by IcoMoon.io -->
<svg version="1.1" xmlns="http://www.w3.org/2000/svg" width="32" height="32" viewBox="0 0 32 32">
<path d="M13.285 4.041c0.133-0.027 0.285-0.043 0.441-0.043 1.254 0 2.272 1.015 2.274 2.269v19.463c0 0.743-0.423 1.495-1.065 1.915-0.334 0.224-0.745 0.357-1.187 0.357-0.050 0-0.1-0.002-0.15-0.005l0.007 0c-0.579-0.050-1.093-0.291-1.487-0.66l0.001 0.001-4.512-4.512v-0.005c-0.096-0.096-0.229-0.155-0.376-0.155-0.002 0-0.004 0-0.006 0h-3.225c-1.473 0-2.667-1.194-2.667-2.668v0-8c0-1.473 1.194-2.668 2.667-2.668h3.225c0 0 0.001 0 0.002 0 0.148 0 0.282-0.060 0.378-0.157l0-0h0.004l4.512-4.514c0.309-0.307 0.705-0.527 1.149-0.617l0.015-0.002zM24.875 6.572c0.241-0.242 0.575-0.391 0.943-0.391s0.702 0.149 0.943 0.391l0 0c2.412 2.412 3.903 5.744 3.903 9.425s-1.492 7.013-3.903 9.425l0-0c-0.241 0.241-0.575 0.391-0.943 0.391-0.736 0-1.333-0.597-1.333-1.333 0-0.368 0.149-0.701 0.39-0.943v0c1.929-1.93 3.123-4.595 3.123-7.539s-1.193-5.61-3.123-7.539v0c-0.241-0.241-0.391-0.575-0.391-0.943s0.149-0.702 0.391-0.943v0zM20.532 10.93c0.22-0.166 0.498-0.266 0.799-0.266 0.436 0 0.823 0.209 1.066 0.533l0.002 0.003c0.999 1.32 1.6 2.989 1.6 4.799s-0.601 3.479-1.615 4.819l0.015-0.020c-0.246 0.325-0.632 0.533-1.066 0.533-0.736 0-1.333-0.597-1.333-1.333 0-0.302 0.1-0.58 0.269-0.803l-0.002 0.003c0.666-0.88 1.067-1.993 1.067-3.199s-0.401-2.319-1.076-3.212l0.010 0.013c-0.167-0.22-0.268-0.499-0.268-0.802 0-0.434 0.208-0.82 0.53-1.064l0.003-0.002z"></path>
</svg>
