<!-- Generated by IcoMoon.io -->
<svg version="1.1" xmlns="http://www.w3.org/2000/svg" width="32" height="32" viewBox="0 0 32 32">
<path d="M3.703 3.612c0.242-0.247 0.579-0.4 0.952-0.4 0.364 0 0.693 0.146 0.934 0.382l23.111 22.624c0.247 0.242 0.4 0.579 0.4 0.952 0 0.736-0.597 1.333-1.333 1.333-0.363 0-0.692-0.145-0.933-0.381l0 0-10.834-10.606v8.215c0 0.743-0.423 1.495-1.065 1.918-0.333 0.222-0.743 0.355-1.184 0.355-0.052 0-0.103-0.002-0.153-0.005l0.007 0c-0.579-0.050-1.093-0.291-1.487-0.66l0.001 0.001-4.512-4.514c-0.097-0.099-0.231-0.16-0.381-0.16-0 0-0.001 0-0.001 0h-3.225c-1.472 0-2.666-1.193-2.667-2.665v-8c0-1.473 1.194-2.668 2.667-2.668v0h3.225c0.002 0 0.003 0 0.005 0 0.115 0 0.222-0.037 0.31-0.099l-0.002 0.001-3.817-3.735c-0.247-0.242-0.4-0.579-0.4-0.952 0-0.364 0.146-0.693 0.382-0.934l-0 0zM12.121 4.663l-0.823 0.823 4.702 4.603v-3.822c-0.003-1.254-1.020-2.269-2.274-2.269-0.626 0-1.193 0.253-1.604 0.662l0-0zM23.808 17.733l-2.526-2.473c-0.134-0.938-0.495-1.774-1.024-2.475l0.010 0.013c-0.167-0.22-0.267-0.498-0.267-0.8 0-0.736 0.597-1.333 1.333-1.333 0.434 0 0.82 0.208 1.064 0.53l0.002 0.003c0.998 1.32 1.599 2.988 1.599 4.797 0 0.616-0.070 1.215-0.201 1.791l0.010-0.054zM26.885 20.743l1.982 1.943c1.131-1.918 1.8-4.226 1.801-6.69v-0c-0.001-3.681-1.493-7.012-3.906-9.424l-0-0c-0.241-0.241-0.575-0.391-0.943-0.391-0.736 0-1.333 0.597-1.333 1.333 0 0.368 0.149 0.701 0.39 0.943v0c1.93 1.93 3.124 4.596 3.124 7.54 0 1.729-0.412 3.362-1.142 4.806l0.028-0.061z"></path>
</svg>
