<!-- Generated by IcoMoon.io -->
<svg version="1.1" xmlns="http://www.w3.org/2000/svg" width="32" height="32" viewBox="0 0 32 32">
<path d="M13.332 12c0 0.736-0.597 1.332-1.332 1.332s-1.332-0.597-1.332-1.332v0c0-0.736 0.597-1.332 1.332-1.332s1.332 0.597 1.332 1.332v0zM21.332 20c0 0.736-0.597 1.332-1.332 1.332s-1.332-0.597-1.332-1.332v0c0-0.736 0.597-1.332 1.332-1.332s1.332 0.597 1.332 1.332v0zM20.969 11.031c0.248 0.248 0.401 0.591 0.401 0.969s-0.153 0.721-0.401 0.969l-8 8c-0.251 0.272-0.61 0.441-1.008 0.441-0.758 0-1.372-0.614-1.372-1.372 0-0.398 0.17-0.757 0.44-1.007l0.001-0.001 8-8c0.248-0.248 0.591-0.401 0.969-0.401s0.721 0.153 0.969 0.401l-0-0zM0 6.4c0-2.272 1.842-4.114 4.114-4.114v0h23.771c2.272 0 4.114 1.842 4.114 4.114v0 4.114c0 1.634-1.381 2.576-2.384 2.903-1.218 0.393-2.005 1.44-2.004 2.583s0.786 2.19 2.004 2.583c1.003 0.327 2.384 1.268 2.384 2.903v4.114c0 2.272-1.842 4.114-4.114 4.114h-23.771c-2.272 0-4.114-1.842-4.114-4.114v0-4.114c0-1.634 1.381-2.576 2.384-2.903 1.218-0.393 2.005-1.44 2.004-2.583s-0.786-2.19-2.004-2.583c-1.003-0.329-2.384-1.271-2.384-2.903v-4.114zM4.114 5.028c-0.757 0-1.372 0.614-1.372 1.372v0 4.092c0.014 0.023 0.030 0.043 0.048 0.062l-0-0c0.121 0.113 0.269 0.2 0.433 0.25l0.008 0.002c2.217 0.725 3.899 2.738 3.9 5.195s-1.68 4.473-3.9 5.193c-0.172 0.052-0.32 0.14-0.442 0.254l0.001-0.001c-0.018 0.018-0.034 0.037-0.047 0.058l-0.001 0.001v4.094c0 0.758 0.614 1.372 1.372 1.372v0h23.771c0.758 0 1.372-0.614 1.372-1.372v0-4.092c-0.014-0.023-0.030-0.043-0.048-0.062l0 0c-0.121-0.113-0.269-0.2-0.433-0.25l-0.008-0.002c-2.217-0.725-3.899-2.738-3.9-5.195s1.68-4.473 3.9-5.193c0.172-0.052 0.32-0.139 0.441-0.254l-0.001 0.001c0.018-0.018 0.034-0.037 0.047-0.058l0.001-0.001v-4.094c0-0.758-0.614-1.372-1.372-1.372v0h-23.771z"></path>
</svg>
