<!-- Generated by IcoMoon.io -->
<svg version="1.1" xmlns="http://www.w3.org/2000/svg" width="32" height="32" viewBox="0 0 32 32">
<path d="M4.114 2.286c-2.272 0-4.114 1.842-4.114 4.114v0 4.114c0 1.634 1.381 2.576 2.384 2.903 1.218 0.393 2.005 1.44 2.004 2.583s-0.786 2.19-2.004 2.583c-1.003 0.329-2.384 1.271-2.384 2.903v4.114c0 2.272 1.842 4.114 4.114 4.114v0h23.771c2.272 0 4.114-1.842 4.114-4.114v0-4.114c0-1.634-1.381-2.576-2.384-2.903-1.218-0.393-2.005-1.44-2.004-2.583s0.786-2.19 2.004-2.583c1.003-0.329 2.384-1.271 2.384-2.903v-4.114c0-2.272-1.842-4.114-4.114-4.114v0h-23.771zM12.969 20.969c-0.244 0.225-0.571 0.364-0.93 0.364-0.758 0-1.372-0.614-1.372-1.372 0-0.359 0.138-0.687 0.364-0.931l-0.001 0.001 8-8c0.244-0.225 0.571-0.364 0.93-0.364 0.758 0 1.372 0.614 1.372 1.372 0 0.359-0.138 0.687-0.364 0.931l0.001-0.001-8 8zM13.335 12c0 0.737-0.597 1.334-1.334 1.334s-1.334-0.597-1.334-1.334v0c0-0.736 0.597-1.332 1.332-1.332s1.332 0.597 1.332 1.332v0zM21.335 20c0 0.737-0.597 1.334-1.334 1.334s-1.334-0.597-1.334-1.334v0c0-0.736 0.597-1.332 1.332-1.332s1.332 0.597 1.332 1.332v0z"></path>
</svg>
