<!-- Generated by IcoMoon.io -->
<svg version="1.1" xmlns="http://www.w3.org/2000/svg" width="32" height="32" viewBox="0 0 32 32">
<path d="M5.134 5.028h21.733c1.406 0 2.391 1.047 2.391 2.156v3.33h-4.48c-3.097 0-5.76 2.375-5.76 5.486s2.663 5.486 5.76 5.486h4.48v3.33c0 1.108-0.985 2.155-2.391 2.156h-21.733c-1.406 0-2.391-1.047-2.391-2.156v-17.632c0-1.108 0.985-2.155 2.391-2.156zM32 7.184c0-2.788-2.384-4.898-5.134-4.898h-21.733c-2.75 0-5.134 2.11-5.134 4.898v17.632c0 2.788 2.384 4.898 5.134 4.898h21.733c2.752 0 5.134-2.112 5.134-4.898v-17.632zM29.257 13.257v5.486h-4.48c-1.751 0-3.017-1.31-3.017-2.743s1.266-2.743 3.017-2.743h4.48z"></path>
</svg>
