<!-- Generated by IcoMoon.io -->
<svg version="1.1" xmlns="http://www.w3.org/2000/svg" width="32" height="32" viewBox="0 0 32 32">
<path d="M15.381 2.818c0.18-0.096 0.393-0.153 0.619-0.153s0.44 0.057 0.627 0.156l-0.007-0.003 10.572 5.547c1.317 0.69 2.142 2.057 2.142 3.543v13.424c0 2.209-1.791 4-4 4v0h-5.332c-0.736 0-1.332-0.597-1.332-1.332v-6.167h-5.335v6.167c0 0.736-0.597 1.332-1.332 1.332v0h-5.332c-2.209 0-4-1.791-4-4v0-13.424c0-1.486 0.823-2.853 2.142-3.543l10.572-5.547zM16 5.508l-9.952 5.218c-0.428 0.228-0.715 0.671-0.716 1.181v13.424c0 0.736 0.597 1.335 1.335 1.335h4v-6.167c0-0.736 0.594-1.335 1.332-1.335h8c0.736 0 1.332 0.599 1.332 1.335v6.167h4c0.001 0 0.002 0 0.003 0 0.736 0 1.332-0.597 1.332-1.332 0-0.001 0-0.002 0-0.003v0-13.424c0-0 0-0 0-0 0-0.51-0.287-0.954-0.708-1.178l-0.007-0.004-9.952-5.218zM10.599 13.332c0-0.736 0.599-1.332 1.335-1.332h7.931c0.737 0 1.334 0.597 1.334 1.334s-0.597 1.334-1.334 1.334v0h-7.931c-0.001 0-0.002 0-0.002 0-0.736 0-1.332-0.597-1.332-1.332 0-0.001 0-0.002 0-0.003v0z"></path>
</svg>
