<!-- Generated by IcoMoon.io -->
<svg version="1.1" xmlns="http://www.w3.org/2000/svg" width="32" height="32" viewBox="0 0 32 32">
<path d="M12.832 1.991c0.909-0.534 2.002-0.849 3.168-0.849s2.259 0.315 3.198 0.865l-0.030-0.016 7.378 4.263c1.907 1.116 3.168 3.153 3.168 5.486v8.521c0 2.263-1.207 4.354-3.168 5.486l-7.378 4.265c-0.909 0.534-2.002 0.849-3.168 0.849s-2.259-0.315-3.198-0.865l0.030 0.016-7.378-4.263c-1.907-1.115-3.168-3.153-3.168-5.486 0-0.001 0-0.001 0-0.002v0-8.521c0-2.263 1.207-4.354 3.168-5.486l7.378-4.265zM14.478 23.428c0 0.821 0.681 1.486 1.522 1.486 0.006 0 0.013 0 0.021 0 0.824 0 1.494-0.663 1.504-1.485v-0.001c-0.010-0.823-0.68-1.486-1.504-1.486-0.007 0-0.015 0-0.022 0h0.001c-0.006-0-0.013-0-0.021-0-0.824 0-1.494 0.663-1.504 1.485v0.001zM14.857 18.972c0 0.617 0.512 1.113 1.143 1.113s1.143-0.498 1.143-1.113v-10.4c-0.009-0.617-0.511-1.113-1.129-1.113-0.005 0-0.010 0-0.015 0h0.001c-0.631 0-1.143 0.498-1.143 1.113v10.4z"></path>
</svg>
