<!-- Generated by IcoMoon.io -->
<svg version="1.1" xmlns="http://www.w3.org/2000/svg" width="32" height="32" viewBox="0 0 32 32">
<path d="M14.715 22.898c0-0.736 0.597-1.333 1.333-1.333s1.333 0.597 1.333 1.333v0c0 0.736-0.597 1.333-1.333 1.333s-1.333-0.597-1.333-1.333v0zM16 5.028c-6.059 0-10.972 4.912-10.972 10.972s4.912 10.972 10.972 10.972v0c6.059 0 10.972-4.912 10.972-10.972s-4.912-10.972-10.972-10.972v0zM2.286 16c0-7.574 6.14-13.714 13.714-13.714s13.714 6.14 13.714 13.714v0c0 7.574-6.14 13.714-13.714 13.714s-13.714-6.14-13.714-13.714v0zM16 8.457c0.757 0 1.371 0.614 1.372 1.371v8.64c0 0.758-0.614 1.372-1.372 1.372s-1.372-0.614-1.372-1.372v0-8.64c0-0.757 0.614-1.371 1.372-1.371v0z"></path>
</svg>
