<!-- Generated by IcoMoon.io -->
<svg version="1.1" xmlns="http://www.w3.org/2000/svg" width="32" height="32" viewBox="0 0 32 32">
<path d="M14.668 22.668c0-0.736 0.597-1.332 1.332-1.332s1.332 0.597 1.332 1.332v0c0 0.736-0.597 1.332-1.332 1.332s-1.332-0.597-1.332-1.332v0zM12.441 2.105c1.019-0.605 2.247-0.963 3.559-0.963s2.539 0.358 3.591 0.981l-0.033-0.018 6.624 3.863c2.128 1.261 3.532 3.546 3.532 6.159 0 0.004 0 0.007 0 0.011v-0.001 7.726c0 0.002 0 0.005 0 0.008 0 2.613-1.404 4.897-3.499 6.141l-0.033 0.018-6.624 3.863c-1.019 0.605-2.247 0.963-3.559 0.963s-2.539-0.358-3.591-0.981l0.033 0.018-6.624-3.863c-2.128-1.262-3.532-3.546-3.532-6.159 0-0.003 0-0.006 0-0.009v0-7.726c0-2.53 1.335-4.887 3.532-6.167l6.624-3.863zM18.126 4.492c-0.609-0.362-1.342-0.576-2.126-0.576s-1.517 0.214-2.145 0.587l0.019-0.011-6.624 3.863c-1.296 0.775-2.151 2.172-2.151 3.768 0 0.005 0 0.011 0 0.016v-0.001 7.726c0 1.577 0.83 3.012 2.151 3.783l6.624 3.863c0.609 0.362 1.342 0.576 2.126 0.576s1.517-0.214 2.145-0.587l-0.019 0.011 6.624-3.863c1.321-0.77 2.151-2.208 2.151-3.783v-7.726c0-1.575-0.83-3.012-2.151-3.783l-6.624-3.863zM16 7.961c0.757 0 1.371 0.614 1.372 1.371v9.335c0 0.758-0.614 1.372-1.372 1.372s-1.372-0.614-1.372-1.372v-9.335c0-0.757 0.614-1.371 1.372-1.371v0z"></path>
</svg>
