<!-- Generated by IcoMoon.io -->
<svg version="1.1" xmlns="http://www.w3.org/2000/svg" width="32" height="32" viewBox="0 0 32 32">
<path d="M12.983 4.062c0.601-1.067 1.726-1.775 3.017-1.775s2.416 0.709 3.008 1.758l0.009 0.017 11.401 20.521c0.274 0.483 0.435 1.062 0.435 1.678 0 1.907-1.546 3.454-3.454 3.454-0 0-0.001 0-0.001 0h-22.797c-1.907-0.001-3.452-1.547-3.452-3.454 0-0.616 0.161-1.194 0.444-1.695l-0.009 0.017 11.397-20.521zM17.486 23.618c0-0.006 0-0.012 0-0.019 0-0.824-0.663-1.494-1.485-1.504h-0.001c-0.823 0.010-1.486 0.68-1.486 1.504 0 0.007 0 0.013 0 0.020v-0.001c0 0.841 0.665 1.525 1.486 1.524s1.486-0.683 1.486-1.524zM17.113 11.428c0-0.631-0.498-1.143-1.113-1.143-0.618 0.008-1.115 0.51-1.115 1.129 0 0.005 0 0.010 0 0.015v-0.001 7.618c0 0.631 0.501 1.143 1.115 1.143 0.617 0 1.113-0.512 1.113-1.143v-7.618z"></path>
</svg>
