<!-- Generated by IcoMoon.io -->
<svg version="1.1" xmlns="http://www.w3.org/2000/svg" width="32" height="32" viewBox="0 0 32 32">
<path d="M17.332 22.668c0 0.736-0.597 1.332-1.332 1.332s-1.332-0.597-1.332-1.332v0c0-0.736 0.597-1.332 1.332-1.332s1.332 0.597 1.332 1.332v0zM12.068 4.585c1.714-3.065 6.153-3.065 7.872 0l10.345 18.469c1.682 3.003-0.517 6.661-3.936 6.661h-20.692c-3.419 0-5.621-3.657-3.936-6.661l10.345-18.469zM17.547 5.927c-0.312-0.539-0.886-0.897-1.543-0.897s-1.231 0.357-1.538 0.888l-0.005 0.009-10.347 18.468c-0.136 0.242-0.216 0.531-0.216 0.839 0 0.959 0.778 1.737 1.737 1.737 0.008 0 0.015-0 0.023-0h20.691c0.006 0 0.014 0 0.022 0 0.959 0 1.737-0.778 1.737-1.737 0-0.308-0.080-0.597-0.221-0.848l0.005 0.009-10.345-18.468zM16 10.514c0.757 0 1.371 0.614 1.372 1.371v6.857c0 0.758-0.614 1.372-1.372 1.372s-1.372-0.614-1.372-1.372v0-6.857c0-0.757 0.614-1.371 1.372-1.371v0z"></path>
</svg>
