<!-- Generated by IcoMoon.io -->
<svg version="1.1" xmlns="http://www.w3.org/2000/svg" width="32" height="32" viewBox="0 0 32 32">
<path d="M16 5.332c3.641 0 7.337 1.351 10.763 4.149 0.418 0.343 0.532 1.028 0.117 1.588l-1.952 2.635c-0.164 0.219-0.262 0.495-0.262 0.794 0 0.737 0.597 1.334 1.334 1.334 0.438 0 0.826-0.211 1.069-0.536l0.003-0.004 1.952-2.635c1.166-1.577 1.067-3.902-0.576-5.241-3.835-3.136-8.114-4.75-12.448-4.75s-8.61 1.614-12.448 4.75c-1.643 1.337-1.746 3.664-0.576 5.241l9.81 13.243c0.737 0.987 1.902 1.618 3.214 1.618s2.477-0.632 3.206-1.608l0.008-0.011 0.821-1.108c0.163-0.219 0.262-0.494 0.262-0.793 0-0.736-0.597-1.333-1.333-1.333-0.437 0-0.825 0.211-1.068 0.536l-0.003 0.003-0.823 1.106c-0.245 0.329-0.634 0.539-1.071 0.539s-0.825-0.211-1.068-0.536l-0.002-0.003-9.808-13.243c-0.416-0.56-0.302-1.246 0.119-1.588 3.424-2.798 7.12-4.148 10.761-4.149zM21.723 17.723c0.241-0.241 0.575-0.391 0.943-0.391s0.702 0.149 0.943 0.391v0l1.886 1.886 1.886-1.886c0.241-0.241 0.575-0.391 0.943-0.391 0.736 0 1.333 0.597 1.333 1.333 0 0.368-0.149 0.702-0.391 0.943v0l-1.886 1.886 1.886 1.886c0.241 0.241 0.391 0.575 0.391 0.943 0 0.736-0.597 1.333-1.333 1.333-0.368 0-0.702-0.149-0.943-0.391l-1.886-1.886-1.886 1.886c-0.241 0.241-0.575 0.391-0.943 0.391-0.736 0-1.333-0.597-1.333-1.333 0-0.368 0.149-0.702 0.391-0.943l1.886-1.886-1.886-1.886c-0.241-0.241-0.391-0.575-0.391-0.943s0.149-0.702 0.391-0.943v0z"></path>
</svg>
