<!-- Generated by IcoMoon.io -->
<svg version="1.1" xmlns="http://www.w3.org/2000/svg" width="32" height="32" viewBox="0 0 32 32">
<path d="M16 6.668c-0.008 0-0.018-0-0.028-0-4.504 0-8.604 1.724-11.678 4.549l0.012-0.011c-0.238 0.225-0.56 0.364-0.915 0.364-0.736 0-1.333-0.597-1.333-1.332 0-0.396 0.173-0.752 0.447-0.996l0.001-0.001c3.534-3.248 8.269-5.239 13.468-5.239 0.009 0 0.017 0 0.026 0h-0.001c0.008 0 0.017-0 0.027-0 5.198 0 9.932 1.99 13.48 5.25l-0.014-0.013c0.267 0.245 0.434 0.595 0.434 0.984 0 0.736-0.597 1.333-1.333 1.333-0.347 0-0.663-0.133-0.9-0.35l0.001 0.001c-3.062-2.813-7.162-4.537-11.666-4.537-0.010 0-0.020 0-0.029 0h0.002zM16 13.332c-0.005 0-0.010 0-0.016 0-2.867 0-5.47 1.136-7.382 2.981l0.003-0.003c-0.239 0.231-0.565 0.373-0.925 0.373-0.736 0-1.333-0.597-1.333-1.333 0-0.377 0.156-0.717 0.408-0.96l0-0c2.388-2.305 5.643-3.726 9.229-3.726 0.005 0 0.010 0 0.015 0h-0.001c3.588 0 6.848 1.419 9.243 3.726 0.252 0.243 0.408 0.583 0.408 0.96 0 0.737-0.597 1.334-1.334 1.334-0.36 0-0.686-0.142-0.926-0.374l0 0c-1.909-1.843-4.511-2.978-7.378-2.978-0.005 0-0.009 0-0.014 0h0.001zM16 20c-1.205 0-2.286 0.53-3.019 1.376-0.246 0.282-0.605 0.458-1.006 0.458-0.736 0-1.333-0.597-1.333-1.333 0-0.335 0.124-0.642 0.328-0.876l-0.001 0.002c1.227-1.409 3.024-2.295 5.027-2.295 0.001 0 0.001 0 0.002 0h-0c2.012 0 3.815 0.892 5.033 2.295 0.203 0.233 0.327 0.539 0.327 0.874 0 0.736-0.597 1.333-1.333 1.333-0.401 0-0.76-0.177-1.004-0.457l-0.001-0.002c-0.735-0.845-1.813-1.376-3.014-1.376-0.002 0-0.004 0-0.006 0h0zM13.332 25.332c0-1.473 1.194-2.668 2.668-2.668s2.668 1.194 2.668 2.668v0c0 1.473-1.194 2.668-2.668 2.668s-2.668-1.194-2.668-2.668v0z"></path>
</svg>
