<!-- Generated by IcoMoon.io -->
<svg version="1.1" xmlns="http://www.w3.org/2000/svg" width="32" height="32" viewBox="0 0 32 32">
<path d="M29.714 16c0-0 0-0 0-0 0-7.574-6.14-13.714-13.714-13.714s-13.714 6.14-13.714 13.714c0 7.574 6.14 13.714 13.714 13.714 3.317 0 6.36-1.178 8.732-3.138l-0.023 0.019c0.053 0.090 0.114 0.168 0.183 0.237l2.217 2.217c0.459 0.459 1.205 0.459 1.664 0l0.277-0.277c0.459-0.457 0.459-1.202 0-1.662l-2.217-2.217c-0.069-0.069-0.147-0.13-0.232-0.18l-0.006-0.003c1.942-2.342 3.12-5.377 3.12-8.688 0-0.008 0-0.016-0-0.024v0.001zM17.372 20.572c0 0.001 0 0.001 0 0.002 0 0.758-0.614 1.372-1.372 1.372s-1.37-0.613-1.372-1.369v-2.976h-2.971c-0.75-0.010-1.353-0.62-1.353-1.371 0-0.749 0.601-1.358 1.347-1.371l0.001-0h2.976v-2.976c0.001-0.757 0.615-1.369 1.372-1.369s1.372 0.614 1.372 1.372c0 0.001 0 0.002 0 0.002v-0 2.972h2.976c0.748 0.013 1.349 0.622 1.349 1.371 0 0.751-0.604 1.361-1.352 1.371h-2.972v2.972z"></path>
</svg>
