<!-- Generated by IcoMoon.io -->
<svg version="1.1" xmlns="http://www.w3.org/2000/svg" width="32" height="32" viewBox="0 0 32 32">
<path d="M9.143 16c0 0.757 0.628 1.372 1.403 1.372h10.907c0.005 0 0.010 0 0.016 0 0.761 0 1.378-0.612 1.387-1.371v-0.001c0-0.757-0.628-1.372-1.403-1.372h-10.908c-0.005-0-0.010-0-0.016-0-0.761 0-1.378 0.612-1.387 1.371v0.001zM16 2.286c7.574 0 13.714 6.14 13.714 13.714 0 3.317-1.178 6.36-3.138 8.732l0.019-0.023c0.090 0.053 0.168 0.114 0.238 0.183l2.217 2.217c0.459 0.459 0.459 1.205 0 1.664l-0.277 0.277c-0.457 0.459-1.205 0.459-1.662 0l-2.217-2.217c-0.069-0.069-0.13-0.147-0.18-0.232l-0.003-0.005c-2.349 1.942-5.391 3.12-8.709 3.12-7.574 0-13.714-6.14-13.714-13.714s6.139-13.713 13.712-13.714h0zM16 5.028c-6.059 0-10.972 4.912-10.972 10.972s4.912 10.972 10.972 10.972v0c6.059 0 10.972-4.912 10.972-10.972s-4.912-10.972-10.972-10.972v0z"></path>
</svg>
